<?xml version="1.0" encoding="utf-8"?>
<!-- Generator: Adobe Illustrator 18.1.1, SVG Export Plug-In . SVG Version: 6.00 Build 0)  -->
<!DOCTYPE svg PUBLIC "-//W3C//DTD SVG 1.1//EN" "http://www.w3.org/Graphics/SVG/1.1/DTD/svg11.dtd">
<svg version="1.1" id="Layer_1" xmlns="http://www.w3.org/2000/svg" xmlns:xlink="http://www.w3.org/1999/xlink" x="0px" y="0px"
	 width="468px" height="340px" viewBox="0 0 468 340" enable-background="new 0 0 468 340" xml:space="preserve">
<g>
	<line fill="none" x1="39.4" y1="214.7" x2="39.4" y2="192.7"/>
	<line fill="none" x1="39.4" y1="192.7" x2="2.7" y2="192.7"/>
	<line fill="none" x1="2.7" y1="192.7" x2="2.7" y2="214.7"/>
	<line fill="none" x1="39.4" y1="214.7" x2="2.7" y2="214.7"/>
</g>
<g>
	<line fill="none" x1="2.7" y1="307.7" x2="39.4" y2="307.7"/>
	<line fill="none" x1="2.7" y1="337.2" x2="54.2" y2="337.2"/>
	<line fill="none" x1="54.2" y1="337.2" x2="54.2" y2="299.8"/>
	<line fill="none" x1="54.2" y1="299.8" x2="39.4" y2="299.8"/>
	<line fill="none" x1="2.7" y1="307.7" x2="2.7" y2="337.2"/>
	<line fill="none" x1="39.4" y1="299.8" x2="39.4" y2="307.7"/>
</g>
<g>
	<line fill="none" x1="39.4" y1="307.2" x2="39.4" y2="284.9"/>
	<line fill="none" x1="39.4" y1="285.4" x2="2.7" y2="285.4"/>
	<line fill="none" x1="2.7" y1="285.4" x2="2.7" y2="307.7"/>
	<line fill="none" x1="39.4" y1="307.7" x2="2.7" y2="307.7"/>
</g>
<g>
	<line fill="none" x1="2.7" y1="169.5" x2="2.7" y2="192.7"/>
	<line fill="none" x1="2.7" y1="192.7" x2="39.4" y2="192.7"/>
	<line fill="none" x1="39.4" y1="192.7" x2="39.4" y2="169.5"/>
	<line fill="none" x1="39.4" y1="169.5" x2="2.7" y2="169.5"/>
</g>
<g>
	<line fill="none" x1="2.7" y1="285.4" x2="39.4" y2="285.4"/>
	<line fill="none" x1="39.4" y1="285.4" x2="39.4" y2="259.4"/>
	<line fill="none" x1="39.4" y1="259.4" x2="2.7" y2="259.4"/>
	<line fill="none" x1="2.7" y1="259.4" x2="2.7" y2="285.4"/>
</g>
<g>
	<line fill="none" x1="2.7" y1="214.7" x2="39.4" y2="214.7"/>
	<line fill="none" x1="39.4" y1="238" x2="39.4" y2="214.7"/>
	<line fill="none" x1="2.7" y1="214.7" x2="2.7" y2="238"/>
	<line fill="none" x1="39.4" y1="238" x2="2.7" y2="238"/>
</g>
<g>
	<line fill="none" x1="2.7" y1="238" x2="39.4" y2="238"/>
	<line fill="none" x1="2.7" y1="259.4" x2="39.4" y2="259.4"/>
	<line fill="none" x1="39.4" y1="259.4" x2="39.4" y2="238"/>
	<line fill="none" x1="2.7" y1="238" x2="2.7" y2="259.4"/>
</g>
<g>
	<line fill="none" x1="92.7" y1="288.4" x2="121.4" y2="288.4"/>
	<line fill="none" x1="121.4" y1="288.4" x2="121.4" y2="253.1"/>
	<line fill="none" x1="121.4" y1="253.1" x2="92.7" y2="253.1"/>
	<line fill="none" x1="92.7" y1="253.1" x2="92.7" y2="288.4"/>
</g>
<g>
	<line fill="none" x1="2.7" y1="147.6" x2="2.7" y2="169.5"/>
	<line fill="none" x1="2.7" y1="169.5" x2="39.4" y2="169.5"/>
	<line fill="none" x1="39.4" y1="169.5" x2="39.4" y2="147.6"/>
	<line fill="none" x1="39.4" y1="147.6" x2="2.7" y2="147.6"/>
</g>
<g>
	<line fill="none" x1="2.7" y1="125.4" x2="2.7" y2="147.6"/>
	<line fill="none" x1="2.7" y1="147.6" x2="39.4" y2="147.6"/>
	<line fill="none" x1="39.4" y1="147.6" x2="39.4" y2="125.4"/>
	<line fill="none" x1="39.4" y1="125.4" x2="2.7" y2="125.4"/>
</g>
<g>
	<line fill="none" x1="2.7" y1="102" x2="2.7" y2="125.4"/>
	<line fill="none" x1="2.7" y1="125.4" x2="39.4" y2="125.4"/>
	<line fill="none" x1="39.4" y1="125.4" x2="39.4" y2="102"/>
	<line fill="none" x1="39.4" y1="102" x2="2.7" y2="102"/>
</g>
<g>
	<line fill="none" x1="2.7" y1="79.9" x2="2.7" y2="102"/>
	<line fill="none" x1="2.7" y1="102" x2="39.4" y2="102"/>
	<line fill="none" x1="39.4" y1="102" x2="39.4" y2="79.9"/>
	<line fill="none" x1="39.4" y1="79.9" x2="2.7" y2="79.9"/>
</g>
<g>
	<line fill="none" x1="50.8" y1="169.5" x2="50.8" y2="192.7"/>
	<line fill="none" x1="78.4" y1="192.7" x2="78.4" y2="169.5"/>
	<line fill="none" x1="78.4" y1="169.5" x2="50.8" y2="169.5"/>
	<line fill="none" x1="78.4" y1="192.7" x2="50.8" y2="192.7"/>
</g>
<g>
	<line fill="none" x1="50.8" y1="147.6" x2="78.4" y2="147.6"/>
	<line fill="none" x1="50.8" y1="147.6" x2="50.8" y2="169.5"/>
	<line fill="none" x1="50.8" y1="169.5" x2="78.4" y2="169.5"/>
	<line fill="none" x1="78.4" y1="169.5" x2="78.4" y2="147.6"/>
</g>
<g>
	<line fill="none" x1="50.8" y1="125.4" x2="50.8" y2="147.6"/>
	<line fill="none" x1="78.4" y1="147.6" x2="78.4" y2="125.4"/>
	<line fill="none" x1="78.4" y1="125.4" x2="50.8" y2="125.4"/>
	<line fill="none" x1="78.4" y1="147.6" x2="50.8" y2="147.6"/>
</g>
<g>
	<line fill="none" x1="50.8" y1="192.7" x2="78.4" y2="192.7"/>
	<line fill="none" x1="50.8" y1="192.7" x2="50.8" y2="214.7"/>
	<line fill="none" x1="78.4" y1="214.7" x2="78.4" y2="192.7"/>
	<line fill="none" x1="78.4" y1="214.7" x2="50.8" y2="214.7"/>
</g>
<g>
	<line fill="none" x1="50.8" y1="288.4" x2="92.7" y2="288.4"/>
	<line fill="none" x1="92.7" y1="288.4" x2="92.7" y2="253.1"/>
	<line fill="none" x1="92.7" y1="253.1" x2="78.4" y2="253.1"/>
	<line fill="none" x1="50.8" y1="258.6" x2="50.8" y2="288.4"/>
	<line fill="none" x1="78.4" y1="253.1" x2="78.4" y2="258.6"/>
	<line fill="none" x1="78.4" y1="258.6" x2="50.8" y2="258.6"/>
</g>
<g>
	<line fill="none" x1="50.8" y1="238" x2="78.4" y2="238"/>
	<line fill="none" x1="50.8" y1="238" x2="50.8" y2="258.6"/>
	<line fill="none" x1="50.8" y1="258.6" x2="78.4" y2="258.6"/>
	<line fill="none" x1="78.4" y1="258.6" x2="78.4" y2="238"/>
</g>
<g>
	<line fill="none" x1="50.8" y1="214.7" x2="78.4" y2="214.7"/>
	<line fill="none" x1="50.8" y1="214.7" x2="50.8" y2="238"/>
	<line fill="none" x1="78.4" y1="238" x2="78.4" y2="214.7"/>
	<line fill="none" x1="78.4" y1="238" x2="50.8" y2="238"/>
</g>
<g>
	<line fill="none" x1="54.2" y1="337.1" x2="92.7" y2="337.1"/>
	<line fill="none" x1="92.7" y1="299.8" x2="54.2" y2="299.8"/>
	<line fill="none" x1="54.2" y1="299.8" x2="54.2" y2="337.1"/>
	<line fill="none" x1="92.7" y1="299.8" x2="92.7" y2="337.1"/>
</g>
<g>
	<line fill="none" x1="92.7" y1="337.1" x2="92.7" y2="299.8"/>
	<line fill="none" x1="92.7" y1="337.1" x2="115.6" y2="337.1"/>
	<line fill="none" x1="115.6" y1="299.8" x2="92.7" y2="299.8"/>
	<line fill="none" x1="115.6" y1="337.1" x2="115.6" y2="299.8"/>
</g>
<g>
	<line fill="none" x1="50.8" y1="102" x2="50.8" y2="125.4"/>
	<line fill="none" x1="50.8" y1="125.4" x2="78.4" y2="125.4"/>
	<line fill="none" x1="78.4" y1="125.4" x2="78.4" y2="102"/>
	<line fill="none" x1="78.4" y1="102" x2="50.8" y2="102"/>
</g>
<g>
	<line fill="none" x1="2.7" y1="55.4" x2="2.7" y2="79.9"/>
	<line fill="none" x1="2.7" y1="79.9" x2="39.4" y2="79.9"/>
	<line fill="none" x1="39.4" y1="79.9" x2="39.4" y2="55.4"/>
	<line fill="none" x1="39.4" y1="55.4" x2="2.7" y2="55.4"/>
</g>
<g>
	<line fill="none" x1="39.4" y1="32.8" x2="2.7" y2="32.8"/>
	<line fill="none" x1="2.7" y1="2.8" x2="54.2" y2="2.8"/>
	<line fill="none" x1="54.2" y1="2.8" x2="54.2" y2="40.1"/>
	<line fill="none" x1="54.2" y1="40.1" x2="39.4" y2="40.1"/>
	<line fill="none" x1="2.7" y1="32.8" x2="2.7" y2="2.8"/>
	<line fill="none" x1="39.4" y1="40.1" x2="39.4" y2="32.8"/>
</g>
<g>
	<line fill="none" x1="2.7" y1="32.8" x2="2.7" y2="55.4"/>
	<line fill="none" x1="2.7" y1="55.4" x2="39.4" y2="55.4"/>
	<line fill="none" x1="39.4" y1="55.4" x2="39.4" y2="32.8"/>
	<line fill="none" x1="39.4" y1="32.8" x2="2.7" y2="32.8"/>
</g>
<g>
	<line fill="none" x1="115.6" y1="337.1" x2="115.6" y2="299.8"/>
	<line fill="none" x1="166.7" y1="337.1" x2="115.6" y2="337.1"/>
	<line fill="none" x1="115.6" y1="299.8" x2="132.9" y2="299.8"/>
	<line fill="none" x1="166.7" y1="306" x2="166.7" y2="337.1"/>
	<line fill="none" x1="132.9" y1="299.8" x2="132.9" y2="306"/>
	<line fill="none" x1="132.9" y1="306" x2="166.7" y2="306"/>
</g>
<g>
	<line fill="none" x1="132.9" y1="281.2" x2="132.9" y2="306"/>
	<line fill="none" x1="132.9" y1="306" x2="166.7" y2="306"/>
	<line fill="none" x1="166.7" y1="306" x2="166.7" y2="281.2"/>
	<line fill="none" x1="132.9" y1="281.2" x2="166.7" y2="281.2"/>
</g>
<g>
	<line fill="none" x1="166.7" y1="281.2" x2="132.9" y2="281.2"/>
	<line fill="none" x1="166.7" y1="281.2" x2="166.7" y2="252.6"/>
	<line fill="none" x1="166.7" y1="252.6" x2="132.9" y2="252.6"/>
	<line fill="none" x1="132.9" y1="252.6" x2="132.9" y2="281.2"/>
</g>
<g>
	<line fill="none" x1="50.8" y1="79.9" x2="50.8" y2="102"/>
	<line fill="none" x1="50.8" y1="102" x2="78.4" y2="102"/>
	<line fill="none" x1="78.4" y1="102" x2="78.4" y2="79.9"/>
	<line fill="none" x1="78.4" y1="79.9" x2="50.8" y2="79.9"/>
</g>
<g>
	<line fill="none" x1="50.8" y1="79.9" x2="50.8" y2="51.6"/>
	<line fill="none" x1="50.8" y1="51.6" x2="92.7" y2="51.6"/>
	<line fill="none" x1="92.7" y1="51.6" x2="92.7" y2="86.5"/>
	<line fill="none" x1="92.7" y1="86.5" x2="78.4" y2="86.5"/>
	<line fill="none" x1="78.4" y1="86.5" x2="78.4" y2="79.9"/>
	<line fill="none" x1="78.4" y1="79.9" x2="50.8" y2="79.9"/>
</g>
<g>
	<line fill="none" x1="92.7" y1="86.5" x2="118.1" y2="86.5"/>
	<line fill="none" x1="118.1" y1="86.5" x2="118.1" y2="51.6"/>
	<line fill="none" x1="118.1" y1="51.6" x2="92.7" y2="51.6"/>
	<line fill="none" x1="92.7" y1="51.6" x2="92.7" y2="86.5"/>
</g>
<g>
	<line fill="none" x1="54.2" y1="2.8" x2="54.2" y2="40.2"/>
	<line fill="none" x1="54.2" y1="40.2" x2="92.7" y2="40.2"/>
	<line fill="none" x1="92.7" y1="40.2" x2="92.7" y2="2.8"/>
	<line fill="none" x1="92.7" y1="2.8" x2="54.2" y2="2.8"/>
</g>
<g>
	<line fill="none" x1="92.7" y1="40.2" x2="115.6" y2="40.2"/>
	<line fill="none" x1="115.6" y1="40.2" x2="115.6" y2="2.8"/>
	<line fill="none" x1="115.6" y1="2.8" x2="92.7" y2="2.8"/>
	<line fill="none" x1="92.7" y1="2.8" x2="92.7" y2="40.2"/>
</g>
<g>
	<line fill="none" x1="166.7" y1="2.8" x2="115.6" y2="2.8"/>
	<line fill="none" x1="115.6" y1="2.8" x2="115.6" y2="40.1"/>
	<line fill="none" x1="115.6" y1="40.1" x2="130.1" y2="40.1"/>
	<line fill="none" x1="166.7" y1="30.5" x2="166.7" y2="2.8"/>
	<line fill="none" x1="130.1" y1="40.1" x2="130.1" y2="30.5"/>
	<line fill="none" x1="130.1" y1="30.5" x2="166.7" y2="30.5"/>
</g>
<g>
	<line fill="none" x1="130" y1="30.5" x2="130" y2="58.6"/>
	<line fill="none" x1="130" y1="58.6" x2="166.7" y2="58.6"/>
	<line fill="none" x1="166.7" y1="58.6" x2="166.7" y2="30.5"/>
	<line fill="none" x1="166.7" y1="30.5" x2="130" y2="30.5"/>
</g>
<g>
	<line fill="none" x1="130" y1="87" x2="168" y2="87"/>
	<line fill="none" x1="168" y1="87" x2="168" y2="58.6"/>
	<line fill="none" x1="168" y1="58.6" x2="130" y2="58.6"/>
	<line fill="none" x1="130" y1="58.6" x2="130" y2="87"/>
</g>
<g>
	<line fill="none" x1="168" y1="49.9" x2="168" y2="87"/>
	<line fill="none" x1="168" y1="87" x2="209.9" y2="87"/>
	<line fill="none" x1="209.9" y1="87" x2="209.9" y2="49.9"/>
	<line fill="none" x1="209.9" y1="49.9" x2="168" y2="49.9"/>
</g>
<g>
	<line fill="none" x1="209.9" y1="49.9" x2="209.9" y2="87"/>
	<line fill="none" x1="209.9" y1="87" x2="233.9" y2="87"/>
	<line fill="none" x1="233.9" y1="87" x2="233.9" y2="49.9"/>
	<line fill="none" x1="233.9" y1="49.9" x2="209.9" y2="49.9"/>
</g>
<g>
	<line fill="none" x1="233.9" y1="49.9" x2="233.9" y2="87"/>
	<line fill="none" x1="233.9" y1="87" x2="257.9" y2="87"/>
	<line fill="none" x1="257.9" y1="87" x2="257.9" y2="49.9"/>
	<line fill="none" x1="257.9" y1="49.9" x2="233.9" y2="49.9"/>
</g>
<g>
	<line fill="none" x1="257.9" y1="49.9" x2="257.9" y2="87"/>
	<line fill="none" x1="257.9" y1="87" x2="300.6" y2="87"/>
	<line fill="none" x1="300.6" y1="87" x2="300.6" y2="49.9"/>
	<line fill="none" x1="300.6" y1="49.9" x2="257.9" y2="49.9"/>
</g>
<g>
	<line fill="none" x1="166.7" y1="252.6" x2="166.7" y2="290.1"/>
	<line fill="none" x1="166.7" y1="290.1" x2="209.9" y2="290.1"/>
	<line fill="none" x1="209.9" y1="252.6" x2="166.7" y2="252.6"/>
	<line fill="none" x1="209.9" y1="252.6" x2="209.9" y2="290.1"/>
</g>
<g>
	<line fill="none" x1="209.9" y1="290.1" x2="209.9" y2="252.6"/>
	<line fill="none" x1="209.9" y1="290.1" x2="233.9" y2="290.1"/>
	<line fill="none" x1="233.9" y1="252.6" x2="209.9" y2="252.6"/>
	<line fill="none" x1="233.9" y1="252.6" x2="233.9" y2="290.1"/>
</g>
<g>
	<line fill="none" x1="233.9" y1="290.1" x2="233.9" y2="252.6"/>
	<line fill="none" x1="233.9" y1="290.1" x2="257.9" y2="290.1"/>
	<line fill="none" x1="257.9" y1="252.6" x2="233.9" y2="252.6"/>
	<line fill="none" x1="257.9" y1="252.6" x2="257.9" y2="290.1"/>
</g>
<g>
	<line fill="none" x1="257.9" y1="290.1" x2="257.9" y2="252.6"/>
	<line fill="none" x1="257.9" y1="290.1" x2="301.4" y2="290.1"/>
	<line fill="none" x1="301.4" y1="290.1" x2="301.4" y2="252.6"/>
	<line fill="none" x1="301.4" y1="252.6" x2="257.9" y2="252.6"/>
</g>
<g>
	<line fill="none" x1="302.5" y1="214.9" x2="302.5" y2="240.6"/>
	<line fill="none" x1="302.5" y1="240.6" x2="349.5" y2="240.6"/>
	<line fill="none" x1="349.5" y1="240.6" x2="349.5" y2="214.9"/>
	<line fill="none" x1="349.5" y1="214.9" x2="302.5" y2="214.9"/>
</g>
<g>
	<line fill="none" x1="301.4" y1="337.1" x2="353.2" y2="337.1"/>
	<line fill="none" x1="353.2" y1="299.8" x2="338.1" y2="299.8"/>
	<line fill="none" x1="301.4" y1="306" x2="301.4" y2="337.1"/>
	<line fill="none" x1="338.1" y1="299.8" x2="338.1" y2="306"/>
	<line fill="none" x1="338.1" y1="306" x2="301.4" y2="306"/>
	<line fill="none" x1="353.2" y1="299.8" x2="353.2" y2="337.1"/>
</g>
<g>
	<line fill="none" x1="353.2" y1="337.1" x2="353.2" y2="299.8"/>
	<line fill="none" x1="353.2" y1="337.1" x2="375.8" y2="337.1"/>
	<line fill="none" x1="375.8" y1="299.8" x2="353.2" y2="299.8"/>
	<line fill="none" x1="375.8" y1="299.8" x2="375.8" y2="337.1"/>
</g>
<g>
	<line fill="none" x1="375.8" y1="337.1" x2="375.8" y2="299.8"/>
	<line fill="none" x1="375.8" y1="337.1" x2="414.3" y2="337.1"/>
	<line fill="none" x1="414.3" y1="337.1" x2="414.3" y2="299.8"/>
	<line fill="none" x1="414.3" y1="299.8" x2="375.8" y2="299.8"/>
</g>
<g>
	<line fill="none" x1="465.4" y1="337.1" x2="414.3" y2="337.1"/>
	<line fill="none" x1="414.3" y1="337.1" x2="414.3" y2="299.8"/>
	<line fill="none" x1="414.3" y1="299.8" x2="428.7" y2="299.8"/>
	<line fill="none" x1="465.4" y1="308" x2="465.4" y2="337.1"/>
	<line fill="none" x1="428.7" y1="299.8" x2="428.7" y2="308"/>
	<line fill="none" x1="428.7" y1="308" x2="465.4" y2="308"/>
</g>
<g>
	<line fill="none" x1="428.7" y1="285.4" x2="428.7" y2="308"/>
	<line fill="none" x1="428.7" y1="308" x2="465.4" y2="308"/>
	<line fill="none" x1="465.4" y1="308" x2="465.4" y2="285.4"/>
	<line fill="none" x1="428.7" y1="285.4" x2="465.4" y2="285.4"/>
</g>
<g>
	<line fill="none" x1="465.4" y1="285.4" x2="428.7" y2="285.4"/>
	<line fill="none" x1="428.7" y1="259.4" x2="428.7" y2="285.4"/>
	<line fill="none" x1="465.4" y1="285.4" x2="465.4" y2="259.4"/>
	<line fill="none" x1="428.7" y1="259.4" x2="465.4" y2="259.4"/>
</g>
<g>
	<line fill="none" x1="465.4" y1="259.4" x2="428.7" y2="259.4"/>
	<line fill="none" x1="428.7" y1="238.1" x2="428.7" y2="259.4"/>
	<line fill="none" x1="465.4" y1="259.4" x2="465.4" y2="238.1"/>
	<line fill="none" x1="428.7" y1="238.1" x2="465.4" y2="238.1"/>
</g>
<g>
	<line fill="none" x1="465.4" y1="238.1" x2="428.7" y2="238.1"/>
	<line fill="none" x1="428.7" y1="214.7" x2="428.7" y2="238.1"/>
	<line fill="none" x1="465.4" y1="238.1" x2="465.4" y2="214.7"/>
	<line fill="none" x1="428.7" y1="214.7" x2="465.4" y2="214.7"/>
</g>
<g>
	<line fill="none" x1="465.4" y1="214.7" x2="428.7" y2="214.7"/>
	<line fill="none" x1="428.7" y1="192.7" x2="428.7" y2="214.7"/>
	<line fill="none" x1="465.4" y1="214.7" x2="465.4" y2="192.7"/>
	<line fill="none" x1="428.7" y1="192.7" x2="465.4" y2="192.7"/>
</g>
<g>
	<line fill="none" x1="465.4" y1="192.7" x2="428.7" y2="192.7"/>
	<line fill="none" x1="428.7" y1="169.5" x2="428.7" y2="192.7"/>
	<line fill="none" x1="465.4" y1="192.7" x2="465.4" y2="169.5"/>
	<line fill="none" x1="428.7" y1="169.5" x2="465.4" y2="169.5"/>
</g>
<g>
	<line fill="none" x1="465.4" y1="169.5" x2="428.7" y2="169.5"/>
	<line fill="none" x1="428.7" y1="147.6" x2="428.7" y2="169.5"/>
	<line fill="none" x1="465.4" y1="169.5" x2="465.4" y2="147.6"/>
	<line fill="none" x1="428.7" y1="147.6" x2="465.4" y2="147.6"/>
</g>
<g>
	<line fill="none" x1="465.4" y1="147.6" x2="428.7" y2="147.6"/>
	<line fill="none" x1="428.7" y1="125.4" x2="428.7" y2="147.6"/>
	<line fill="none" x1="465.4" y1="147.6" x2="465.4" y2="125.4"/>
	<line fill="none" x1="428.7" y1="125.4" x2="465.4" y2="125.4"/>
</g>
<g>
	<line fill="none" x1="465.4" y1="125.4" x2="428.7" y2="125.4"/>
	<line fill="none" x1="428.7" y1="102" x2="428.7" y2="125.4"/>
	<line fill="none" x1="465.4" y1="125.4" x2="465.4" y2="102"/>
	<line fill="none" x1="428.7" y1="102" x2="465.4" y2="102"/>
</g>
<g>
	<line fill="none" x1="465.4" y1="102" x2="428.7" y2="102"/>
	<line fill="none" x1="428.7" y1="79.9" x2="428.7" y2="102"/>
	<line fill="none" x1="465.4" y1="102" x2="465.4" y2="79.9"/>
	<line fill="none" x1="428.7" y1="79.9" x2="465.4" y2="79.9"/>
</g>
<g>
	<line fill="none" x1="465.4" y1="79.9" x2="428.7" y2="79.9"/>
	<line fill="none" x1="428.7" y1="55.4" x2="428.7" y2="79.9"/>
	<line fill="none" x1="465.4" y1="79.9" x2="465.4" y2="55.4"/>
	<line fill="none" x1="428.7" y1="55.4" x2="465.4" y2="55.4"/>
</g>
<g>
	<line fill="none" x1="465.4" y1="55.4" x2="428.7" y2="55.4"/>
	<line fill="none" x1="428.7" y1="32.2" x2="428.7" y2="55.9"/>
	<line fill="none" x1="465.4" y1="55.4" x2="465.4" y2="31.7"/>
	<line fill="none" x1="465.4" y1="31.7" x2="428.7" y2="31.7"/>
</g>
<g>
	<line fill="none" x1="465.4" y1="2.8" x2="414.3" y2="2.8"/>
	<line fill="none" x1="414.3" y1="40.1" x2="428.7" y2="40.1"/>
	<line fill="none" x1="465.4" y1="31.7" x2="465.4" y2="2.8"/>
	<line fill="none" x1="428.7" y1="40.1" x2="428.7" y2="31.7"/>
	<line fill="none" x1="428.7" y1="31.7" x2="465.4" y2="31.7"/>
	<line fill="none" x1="414.3" y1="40.1" x2="414.3" y2="2.8"/>
</g>
<g>
	<line fill="none" x1="414.3" y1="2.8" x2="414.3" y2="40.1"/>
	<line fill="none" x1="375.8" y1="2.8" x2="375.8" y2="40.1"/>
	<line fill="none" x1="375.8" y1="40.1" x2="414.3" y2="40.1"/>
	<line fill="none" x1="414.3" y1="2.8" x2="375.8" y2="2.8"/>
</g>
<g>
	<line fill="none" x1="300.6" y1="87" x2="300.6" y2="58.3"/>
	<line fill="none" x1="300.6" y1="58.3" x2="336.2" y2="58.3"/>
	<line fill="none" x1="336.2" y1="58.3" x2="336.2" y2="87"/>
	<line fill="none" x1="336.2" y1="87" x2="300.6" y2="87"/>
</g>
<g>
	<line fill="none" x1="389.6" y1="192.7" x2="389.6" y2="214.9"/>
	<line fill="none" x1="389.6" y1="214.9" x2="417.3" y2="214.9"/>
	<line fill="none" x1="417.3" y1="214.9" x2="417.3" y2="192.7"/>
	<line fill="none" x1="389.6" y1="192.7" x2="417.3" y2="192.7"/>
</g>
<g>
	<line fill="none" x1="417.3" y1="192.7" x2="389.6" y2="192.7"/>
	<line fill="none" x1="389.6" y1="169.5" x2="389.6" y2="192.7"/>
	<line fill="none" x1="417.3" y1="192.7" x2="417.3" y2="169.5"/>
	<line fill="none" x1="389.6" y1="169.5" x2="417.3" y2="169.5"/>
</g>
<g>
	<line fill="none" x1="417.3" y1="169.5" x2="389.6" y2="169.5"/>
	<line fill="none" x1="389.6" y1="147.6" x2="389.6" y2="169.5"/>
	<line fill="none" x1="417.3" y1="169.5" x2="417.3" y2="147.6"/>
	<line fill="none" x1="389.6" y1="147.6" x2="417.3" y2="147.6"/>
</g>
<g>
	<line fill="none" x1="417.3" y1="147.6" x2="389.6" y2="147.6"/>
	<line fill="none" x1="389.6" y1="125.4" x2="389.6" y2="147.6"/>
	<line fill="none" x1="417.3" y1="147.6" x2="417.3" y2="125.4"/>
	<line fill="none" x1="389.6" y1="125.4" x2="417.3" y2="125.4"/>
</g>
<g>
	<line fill="none" x1="417.3" y1="125.4" x2="389.6" y2="125.4"/>
	<line fill="none" x1="389.6" y1="102" x2="389.6" y2="125.4"/>
	<line fill="none" x1="417.3" y1="125.4" x2="417.3" y2="102"/>
	<line fill="none" x1="389.6" y1="102" x2="417.3" y2="102"/>
</g>
<g>
	<line fill="none" x1="417.3" y1="102" x2="389.6" y2="102"/>
	<line fill="none" x1="389.6" y1="79.9" x2="389.6" y2="102"/>
	<line fill="none" x1="417.3" y1="102" x2="417.3" y2="79.9"/>
	<line fill="none" x1="389.6" y1="79.9" x2="417.3" y2="79.9"/>
</g>
<g>
	<line fill="none" x1="375.8" y1="51.6" x2="375.8" y2="86.5"/>
	<line fill="none" x1="375.8" y1="86.5" x2="347.6" y2="86.5"/>
	<line fill="none" x1="347.6" y1="86.5" x2="347.6" y2="51.6"/>
	<line fill="none" x1="347.6" y1="51.6" x2="375.8" y2="51.6"/>
</g>
<g>
	<line fill="none" x1="417.3" y1="79.9" x2="389.6" y2="79.9"/>
	<line fill="none" x1="417.3" y1="51.6" x2="375.8" y2="51.6"/>
	<line fill="none" x1="375.8" y1="86.5" x2="389.6" y2="86.5"/>
	<line fill="none" x1="417.3" y1="79.9" x2="417.3" y2="51.6"/>
	<line fill="none" x1="389.6" y1="86.5" x2="389.6" y2="79.9"/>
	<line fill="none" x1="375.8" y1="51.6" x2="375.8" y2="86.5"/>
</g>
<g>
	<line fill="none" x1="353.2" y1="40.1" x2="375.8" y2="40.1"/>
	<line fill="none" x1="375.8" y1="40.1" x2="375.8" y2="2.8"/>
	<line fill="none" x1="375.8" y1="2.8" x2="353.2" y2="2.8"/>
	<line fill="none" x1="353.2" y1="2.8" x2="353.2" y2="40.1"/>
</g>
<g>
	<line fill="none" x1="353.2" y1="2.8" x2="353.2" y2="40.1"/>
	<line fill="none" x1="301.4" y1="2.8" x2="353.2" y2="2.8"/>
	<line fill="none" x1="353.2" y1="40.1" x2="336.2" y2="40.1"/>
	<line fill="none" x1="301.4" y1="30.5" x2="301.4" y2="2.8"/>
	<line fill="none" x1="301.4" y1="30.5" x2="336.2" y2="30.5"/>
	<line fill="none" x1="336.2" y1="40.1" x2="336.2" y2="30.5"/>
</g>
<g>
	<line fill="none" x1="336.2" y1="31" x2="336.2" y2="58.8"/>
	<line fill="none" x1="336.2" y1="30.5" x2="301.4" y2="30.5"/>
	<line fill="none" x1="336.2" y1="58.3" x2="301.4" y2="58.3"/>
	<line fill="none" x1="301.4" y1="58.3" x2="301.4" y2="30.5"/>
</g>
<g>
	<line fill="none" x1="301.4" y1="281.4" x2="338.1" y2="281.4"/>
	<line fill="none" x1="301.4" y1="281.4" x2="301.4" y2="306"/>
	<line fill="none" x1="301.4" y1="306" x2="338.1" y2="306"/>
	<line fill="none" x1="338.1" y1="305.5" x2="338.1" y2="280.9"/>
</g>
<g>
	<line fill="none" x1="301.4" y1="252.6" x2="301.4" y2="281.4"/>
	<line fill="none" x1="338.1" y1="281.4" x2="338.1" y2="252.6"/>
	<line fill="none" x1="338.1" y1="252.6" x2="301.4" y2="252.6"/>
	<line fill="none" x1="338.1" y1="281.4" x2="301.4" y2="281.4"/>
</g>
<g>
	<line fill="none" x1="349.5" y1="259.4" x2="349.5" y2="288.4"/>
	<line fill="none" x1="349.5" y1="288.4" x2="375.8" y2="288.4"/>
	<line fill="none" x1="375.8" y1="288.4" x2="375.8" y2="259.4"/>
	<line fill="none" x1="375.8" y1="259.4" x2="349.5" y2="259.4"/>
</g>
<g>
	<line fill="none" x1="349.5" y1="214.9" x2="349.5" y2="259.4"/>
	<line fill="none" x1="349.5" y1="259.4" x2="375.8" y2="259.4"/>
	<line fill="none" x1="375.8" y1="214.9" x2="349.5" y2="214.9"/>
	<line fill="none" x1="375.8" y1="214.9" x2="375.8" y2="259.4"/>
</g>
<g>
	<line fill="none" x1="375.8" y1="259.4" x2="375.8" y2="288.4"/>
	<line fill="none" x1="375.8" y1="288.4" x2="417.3" y2="288.4"/>
	<line fill="none" x1="417.3" y1="288.4" x2="417.3" y2="259.4"/>
	<line fill="none" x1="375.8" y1="259.4" x2="417.3" y2="259.4"/>
</g>
<g>
	<line fill="none" x1="417.3" y1="259.4" x2="375.8" y2="259.4"/>
	<line fill="none" x1="375.8" y1="259.4" x2="375.8" y2="214.9"/>
	<line fill="none" x1="417.3" y1="259.4" x2="417.3" y2="214.9"/>
	<line fill="none" x1="417.3" y1="214.9" x2="375.8" y2="214.9"/>
</g>
</svg>
