<?xml version="1.0" encoding="utf-8"?>
<!-- Generator: Adobe Illustrator 18.1.1, SVG Export Plug-In . SVG Version: 6.00 Build 0)  -->
<!DOCTYPE svg PUBLIC "-//W3C//DTD SVG 1.1//EN" "http://www.w3.org/Graphics/SVG/1.1/DTD/svg11.dtd">
<svg version="1.1" id="Layer_1" xmlns="http://www.w3.org/2000/svg" xmlns:xlink="http://www.w3.org/1999/xlink" x="0px" y="0px"
	 width="468px" height="340px" viewBox="0 0 468 340" enable-background="new 0 0 468 340" xml:space="preserve">
<g>
	<g id="LINE_7778_">
		<line fill="none" x1="38.9" y1="214.7" x2="38.9" y2="192.7"/>
	</g>
	<g id="LINE_7777_">
		<line fill="none" x1="38.9" y1="192.7" x2="2.7" y2="192.7"/>
	</g>
	<g id="LINE_7776_">
		<line fill="none" x1="2.7" y1="192.7" x2="2.7" y2="214.7"/>
	</g>
	<g id="LINE_7773_">
		<line fill="none" x1="38.9" y1="214.7" x2="2.7" y2="214.7"/>
	</g>
</g>
<g>
	<g id="LINE_7771_">
		<line fill="none" x1="2.7" y1="307.7" x2="38.9" y2="307.7"/>
	</g>
	<g id="LINE_7763_">
		<line fill="none" x1="2.6" y1="337.2" x2="54.2" y2="337.2"/>
	</g>
	<g id="LINE_7762_">
		<line fill="none" x1="54.2" y1="337.2" x2="54.2" y2="300.3"/>
	</g>
	<g id="LINE_7761_">
		<line fill="none" x1="54.2" y1="300.3" x2="38.8" y2="300.3"/>
	</g>
	<g id="LINE_7760_">
		<line fill="none" x1="2.6" y1="307.7" x2="2.6" y2="337.2"/>
	</g>
	<g id="LINE_7759_">
		<line fill="none" x1="38.8" y1="300.3" x2="38.8" y2="307.7"/>
	</g>
</g>
<g>
	<g id="LINE_7770_">
		<line fill="none" x1="38.9" y1="307.7" x2="38.9" y2="285.4"/>
	</g>
	<g id="LINE_7769_">
		<line fill="none" x1="38.9" y1="285.4" x2="2.7" y2="285.4"/>
	</g>
	<g id="LINE_7768_">
		<line fill="none" x1="2.7" y1="285.4" x2="2.7" y2="307.7"/>
	</g>
	<g id="LINE_7758_">
		<line fill="none" x1="38.8" y1="307.7" x2="2.6" y2="307.7"/>
	</g>
</g>
<g>
	<g id="LINE_7757_">
		<line fill="none" x1="2.7" y1="169.5" x2="2.7" y2="192.7"/>
	</g>
	<g id="LINE_7756_">
		<line fill="none" x1="2.7" y1="192.7" x2="38.9" y2="192.7"/>
	</g>
	<g id="LINE_7755_">
		<line fill="none" x1="38.9" y1="192.7" x2="38.9" y2="169.5"/>
	</g>
	<g id="LINE_7754_">
		<line fill="none" x1="38.9" y1="169.5" x2="2.7" y2="169.5"/>
	</g>
</g>
<g>
	<g id="LINE_7749_">
		<line fill="none" x1="2.7" y1="285.4" x2="38.9" y2="285.4"/>
	</g>
	<g id="LINE_7748_">
		<line fill="none" x1="38.9" y1="285.4" x2="38.9" y2="259.4"/>
	</g>
	<g id="LINE_7747_">
		<line fill="none" x1="38.9" y1="259.4" x2="2.7" y2="259.4"/>
	</g>
	<g id="LINE_7746_">
		<line fill="none" x1="2.7" y1="259.4" x2="2.7" y2="285.4"/>
	</g>
</g>
<g>
	<g id="LINE_7779_">
		<line fill="none" x1="2.7" y1="214.7" x2="38.9" y2="214.7"/>
	</g>
	<g id="LINE_7774_">
		<line fill="none" x1="38.9" y1="238" x2="38.9" y2="214.7"/>
	</g>
	<g id="LINE_7772_">
		<line fill="none" x1="2.7" y1="214.7" x2="2.7" y2="238"/>
	</g>
	<g id="LINE_7743_">
		<line fill="none" x1="38.9" y1="238" x2="2.7" y2="238"/>
	</g>
</g>
<g>
	<g id="LINE_7775_">
		<line fill="none" x1="2.7" y1="238" x2="38.9" y2="238"/>
	</g>
	<g id="LINE_7745_">
		<line fill="none" x1="2.7" y1="259.4" x2="38.9" y2="259.4"/>
	</g>
	<g id="LINE_7744_">
		<line fill="none" x1="38.9" y1="259.4" x2="38.9" y2="238"/>
	</g>
	<g id="LINE_7742_">
		<line fill="none" x1="2.7" y1="238" x2="2.7" y2="259.4"/>
	</g>
</g>
<g>
	<g id="LINE_7741_">
		<line fill="none" x1="92.6" y1="287.9" x2="120.9" y2="287.9"/>
	</g>
	<g id="LINE_7740_">
		<line fill="none" x1="120.9" y1="287.9" x2="120.9" y2="253.1"/>
	</g>
	<g id="LINE_7739_">
		<line fill="none" x1="120.9" y1="253.1" x2="92.6" y2="253.1"/>
	</g>
	<g id="LINE_7738_">
		<line fill="none" x1="92.6" y1="253.1" x2="92.6" y2="287.9"/>
	</g>
</g>
<g>
	<g id="LINE_7737_">
		<line fill="none" x1="2.7" y1="147.6" x2="2.7" y2="169.5"/>
	</g>
	<g id="LINE_7736_">
		<line fill="none" x1="2.7" y1="169.5" x2="38.9" y2="169.5"/>
	</g>
	<g id="LINE_7735_">
		<line fill="none" x1="38.9" y1="169.5" x2="38.9" y2="147.6"/>
	</g>
	<g id="LINE_7734_">
		<line fill="none" x1="38.9" y1="147.6" x2="2.7" y2="147.6"/>
	</g>
</g>
<g>
	<g id="LINE_7733_">
		<line fill="none" x1="2.7" y1="125.4" x2="2.7" y2="147.6"/>
	</g>
	<g id="LINE_7732_">
		<line fill="none" x1="2.7" y1="147.6" x2="38.9" y2="147.6"/>
	</g>
	<g id="LINE_7731_">
		<line fill="none" x1="38.9" y1="147.6" x2="38.9" y2="125.4"/>
	</g>
	<g id="LINE_7730_">
		<line fill="none" x1="38.9" y1="125.4" x2="2.7" y2="125.4"/>
	</g>
</g>
<g>
	<g id="LINE_7729_">
		<line fill="none" x1="2.7" y1="102" x2="2.7" y2="125.4"/>
	</g>
	<g id="LINE_7728_">
		<line fill="none" x1="2.7" y1="125.4" x2="38.9" y2="125.4"/>
	</g>
	<g id="LINE_7727_">
		<line fill="none" x1="38.9" y1="125.4" x2="38.9" y2="102"/>
	</g>
	<g id="LINE_7726_">
		<line fill="none" x1="38.9" y1="102" x2="2.7" y2="102"/>
	</g>
</g>
<g>
	<g id="LINE_7725_">
		<line fill="none" x1="2.7" y1="79.9" x2="2.7" y2="102"/>
	</g>
	<g id="LINE_7724_">
		<line fill="none" x1="2.7" y1="102" x2="38.9" y2="102"/>
	</g>
	<g id="LINE_7723_">
		<line fill="none" x1="38.9" y1="102" x2="38.9" y2="79.9"/>
	</g>
	<g id="LINE_7722_">
		<line fill="none" x1="38.9" y1="79.9" x2="2.7" y2="79.9"/>
	</g>
</g>
<g>
	<g id="LINE_7753_">
		<line fill="none" x1="51.3" y1="169.5" x2="51.3" y2="192.7"/>
	</g>
	<g id="LINE_7751_">
		<line fill="none" x1="78.4" y1="192.7" x2="78.4" y2="169.5"/>
	</g>
	<g id="LINE_7750_">
		<line fill="none" x1="78.4" y1="169.5" x2="51.3" y2="169.5"/>
	</g>
	<g id="LINE_7718_">
		<line fill="none" x1="78.4" y1="192.7" x2="51.3" y2="192.7"/>
	</g>
</g>
<g>
	<g id="LINE_7782_">
		<line fill="none" x1="51.3" y1="147.6" x2="78.4" y2="147.6"/>
	</g>
	<g id="LINE_7717_">
		<line fill="none" x1="51.3" y1="147.6" x2="51.3" y2="169.5"/>
	</g>
	<g id="LINE_7716_">
		<line fill="none" x1="51.3" y1="169.5" x2="78.4" y2="169.5"/>
	</g>
	<g id="LINE_7715_">
		<line fill="none" x1="78.4" y1="169.5" x2="78.4" y2="147.6"/>
	</g>
</g>
<g>
	<g id="LINE_7783_">
		<line fill="none" x1="51.3" y1="125.4" x2="51.3" y2="147.6"/>
	</g>
	<g id="LINE_7781_">
		<line fill="none" x1="78.4" y1="147.6" x2="78.4" y2="125.4"/>
	</g>
	<g id="LINE_7780_">
		<line fill="none" x1="78.4" y1="125.4" x2="51.3" y2="125.4"/>
	</g>
	<g id="LINE_7714_">
		<line fill="none" x1="78.4" y1="147.6" x2="51.3" y2="147.6"/>
	</g>
</g>
<g>
	<g id="LINE_7752_">
		<line fill="none" x1="51.3" y1="192.7" x2="78.4" y2="192.7"/>
	</g>
	<g id="LINE_7721_">
		<line fill="none" x1="51.3" y1="192.7" x2="51.3" y2="214.7"/>
	</g>
	<g id="LINE_7719_">
		<line fill="none" x1="78.4" y1="214.7" x2="78.4" y2="192.7"/>
	</g>
	<g id="LINE_7710_">
		<line fill="none" x1="78.4" y1="214.7" x2="51.3" y2="214.7"/>
	</g>
</g>
<g>
	<g id="LINE_7709_">
		<line fill="none" x1="51.3" y1="287.9" x2="92.6" y2="287.9"/>
	</g>
	<g id="LINE_7708_">
		<line fill="none" x1="92.6" y1="287.9" x2="92.6" y2="253.1"/>
	</g>
	<g id="LINE_7707_">
		<line fill="none" x1="92.6" y1="253.1" x2="78.4" y2="253.1"/>
	</g>
	<g id="LINE_7706_">
		<line fill="none" x1="51.3" y1="258.6" x2="51.3" y2="287.9"/>
	</g>
	<g id="LINE_7705_">
		<line fill="none" x1="78.4" y1="253.1" x2="78.4" y2="258.6"/>
	</g>
	<g id="LINE_7704_">
		<line fill="none" x1="78.4" y1="258.6" x2="51.3" y2="258.6"/>
	</g>
</g>
<g>
	<g id="LINE_7712_">
		<line fill="none" x1="51.3" y1="238" x2="78.4" y2="238"/>
	</g>
	<g id="LINE_7703_">
		<line fill="none" x1="51.3" y1="238" x2="51.3" y2="258.6"/>
	</g>
	<g id="LINE_7702_">
		<line fill="none" x1="51.3" y1="258.6" x2="78.4" y2="258.6"/>
	</g>
	<g id="LINE_7701_">
		<line fill="none" x1="78.4" y1="258.6" x2="78.4" y2="238"/>
	</g>
</g>
<g>
	<g id="LINE_7720_">
		<line fill="none" x1="51.3" y1="214.7" x2="78.4" y2="214.7"/>
	</g>
	<g id="LINE_7713_">
		<line fill="none" x1="51.3" y1="214.7" x2="51.3" y2="238"/>
	</g>
	<g id="LINE_7711_">
		<line fill="none" x1="78.4" y1="238" x2="78.4" y2="214.7"/>
	</g>
	<g id="LINE_7700_">
		<line fill="none" x1="78.4" y1="238" x2="51.3" y2="238"/>
	</g>
</g>
<g>
	<g id="LINE_7767_">
		<line fill="none" x1="54.2" y1="337.1" x2="92.6" y2="337.1"/>
	</g>
	<g id="LINE_7765_">
		<line fill="none" x1="92.6" y1="300.3" x2="54.2" y2="300.3"/>
	</g>
	<g id="LINE_7764_">
		<line fill="none" x1="54.2" y1="300.3" x2="54.2" y2="337.1"/>
	</g>
	<g id="LINE_7696_">
		<line fill="none" x1="92.6" y1="300.3" x2="92.6" y2="337.1"/>
	</g>
</g>
<g>
	<g id="LINE_7766_">
		<line fill="none" x1="92.6" y1="337.1" x2="92.6" y2="300.3"/>
	</g>
	<g id="LINE_7699_">
		<line fill="none" x1="92.6" y1="337.1" x2="115.6" y2="337.1"/>
	</g>
	<g id="LINE_7697_">
		<line fill="none" x1="115.6" y1="300.3" x2="92.6" y2="300.3"/>
	</g>
	<g id="LINE_7694_">
		<line fill="none" x1="115.6" y1="337.1" x2="115.6" y2="300.4"/>
	</g>
</g>
<g>
	<g id="LINE_7689_">
		<line fill="none" x1="51.3" y1="102" x2="51.3" y2="125.4"/>
	</g>
	<g id="LINE_7688_">
		<line fill="none" x1="51.3" y1="125.4" x2="78.4" y2="125.4"/>
	</g>
	<g id="LINE_7687_">
		<line fill="none" x1="78.4" y1="125.4" x2="78.4" y2="102"/>
	</g>
	<g id="LINE_7686_">
		<line fill="none" x1="78.4" y1="102" x2="51.3" y2="102"/>
	</g>
</g>
<g>
	<g id="LINE_7685_">
		<line fill="none" x1="2.7" y1="55.4" x2="2.7" y2="79.9"/>
	</g>
	<g id="LINE_7684_">
		<line fill="none" x1="2.7" y1="79.9" x2="38.9" y2="79.9"/>
	</g>
	<g id="LINE_7683_">
		<line fill="none" x1="38.9" y1="79.9" x2="38.9" y2="55.4"/>
	</g>
	<g id="LINE_7682_">
		<line fill="none" x1="38.9" y1="55.4" x2="2.7" y2="55.4"/>
	</g>
</g>
<g>
	<g id="LINE_7678_">
		<line fill="none" x1="38.9" y1="32.8" x2="2.7" y2="32.8"/>
	</g>
	<g id="LINE_7677_">
		<line fill="none" x1="2.7" y1="2.9" x2="54.2" y2="2.9"/>
	</g>
	<g id="LINE_7676_">
		<line fill="none" x1="54.2" y1="2.9" x2="54.2" y2="39.6"/>
	</g>
	<g id="LINE_7675_">
		<line fill="none" x1="54.2" y1="39.6" x2="38.9" y2="39.6"/>
	</g>
	<g id="LINE_7674_">
		<line fill="none" x1="2.7" y1="32.8" x2="2.7" y2="2.9"/>
	</g>
	<g id="LINE_7673_">
		<line fill="none" x1="38.9" y1="39.6" x2="38.9" y2="32.8"/>
	</g>
</g>
<g>
	<g id="LINE_7681_">
		<line fill="none" x1="2.7" y1="32.8" x2="2.7" y2="55.4"/>
	</g>
	<g id="LINE_7680_">
		<line fill="none" x1="2.7" y1="55.4" x2="38.9" y2="55.4"/>
	</g>
	<g id="LINE_7679_">
		<line fill="none" x1="38.9" y1="55.4" x2="38.9" y2="32.8"/>
	</g>
	<g id="LINE_7672_">
		<line fill="none" x1="38.9" y1="32.8" x2="2.7" y2="32.8"/>
	</g>
</g>
<g>
	<g id="LINE_7698_">
		<line fill="none" x1="115.6" y1="337.1" x2="115.6" y2="300.3"/>
	</g>
	<g id="LINE_7695_">
		<line fill="none" x1="166.7" y1="337.1" x2="115.6" y2="337.1"/>
	</g>
	<g id="LINE_7693_">
		<line fill="none" x1="115.6" y1="300.4" x2="133.4" y2="300.4"/>
	</g>
	<g id="LINE_7692_">
		<line fill="none" x1="166.7" y1="306" x2="166.7" y2="337.1"/>
	</g>
	<g id="LINE_7691_">
		<line fill="none" x1="133.4" y1="300.4" x2="133.4" y2="306"/>
	</g>
	<g id="LINE_7671_">
		<line fill="none" x1="133.4" y1="306" x2="166.7" y2="306"/>
	</g>
</g>
<g>
	<g id="LINE_7668_">
		<line fill="none" x1="133.4" y1="281.2" x2="133.4" y2="306"/>
	</g>
	<g id="LINE_7690_">
		<line fill="none" x1="133.4" y1="306" x2="166.7" y2="306"/>
	</g>
	<g id="LINE_7670_">
		<line fill="none" x1="166.7" y1="306" x2="166.7" y2="281.2"/>
	</g>
	<g id="LINE_7667_">
		<line fill="none" x1="133.4" y1="281.2" x2="167.3" y2="281.2"/>
	</g>
</g>
<g>
	<g id="LINE_7669_">
		<line fill="none" x1="166.7" y1="281.2" x2="133.4" y2="281.2"/>
	</g>
	<g id="LINE_7666_">
		<line fill="none" x1="167.3" y1="281.2" x2="167.3" y2="253.1"/>
	</g>
	<g id="LINE_7665_">
		<line fill="none" x1="167.3" y1="253.1" x2="133.4" y2="253.1"/>
	</g>
	<g id="LINE_7664_">
		<line fill="none" x1="133.4" y1="253.1" x2="133.4" y2="281.2"/>
	</g>
</g>
<g>
	<g id="LINE_7663_">
		<line fill="none" x1="51.3" y1="79.9" x2="51.3" y2="102"/>
	</g>
	<g id="LINE_7662_">
		<line fill="none" x1="51.3" y1="102" x2="78.4" y2="102"/>
	</g>
	<g id="LINE_7661_">
		<line fill="none" x1="78.4" y1="102" x2="78.4" y2="79.9"/>
	</g>
	<g id="LINE_7660_">
		<line fill="none" x1="78.4" y1="79.9" x2="51.3" y2="79.9"/>
	</g>
</g>
<g>
	<g id="LINE_7656_">
		<line fill="none" x1="51.3" y1="79.9" x2="51.3" y2="52.1"/>
	</g>
	<g>
		<g id="LINE_7659_">
			<line fill="none" x1="51.3" y1="52.1" x2="92.6" y2="52.1"/>
		</g>
		<g id="LINE_7658_">
			<line fill="none" x1="92.6" y1="52.1" x2="92.6" y2="86.5"/>
		</g>
		<g id="LINE_7657_">
			<line fill="none" x1="92.6" y1="86.5" x2="78.4" y2="86.5"/>
		</g>
		<g id="LINE_7655_">
			<line fill="none" x1="78.4" y1="86.5" x2="78.4" y2="79.9"/>
		</g>
		<g id="LINE_7654_">
			<line fill="none" x1="78.4" y1="79.9" x2="51.3" y2="79.9"/>
		</g>
	</g>
</g>
<g>
	<g id="LINE_7653_">
		<line fill="none" x1="92.6" y1="86.5" x2="118.1" y2="86.5"/>
	</g>
	<g id="LINE_7652_">
		<line fill="none" x1="118.1" y1="86.5" x2="118.1" y2="52.1"/>
	</g>
	<g id="LINE_7651_">
		<line fill="none" x1="118.1" y1="52.1" x2="92.6" y2="52.1"/>
	</g>
	<g id="LINE_7650_">
		<line fill="none" x1="92.6" y1="52.1" x2="92.6" y2="86.5"/>
	</g>
</g>
<g>
	<g id="LINE_7649_">
		<line fill="none" x1="54.2" y1="2.9" x2="54.2" y2="39.7"/>
	</g>
	<g id="LINE_7648_">
		<line fill="none" x1="54.2" y1="39.7" x2="92.6" y2="39.7"/>
	</g>
	<g id="LINE_7647_">
		<line fill="none" x1="92.6" y1="39.7" x2="92.6" y2="2.9"/>
	</g>
	<g id="LINE_7646_">
		<line fill="none" x1="92.6" y1="2.9" x2="54.2" y2="2.9"/>
	</g>
</g>
<g>
	<g id="LINE_7645_">
		<line fill="none" x1="92.6" y1="39.7" x2="115.6" y2="39.7"/>
	</g>
	<g id="LINE_7644_">
		<line fill="none" x1="115.6" y1="39.7" x2="115.6" y2="2.9"/>
	</g>
	<g id="LINE_7643_">
		<line fill="none" x1="115.6" y1="2.9" x2="92.6" y2="2.9"/>
	</g>
	<g id="LINE_7642_">
		<line fill="none" x1="92.6" y1="2.9" x2="92.6" y2="39.7"/>
	</g>
</g>
<g>
	<g id="LINE_7641_">
		<line fill="none" x1="166.7" y1="2.9" x2="115.6" y2="2.9"/>
	</g>
	<g id="LINE_7640_">
		<line fill="none" x1="115.6" y1="2.9" x2="115.6" y2="39.6"/>
	</g>
	<g id="LINE_7639_">
		<line fill="none" x1="115.6" y1="39.6" x2="130.6" y2="39.6"/>
	</g>
	<g id="LINE_7638_">
		<line fill="none" x1="166.7" y1="30.5" x2="166.7" y2="2.9"/>
	</g>
	<g id="LINE_7637_">
		<line fill="none" x1="130.6" y1="39.6" x2="130.6" y2="30.5"/>
	</g>
	<g id="LINE_7636_">
		<line fill="none" x1="130.6" y1="30.5" x2="166.7" y2="30.5"/>
	</g>
</g>
<g>
	<g id="LINE_7635_">
		<line fill="none" x1="130.5" y1="30.5" x2="130.5" y2="58.6"/>
	</g>
	<g id="LINE_7634_">
		<line fill="none" x1="130.5" y1="58.6" x2="166.7" y2="58.6"/>
	</g>
	<g id="LINE_7633_">
		<line fill="none" x1="166.7" y1="58.6" x2="166.7" y2="30.5"/>
	</g>
	<g id="LINE_7632_">
		<line fill="none" x1="166.7" y1="30.5" x2="130.5" y2="30.5"/>
	</g>
</g>
<g>
	<g id="LINE_7631_">
		<line fill="none" x1="130.5" y1="86.5" x2="168" y2="86.5"/>
	</g>
	<g id="LINE_7630_">
		<line fill="none" x1="168" y1="86.5" x2="168" y2="58.6"/>
	</g>
	<g id="LINE_7629_">
		<line fill="none" x1="168" y1="58.6" x2="130.5" y2="58.6"/>
	</g>
	<g id="LINE_7628_">
		<line fill="none" x1="130.5" y1="58.6" x2="130.5" y2="86.5"/>
	</g>
</g>
<g>
	<g id="LINE_7627_">
		<line fill="none" x1="168" y1="49.9" x2="168" y2="86.5"/>
	</g>
	<g id="LINE_7626_">
		<line fill="none" x1="168" y1="86.5" x2="209.9" y2="86.5"/>
	</g>
	<g id="LINE_7625_">
		<line fill="none" x1="209.9" y1="86.5" x2="209.9" y2="49.9"/>
	</g>
	<g id="LINE_7624_">
		<line fill="none" x1="209.9" y1="49.9" x2="168" y2="49.9"/>
	</g>
</g>
<g>
	<g id="LINE_7623_">
		<line fill="none" x1="209.9" y1="49.9" x2="209.9" y2="86.5"/>
	</g>
	<g id="LINE_7622_">
		<line fill="none" x1="209.9" y1="86.5" x2="233.9" y2="86.5"/>
	</g>
	<g id="LINE_7621_">
		<line fill="none" x1="233.9" y1="86.5" x2="233.9" y2="49.9"/>
	</g>
	<g id="LINE_7620_">
		<line fill="none" x1="233.9" y1="49.9" x2="209.9" y2="49.9"/>
	</g>
</g>
<g>
	<g id="LINE_7619_">
		<line fill="none" x1="233.9" y1="49.9" x2="233.9" y2="86.5"/>
	</g>
	<g id="LINE_7618_">
		<line fill="none" x1="233.9" y1="86.5" x2="257.9" y2="86.5"/>
	</g>
	<g id="LINE_7617_">
		<line fill="none" x1="257.9" y1="86.5" x2="257.9" y2="49.9"/>
	</g>
	<g id="LINE_7616_">
		<line fill="none" x1="257.9" y1="49.9" x2="233.9" y2="49.9"/>
	</g>
</g>
<g>
	<g id="LINE_7615_">
		<line fill="none" x1="257.9" y1="49.9" x2="257.9" y2="86.5"/>
	</g>
	<g id="LINE_7614_">
		<line fill="none" x1="257.9" y1="86.5" x2="300.6" y2="86.5"/>
	</g>
	<g id="LINE_7613_">
		<line fill="none" x1="300.6" y1="86.5" x2="300.6" y2="49.9"/>
	</g>
	<g id="LINE_7612_">
		<line fill="none" x1="300.6" y1="49.9" x2="257.9" y2="49.9"/>
	</g>
</g>
<g>
	<g id="LINE_7611_">
		<line fill="none" x1="167.3" y1="253.1" x2="167.3" y2="290.1"/>
	</g>
	<g id="LINE_7610_">
		<line fill="none" x1="167.3" y1="290.1" x2="209.9" y2="290.1"/>
	</g>
	<g id="LINE_7608_">
		<line fill="none" x1="209.9" y1="253.1" x2="167.3" y2="253.1"/>
	</g>
	<g id="LINE_7607_">
		<line fill="none" x1="209.9" y1="253.1" x2="209.9" y2="290.1"/>
	</g>
</g>
<g>
	<g id="LINE_7609_">
		<line fill="none" x1="209.9" y1="290.1" x2="209.9" y2="253.1"/>
	</g>
	<g id="LINE_7606_">
		<line fill="none" x1="209.9" y1="290.1" x2="233.9" y2="290.1"/>
	</g>
	<g id="LINE_7604_">
		<line fill="none" x1="233.9" y1="253.1" x2="209.9" y2="253.1"/>
	</g>
	<g id="LINE_7603_">
		<line fill="none" x1="233.9" y1="253.1" x2="233.9" y2="290.1"/>
	</g>
</g>
<g>
	<g id="LINE_7605_">
		<line fill="none" x1="233.9" y1="290.1" x2="233.9" y2="253.1"/>
	</g>
	<g id="LINE_7602_">
		<line fill="none" x1="233.9" y1="290.1" x2="257.9" y2="290.1"/>
	</g>
	<g id="LINE_7600_">
		<line fill="none" x1="257.9" y1="253.1" x2="233.9" y2="253.1"/>
	</g>
	<g id="LINE_7599_">
		<line fill="none" x1="257.9" y1="253.1" x2="257.9" y2="290.1"/>
	</g>
</g>
<g>
	<g id="LINE_7601_">
		<line fill="none" x1="257.9" y1="290.1" x2="257.9" y2="253.1"/>
	</g>
	<g id="LINE_7598_">
		<line fill="none" x1="257.9" y1="290.1" x2="300.5" y2="290.1"/>
	</g>
	<g id="LINE_7597_">
		<line fill="none" x1="300.5" y1="290.1" x2="300.5" y2="253.1"/>
	</g>
	<g id="LINE_7596_">
		<line fill="none" x1="300.5" y1="253.1" x2="257.9" y2="253.1"/>
	</g>
</g>
<g>
	<g id="LINE_7573_">
		<line fill="none" x1="302.5" y1="214.9" x2="302.5" y2="240.6"/>
	</g>
	<g id="LINE_7572_">
		<line fill="none" x1="302.5" y1="240.6" x2="350" y2="240.6"/>
	</g>
	<g id="LINE_7571_">
		<line fill="none" x1="350" y1="240.6" x2="350" y2="214.9"/>
	</g>
	<g id="LINE_7570_">
		<line fill="none" x1="350" y1="214.9" x2="302.5" y2="214.9"/>
	</g>
</g>
<g>
	<g id="LINE_7595_">
		<line fill="none" x1="301.4" y1="337.1" x2="353.2" y2="337.1"/>
	</g>
	<g id="LINE_7593_">
		<line fill="none" x1="353.2" y1="300.3" x2="337.6" y2="300.3"/>
	</g>
	<g id="LINE_7592_">
		<line fill="none" x1="301.4" y1="306" x2="301.4" y2="337.1"/>
	</g>
	<g id="LINE_7591_">
		<line fill="none" x1="337.6" y1="300.3" x2="337.6" y2="306"/>
	</g>
	<g id="LINE_7590_">
		<line fill="none" x1="337.6" y1="306" x2="301.4" y2="306"/>
	</g>
	<g id="LINE_7569_">
		<line fill="none" x1="353.2" y1="300.3" x2="353.2" y2="337.1"/>
	</g>
</g>
<g>
	<g id="LINE_7594_">
		<line fill="none" x1="353.2" y1="337.1" x2="353.2" y2="300.3"/>
	</g>
	<g id="LINE_7568_">
		<line fill="none" x1="353.2" y1="337.1" x2="375.8" y2="337.1"/>
	</g>
	<g id="LINE_7566_">
		<line fill="none" x1="375.8" y1="300.3" x2="353.2" y2="300.3"/>
	</g>
	<g id="LINE_7565_">
		<line fill="none" x1="375.8" y1="300.3" x2="375.8" y2="337.1"/>
	</g>
</g>
<g>
	<g id="LINE_7567_">
		<line fill="none" x1="375.8" y1="337.1" x2="375.8" y2="300.3"/>
	</g>
	<g id="LINE_7564_">
		<line fill="none" x1="375.8" y1="337.1" x2="414.3" y2="337.1"/>
	</g>
	<g id="LINE_7563_">
		<line fill="none" x1="414.3" y1="337.1" x2="414.3" y2="300.3"/>
	</g>
	<g id="LINE_7562_">
		<line fill="none" x1="414.3" y1="300.3" x2="375.8" y2="300.3"/>
	</g>
</g>
<g>
	<g id="LINE_7589_">
		<line fill="none" x1="465.4" y1="337.1" x2="414.3" y2="337.1"/>
	</g>
	<g id="LINE_7588_">
		<line fill="none" x1="414.3" y1="337.1" x2="414.3" y2="300.3"/>
	</g>
	<g id="LINE_7587_">
		<line fill="none" x1="414.3" y1="300.3" x2="429.2" y2="300.3"/>
	</g>
	<g id="LINE_7586_">
		<line fill="none" x1="465.4" y1="308" x2="465.4" y2="337.1"/>
	</g>
	<g id="LINE_7585_">
		<line fill="none" x1="429.2" y1="300.3" x2="429.2" y2="308"/>
	</g>
	<g id="LINE_7556_">
		<line fill="none" x1="429.2" y1="308" x2="465.4" y2="308"/>
	</g>
</g>
<g>
	<g id="LINE_7557_">
		<line fill="none" x1="429.2" y1="285.4" x2="429.2" y2="308"/>
	</g>
	<g id="LINE_7584_">
		<line fill="none" x1="429.2" y1="308" x2="465.4" y2="308"/>
	</g>
	<g id="LINE_7555_">
		<line fill="none" x1="465.4" y1="308" x2="465.4" y2="285.4"/>
	</g>
	<g id="LINE_7552_">
		<line fill="none" x1="429.2" y1="285.4" x2="465.4" y2="285.4"/>
	</g>
</g>
<g>
	<g id="LINE_7554_">
		<line fill="none" x1="465.4" y1="285.4" x2="429.2" y2="285.4"/>
	</g>
	<g id="LINE_7553_">
		<line fill="none" x1="429.2" y1="259.4" x2="429.2" y2="285.4"/>
	</g>
	<g id="LINE_7551_">
		<line fill="none" x1="465.4" y1="285.4" x2="465.4" y2="259.4"/>
	</g>
	<g id="LINE_7548_">
		<line fill="none" x1="429.2" y1="259.4" x2="465.4" y2="259.4"/>
	</g>
</g>
<g>
	<g id="LINE_7550_">
		<line fill="none" x1="465.4" y1="259.4" x2="429.2" y2="259.4"/>
	</g>
	<g id="LINE_7549_">
		<line fill="none" x1="429.2" y1="238.1" x2="429.2" y2="259.4"/>
	</g>
	<g id="LINE_7547_">
		<line fill="none" x1="465.4" y1="259.4" x2="465.4" y2="238.1"/>
	</g>
	<g id="LINE_7544_">
		<line fill="none" x1="429.2" y1="238.1" x2="465.4" y2="238.1"/>
	</g>
</g>
<g>
	<g id="LINE_7546_">
		<line fill="none" x1="465.4" y1="238.1" x2="429.2" y2="238.1"/>
	</g>
	<g id="LINE_7545_">
		<line fill="none" x1="429.2" y1="214.7" x2="429.2" y2="238.1"/>
	</g>
	<g id="LINE_7543_">
		<line fill="none" x1="465.4" y1="238.1" x2="465.4" y2="214.7"/>
	</g>
	<g id="LINE_7540_">
		<line fill="none" x1="429.2" y1="214.7" x2="465.4" y2="214.7"/>
	</g>
</g>
<g>
	<g id="LINE_7542_">
		<line fill="none" x1="465.4" y1="214.7" x2="429.2" y2="214.7"/>
	</g>
	<g id="LINE_7541_">
		<line fill="none" x1="429.2" y1="192.7" x2="429.2" y2="214.7"/>
	</g>
	<g id="LINE_7539_">
		<line fill="none" x1="465.4" y1="214.7" x2="465.4" y2="192.7"/>
	</g>
	<g id="LINE_7536_">
		<line fill="none" x1="429.2" y1="192.7" x2="465.4" y2="192.7"/>
	</g>
</g>
<g>
	<g id="LINE_7538_">
		<line fill="none" x1="465.4" y1="192.7" x2="429.2" y2="192.7"/>
	</g>
	<g id="LINE_7537_">
		<line fill="none" x1="429.2" y1="169.5" x2="429.2" y2="192.7"/>
	</g>
	<g id="LINE_7535_">
		<line fill="none" x1="465.4" y1="192.7" x2="465.4" y2="169.5"/>
	</g>
	<g id="LINE_7532_">
		<line fill="none" x1="429.2" y1="169.5" x2="465.4" y2="169.5"/>
	</g>
</g>
<g>
	<g id="LINE_7534_">
		<line fill="none" x1="465.4" y1="169.5" x2="429.2" y2="169.5"/>
	</g>
	<g id="LINE_7533_">
		<line fill="none" x1="429.2" y1="147.6" x2="429.2" y2="169.5"/>
	</g>
	<g id="LINE_7531_">
		<line fill="none" x1="465.4" y1="169.5" x2="465.4" y2="147.6"/>
	</g>
	<g id="LINE_7528_">
		<line fill="none" x1="429.2" y1="147.6" x2="465.4" y2="147.6"/>
	</g>
</g>
<g>
	<g id="LINE_7530_">
		<line fill="none" x1="465.4" y1="147.6" x2="429.2" y2="147.6"/>
	</g>
	<g id="LINE_7529_">
		<line fill="none" x1="429.2" y1="125.4" x2="429.2" y2="147.6"/>
	</g>
	<g id="LINE_7527_">
		<line fill="none" x1="465.4" y1="147.6" x2="465.4" y2="125.4"/>
	</g>
	<g id="LINE_7524_">
		<line fill="none" x1="429.2" y1="125.4" x2="465.4" y2="125.4"/>
	</g>
</g>
<g>
	<g id="LINE_7526_">
		<line fill="none" x1="465.4" y1="125.4" x2="429.2" y2="125.4"/>
	</g>
	<g id="LINE_7525_">
		<line fill="none" x1="429.2" y1="102" x2="429.2" y2="125.4"/>
	</g>
	<g id="LINE_7523_">
		<line fill="none" x1="465.4" y1="125.4" x2="465.4" y2="102"/>
	</g>
	<g id="LINE_7520_">
		<line fill="none" x1="429.2" y1="102" x2="465.4" y2="102"/>
	</g>
</g>
<g>
	<g id="LINE_7522_">
		<line fill="none" x1="465.4" y1="102" x2="429.2" y2="102"/>
	</g>
	<g id="LINE_7521_">
		<line fill="none" x1="429.2" y1="79.9" x2="429.2" y2="102"/>
	</g>
	<g id="LINE_7519_">
		<line fill="none" x1="465.4" y1="102" x2="465.4" y2="79.9"/>
	</g>
	<g id="LINE_7516_">
		<line fill="none" x1="429.2" y1="79.9" x2="465.4" y2="79.9"/>
	</g>
</g>
<g>
	<g id="LINE_7518_">
		<line fill="none" x1="465.4" y1="79.9" x2="429.2" y2="79.9"/>
	</g>
	<g id="LINE_7517_">
		<line fill="none" x1="429.2" y1="55.4" x2="429.2" y2="79.9"/>
	</g>
	<g id="LINE_7515_">
		<line fill="none" x1="465.4" y1="79.9" x2="465.4" y2="55.4"/>
	</g>
	<g id="LINE_7512_">
		<line fill="none" x1="429.2" y1="55.4" x2="465.4" y2="55.4"/>
	</g>
</g>
<g>
	<g id="LINE_7514_">
		<line fill="none" x1="465.4" y1="55.4" x2="429.2" y2="55.4"/>
	</g>
	<g id="LINE_7513_">
		<line fill="none" x1="429.2" y1="31.7" x2="429.2" y2="55.4"/>
	</g>
	<g id="LINE_7511_">
		<line fill="none" x1="465.4" y1="55.4" x2="465.4" y2="31.7"/>
	</g>
	<g id="LINE_7510_">
		<line fill="none" x1="465.4" y1="31.7" x2="429.2" y2="31.7"/>
	</g>
</g>
<g>
	<g id="LINE_7583_">
		<line fill="none" x1="465.4" y1="2.9" x2="414.3" y2="2.9"/>
	</g>
	<g id="LINE_7581_">
		<line fill="none" x1="414.3" y1="39.5" x2="429.2" y2="39.5"/>
	</g>
	<g id="LINE_7580_">
		<line fill="none" x1="465.4" y1="31.7" x2="465.4" y2="2.9"/>
	</g>
	<g id="LINE_7579_">
		<line fill="none" x1="429.2" y1="39.5" x2="429.2" y2="31.7"/>
	</g>
	<g id="LINE_7578_">
		<line fill="none" x1="429.2" y1="31.7" x2="465.4" y2="31.7"/>
	</g>
	<g id="LINE_7503_">
		<line fill="none" x1="414.3" y1="39.6" x2="414.3" y2="2.8"/>
	</g>
</g>
<g>
	<g id="LINE_7582_">
		<line fill="none" x1="414.3" y1="2.9" x2="414.3" y2="39.5"/>
	</g>
	<g id="LINE_7505_">
		<line fill="none" x1="375.8" y1="2.8" x2="375.8" y2="39.6"/>
	</g>
	<g id="LINE_7504_">
		<line fill="none" x1="375.8" y1="39.6" x2="414.3" y2="39.6"/>
	</g>
	<g id="LINE_7502_">
		<line fill="none" x1="414.3" y1="2.8" x2="375.8" y2="2.8"/>
	</g>
</g>
<g>
	<g id="LINE_7501_">
		<line fill="none" x1="300.6" y1="86.5" x2="300.6" y2="58.3"/>
	</g>
	<g id="LINE_7500_">
		<line fill="none" x1="300.6" y1="58.3" x2="335.7" y2="58.3"/>
	</g>
	<g id="LINE_7499_">
		<line fill="none" x1="335.7" y1="58.3" x2="335.7" y2="86.5"/>
	</g>
	<g id="LINE_7498_">
		<line fill="none" x1="335.7" y1="86.5" x2="300.6" y2="86.5"/>
	</g>
</g>
<g>
	<g id="LINE_7497_">
		<line fill="none" x1="389.6" y1="192.7" x2="389.6" y2="214.9"/>
	</g>
	<g id="LINE_7496_">
		<line fill="none" x1="389.6" y1="214.9" x2="416.8" y2="214.9"/>
	</g>
	<g id="LINE_7495_">
		<line fill="none" x1="416.8" y1="214.9" x2="416.8" y2="192.7"/>
	</g>
	<g id="LINE_7492_">
		<line fill="none" x1="389.6" y1="192.7" x2="416.8" y2="192.7"/>
	</g>
</g>
<g>
	<g id="LINE_7494_">
		<line fill="none" x1="416.8" y1="192.7" x2="389.6" y2="192.7"/>
	</g>
	<g id="LINE_7493_">
		<line fill="none" x1="389.6" y1="169.5" x2="389.6" y2="192.7"/>
	</g>
	<g id="LINE_7491_">
		<line fill="none" x1="416.8" y1="192.7" x2="416.8" y2="169.5"/>
	</g>
	<g id="LINE_7488_">
		<line fill="none" x1="389.6" y1="169.5" x2="416.8" y2="169.5"/>
	</g>
</g>
<g>
	<g id="LINE_7490_">
		<line fill="none" x1="416.8" y1="169.5" x2="389.6" y2="169.5"/>
	</g>
	<g id="LINE_7489_">
		<line fill="none" x1="389.6" y1="147.6" x2="389.6" y2="169.5"/>
	</g>
	<g id="LINE_7487_">
		<line fill="none" x1="416.8" y1="169.5" x2="416.8" y2="147.6"/>
	</g>
	<g id="LINE_7484_">
		<line fill="none" x1="389.6" y1="147.6" x2="416.8" y2="147.6"/>
	</g>
</g>
<g>
	<g id="LINE_7486_">
		<line fill="none" x1="416.8" y1="147.6" x2="389.6" y2="147.6"/>
	</g>
	<g id="LINE_7485_">
		<line fill="none" x1="389.6" y1="125.4" x2="389.6" y2="147.6"/>
	</g>
	<g id="LINE_7483_">
		<line fill="none" x1="416.8" y1="147.6" x2="416.8" y2="125.4"/>
	</g>
	<g id="LINE_7480_">
		<line fill="none" x1="389.6" y1="125.4" x2="416.8" y2="125.4"/>
	</g>
</g>
<g>
	<g id="LINE_7482_">
		<line fill="none" x1="416.8" y1="125.4" x2="389.6" y2="125.4"/>
	</g>
	<g id="LINE_7481_">
		<line fill="none" x1="389.6" y1="102" x2="389.6" y2="125.4"/>
	</g>
	<g id="LINE_7479_">
		<line fill="none" x1="416.8" y1="125.4" x2="416.8" y2="102"/>
	</g>
	<g id="LINE_7476_">
		<line fill="none" x1="389.6" y1="102" x2="416.8" y2="102"/>
	</g>
</g>
<g>
	<g id="LINE_7478_">
		<line fill="none" x1="416.8" y1="102" x2="389.6" y2="102"/>
	</g>
	<g id="LINE_7477_">
		<line fill="none" x1="389.6" y1="79.9" x2="389.6" y2="102"/>
	</g>
	<g id="LINE_7475_">
		<line fill="none" x1="416.8" y1="102" x2="416.8" y2="79.9"/>
	</g>
	<g id="LINE_7468_">
		<line fill="none" x1="389.7" y1="79.9" x2="416.8" y2="79.9"/>
	</g>
</g>
<g>
	<g id="LINE_7472_">
		<line fill="none" x1="375.8" y1="52.1" x2="375.8" y2="86.5"/>
	</g>
	<g id="LINE_7467_">
		<line fill="none" x1="375.8" y1="86.4" x2="348.1" y2="86.4"/>
	</g>
	<g id="LINE_7466_">
		<line fill="none" x1="348.1" y1="86.4" x2="348.1" y2="52.1"/>
	</g>
	<g id="LINE_7465_">
		<line fill="none" x1="348.1" y1="52.1" x2="375.8" y2="52.1"/>
	</g>
</g>
<g>
	<g id="LINE_7474_">
		<line fill="none" x1="416.8" y1="79.9" x2="389.6" y2="79.9"/>
	</g>
	<g id="LINE_7473_">
		<line fill="none" x1="416.8" y1="52.1" x2="375.8" y2="52.1"/>
	</g>
	<g id="LINE_7471_">
		<line fill="none" x1="375.8" y1="86.5" x2="389.7" y2="86.5"/>
	</g>
	<g id="LINE_7470_">
		<line fill="none" x1="416.8" y1="79.9" x2="416.8" y2="52.1"/>
	</g>
	<g id="LINE_7469_">
		<line fill="none" x1="389.7" y1="86.5" x2="389.7" y2="79.9"/>
	</g>
	<g id="LINE_7464_">
		<line fill="none" x1="375.8" y1="52.1" x2="375.8" y2="86.4"/>
	</g>
</g>
<g>
	<g id="LINE_7508_">
		<line fill="none" x1="353.2" y1="39.6" x2="375.8" y2="39.6"/>
	</g>
	<g id="LINE_7507_">
		<line fill="none" x1="375.8" y1="39.6" x2="375.8" y2="2.8"/>
	</g>
	<g id="LINE_7506_">
		<line fill="none" x1="375.8" y1="2.8" x2="353.2" y2="2.8"/>
	</g>
	<g id="LINE_7462_">
		<line fill="none" x1="353.2" y1="2.9" x2="353.2" y2="39.6"/>
	</g>
</g>
<g>
	<g id="LINE_7509_">
		<line fill="none" x1="353.2" y1="2.8" x2="353.2" y2="39.6"/>
	</g>
	<g id="LINE_7463_">
		<line fill="none" x1="301.4" y1="2.9" x2="353.2" y2="2.9"/>
	</g>
	<g id="LINE_7461_">
		<line fill="none" x1="353.2" y1="39.6" x2="335.6" y2="39.6"/>
	</g>
	<g id="LINE_7460_">
		<line fill="none" x1="301.4" y1="30.5" x2="301.4" y2="2.9"/>
	</g>
	<g id="LINE_7454_">
		<line fill="none" x1="301.4" y1="30.5" x2="335.7" y2="30.5"/>
	</g>
	<g id="LINE_7459_">
		<line fill="none" x1="335.6" y1="39.6" x2="335.6" y2="30.5"/>
	</g>
</g>
<g>
	<g id="LINE_7457_">
		<line fill="none" x1="335.7" y1="30.5" x2="335.7" y2="58.3"/>
	</g>
	<g id="LINE_7458_">
		<line fill="none" x1="335.6" y1="30.5" x2="301.4" y2="30.5"/>
	</g>
	<g id="LINE_7456_">
		<line fill="none" x1="335.7" y1="58.3" x2="301.4" y2="58.3"/>
	</g>
	<g id="LINE_7455_">
		<line fill="none" x1="301.4" y1="58.3" x2="301.4" y2="30.5"/>
	</g>
</g>
<g>
	<g id="LINE_7576_">
		<line fill="none" x1="300.5" y1="281.4" x2="337.6" y2="281.4"/>
	</g>
	<g id="LINE_7453_">
		<line fill="none" x1="301.4" y1="281.4" x2="301.4" y2="306"/>
	</g>
	<g id="LINE_7452_">
		<line fill="none" x1="301.4" y1="306" x2="337.6" y2="306"/>
	</g>
	<g id="LINE_7451_">
		<line fill="none" x1="337.6" y1="306" x2="337.6" y2="281.4"/>
	</g>
</g>
<g>
	<g id="LINE_7577_">
		<line fill="none" x1="300.5" y1="253.1" x2="300.5" y2="281.4"/>
	</g>
	<g id="LINE_7575_">
		<line fill="none" x1="337.6" y1="281.4" x2="337.6" y2="253.1"/>
	</g>
	<g id="LINE_7574_">
		<line fill="none" x1="337.6" y1="253.1" x2="300.5" y2="253.1"/>
	</g>
	<g id="LINE_7450_">
		<line fill="none" x1="337.6" y1="281.4" x2="301.4" y2="281.4"/>
	</g>
</g>
<g>
	<g id="LINE_7449_">
		<line fill="none" x1="350" y1="259.4" x2="350" y2="287.9"/>
	</g>
	<g id="LINE_7448_">
		<line fill="none" x1="350" y1="287.9" x2="375.8" y2="287.9"/>
	</g>
	<g id="LINE_7447_">
		<line fill="none" x1="375.8" y1="287.9" x2="375.8" y2="259.4"/>
	</g>
	<g id="LINE_7446_">
		<line fill="none" x1="375.8" y1="259.4" x2="350" y2="259.4"/>
	</g>
</g>
<g>
	<g id="LINE_7445_">
		<line fill="none" x1="350" y1="214.9" x2="350" y2="259.4"/>
	</g>
	<g id="LINE_7444_">
		<line fill="none" x1="350" y1="259.4" x2="375.8" y2="259.4"/>
	</g>
	<g id="LINE_7442_">
		<line fill="none" x1="375.8" y1="214.9" x2="350" y2="214.9"/>
	</g>
	<g id="LINE_7441_">
		<line fill="none" x1="375.8" y1="214.9" x2="375.8" y2="259.4"/>
	</g>
</g>
<g>
	<g id="LINE_7561_">
		<line fill="none" x1="375.8" y1="259.4" x2="375.8" y2="287.9"/>
	</g>
	<g id="LINE_7560_">
		<line fill="none" x1="375.8" y1="287.9" x2="416.8" y2="287.9"/>
	</g>
	<g id="LINE_7559_">
		<line fill="none" x1="416.8" y1="287.9" x2="416.8" y2="259.4"/>
	</g>
	<g id="LINE_7440_">
		<line fill="none" x1="375.8" y1="259.4" x2="416.8" y2="259.4"/>
	</g>
</g>
<g>
	<g id="LINE_7558_">
		<line fill="none" x1="416.8" y1="259.4" x2="375.8" y2="259.4"/>
	</g>
	<g id="LINE_7443_">
		<line fill="none" x1="375.8" y1="259.4" x2="375.8" y2="214.9"/>
	</g>
	<g id="LINE_7439_">
		<line fill="none" x1="416.8" y1="259.4" x2="416.8" y2="214.9"/>
	</g>
	<g id="LINE_7438_">
		<line fill="none" x1="416.8" y1="214.9" x2="375.8" y2="214.9"/>
	</g>
</g>
</svg>
