<?xml version="1.0" encoding="utf-8"?>
<!-- Generator: Adobe Illustrator 18.1.1, SVG Export Plug-In . SVG Version: 6.00 Build 0)  -->
<!DOCTYPE svg PUBLIC "-//W3C//DTD SVG 1.1//EN" "http://www.w3.org/Graphics/SVG/1.1/DTD/svg11.dtd">
<svg version="1.1" id="Layer_1" xmlns="http://www.w3.org/2000/svg" xmlns:xlink="http://www.w3.org/1999/xlink" x="0px" y="0px"
	 width="482.7px" height="187.9px" viewBox="91 7.1 482.7 187.9" enable-background="new 91 7.1 482.7 187.9" xml:space="preserve">
<g>
	<path fill="#6F6E91" d="M190.4,40v5.2h-19.5v12.5h15.8v5.2h-15.8v15.4h20.1v5.2h-25.6V40H190.4z"/>
	<path fill="#6F6E91" d="M239,83.5h-5.2V62.6c0-4-1.7-6.2-5-6.2c-4.5,0-8.3,5.1-8.3,14.2v12.9h-5.2V62.6c0-4-1.7-6.2-5-6.2
		c-4.5,0-8.3,5.1-8.3,14.2v12.9h-5.2V52.2h5.2V58c2-3.9,5.4-6.3,9.8-6.3s7.4,2.4,8.4,6.5c2.2-4.1,5.8-6.5,10.2-6.5
		c5.7,0,8.8,3.7,8.8,9.8V83.5z"/>
	<path fill="#6F6E91" d="M261.8,84c-4,0-8.1-2.4-9.1-4.2v16.4h-5.2v-44h5.2V56c1.5-2.3,5.3-4.4,9.1-4.4c9.2,0,13.9,6.8,13.9,16.2
		S271,84,261.8,84z M261.3,56.4c-5.7,0-9.1,4.7-9.1,11.4s3.4,11.4,9.1,11.4c5.5,0,9.1-4.7,9.1-11.4S266.8,56.4,261.3,56.4z"/>
	<path fill="#6F6E91" d="M285.5,39.5c2.2,0,3.9,1.7,3.9,4c0,2.2-1.7,3.9-3.9,3.9s-3.9-1.7-3.9-3.9C281.6,41.2,283.3,39.5,285.5,39.5
		z M288.1,52.2v31.3h-5.2V52.2H288.1z"/>
	<path fill="#6F6E91" d="M314.4,57.3c-1.1-0.6-2.4-0.9-3.7-0.9c-4.3,0-8.8,5-8.8,15.2v11.9h-5.2V52.2h5.2v5.3
		c1.9-3.5,5.7-5.8,9.2-5.8c1.7,0,3.4,0.4,4.3,0.9L314.4,57.3z"/>
	<path fill="#6F6E91" d="M345.9,69h-23c0.3,5.8,3.2,10.3,8.8,10.3c4.6,0,7-2.1,8.7-6l4.6,2c-2.9,6.1-6.8,8.7-13.3,8.7
		c-9.5,0-14.2-7.8-14.2-16.2s4.7-16.2,14.2-16.2c9.3,0,14.2,7.1,14.2,14.9V69z M323.2,64.2h17.2c-0.9-4.5-3.7-7.8-8.7-7.8
		C326.9,56.4,324.1,59.7,323.2,64.2z"/>
	<path fill="#6F6E91" d="M386.1,49.3c-2.1-3.8-4.3-4.6-6.9-4.6c-3.1,0-5.2,2.6-5.2,5.4c0,4.3,3.8,6.1,8.4,8.4
		c4.9,2.5,10.4,5.5,10.4,12.5c0,3.5-1.2,6.6-3.4,8.9c-2.4,2.6-5.8,4.1-9.7,4.1c-7.2,0-12.6-5-14-11.7l4.7-2.9
		c1.4,5.2,3.7,9.4,9.3,9.4c2.2,0,4.5-0.9,5.9-2.5c1.1-1.3,1.7-3.2,1.7-5.2c0-4.2-4-6.5-8.2-8.5c-5.7-2.7-10.6-5.4-10.6-12.1
		c0-6.5,5-11.1,10.7-11.1c6.2,0,9.2,2.9,11.3,7L386.1,49.3z"/>
	<path fill="#6F6E91" d="M394.8,52.2h5.4v-9.4l5.2-3.3v12.7h8.2v4.7h-8.2v17.2c0,3.4,1.6,5.2,4.2,5.2c1.4,0,2.4-0.2,3.5-1l1.2,4.5
		c-1.5,0.9-3.3,1.2-5.1,1.2c-5.3,0-9.1-3.2-9.1-10.3V56.9h-5.4V52.2z"/>
	<path fill="#6F6E91" d="M443.3,83.5h-4.1l-0.9-4.4c-2,2.9-5.2,4.9-9.8,4.9c-5.2,0-9.7-2.8-9.7-9.5c0-6.7,5.6-10.3,14.2-10.3h5.1
		v-1.4c0-4.8-3-6.5-6.8-6.5c-3.2,0-5.8,1.8-6.5,4.9l-4.6-1.1c0.9-5.3,5.2-8.6,11.1-8.6c6.9,0,12.1,3.5,12.1,11.8V83.5z M429.3,79.3
		c4,0,8.8-2.5,8.8-9.6V69h-5.6c-5.3,0-8.3,2-8.3,5.5C424.2,77.5,426,79.3,429.3,79.3z"/>
	<path fill="#6F6E91" d="M448.3,52.2h5.4v-9.4l5.2-3.3v12.7h8.2v4.7H459v17.2c0,3.4,1.6,5.2,4.2,5.2c1.4,0,2.4-0.2,3.5-1l1.2,4.5
		c-1.5,0.9-3.3,1.2-5.1,1.2c-5.3,0-9.1-3.2-9.1-10.3V56.9h-5.4V52.2z"/>
	<path fill="#6F6E91" d="M500.2,69h-23c0.3,5.8,3.2,10.3,8.8,10.3c4.6,0,7-2.1,8.7-6l4.6,2c-2.9,6.1-6.8,8.7-13.3,8.7
		c-9.5,0-14.2-7.8-14.2-16.2s4.7-16.2,14.2-16.2c9.3,0,14.2,7.1,14.2,14.9V69z M477.5,64.2h17.2c-0.9-4.5-3.7-7.8-8.7-7.8
		C481.2,56.4,478.4,59.7,477.5,64.2z"/>
	<path fill="#6F6E91" d="M191.5,137.6H185v20.5h-5.5v-43.5H194c7.7,0,12.8,4.2,12.8,11.5c0,6-3.4,9.9-9.1,11.1l13,20.9h-6.5
		L191.5,137.6z M185,119.8v12.6h9.1c4.5,0,7-1.9,7-6.3s-2.5-6.3-7-6.3H185z"/>
	<path fill="#6F6E91" d="M240.6,143.6h-23c0.3,5.8,3.2,10.3,8.8,10.3c4.6,0,7-2.1,8.7-6l4.6,2c-2.9,6.1-6.8,8.7-13.3,8.7
		c-9.5,0-14.2-7.8-14.2-16.2c0-8.4,4.7-16.2,14.2-16.2c9.3,0,14.2,7.1,14.2,14.9V143.6z M217.9,138.8h17.2c-0.9-4.5-3.7-7.8-8.7-7.8
		C221.5,131,218.8,134.3,217.9,138.8z"/>
	<path fill="#6F6E91" d="M270.8,158.1h-4.1l-0.9-4.4c-2,2.9-5.2,4.9-9.8,4.9c-5.2,0-9.7-2.8-9.7-9.5s5.6-10.3,14.2-10.3h5.1v-1.4
		c0-4.8-3-6.5-6.8-6.5c-3.2,0-5.8,1.8-6.5,4.9l-4.6-1.1c0.9-5.3,5.2-8.6,11.1-8.6c6.9,0,12.1,3.5,12.1,11.8V158.1z M256.8,153.9
		c4,0,8.8-2.5,8.8-9.6v-0.7H260c-5.3,0-8.3,2-8.3,5.5C251.6,152.1,253.5,153.9,256.8,153.9z"/>
	<path fill="#6F6E91" d="M284.2,114.1v44H279v-44H284.2z"/>
	<path fill="#6F6E91" d="M289.9,126.8h5.4v-9.4l5.2-3.3v12.7h8.2v4.7h-8.2v17.2c0,3.4,1.6,5.2,4.2,5.2c1.4,0,2.4-0.2,3.5-1l1.2,4.5
		c-1.5,0.9-3.3,1.2-5.1,1.2c-5.3,0-9.1-3.2-9.1-10.3v-16.8h-5.4V126.8z"/>
	<path fill="#6F6E91" d="M339.5,126.8l-15.5,44h-5.3l5-14l-11-30h5.7l8,22.6l7.8-22.6H339.5z"/>
	<path fill="#6F6E91" d="M355.3,114.6h30.6v5.2h-12.6v38.3h-5.5v-38.3h-12.6V114.6z"/>
	<path fill="#6F6E91" d="M404,131.9c-1.1-0.6-2.4-0.9-3.7-0.9c-4.3,0-8.8,5-8.8,15.2v11.9h-5.2v-31.3h5.2v5.3
		c1.9-3.5,5.7-5.8,9.2-5.8c1.7,0,3.4,0.4,4.3,0.9L404,131.9z"/>
	<path fill="#6F6E91" d="M410.4,126.8h5.2v20.7c0,4.3,1.9,6.4,5.4,6.4c4.7,0,9-5.3,9-14v-13.1h5.2v31.3H430v-5.8
		c-2.3,4-6,6.3-10.4,6.3c-5.7,0-9.2-3.5-9.2-9.8V126.8z"/>
	<path fill="#6F6E91" d="M462.6,131.1l-3.5,3c-2.1-2.2-3.5-3.1-5.7-3.1c-2.1,0-3.8,1.4-3.8,4c0,5.7,14.5,4.5,14.5,13.7
		c0,6.3-4,9.9-10.4,9.9c-6.4,0-10.1-4.2-11.7-8.5l4.4-2.4c1.4,3.4,3.8,6.2,7.3,6.2c3.2,0,5-1.6,5-4.9c0-5.8-14.4-3.9-14.4-14
		c0-4.8,3.5-8.6,9.2-8.6C457.4,126.3,460.4,128,462.6,131.1z"/>
	<path fill="#6F6E91" d="M467.3,126.8h5.4v-9.4l5.2-3.3v12.7h8.2v4.7h-8.2v17.2c0,3.4,1.6,5.2,4.2,5.2c1.4,0,2.4-0.2,3.5-1l1.2,4.5
		c-1.5,0.9-3.3,1.2-5.1,1.2c-5.3,0-9.1-3.2-9.1-10.3v-16.8h-5.4V126.8z"/>
</g>
</svg>
