<?xml version="1.0" encoding="utf-8"?>
<!-- Generator: Adobe Illustrator 18.1.1, SVG Export Plug-In . SVG Version: 6.00 Build 0)  -->
<!DOCTYPE svg PUBLIC "-//W3C//DTD SVG 1.1//EN" "http://www.w3.org/Graphics/SVG/1.1/DTD/svg11.dtd">
<svg version="1.1" id="_x30_-PF-CELULAR_x24_0-PF-CELL-EXIST"
	 xmlns="http://www.w3.org/2000/svg" xmlns:xlink="http://www.w3.org/1999/xlink" x="0px" y="0px" width="2155.83px"
	 height="1155.83px" viewBox="0 0 2155.83 1155.83" enable-background="new 0 0 2155.83 1155.83" xml:space="preserve">
<g id="POLYLINE_52_">
	
		<polyline fill="none" stroke="#000000" stroke-width="0.7087" stroke-linecap="round" stroke-linejoin="round" stroke-miterlimit="10" points="
		1013.23,129.01 1113.23,129.01 1113.23,24.79 1013.23,24.79 1013.23,129.01 	"/>
</g>
<g id="POLYLINE_53_">
	
		<polyline fill="none" stroke="#000000" stroke-width="0.7087" stroke-linecap="round" stroke-linejoin="round" stroke-miterlimit="10" points="
		1113.23,129.01 1213.23,129.01 1213.23,24.79 1113.23,24.79 1113.23,129.01 	"/>
</g>
<g id="POLYLINE_54_">
	
		<polyline fill="none" stroke="#000000" stroke-width="0.7087" stroke-linecap="round" stroke-linejoin="round" stroke-miterlimit="10" points="
		2011.67,1014.28 2131.04,1014.28 2131.04,913.23 2011.67,913.23 2011.67,1014.28 	"/>
</g>
<g id="POLYLINE_55_">
	
		<polyline fill="none" stroke="#000000" stroke-width="0.7087" stroke-linecap="round" stroke-linejoin="round" stroke-miterlimit="10" points="
		1573.79,974.28 1459.24,974.28 1459.24,862.51 1487.31,813.48 1531.56,835.99 1573.79,836.01 1573.79,974.28 	"/>
</g>
<g id="POLYLINE_56_">
	
		<polyline fill="none" stroke="#000000" stroke-width="0.7087" stroke-linecap="round" stroke-linejoin="round" stroke-miterlimit="10" points="
		1561.4,257.34 1642.6,257.34 1642.6,169.01 1561.4,169.01 1561.4,257.34 	"/>
</g>
<g id="POLYLINE_57_">
	
		<polyline fill="none" stroke="#000000" stroke-width="0.7087" stroke-linecap="round" stroke-linejoin="round" stroke-miterlimit="10" points="
		1642.6,257.34 1811.67,257.34 1811.67,169.01 1642.6,169.01 1642.6,257.34 	"/>
</g>
<g id="POLYLINE_58_">
	
		<polyline fill="none" stroke="#000000" stroke-width="0.7087" stroke-linecap="round" stroke-linejoin="round" stroke-miterlimit="10" points="
		1814.79,257.34 1971.67,257.34 1971.67,169.01 1814.79,169.01 1814.79,257.34 	"/>
</g>
<g id="POLYLINE_59_">
	
		<polyline fill="none" stroke="#000000" stroke-width="0.7087" stroke-linecap="round" stroke-linejoin="round" stroke-miterlimit="10" points="
		1573.79,974.28 1688.35,974.28 1688.35,836.01 1573.79,836.01 1573.79,974.28 	"/>
</g>
<g id="POLYLINE_60_">
	
		<polyline fill="none" stroke="#000000" stroke-width="0.7087" stroke-linecap="round" stroke-linejoin="round" stroke-miterlimit="10" points="
		1688.35,974.28 1811.77,974.28 1811.77,836.01 1688.35,836.01 1688.35,974.28 	"/>
</g>
<g id="POLYLINE_61_">
	
		<polyline fill="none" stroke="#000000" stroke-width="0.7087" stroke-linecap="round" stroke-linejoin="round" stroke-miterlimit="10" points="
		1811.77,974.28 1971.67,974.28 1971.67,851.2 1811.77,851.2 1811.77,974.28 	"/>
</g>
<g id="POLYLINE_62_">
	
		<polyline fill="none" stroke="#000000" stroke-width="0.7087" stroke-linecap="round" stroke-linejoin="round" stroke-miterlimit="10" points="
		1971.67,711.56 1742.04,711.56 1742.04,836.01 1811.77,836.01 1811.77,851.2 1971.67,851.2 1971.67,711.56 	"/>
</g>
<g id="POLYLINE_63_">
	
		<polyline fill="none" stroke="#000000" stroke-width="0.7087" stroke-linecap="round" stroke-linejoin="round" stroke-miterlimit="10" points="
		1842.41,711.56 1971.67,711.56 1971.67,581.56 1842.41,581.56 1842.41,711.56 	"/>
</g>
<g id="POLYLINE_64_">
	
		<polyline fill="none" stroke="#000000" stroke-width="0.7087" stroke-linecap="round" stroke-linejoin="round" stroke-miterlimit="10" points="
		1849.18,581.56 1971.67,581.56 1971.67,443.12 1849.18,443.12 1849.18,581.56 	"/>
</g>
<g id="POLYLINE_65_">
	
		<polyline fill="none" stroke="#000000" stroke-width="0.7087" stroke-linecap="round" stroke-linejoin="round" stroke-miterlimit="10" points="
		1813.23,443.12 1971.67,443.12 1971.67,297.34 1813.23,297.34 1813.23,443.12 	"/>
</g>
<g id="POLYLINE_66_">
	
		<polyline fill="none" stroke="#000000" stroke-width="0.7087" stroke-linecap="round" stroke-linejoin="round" stroke-miterlimit="10" points="
		1715.12,443.12 1813.23,443.12 1813.23,297.34 1715.12,297.34 1715.12,443.12 	"/>
</g>
<g id="POLYLINE_67_">
	
		<polyline fill="none" stroke="#000000" stroke-width="0.7087" stroke-linecap="round" stroke-linejoin="round" stroke-miterlimit="10" points="
		1616.88,443.12 1715.12,443.12 1715.12,297.34 1616.88,297.34 1616.88,443.12 	"/>
</g>
<g id="POLYLINE_68_">
	
		<polyline fill="none" stroke="#000000" stroke-width="0.7087" stroke-linecap="round" stroke-linejoin="round" stroke-miterlimit="10" points="
		1561.4,443.12 1616.88,443.12 1616.88,297.34 1561.4,297.34 1561.4,443.12 	"/>
</g>
<g id="POLYLINE_69_">
	
		<polyline fill="none" stroke="#000000" stroke-width="0.7087" stroke-linecap="round" stroke-linejoin="round" stroke-miterlimit="10" points="
		1413.23,389.53 1521.4,389.53 1521.4,194.01 1413.23,194.01 1413.23,389.53 	"/>
</g>
<g id="POLYLINE_70_">
	
		<polyline fill="none" stroke="#000000" stroke-width="0.7087" stroke-linecap="round" stroke-linejoin="round" stroke-miterlimit="10" points="
		1311.67,389.53 1413.23,389.53 1413.23,194.01 1311.67,194.01 1311.67,389.53 	"/>
</g>
<g id="POLYLINE_71_">
	
		<polyline fill="none" stroke="#000000" stroke-width="0.7087" stroke-linecap="round" stroke-linejoin="round" stroke-miterlimit="10" points="
		1213.23,389.53 1311.67,389.53 1311.67,194.01 1213.23,194.01 1213.23,389.53 	"/>
</g>
<g id="POLYLINE_72_">
	
		<polyline fill="none" stroke="#000000" stroke-width="0.7087" stroke-linecap="round" stroke-linejoin="round" stroke-miterlimit="10" points="
		1113.23,389.53 1213.23,389.53 1213.23,194.01 1113.23,194.01 1113.23,389.53 	"/>
</g>
<g id="POLYLINE_73_">
	
		<polyline fill="none" stroke="#000000" stroke-width="0.7087" stroke-linecap="round" stroke-linejoin="round" stroke-miterlimit="10" points="
		1013.23,389.53 1113.23,389.53 1113.23,194.01 1013.23,194.01 1013.23,389.53 	"/>
</g>
<g id="POLYLINE_74_">
	
		<polyline fill="none" stroke="#000000" stroke-width="0.7087" stroke-linecap="round" stroke-linejoin="round" stroke-miterlimit="10" points="
		1334.06,1131.04 1438.33,1131.04 1438.33,1014.28 1334.06,1014.28 1334.06,1131.04 	"/>
</g>
<g id="POLYLINE_75_">
	
		<polyline fill="none" stroke="#000000" stroke-width="0.7087" stroke-linecap="round" stroke-linejoin="round" stroke-miterlimit="10" points="
		1438.33,1131.04 1542.6,1131.04 1542.6,1014.28 1438.33,1014.28 1438.33,1131.04 	"/>
</g>
<g id="POLYLINE_76_">
	
		<polyline fill="none" stroke="#000000" stroke-width="0.7087" stroke-linecap="round" stroke-linejoin="round" stroke-miterlimit="10" points="
		1542.6,1131.04 1642.6,1131.04 1642.6,1014.28 1542.6,1014.28 1542.6,1131.04 	"/>
</g>
<g id="POLYLINE_77_">
	
		<polyline fill="none" stroke="#000000" stroke-width="0.7087" stroke-linecap="round" stroke-linejoin="round" stroke-miterlimit="10" points="
		1642.6,1131.04 1742.6,1131.04 1742.6,1014.28 1642.6,1014.28 1642.6,1131.04 	"/>
</g>
<g id="POLYLINE_78_">
	
		<polyline fill="none" stroke="#000000" stroke-width="0.7087" stroke-linecap="round" stroke-linejoin="round" stroke-miterlimit="10" points="
		1742.6,1131.04 1913.23,1131.04 1913.23,1014.28 1742.6,1014.28 1742.6,1131.04 	"/>
</g>
<g id="POLYLINE_79_">
	
		<polyline fill="none" stroke="#000000" stroke-width="0.7087" stroke-linecap="round" stroke-linejoin="round" stroke-miterlimit="10" points="
		2131.04,1014.28 1913.23,1014.28 1913.23,1131.04 2111.67,1131.04 2111.67,1111.67 2131.04,1111.67 2131.04,1014.28 	"/>
</g>
<g id="POLYLINE_80_">
	
		<polyline fill="none" stroke="#000000" stroke-width="0.7087" stroke-linecap="round" stroke-linejoin="round" stroke-miterlimit="10" points="
		2011.67,913.23 2131.04,913.23 2131.04,813.23 2011.67,813.23 2011.67,913.23 	"/>
</g>
<g id="POLYLINE_81_">
	
		<polyline fill="none" stroke="#000000" stroke-width="0.7087" stroke-linecap="round" stroke-linejoin="round" stroke-miterlimit="10" points="
		2011.67,813.23 2131.04,813.23 2131.04,713.23 2011.67,713.23 2011.67,813.23 	"/>
</g>
<g id="POLYLINE_82_">
	
		<polyline fill="none" stroke="#000000" stroke-width="0.7087" stroke-linecap="round" stroke-linejoin="round" stroke-miterlimit="10" points="
		2011.67,913.23 2131.04,913.23 2131.04,713.23 2011.67,713.23 2011.67,913.23 	"/>
</g>
<g id="POLYLINE_83_">
	
		<polyline fill="none" stroke="#000000" stroke-width="0.7087" stroke-linecap="round" stroke-linejoin="round" stroke-miterlimit="10" points="
		2011.67,713.23 2131.04,713.23 2131.04,542.6 2011.67,542.6 2011.67,713.23 	"/>
</g>
<g id="POLYLINE_84_">
	
		<polyline fill="none" stroke="#000000" stroke-width="0.7087" stroke-linecap="round" stroke-linejoin="round" stroke-miterlimit="10" points="
		2011.67,542.6 2131.04,542.6 2131.04,413.23 2011.67,413.23 2011.67,542.6 	"/>
</g>
<g id="POLYLINE_85_">
	
		<polyline fill="none" stroke="#000000" stroke-width="0.7087" stroke-linecap="round" stroke-linejoin="round" stroke-miterlimit="10" points="
		2011.67,413.23 2131.04,413.23 2131.04,313.23 2011.67,313.23 2011.67,413.23 	"/>
</g>
<g id="POLYLINE_86_">
	
		<polyline fill="none" stroke="#000000" stroke-width="0.7087" stroke-linecap="round" stroke-linejoin="round" stroke-miterlimit="10" points="
		2011.67,313.23 2131.04,313.23 2131.04,213.23 2011.67,213.23 2011.67,313.23 	"/>
</g>
<g id="POLYLINE_87_">
	
		<polyline fill="none" stroke="#000000" stroke-width="0.7087" stroke-linecap="round" stroke-linejoin="round" stroke-miterlimit="10" points="
		2011.67,213.23 2131.04,213.23 2131.04,24.79 2011.67,24.79 2011.67,213.23 	"/>
</g>
<g id="POLYLINE_88_">
	
		<polyline fill="none" stroke="#000000" stroke-width="0.7087" stroke-linecap="round" stroke-linejoin="round" stroke-miterlimit="10" points="
		1913.32,129.01 2011.67,129.01 2011.67,24.79 1913.32,24.79 1913.32,129.01 	"/>
</g>
<g id="POLYLINE_89_">
	
		<polyline fill="none" stroke="#000000" stroke-width="0.7087" stroke-linecap="round" stroke-linejoin="round" stroke-miterlimit="10" points="
		1813.41,129.01 1913.32,129.01 1913.32,24.79 1813.41,24.79 1813.41,129.01 	"/>
</g>
<g id="POLYLINE_90_">
	
		<polyline fill="none" stroke="#000000" stroke-width="0.7087" stroke-linecap="round" stroke-linejoin="round" stroke-miterlimit="10" points="
		1642.6,129.01 1813.41,129.01 1813.41,24.79 1642.6,24.79 1642.6,129.01 	"/>
</g>
<g id="POLYLINE_91_">
	
		<polyline fill="none" stroke="#000000" stroke-width="0.7087" stroke-linecap="round" stroke-linejoin="round" stroke-miterlimit="10" points="
		1542.54,129.01 1642.6,129.01 1642.6,24.79 1542.54,24.79 1542.54,129.01 	"/>
</g>
<g id="POLYLINE_92_">
	
		<polyline fill="none" stroke="#000000" stroke-width="0.7087" stroke-linecap="round" stroke-linejoin="round" stroke-miterlimit="10" points="
		1413.23,129.01 1542.54,129.01 1542.54,24.79 1413.23,24.79 1413.23,129.01 	"/>
</g>
<g id="POLYLINE_93_">
	
		<polyline fill="none" stroke="#000000" stroke-width="0.7087" stroke-linecap="round" stroke-linejoin="round" stroke-miterlimit="10" points="
		1311.67,129.01 1413.23,129.01 1413.23,24.79 1311.67,24.79 1311.67,129.01 	"/>
</g>
<g id="POLYLINE_94_">
	
		<polyline fill="none" stroke="#000000" stroke-width="0.7087" stroke-linecap="round" stroke-linejoin="round" stroke-miterlimit="10" points="
		1213.23,129.01 1311.67,129.01 1311.67,24.79 1213.23,24.79 1213.23,129.01 	"/>
</g>
</svg>
