<?xml version="1.0" encoding="utf-8"?>
<!-- Generator: Adobe Illustrator 18.1.1, SVG Export Plug-In . SVG Version: 6.00 Build 0)  -->
<!DOCTYPE svg PUBLIC "-//W3C//DTD SVG 1.1//EN" "http://www.w3.org/Graphics/SVG/1.1/DTD/svg11.dtd">
<svg version="1.1" xmlns="http://www.w3.org/2000/svg" xmlns:xlink="http://www.w3.org/1999/xlink" x="0px" y="0px" width="1130px"
	 height="610px" viewBox="0 0 1130 610" enable-background="new 0 0 1130 610" xml:space="preserve">
<g id="pantry">
	
		<line fill="none" stroke="#231F20" stroke-width="0.5" stroke-linecap="round" stroke-linejoin="round" x1="873.19" y1="98.39" x2="878.06" y2="93.51"/>
	
		<line fill="none" stroke="#231F20" stroke-width="0.5" stroke-linecap="round" stroke-linejoin="round" x1="878.06" y1="93.51" x2="884.16" y2="99.61"/>
	
		<line fill="none" stroke="#231F20" stroke-width="0.5" stroke-linecap="round" stroke-linejoin="round" x1="884.16" y1="99.61" x2="879.28" y2="104.48"/>
	<polyline fill="none" stroke="#231F20" stroke-width="0.5" stroke-linecap="round" stroke-linejoin="round" points="861.93,109.65 
		857.06,114.52 863.15,120.62 868.03,115.74 	"/>
	
		<line fill="none" stroke="#231F20" stroke-width="0.5" stroke-linecap="round" stroke-linejoin="round" x1="864.37" y1="119.4" x2="858.28" y2="113.3"/>
	<polyline fill="none" stroke="#231F20" stroke-width="0.5" stroke-linecap="round" stroke-linejoin="round" points="868.03,98.39 
		863.15,93.51 857.06,99.61 861.93,104.48 	"/>
	
		<line fill="none" stroke="#231F20" stroke-width="0.5" stroke-linecap="round" stroke-linejoin="round" x1="858.28" y1="100.83" x2="864.37" y2="94.74"/>
	<path fill="none" stroke="#231F20" stroke-width="0.5" stroke-linecap="round" stroke-linejoin="round" d="M861.56,107.06
		c0,5,4.05,9.05,9.05,9.05c5,0,9.05-4.05,9.05-9.05"/>
	<path fill="none" stroke="#231F20" stroke-width="0.5" stroke-linecap="round" stroke-linejoin="round" d="M879.66,107.06
		c0-5-4.05-9.05-9.05-9.05c-5,0-9.05,4.05-9.05,9.05"/>
	<polyline fill="none" stroke="#231F20" stroke-width="0.5" stroke-linecap="round" stroke-linejoin="round" points="879.28,109.65 
		884.16,114.52 878.06,120.62 873.19,115.74 	"/>
	
		<line fill="none" stroke="#231F20" stroke-width="0.5" stroke-linecap="round" stroke-linejoin="round" x1="876.85" y1="119.4" x2="882.94" y2="113.3"/>
	
		<line fill="none" stroke="#231F20" stroke-width="0.5" stroke-linecap="round" stroke-linejoin="round" x1="989.03" y1="101.51" x2="995.13" y2="95.41"/>
	
		<line fill="none" stroke="#231F20" stroke-width="0.5" stroke-linecap="round" stroke-linejoin="round" x1="998.79" y1="99.07" x2="993.91" y2="94.2"/>
	
		<line fill="none" stroke="#231F20" stroke-width="0.5" stroke-linecap="round" stroke-linejoin="round" x1="993.91" y1="94.2" x2="987.82" y2="100.29"/>
	
		<line fill="none" stroke="#231F20" stroke-width="0.5" stroke-linecap="round" stroke-linejoin="round" x1="987.82" y1="100.29" x2="992.69" y2="105.17"/>
	<polyline fill="none" stroke="#231F20" stroke-width="0.5" stroke-linecap="round" stroke-linejoin="round" points="
		1010.04,110.33 1014.92,115.2 1008.82,121.3 1003.95,116.43 	"/>
	
		<line fill="none" stroke="#231F20" stroke-width="0.5" stroke-linecap="round" stroke-linejoin="round" x1="1007.6" y1="120.08" x2="1013.7" y2="113.99"/>
	<polyline fill="none" stroke="#231F20" stroke-width="0.5" stroke-linecap="round" stroke-linejoin="round" points="1003.95,99.07 
		1008.82,94.2 1014.92,100.29 1010.04,105.17 	"/>
	
		<line fill="none" stroke="#231F20" stroke-width="0.5" stroke-linecap="round" stroke-linejoin="round" x1="1013.7" y1="101.51" x2="1007.6" y2="95.41"/>
	<path fill="none" stroke="#231F20" stroke-width="0.5" stroke-linecap="round" stroke-linejoin="round" d="M1010.42,107.75
		c0,5-4.05,9.05-9.05,9.05c-5,0-9.05-4.05-9.05-9.05"/>
	<path fill="none" stroke="#231F20" stroke-width="0.5" stroke-linecap="round" stroke-linejoin="round" d="M992.32,107.75
		c0-5,4.05-9.05,9.05-9.05c5,0,9.05,4.05,9.05,9.05"/>
	<polyline fill="none" stroke="#231F20" stroke-width="0.5" stroke-linecap="round" stroke-linejoin="round" points="992.69,110.33 
		987.82,115.2 993.91,121.3 998.79,116.43 	"/>
	
		<line fill="none" stroke="#231F20" stroke-width="0.5" stroke-linecap="round" stroke-linejoin="round" x1="995.13" y1="120.08" x2="989.03" y2="113.99"/>
	
		<line fill="none" stroke="#231F20" stroke-width="0.5" stroke-linecap="round" stroke-linejoin="round" x1="954.88" y1="119.41" x2="960.97" y2="113.32"/>
	
		<line fill="none" stroke="#231F20" stroke-width="0.5" stroke-linecap="round" stroke-linejoin="round" x1="964.63" y1="116.97" x2="959.75" y2="112.1"/>
	
		<line fill="none" stroke="#231F20" stroke-width="0.5" stroke-linecap="round" stroke-linejoin="round" x1="959.75" y1="112.1" x2="953.66" y2="118.19"/>
	
		<line fill="none" stroke="#231F20" stroke-width="0.5" stroke-linecap="round" stroke-linejoin="round" x1="953.66" y1="118.19" x2="958.53" y2="123.07"/>
	<polyline fill="none" stroke="#231F20" stroke-width="0.5" stroke-linecap="round" stroke-linejoin="round" points="975.88,128.23 
		980.76,133.11 974.67,139.2 969.79,134.33 	"/>
	
		<line fill="none" stroke="#231F20" stroke-width="0.5" stroke-linecap="round" stroke-linejoin="round" x1="973.45" y1="137.98" x2="979.54" y2="131.88"/>
	<polyline fill="none" stroke="#231F20" stroke-width="0.5" stroke-linecap="round" stroke-linejoin="round" points="969.79,116.97 
		974.67,112.1 980.76,118.19 975.88,123.07 	"/>
	
		<line fill="none" stroke="#231F20" stroke-width="0.5" stroke-linecap="round" stroke-linejoin="round" x1="979.54" y1="119.41" x2="973.45" y2="113.32"/>
	<path fill="none" stroke="#231F20" stroke-width="0.5" stroke-linecap="round" stroke-linejoin="round" d="M976.26,125.65
		c0,5-4.05,9.05-9.05,9.05c-5,0-9.05-4.05-9.05-9.05"/>
	<path fill="none" stroke="#231F20" stroke-width="0.5" stroke-linecap="round" stroke-linejoin="round" d="M958.16,125.65
		c0-5,4.05-9.05,9.05-9.05c5,0,9.05,4.05,9.05,9.05"/>
	<polyline fill="none" stroke="#231F20" stroke-width="0.5" stroke-linecap="round" stroke-linejoin="round" points="958.53,128.23 
		953.66,133.11 959.75,139.2 964.63,134.33 	"/>
	
		<line fill="none" stroke="#231F20" stroke-width="0.5" stroke-linecap="round" stroke-linejoin="round" x1="960.97" y1="137.98" x2="954.88" y2="131.88"/>
	
		<line fill="none" stroke="#231F20" stroke-width="0.5" stroke-linecap="round" stroke-linejoin="round" x1="846.3" y1="119.41" x2="840.2" y2="113.32"/>
	
		<line fill="none" stroke="#231F20" stroke-width="0.5" stroke-linecap="round" stroke-linejoin="round" x1="836.55" y1="116.97" x2="841.42" y2="112.1"/>
	
		<line fill="none" stroke="#231F20" stroke-width="0.5" stroke-linecap="round" stroke-linejoin="round" x1="841.42" y1="112.1" x2="847.52" y2="118.19"/>
	
		<line fill="none" stroke="#231F20" stroke-width="0.5" stroke-linecap="round" stroke-linejoin="round" x1="847.52" y1="118.19" x2="842.64" y2="123.07"/>
	<polyline fill="none" stroke="#231F20" stroke-width="0.5" stroke-linecap="round" stroke-linejoin="round" points="825.29,128.23 
		820.41,133.11 826.51,139.2 831.39,134.33 	"/>
	
		<line fill="none" stroke="#231F20" stroke-width="0.5" stroke-linecap="round" stroke-linejoin="round" x1="827.73" y1="137.98" x2="821.63" y2="131.88"/>
	<polyline fill="none" stroke="#231F20" stroke-width="0.5" stroke-linecap="round" stroke-linejoin="round" points="831.39,116.97 
		826.51,112.1 820.41,118.19 825.29,123.07 	"/>
	
		<line fill="none" stroke="#231F20" stroke-width="0.5" stroke-linecap="round" stroke-linejoin="round" x1="821.63" y1="119.41" x2="827.73" y2="113.32"/>
	<path fill="none" stroke="#231F20" stroke-width="0.5" stroke-linecap="round" stroke-linejoin="round" d="M824.91,125.65
		c0,5,4.05,9.05,9.05,9.05c5,0,9.05-4.05,9.05-9.05"/>
	<path fill="none" stroke="#231F20" stroke-width="0.5" stroke-linecap="round" stroke-linejoin="round" d="M843.02,125.65
		c0-5-4.05-9.05-9.05-9.05c-5,0-9.05,4.05-9.05,9.05"/>
	<polyline fill="none" stroke="#231F20" stroke-width="0.5" stroke-linecap="round" stroke-linejoin="round" points="842.64,128.23 
		847.52,133.11 841.42,139.2 836.55,134.33 	"/>
	
		<line fill="none" stroke="#231F20" stroke-width="0.5" stroke-linecap="round" stroke-linejoin="round" x1="840.2" y1="137.98" x2="846.3" y2="131.88"/>
	
		<line fill="none" stroke="#231F20" stroke-width="0.5" stroke-linecap="round" stroke-linejoin="round" x1="918.33" y1="119.41" x2="912.24" y2="113.32"/>
	
		<line fill="none" stroke="#231F20" stroke-width="0.5" stroke-linecap="round" stroke-linejoin="round" x1="908.58" y1="116.97" x2="913.45" y2="112.1"/>
	
		<line fill="none" stroke="#231F20" stroke-width="0.5" stroke-linecap="round" stroke-linejoin="round" x1="913.45" y1="112.1" x2="919.55" y2="118.19"/>
	
		<line fill="none" stroke="#231F20" stroke-width="0.5" stroke-linecap="round" stroke-linejoin="round" x1="919.55" y1="118.19" x2="914.67" y2="123.07"/>
	<polyline fill="none" stroke="#231F20" stroke-width="0.5" stroke-linecap="round" stroke-linejoin="round" points="897.32,128.23 
		892.44,133.11 898.54,139.2 903.42,134.33 	"/>
	
		<line fill="none" stroke="#231F20" stroke-width="0.5" stroke-linecap="round" stroke-linejoin="round" x1="899.76" y1="137.98" x2="893.67" y2="131.88"/>
	<polyline fill="none" stroke="#231F20" stroke-width="0.5" stroke-linecap="round" stroke-linejoin="round" points="903.42,116.97 
		898.54,112.1 892.44,118.19 897.32,123.07 	"/>
	
		<line fill="none" stroke="#231F20" stroke-width="0.5" stroke-linecap="round" stroke-linejoin="round" x1="893.67" y1="119.41" x2="899.76" y2="113.32"/>
	<path fill="none" stroke="#231F20" stroke-width="0.5" stroke-linecap="round" stroke-linejoin="round" d="M896.95,125.65
		c0,5,4.05,9.05,9.05,9.05c5,0,9.05-4.05,9.05-9.05"/>
	<path fill="none" stroke="#231F20" stroke-width="0.5" stroke-linecap="round" stroke-linejoin="round" d="M915.05,125.65
		c0-5-4.05-9.05-9.05-9.05c-5,0-9.05,4.05-9.05,9.05"/>
	<polyline fill="none" stroke="#231F20" stroke-width="0.5" stroke-linecap="round" stroke-linejoin="round" points="914.67,128.23 
		919.55,133.11 913.45,139.2 908.58,134.33 	"/>
	
		<line fill="none" stroke="#231F20" stroke-width="0.5" stroke-linecap="round" stroke-linejoin="round" x1="912.24" y1="137.98" x2="918.33" y2="131.88"/>
	
		<line fill="none" stroke="#231F20" stroke-width="0.5" stroke-linecap="round" stroke-linejoin="round" x1="942.23" y1="93.51" x2="931.46" y2="93.51"/>
	
		<line fill="none" stroke="#231F20" stroke-width="0.5" stroke-linecap="round" stroke-linejoin="round" x1="938.79" y1="95.45" x2="934.04" y2="95.45"/>
	
		<line fill="none" stroke="#231F20" stroke-width="0.5" stroke-linecap="round" stroke-linejoin="round" x1="933.18" y1="96.32" x2="933.18" y2="102.68"/>
	
		<line fill="none" stroke="#231F20" stroke-width="0.5" stroke-linecap="round" stroke-linejoin="round" x1="934.04" y1="112.26" x2="938.79" y2="112.26"/>
	
		<line fill="none" stroke="#231F20" stroke-width="0.5" stroke-linecap="round" stroke-linejoin="round" x1="939.65" y1="111.4" x2="939.65" y2="105.04"/>
	<path fill="none" stroke="#231F20" stroke-width="0.5" stroke-linecap="round" stroke-linejoin="round" d="M938.79,112.26
		c0.61,0,0.86-0.25,0.86-0.86"/>
	<path fill="none" stroke="#231F20" stroke-width="0.5" stroke-linecap="round" stroke-linejoin="round" d="M933.18,111.4
		c0,0.61,0.25,0.86,0.86,0.86"/>
	<path fill="none" stroke="#231F20" stroke-width="0.5" stroke-linecap="round" stroke-linejoin="round" d="M934.04,95.45
		c-0.61,0-0.86,0.25-0.86,0.86"/>
	<path fill="none" stroke="#231F20" stroke-width="0.5" stroke-linecap="round" stroke-linejoin="round" d="M939.65,96.32
		c0-0.61-0.25-0.86-0.86-0.86"/>
	<path fill="none" stroke="#231F20" stroke-width="0.5" stroke-linecap="round" stroke-linejoin="round" d="M940.62,104.07
		c0.15,0,0.21-0.06,0.21-0.22c0-0.15-0.06-0.21-0.21-0.21"/>
	
		<line fill="none" stroke="#231F20" stroke-width="0.5" stroke-linecap="round" stroke-linejoin="round" x1="940.62" y1="103.64" x2="937.28" y2="103.64"/>
	
		<line fill="none" stroke="#231F20" stroke-width="0.5" stroke-linecap="round" stroke-linejoin="round" x1="940.62" y1="104.07" x2="937.28" y2="104.07"/>
	<path fill="none" stroke="#231F20" stroke-width="0.5" stroke-linecap="round" stroke-linejoin="round" d="M937.28,103.64
		c-0.15,0-0.22,0.06-0.22,0.21c0,0.15,0.07,0.22,0.22,0.22"/>
	
		<line fill="none" stroke="#231F20" stroke-width="0.5" stroke-linecap="round" stroke-linejoin="round" x1="938.79" y1="103.53" x2="934.04" y2="103.53"/>
	
		<line fill="none" stroke="#231F20" stroke-width="0.5" stroke-linecap="round" stroke-linejoin="round" x1="938.79" y1="104.18" x2="934.04" y2="104.18"/>
	
		<line fill="none" stroke="#231F20" stroke-width="0.5" stroke-linecap="round" stroke-linejoin="round" x1="933.18" y1="105.04" x2="933.18" y2="111.4"/>
	
		<line fill="none" stroke="#231F20" stroke-width="0.5" stroke-linecap="round" stroke-linejoin="round" x1="939.65" y1="102.68" x2="939.65" y2="96.32"/>
	<path fill="none" stroke="#231F20" stroke-width="0.5" stroke-linecap="round" stroke-linejoin="round" d="M939.65,105.04
		c0-0.61-0.25-0.86-0.86-0.86"/>
	<path fill="none" stroke="#231F20" stroke-width="0.5" stroke-linecap="round" stroke-linejoin="round" d="M934.04,104.18
		c-0.61,0-0.86,0.25-0.86,0.86"/>
	<path fill="none" stroke="#231F20" stroke-width="0.5" stroke-linecap="round" stroke-linejoin="round" d="M933.18,102.68
		c0,0.61,0.25,0.86,0.86,0.86"/>
	<path fill="none" stroke="#231F20" stroke-width="0.5" stroke-linecap="round" stroke-linejoin="round" d="M938.79,103.53
		c0.61,0,0.86-0.25,0.86-0.86"/>
	<path fill="none" stroke="#231F20" stroke-width="0.5" stroke-linecap="round" stroke-linejoin="round" d="M936.41,100.09
		c0.3,0,0.43-0.13,0.43-0.43c0-0.3-0.12-0.43-0.43-0.43"/>
	<path fill="none" stroke="#231F20" stroke-width="0.5" stroke-linecap="round" stroke-linejoin="round" d="M936.41,99.23
		c-0.3,0-0.43,0.12-0.43,0.43c0,0.31,0.12,0.43,0.43,0.43"/>
	<path fill="none" stroke="#231F20" stroke-width="0.5" stroke-linecap="round" stroke-linejoin="round" d="M936.41,108.49
		c0.3,0,0.43-0.13,0.43-0.43c0-0.3-0.12-0.43-0.43-0.43"/>
	<path fill="none" stroke="#231F20" stroke-width="0.5" stroke-linecap="round" stroke-linejoin="round" d="M936.41,107.63
		c-0.3,0-0.43,0.13-0.43,0.43c0,0.31,0.12,0.43,0.43,0.43"/>
	<path fill="none" stroke="#231F20" stroke-width="0.5" stroke-linecap="round" stroke-linejoin="round" d="M940.62,101.7
		c-0.31,0-0.43,0.12-0.43,0.43c0,0.31,0.12,0.43,0.43,0.43"/>
	<path fill="none" stroke="#231F20" stroke-width="0.5" stroke-linecap="round" stroke-linejoin="round" d="M940.62,102.56
		c0.3,0,0.43-0.12,0.43-0.43c0-0.31-0.12-0.43-0.43-0.43"/>
	<path fill="none" stroke="#231F20" stroke-width="0.5" stroke-linecap="round" stroke-linejoin="round" d="M940.62,105.15
		c-0.31,0-0.43,0.13-0.43,0.43c0,0.3,0.12,0.43,0.43,0.43"/>
	<path fill="none" stroke="#231F20" stroke-width="0.5" stroke-linecap="round" stroke-linejoin="round" d="M940.62,106.01
		c0.3,0,0.43-0.13,0.43-0.43c0-0.31-0.12-0.43-0.43-0.43"/>
	
		<line fill="none" stroke="#231F20" stroke-width="0.5" stroke-linecap="round" stroke-linejoin="round" x1="932.53" y1="112.91" x2="941.59" y2="112.91"/>
	
		<line fill="none" stroke="#231F20" stroke-width="0.5" stroke-linecap="round" stroke-linejoin="round" x1="932.53" y1="94.81" x2="932.53" y2="112.91"/>
	
		<line fill="none" stroke="#231F20" stroke-width="0.5" stroke-linecap="round" stroke-linejoin="round" x1="941.59" y1="112.91" x2="941.59" y2="94.81"/>
	
		<line fill="none" stroke="#231F20" stroke-width="0.5" stroke-linecap="round" stroke-linejoin="round" x1="944.5" y1="93.51" x2="942.23" y2="93.51"/>
	
		<line fill="none" stroke="#231F20" stroke-width="0.5" stroke-linecap="round" stroke-linejoin="round" x1="942.23" y1="139.2" x2="944.5" y2="139.2"/>
	
		<line fill="none" stroke="#231F20" stroke-width="0.5" stroke-linecap="round" stroke-linejoin="round" x1="931.46" y1="139.2" x2="942.23" y2="139.2"/>
	
		<line fill="none" stroke="#231F20" stroke-width="0.5" stroke-linecap="round" stroke-linejoin="round" x1="941.91" y1="93.51" x2="941.91" y2="139.2"/>
	
		<line fill="none" stroke="#231F20" stroke-width="0.5" stroke-linecap="round" stroke-linejoin="round" x1="931.46" y1="93.51" x2="931.46" y2="139.2"/>
	
		<line fill="none" stroke="#231F20" stroke-width="0.5" stroke-linecap="round" stroke-linejoin="round" x1="944.5" y1="139.2" x2="944.5" y2="93.51"/>
	
		<line fill="none" stroke="#231F20" stroke-width="0.5" stroke-linecap="round" stroke-linejoin="round" x1="942.23" y1="93.51" x2="942.23" y2="139.2"/>
	
		<line fill="none" stroke="#231F20" stroke-width="0.5" stroke-linecap="round" stroke-linejoin="round" x1="941.59" y1="94.81" x2="932.53" y2="94.81"/>
	
		<line fill="none" stroke="#231F20" stroke-width="0.5" stroke-linecap="round" stroke-linejoin="round" x1="882.94" y1="100.83" x2="876.85" y2="94.74"/>
	
		<rect x="944.5" y="93.51" fill="none" stroke="#231F20" stroke-width="0.5" stroke-linecap="round" stroke-linejoin="round" width="1.62" height="45.69"/>
</g>
<g id="reception">
	
		<line fill="none" stroke="#231F20" stroke-width="0.5" stroke-linecap="round" stroke-linejoin="round" x1="758.17" y1="467.81" x2="758.17" y2="457.47"/>
	
		<line fill="none" stroke="#231F20" stroke-width="0.5" stroke-linecap="round" stroke-linejoin="round" x1="760.16" y1="457.47" x2="749.82" y2="457.47"/>
	<path fill="none" stroke="#231F20" stroke-width="0.5" stroke-linecap="round" stroke-linejoin="round" d="M749.82,468.3
		c0-0.14-0.06-0.2-0.2-0.2c-0.14,0-0.2,0.06-0.2,0.2c0,0.63,0,1.26,0,1.89c3.71,0,7.43,0,11.14,0c0-5.04,0-10.08,0-15.12
		c-3.71,0-7.43,0-11.14,0c0,0.63,0,1.26,0,1.89c0,0.14,0.06,0.2,0.2,0.2c0.14,0,0.2-0.06,0.2-0.2"/>
	
		<rect x="749.82" y="455.48" fill="none" stroke="#231F20" stroke-width="0.5" stroke-linecap="round" stroke-linejoin="round" width="10.35" height="14.32"/>
	
		<rect x="749.82" y="472.67" fill="none" stroke="#231F20" stroke-width="0.5" stroke-linecap="round" stroke-linejoin="round" width="10.35" height="14.32"/>
	<path fill="none" stroke="#231F20" stroke-width="0.5" stroke-linecap="round" stroke-linejoin="round" d="M749.82,485.5
		c0-0.14-0.06-0.2-0.2-0.2c-0.14,0-0.2,0.06-0.2,0.2c0,0.63,0,1.27,0,1.9c3.71,0,7.43,0,11.14,0c0-5.04,0-10.08,0-15.12
		c-3.71,0-7.43,0-11.14,0c0,0.63,0,1.26,0,1.89c0,0.14,0.06,0.2,0.2,0.2c0.14,0,0.2-0.06,0.2-0.2"/>
	
		<line fill="none" stroke="#231F20" stroke-width="0.5" stroke-linecap="round" stroke-linejoin="round" x1="760.16" y1="474.66" x2="749.82" y2="474.66"/>
	
		<line fill="none" stroke="#231F20" stroke-width="0.5" stroke-linecap="round" stroke-linejoin="round" x1="758.17" y1="485" x2="758.17" y2="474.66"/>
	
		<line fill="none" stroke="#231F20" stroke-width="0.5" stroke-linecap="round" stroke-linejoin="round" x1="749.82" y1="485" x2="760.16" y2="485"/>
	<path fill="none" stroke="#231F20" stroke-width="0.5" stroke-linecap="round" stroke-linejoin="round" d="M735.51,483.08
		c0,0.61,0.25,0.86,0.86,0.86"/>
	
		<line fill="none" stroke="#231F20" stroke-width="0.5" stroke-linecap="round" stroke-linejoin="round" x1="744.99" y1="483.94" x2="736.37" y2="483.94"/>
	<path fill="none" stroke="#231F20" stroke-width="0.5" stroke-linecap="round" stroke-linejoin="round" d="M744.99,483.94
		c0.61,0,0.86-0.25,0.86-0.86"/>
	
		<line fill="none" stroke="#231F20" stroke-width="0.5" stroke-linecap="round" stroke-linejoin="round" x1="736.37" y1="458.48" x2="744.99" y2="458.48"/>
	
		<line fill="none" stroke="#231F20" stroke-width="0.5" stroke-linecap="round" stroke-linejoin="round" x1="745.86" y1="459.34" x2="745.86" y2="483.08"/>
	<path fill="none" stroke="#231F20" stroke-width="0.5" stroke-linecap="round" stroke-linejoin="round" d="M745.86,459.34
		c0-0.61-0.25-0.86-0.86-0.86"/>
	
		<line fill="none" stroke="#231F20" stroke-width="0.5" stroke-linecap="round" stroke-linejoin="round" x1="735.51" y1="483.08" x2="735.51" y2="459.34"/>
	<path fill="none" stroke="#231F20" stroke-width="0.5" stroke-linecap="round" stroke-linejoin="round" d="M736.37,458.48
		c-0.61,0-0.86,0.25-0.86,0.86"/>
	
		<line fill="none" stroke="#231F20" stroke-width="0.5" stroke-linecap="round" stroke-linejoin="round" x1="686.19" y1="502.05" x2="686.85" y2="501.67"/>
	
		<line fill="none" stroke="#231F20" stroke-width="0.5" stroke-linecap="round" stroke-linejoin="round" x1="687.17" y1="500.49" x2="683.51" y2="494.15"/>
	
		<line fill="none" stroke="#231F20" stroke-width="0.5" stroke-linecap="round" stroke-linejoin="round" x1="681.66" y1="494.22" x2="682.33" y2="493.83"/>
	<path fill="none" stroke="#231F20" stroke-width="0.5" stroke-linecap="round" stroke-linejoin="round" d="M686.85,501.67
		c0.53-0.31,0.62-0.65,0.32-1.18"/>
	<path fill="none" stroke="#231F20" stroke-width="0.5" stroke-linecap="round" stroke-linejoin="round" d="M683.51,494.15
		c-0.31-0.53-0.65-0.62-1.18-0.32"/>
	<path fill="none" stroke="#231F20" stroke-width="0.5" stroke-linecap="round" stroke-linejoin="round" d="M685.6,501.9
		c0.15,0.26,0.33,0.31,0.59,0.16"/>
	<path fill="none" stroke="#231F20" stroke-width="0.5" stroke-linecap="round" stroke-linejoin="round" d="M681.66,494.22
		c-0.26,0.15-0.31,0.33-0.16,0.59"/>
	<path fill="none" stroke="#231F20" stroke-width="0.5" stroke-linecap="round" stroke-linejoin="round" d="M685.65,501.99
		c0.15,0.26,0.33,0.31,0.59,0.16"/>
	
		<line fill="none" stroke="#231F20" stroke-width="0.5" stroke-linecap="round" stroke-linejoin="round" x1="685.65" y1="501.99" x2="681.45" y2="494.71"/>
	<path fill="none" stroke="#231F20" stroke-width="0.5" stroke-linecap="round" stroke-linejoin="round" d="M681.61,494.12
		c-0.26,0.15-0.31,0.33-0.16,0.59"/>
	
		<line fill="none" stroke="#231F20" stroke-width="0.5" stroke-linecap="round" stroke-linejoin="round" x1="681.61" y1="494.12" x2="687.24" y2="490.87"/>
	
		<line fill="none" stroke="#231F20" stroke-width="0.5" stroke-linecap="round" stroke-linejoin="round" x1="691.87" y1="498.9" x2="686.24" y2="502.15"/>
	
		<line fill="none" stroke="#231F20" stroke-width="0.5" stroke-linecap="round" stroke-linejoin="round" x1="711.84" y1="509.01" x2="688.57" y2="468.69"/>
	
		<line fill="none" stroke="#231F20" stroke-width="0.5" stroke-linecap="round" stroke-linejoin="round" x1="688.57" y1="468.69" x2="677.97" y2="474.81"/>
	
		<line fill="none" stroke="#231F20" stroke-width="0.5" stroke-linecap="round" stroke-linejoin="round" x1="677.97" y1="474.81" x2="696.07" y2="506.17"/>
	<polyline fill="none" stroke="#231F20" stroke-width="0.5" stroke-linecap="round" stroke-linejoin="round" points="711.84,509.01 
		692.28,520.3 687.11,511.34 696.07,506.17 	"/>
	
		<line fill="none" stroke="#231F20" stroke-width="0.5" stroke-linecap="round" stroke-linejoin="round" x1="668.93" y1="439.35" x2="658.59" y2="439.35"/>
	
		<line fill="none" stroke="#231F20" stroke-width="0.5" stroke-linecap="round" stroke-linejoin="round" x1="660.57" y1="439.35" x2="660.57" y2="449.7"/>
	
		<line fill="none" stroke="#231F20" stroke-width="0.5" stroke-linecap="round" stroke-linejoin="round" x1="658.59" y1="449.7" x2="668.93" y2="449.7"/>
	<path fill="none" stroke="#231F20" stroke-width="0.5" stroke-linecap="round" stroke-linejoin="round" d="M668.93,438.86
		c0,0.14,0.06,0.2,0.2,0.2c0.14,0,0.2-0.06,0.2-0.2c0-0.63,0-1.26,0-1.89c-3.71,0-7.43,0-11.14,0c0,5.04,0,10.08,0,15.12
		c3.71,0,7.43,0,11.14,0c0-0.63,0-1.26,0-1.89c0-0.14-0.06-0.2-0.2-0.2c-0.14,0-0.2,0.05-0.2,0.2"/>
	
		<rect x="658.59" y="437.36" fill="none" stroke="#231F20" stroke-width="0.5" stroke-linecap="round" stroke-linejoin="round" width="10.34" height="14.33"/>
	
		<rect x="694.79" y="437.36" fill="none" stroke="#231F20" stroke-width="0.5" stroke-linecap="round" stroke-linejoin="round" width="10.34" height="14.33"/>
	<path fill="none" stroke="#231F20" stroke-width="0.5" stroke-linecap="round" stroke-linejoin="round" d="M694.79,438.86
		c0,0.14-0.06,0.2-0.2,0.2c-0.14,0-0.2-0.06-0.2-0.2c0-0.63,0-1.26,0-1.89c3.71,0,7.43,0,11.14,0c0,5.04,0,10.08,0,15.12
		c-3.71,0-7.43,0-11.14,0c0-0.63,0-1.26,0-1.89c0-0.14,0.06-0.2,0.2-0.2c0.14,0,0.2,0.05,0.2,0.2"/>
	
		<line fill="none" stroke="#231F20" stroke-width="0.5" stroke-linecap="round" stroke-linejoin="round" x1="705.13" y1="449.7" x2="694.79" y2="449.7"/>
	
		<line fill="none" stroke="#231F20" stroke-width="0.5" stroke-linecap="round" stroke-linejoin="round" x1="703.14" y1="439.35" x2="703.14" y2="449.7"/>
	
		<line fill="none" stroke="#231F20" stroke-width="0.5" stroke-linecap="round" stroke-linejoin="round" x1="694.79" y1="439.35" x2="705.13" y2="439.35"/>
	<path fill="none" stroke="#231F20" stroke-width="0.5" stroke-linecap="round" stroke-linejoin="round" d="M676.69,448.83
		c0,0.61,0.25,0.86,0.86,0.86"/>
	
		<line fill="none" stroke="#231F20" stroke-width="0.5" stroke-linecap="round" stroke-linejoin="round" x1="686.17" y1="449.7" x2="677.55" y2="449.7"/>
	<path fill="none" stroke="#231F20" stroke-width="0.5" stroke-linecap="round" stroke-linejoin="round" d="M686.17,449.7
		c0.61,0,0.86-0.25,0.86-0.86"/>
	
		<line fill="none" stroke="#231F20" stroke-width="0.5" stroke-linecap="round" stroke-linejoin="round" x1="694.79" y1="424.23" x2="705.13" y2="424.23"/>
	
		<line fill="none" stroke="#231F20" stroke-width="0.5" stroke-linecap="round" stroke-linejoin="round" x1="703.14" y1="424.23" x2="703.14" y2="434.58"/>
	
		<line fill="none" stroke="#231F20" stroke-width="0.5" stroke-linecap="round" stroke-linejoin="round" x1="705.13" y1="434.58" x2="694.79" y2="434.58"/>
	
		<rect x="694.79" y="422.24" fill="none" stroke="#231F20" stroke-width="0.5" stroke-linecap="round" stroke-linejoin="round" width="10.34" height="14.32"/>
	
		<rect x="658.59" y="422.24" fill="none" stroke="#231F20" stroke-width="0.5" stroke-linecap="round" stroke-linejoin="round" width="10.34" height="14.32"/>
	<path fill="none" stroke="#231F20" stroke-width="0.5" stroke-linecap="round" stroke-linejoin="round" d="M668.93,423.74
		c0,0.14,0.06,0.2,0.2,0.2c0.14,0,0.2-0.06,0.2-0.2c0-0.63,0-1.26,0-1.89c-3.71,0-7.43,0-11.14,0c0,5.04,0,10.08,0,15.12
		c3.71,0,7.43,0,11.14,0c0-0.63,0-1.26,0-1.89c0-0.14-0.06-0.2-0.2-0.2c-0.14,0-0.2,0.06-0.2,0.2"/>
	
		<line fill="none" stroke="#231F20" stroke-width="0.5" stroke-linecap="round" stroke-linejoin="round" x1="658.59" y1="434.58" x2="668.93" y2="434.58"/>
	
		<line fill="none" stroke="#231F20" stroke-width="0.5" stroke-linecap="round" stroke-linejoin="round" x1="660.57" y1="424.23" x2="660.57" y2="434.58"/>
	
		<line fill="none" stroke="#231F20" stroke-width="0.5" stroke-linecap="round" stroke-linejoin="round" x1="668.93" y1="424.23" x2="658.59" y2="424.23"/>
	
		<line fill="none" stroke="#231F20" stroke-width="0.5" stroke-linecap="round" stroke-linejoin="round" x1="677.55" y1="424.23" x2="686.17" y2="424.23"/>
	
		<line fill="none" stroke="#231F20" stroke-width="0.5" stroke-linecap="round" stroke-linejoin="round" x1="687.03" y1="425.09" x2="687.03" y2="448.83"/>
	<path fill="none" stroke="#231F20" stroke-width="0.5" stroke-linecap="round" stroke-linejoin="round" d="M687.03,425.09
		c0-0.61-0.25-0.86-0.86-0.86"/>
	
		<line fill="none" stroke="#231F20" stroke-width="0.5" stroke-linecap="round" stroke-linejoin="round" x1="676.69" y1="448.83" x2="676.69" y2="425.09"/>
	<path fill="none" stroke="#231F20" stroke-width="0.5" stroke-linecap="round" stroke-linejoin="round" d="M677.55,424.23
		c-0.61,0-0.86,0.25-0.86,0.86"/>
	<path fill="none" stroke="#231F20" stroke-width="0.5" stroke-linecap="round" stroke-linejoin="round" d="M694.79,423.74
		c0,0.14-0.06,0.2-0.2,0.2c-0.14,0-0.2-0.06-0.2-0.2c0-0.63,0-1.26,0-1.89c3.71,0,7.43,0,11.14,0c0,5.04,0,10.08,0,15.12
		c-3.71,0-7.43,0-11.14,0c0-0.63,0-1.26,0-1.89c0-0.14,0.06-0.2,0.2-0.2c0.14,0,0.2,0.06,0.2,0.2"/>
	
		<line fill="none" stroke="#231F20" stroke-width="0.5" stroke-linecap="round" stroke-linejoin="round" x1="749.82" y1="467.81" x2="760.16" y2="467.81"/>
</g>
</svg>
