<?xml version="1.0" encoding="utf-8"?>
<!-- Generator: Adobe Illustrator 18.1.1, SVG Export Plug-In . SVG Version: 6.00 Build 0)  -->
<!DOCTYPE svg PUBLIC "-//W3C//DTD SVG 1.1//EN" "http://www.w3.org/Graphics/SVG/1.1/DTD/svg11.dtd">
<svg version="1.1" id="FURN_x24_0-FURN-RECEPTION" xmlns="http://www.w3.org/2000/svg" xmlns:xlink="http://www.w3.org/1999/xlink"
	 x="0px" y="0px" width="2155.83px" height="1155.83px" viewBox="0 0 2155.83 1155.83" enable-background="new 0 0 2155.83 1155.83"
	 xml:space="preserve">
<g>
	<g id="LINE_18_">
		
			<line fill="none" stroke="#000000" stroke-width="0.7087" stroke-linecap="round" stroke-linejoin="round" stroke-miterlimit="10" x1="1680.87" y1="219.06" x2="1692.65" y2="207.27"/>
	</g>
	<g id="POLYLINE">
		
			<polyline fill="none" stroke="#000000" stroke-width="0.7087" stroke-linecap="round" stroke-linejoin="round" stroke-miterlimit="10" points="
			1685.58,200.2 1695.01,209.63 1683.22,221.41 1673.79,211.99 		"/>
	</g>
	<g id="ARC">
		
			<path fill="none" stroke="#000000" stroke-width="0.7087" stroke-linecap="round" stroke-linejoin="round" stroke-miterlimit="10" d="
			M1686.31,195.21c0-9.66-7.84-17.5-17.5-17.5c-9.67,0-17.5,7.84-17.5,17.5"/>
	</g>
	<g id="ARC_1_">
		
			<path fill="none" stroke="#000000" stroke-width="0.7087" stroke-linecap="round" stroke-linejoin="round" stroke-miterlimit="10" d="
			M1651.31,195.21c0,9.66,7.83,17.5,17.5,17.5c9.66,0,17.5-7.84,17.5-17.5"/>
	</g>
	<g id="LINE_19_">
		
			<line fill="none" stroke="#000000" stroke-width="0.7087" stroke-linecap="round" stroke-linejoin="round" stroke-miterlimit="10" x1="1644.96" y1="183.15" x2="1656.75" y2="171.37"/>
	</g>
	<g id="POLYLINE_1_">
		
			<polyline fill="none" stroke="#000000" stroke-width="0.7087" stroke-linecap="round" stroke-linejoin="round" stroke-miterlimit="10" points="
			1663.82,178.44 1654.39,169.01 1642.6,180.8 1652.03,190.22 		"/>
	</g>
	<g id="LINE_20_">
		
			<line fill="none" stroke="#000000" stroke-width="0.7087" stroke-linecap="round" stroke-linejoin="round" stroke-miterlimit="10" x1="1656.75" y1="219.06" x2="1644.96" y2="207.27"/>
	</g>
	<g id="POLYLINE_2_">
		
			<polyline fill="none" stroke="#000000" stroke-width="0.7087" stroke-linecap="round" stroke-linejoin="round" stroke-miterlimit="10" points="
			1652.03,200.2 1642.6,209.63 1654.39,221.41 1663.82,211.99 		"/>
	</g>
	<g id="LINE_21_">
		
			<line fill="none" stroke="#000000" stroke-width="0.7087" stroke-linecap="round" stroke-linejoin="round" stroke-miterlimit="10" x1="1695.01" y1="180.8" x2="1685.58" y2="190.22"/>
	</g>
	<g id="LINE_22_">
		
			<line fill="none" stroke="#000000" stroke-width="0.7087" stroke-linecap="round" stroke-linejoin="round" stroke-miterlimit="10" x1="1683.22" y1="169.01" x2="1695.01" y2="180.8"/>
	</g>
	<g id="LINE_23_">
		
			<line fill="none" stroke="#000000" stroke-width="0.7087" stroke-linecap="round" stroke-linejoin="round" stroke-miterlimit="10" x1="1673.79" y1="178.44" x2="1683.22" y2="169.01"/>
	</g>
	<g id="LINE_24_">
		
			<line fill="none" stroke="#000000" stroke-width="0.7087" stroke-linecap="round" stroke-linejoin="round" stroke-miterlimit="10" x1="1692.65" y1="183.15" x2="1680.87" y2="171.37"/>
	</g>
	<g id="LINE_25_">
		
			<line fill="none" stroke="#000000" stroke-width="0.7087" stroke-linecap="round" stroke-linejoin="round" stroke-miterlimit="10" x1="1909.57" y1="220.38" x2="1897.78" y2="208.59"/>
	</g>
	<g id="POLYLINE_3_">
		
			<polyline fill="none" stroke="#000000" stroke-width="0.7087" stroke-linecap="round" stroke-linejoin="round" stroke-miterlimit="10" points="
			1904.85,201.52 1895.43,210.95 1907.21,222.74 1916.64,213.31 		"/>
	</g>
	<g id="ARC_2_">
		
			<path fill="none" stroke="#000000" stroke-width="0.7087" stroke-linecap="round" stroke-linejoin="round" stroke-miterlimit="10" d="
			M1904.13,196.53c0-9.66,7.84-17.5,17.5-17.5c9.67,0,17.5,7.84,17.5,17.5"/>
	</g>
	<g id="ARC_3_">
		
			<path fill="none" stroke="#000000" stroke-width="0.7087" stroke-linecap="round" stroke-linejoin="round" stroke-miterlimit="10" d="
			M1939.13,196.53c0,9.66-7.83,17.5-17.5,17.5c-9.66,0-17.5-7.84-17.5-17.5"/>
	</g>
	<g id="LINE_26_">
		
			<line fill="none" stroke="#000000" stroke-width="0.7087" stroke-linecap="round" stroke-linejoin="round" stroke-miterlimit="10" x1="1945.47" y1="184.47" x2="1933.69" y2="172.69"/>
	</g>
	<g id="POLYLINE_4_">
		
			<polyline fill="none" stroke="#000000" stroke-width="0.7087" stroke-linecap="round" stroke-linejoin="round" stroke-miterlimit="10" points="
			1926.62,179.76 1936.05,170.33 1947.83,182.12 1938.4,191.54 		"/>
	</g>
	<g id="LINE_27_">
		
			<line fill="none" stroke="#000000" stroke-width="0.7087" stroke-linecap="round" stroke-linejoin="round" stroke-miterlimit="10" x1="1933.69" y1="220.38" x2="1945.47" y2="208.59"/>
	</g>
	<g id="POLYLINE_5_">
		
			<polyline fill="none" stroke="#000000" stroke-width="0.7087" stroke-linecap="round" stroke-linejoin="round" stroke-miterlimit="10" points="
			1938.4,201.52 1947.83,210.95 1936.05,222.74 1926.62,213.31 		"/>
	</g>
	<g id="LINE_28_">
		
			<line fill="none" stroke="#000000" stroke-width="0.7087" stroke-linecap="round" stroke-linejoin="round" stroke-miterlimit="10" x1="1895.43" y1="182.12" x2="1904.85" y2="191.54"/>
	</g>
	<g id="LINE_29_">
		
			<line fill="none" stroke="#000000" stroke-width="0.7087" stroke-linecap="round" stroke-linejoin="round" stroke-miterlimit="10" x1="1907.21" y1="170.33" x2="1895.43" y2="182.12"/>
	</g>
	<g id="LINE_30_">
		
			<line fill="none" stroke="#000000" stroke-width="0.7087" stroke-linecap="round" stroke-linejoin="round" stroke-miterlimit="10" x1="1916.64" y1="179.76" x2="1907.21" y2="170.33"/>
	</g>
	<g id="LINE_31_">
		
			<line fill="none" stroke="#000000" stroke-width="0.7087" stroke-linecap="round" stroke-linejoin="round" stroke-miterlimit="10" x1="1897.78" y1="184.47" x2="1909.57" y2="172.69"/>
	</g>
	<g id="LINE_32_">
		
			<line fill="none" stroke="#000000" stroke-width="0.7087" stroke-linecap="round" stroke-linejoin="round" stroke-miterlimit="10" x1="1843.52" y1="254.99" x2="1831.74" y2="243.2"/>
	</g>
	<g id="POLYLINE_6_">
		
			<polyline fill="none" stroke="#000000" stroke-width="0.7087" stroke-linecap="round" stroke-linejoin="round" stroke-miterlimit="10" points="
			1838.81,236.13 1829.38,245.56 1841.17,257.34 1850.59,247.92 		"/>
	</g>
	<g id="ARC_4_">
		
			<path fill="none" stroke="#000000" stroke-width="0.7087" stroke-linecap="round" stroke-linejoin="round" stroke-miterlimit="10" d="
			M1838.08,231.14c0-9.66,7.83-17.5,17.5-17.5c9.66,0,17.5,7.84,17.5,17.5"/>
	</g>
	<g id="ARC_5_">
		
			<path fill="none" stroke="#000000" stroke-width="0.7087" stroke-linecap="round" stroke-linejoin="round" stroke-miterlimit="10" d="
			M1873.08,231.14c0,9.66-7.84,17.5-17.5,17.5c-9.67,0-17.5-7.84-17.5-17.5"/>
	</g>
	<g id="LINE_33_">
		
			<line fill="none" stroke="#000000" stroke-width="0.7087" stroke-linecap="round" stroke-linejoin="round" stroke-miterlimit="10" x1="1879.43" y1="219.08" x2="1867.64" y2="207.3"/>
	</g>
	<g id="POLYLINE_7_">
		
			<polyline fill="none" stroke="#000000" stroke-width="0.7087" stroke-linecap="round" stroke-linejoin="round" stroke-miterlimit="10" points="
			1860.57,214.37 1870,204.94 1881.78,216.72 1872.36,226.15 		"/>
	</g>
	<g id="LINE_34_">
		
			<line fill="none" stroke="#000000" stroke-width="0.7087" stroke-linecap="round" stroke-linejoin="round" stroke-miterlimit="10" x1="1867.64" y1="254.99" x2="1879.43" y2="243.2"/>
	</g>
	<g id="POLYLINE_8_">
		
			<polyline fill="none" stroke="#000000" stroke-width="0.7087" stroke-linecap="round" stroke-linejoin="round" stroke-miterlimit="10" points="
			1872.36,236.13 1881.78,245.56 1870,257.34 1860.57,247.92 		"/>
	</g>
	<g id="LINE_35_">
		
			<line fill="none" stroke="#000000" stroke-width="0.7087" stroke-linecap="round" stroke-linejoin="round" stroke-miterlimit="10" x1="1829.38" y1="216.72" x2="1838.81" y2="226.15"/>
	</g>
	<g id="LINE_36_">
		
			<line fill="none" stroke="#000000" stroke-width="0.7087" stroke-linecap="round" stroke-linejoin="round" stroke-miterlimit="10" x1="1841.17" y1="204.94" x2="1829.38" y2="216.72"/>
	</g>
	<g id="LINE_37_">
		
			<line fill="none" stroke="#000000" stroke-width="0.7087" stroke-linecap="round" stroke-linejoin="round" stroke-miterlimit="10" x1="1850.59" y1="214.37" x2="1841.17" y2="204.94"/>
	</g>
	<g id="LINE_38_">
		
			<line fill="none" stroke="#000000" stroke-width="0.7087" stroke-linecap="round" stroke-linejoin="round" stroke-miterlimit="10" x1="1831.74" y1="219.08" x2="1843.52" y2="207.3"/>
	</g>
	<g id="LINE_39_">
		
			<line fill="none" stroke="#000000" stroke-width="0.7087" stroke-linecap="round" stroke-linejoin="round" stroke-miterlimit="10" x1="1610.02" y1="254.99" x2="1621.8" y2="243.2"/>
	</g>
	<g id="POLYLINE_9_">
		
			<polyline fill="none" stroke="#000000" stroke-width="0.7087" stroke-linecap="round" stroke-linejoin="round" stroke-miterlimit="10" points="
			1614.73,236.13 1624.16,245.56 1612.38,257.34 1602.95,247.92 		"/>
	</g>
	<g id="ARC_6_">
		
			<path fill="none" stroke="#000000" stroke-width="0.7087" stroke-linecap="round" stroke-linejoin="round" stroke-miterlimit="10" d="
			M1615.46,231.14c0-9.66-7.84-17.5-17.5-17.5c-9.67,0-17.5,7.84-17.5,17.5"/>
	</g>
	<g id="ARC_7_">
		
			<path fill="none" stroke="#000000" stroke-width="0.7087" stroke-linecap="round" stroke-linejoin="round" stroke-miterlimit="10" d="
			M1580.46,231.14c0,9.66,7.83,17.5,17.5,17.5c9.66,0,17.5-7.84,17.5-17.5"/>
	</g>
	<g id="LINE_40_">
		
			<line fill="none" stroke="#000000" stroke-width="0.7087" stroke-linecap="round" stroke-linejoin="round" stroke-miterlimit="10" x1="1574.11" y1="219.08" x2="1585.9" y2="207.3"/>
	</g>
	<g id="POLYLINE_10_">
		
			<polyline fill="none" stroke="#000000" stroke-width="0.7087" stroke-linecap="round" stroke-linejoin="round" stroke-miterlimit="10" points="
			1592.97,214.37 1583.54,204.94 1571.76,216.72 1581.18,226.15 		"/>
	</g>
	<g id="LINE_41_">
		
			<line fill="none" stroke="#000000" stroke-width="0.7087" stroke-linecap="round" stroke-linejoin="round" stroke-miterlimit="10" x1="1585.9" y1="254.99" x2="1574.11" y2="243.2"/>
	</g>
	<g id="POLYLINE_11_">
		
			<polyline fill="none" stroke="#000000" stroke-width="0.7087" stroke-linecap="round" stroke-linejoin="round" stroke-miterlimit="10" points="
			1581.18,236.13 1571.76,245.56 1583.54,257.34 1592.97,247.92 		"/>
	</g>
	<g id="LINE_42_">
		
			<line fill="none" stroke="#000000" stroke-width="0.7087" stroke-linecap="round" stroke-linejoin="round" stroke-miterlimit="10" x1="1624.16" y1="216.72" x2="1614.73" y2="226.15"/>
	</g>
	<g id="LINE_43_">
		
			<line fill="none" stroke="#000000" stroke-width="0.7087" stroke-linecap="round" stroke-linejoin="round" stroke-miterlimit="10" x1="1612.38" y1="204.94" x2="1624.16" y2="216.72"/>
	</g>
	<g id="LINE_44_">
		
			<line fill="none" stroke="#000000" stroke-width="0.7087" stroke-linecap="round" stroke-linejoin="round" stroke-miterlimit="10" x1="1602.95" y1="214.37" x2="1612.38" y2="204.94"/>
	</g>
	<g id="LINE_45_">
		
			<line fill="none" stroke="#000000" stroke-width="0.7087" stroke-linecap="round" stroke-linejoin="round" stroke-miterlimit="10" x1="1621.8" y1="219.08" x2="1610.02" y2="207.3"/>
	</g>
	<g id="LINE_46_">
		
			<line fill="none" stroke="#000000" stroke-width="0.7087" stroke-linecap="round" stroke-linejoin="round" stroke-miterlimit="10" x1="1749.29" y1="254.99" x2="1761.07" y2="243.2"/>
	</g>
	<g id="POLYLINE_12_">
		
			<polyline fill="none" stroke="#000000" stroke-width="0.7087" stroke-linecap="round" stroke-linejoin="round" stroke-miterlimit="10" points="
			1754,236.13 1763.43,245.56 1751.65,257.34 1742.22,247.92 		"/>
	</g>
	<g id="ARC_8_">
		
			<path fill="none" stroke="#000000" stroke-width="0.7087" stroke-linecap="round" stroke-linejoin="round" stroke-miterlimit="10" d="
			M1754.73,231.14c0-9.66-7.83-17.5-17.5-17.5c-9.66,0-17.5,7.84-17.5,17.5"/>
	</g>
	<g id="ARC_9_">
		
			<path fill="none" stroke="#000000" stroke-width="0.7087" stroke-linecap="round" stroke-linejoin="round" stroke-miterlimit="10" d="
			M1719.73,231.14c0,9.66,7.84,17.5,17.5,17.5c9.67,0,17.5-7.84,17.5-17.5"/>
	</g>
	<g id="LINE_47_">
		
			<line fill="none" stroke="#000000" stroke-width="0.7087" stroke-linecap="round" stroke-linejoin="round" stroke-miterlimit="10" x1="1713.38" y1="219.08" x2="1725.17" y2="207.3"/>
	</g>
	<g id="POLYLINE_13_">
		
			<polyline fill="none" stroke="#000000" stroke-width="0.7087" stroke-linecap="round" stroke-linejoin="round" stroke-miterlimit="10" points="
			1732.24,214.37 1722.81,204.94 1711.03,216.72 1720.46,226.15 		"/>
	</g>
	<g id="LINE_48_">
		
			<line fill="none" stroke="#000000" stroke-width="0.7087" stroke-linecap="round" stroke-linejoin="round" stroke-miterlimit="10" x1="1725.17" y1="254.99" x2="1713.38" y2="243.2"/>
	</g>
	<g id="POLYLINE_14_">
		
			<polyline fill="none" stroke="#000000" stroke-width="0.7087" stroke-linecap="round" stroke-linejoin="round" stroke-miterlimit="10" points="
			1720.46,236.13 1711.03,245.56 1722.81,257.34 1732.24,247.92 		"/>
	</g>
	<g id="LINE_49_">
		
			<line fill="none" stroke="#000000" stroke-width="0.7087" stroke-linecap="round" stroke-linejoin="round" stroke-miterlimit="10" x1="1763.43" y1="216.72" x2="1754" y2="226.15"/>
	</g>
	<g id="LINE_50_">
		
			<line fill="none" stroke="#000000" stroke-width="0.7087" stroke-linecap="round" stroke-linejoin="round" stroke-miterlimit="10" x1="1751.65" y1="204.94" x2="1763.43" y2="216.72"/>
	</g>
	<g id="LINE_51_">
		
			<line fill="none" stroke="#000000" stroke-width="0.7087" stroke-linecap="round" stroke-linejoin="round" stroke-miterlimit="10" x1="1742.22" y1="214.37" x2="1751.65" y2="204.94"/>
	</g>
	<g id="LINE_52_">
		
			<line fill="none" stroke="#000000" stroke-width="0.7087" stroke-linecap="round" stroke-linejoin="round" stroke-miterlimit="10" x1="1761.07" y1="219.08" x2="1749.29" y2="207.3"/>
	</g>
	<g id="LINE_53_">
		
			<line fill="none" stroke="#000000" stroke-width="0.7087" stroke-linecap="round" stroke-linejoin="round" stroke-miterlimit="10" x1="1807.29" y1="169.01" x2="1807.29" y2="257.34"/>
	</g>
	<g id="LINE_54_">
		
			<line fill="none" stroke="#000000" stroke-width="0.7087" stroke-linecap="round" stroke-linejoin="round" stroke-miterlimit="10" x1="1811.67" y1="257.34" x2="1811.67" y2="169.01"/>
	</g>
	<g id="LINE_55_">
		
			<line fill="none" stroke="#000000" stroke-width="0.7087" stroke-linecap="round" stroke-linejoin="round" stroke-miterlimit="10" x1="1786.46" y1="169.01" x2="1786.46" y2="257.34"/>
	</g>
	<g id="LINE_56_">
		
			<line fill="none" stroke="#000000" stroke-width="0.7087" stroke-linecap="round" stroke-linejoin="round" stroke-miterlimit="10" x1="1806.67" y1="169.01" x2="1806.67" y2="257.34"/>
	</g>
	<g id="LINE_57_">
		
			<line fill="none" stroke="#000000" stroke-width="0.7087" stroke-linecap="round" stroke-linejoin="round" stroke-miterlimit="10" x1="1786.46" y1="257.34" x2="1807.29" y2="257.34"/>
	</g>
	<g id="LINE_58_">
		
			<line fill="none" stroke="#000000" stroke-width="0.7087" stroke-linecap="round" stroke-linejoin="round" stroke-miterlimit="10" x1="1807.29" y1="257.34" x2="1811.67" y2="257.34"/>
	</g>
	<g id="LINE_59_">
		
			<line fill="none" stroke="#000000" stroke-width="0.7087" stroke-linecap="round" stroke-linejoin="round" stroke-miterlimit="10" x1="1811.67" y1="169.01" x2="1807.29" y2="169.01"/>
	</g>
	<g id="LINE_60_">
		
			<line fill="none" stroke="#000000" stroke-width="0.7087" stroke-linecap="round" stroke-linejoin="round" stroke-miterlimit="10" x1="1806.04" y1="206.51" x2="1806.04" y2="171.51"/>
	</g>
	<g id="LINE_61_">
		
			<line fill="none" stroke="#000000" stroke-width="0.7087" stroke-linecap="round" stroke-linejoin="round" stroke-miterlimit="10" x1="1806.04" y1="171.51" x2="1788.54" y2="171.51"/>
	</g>
	<g id="LINE_62_">
		
			<line fill="none" stroke="#000000" stroke-width="0.7087" stroke-linecap="round" stroke-linejoin="round" stroke-miterlimit="10" x1="1788.54" y1="171.51" x2="1788.54" y2="206.51"/>
	</g>
	<g id="LINE_63_">
		
			<line fill="none" stroke="#000000" stroke-width="0.7087" stroke-linecap="round" stroke-linejoin="round" stroke-miterlimit="10" x1="1788.54" y1="206.51" x2="1806.04" y2="206.51"/>
	</g>
	<g id="ARC_10_">
		
			<path fill="none" stroke="#000000" stroke-width="0.7087" stroke-linecap="round" stroke-linejoin="round" stroke-miterlimit="10" d="
			M1804.17,193.18c0.46,0,0.83-0.37,0.83-0.83s-0.37-0.83-0.83-0.83"/>
	</g>
	<g id="ARC_11_">
		
			<path fill="none" stroke="#000000" stroke-width="0.7087" stroke-linecap="round" stroke-linejoin="round" stroke-miterlimit="10" d="
			M1804.17,191.51c-0.46,0-0.83,0.37-0.83,0.83s0.37,0.83,0.83,0.83"/>
	</g>
	<g id="ARC_12_">
		
			<path fill="none" stroke="#000000" stroke-width="0.7087" stroke-linecap="round" stroke-linejoin="round" stroke-miterlimit="10" d="
			M1804.17,186.51c0.46,0,0.83-0.37,0.83-0.83s-0.37-0.83-0.83-0.83"/>
	</g>
	<g id="ARC_13_">
		
			<path fill="none" stroke="#000000" stroke-width="0.7087" stroke-linecap="round" stroke-linejoin="round" stroke-miterlimit="10" d="
			M1804.17,184.84c-0.46,0-0.83,0.37-0.83,0.83s0.37,0.83,0.83,0.83"/>
	</g>
	<g id="ARC_14_">
		
			<path fill="none" stroke="#000000" stroke-width="0.7087" stroke-linecap="round" stroke-linejoin="round" stroke-miterlimit="10" d="
			M1796.04,196.3c-0.46,0-0.83,0.37-0.83,0.83s0.37,0.83,0.83,0.83"/>
	</g>
	<g id="ARC_15_">
		
			<path fill="none" stroke="#000000" stroke-width="0.7087" stroke-linecap="round" stroke-linejoin="round" stroke-miterlimit="10" d="
			M1796.04,197.97c0.46,0,0.83-0.37,0.83-0.83s-0.37-0.83-0.83-0.83"/>
	</g>
	<g id="ARC_16_">
		
			<path fill="none" stroke="#000000" stroke-width="0.7087" stroke-linecap="round" stroke-linejoin="round" stroke-miterlimit="10" d="
			M1796.04,180.05c-0.46,0-0.83,0.37-0.83,0.83s0.37,0.83,0.83,0.83"/>
	</g>
	<g id="ARC_17_">
		
			<path fill="none" stroke="#000000" stroke-width="0.7087" stroke-linecap="round" stroke-linejoin="round" stroke-miterlimit="10" d="
			M1796.04,181.72c0.46,0,0.83-0.37,0.83-0.83s-0.37-0.83-0.83-0.83"/>
	</g>
	<g id="ARC_18_">
		
			<path fill="none" stroke="#000000" stroke-width="0.7087" stroke-linecap="round" stroke-linejoin="round" stroke-miterlimit="10" d="
			M1800.62,188.39c0.92,0,1.67-0.75,1.67-1.67"/>
	</g>
	<g id="ARC_19_">
		
			<path fill="none" stroke="#000000" stroke-width="0.7087" stroke-linecap="round" stroke-linejoin="round" stroke-miterlimit="10" d="
			M1789.79,186.72c0,0.92,0.75,1.67,1.67,1.67"/>
	</g>
	<g id="ARC_20_">
		
			<path fill="none" stroke="#000000" stroke-width="0.7087" stroke-linecap="round" stroke-linejoin="round" stroke-miterlimit="10" d="
			M1791.46,189.64c-0.92,0-1.67,0.75-1.67,1.67"/>
	</g>
	<g id="ARC_21_">
		
			<path fill="none" stroke="#000000" stroke-width="0.7087" stroke-linecap="round" stroke-linejoin="round" stroke-miterlimit="10" d="
			M1802.29,191.3c0-0.92-0.75-1.67-1.67-1.67"/>
	</g>
	<g id="LINE_64_">
		
			<line fill="none" stroke="#000000" stroke-width="0.7087" stroke-linecap="round" stroke-linejoin="round" stroke-miterlimit="10" x1="1802.29" y1="186.72" x2="1802.29" y2="174.43"/>
	</g>
	<g id="LINE_65_">
		
			<line fill="none" stroke="#000000" stroke-width="0.7087" stroke-linecap="round" stroke-linejoin="round" stroke-miterlimit="10" x1="1789.79" y1="191.3" x2="1789.79" y2="203.59"/>
	</g>
	<g id="LINE_66_">
		
			<line fill="none" stroke="#000000" stroke-width="0.7087" stroke-linecap="round" stroke-linejoin="round" stroke-miterlimit="10" x1="1800.62" y1="189.64" x2="1791.46" y2="189.64"/>
	</g>
	<g id="LINE_67_">
		
			<line fill="none" stroke="#000000" stroke-width="0.7087" stroke-linecap="round" stroke-linejoin="round" stroke-miterlimit="10" x1="1800.62" y1="188.39" x2="1791.46" y2="188.39"/>
	</g>
	<g id="ARC_22_">
		
			<path fill="none" stroke="#000000" stroke-width="0.7087" stroke-linecap="round" stroke-linejoin="round" stroke-miterlimit="10" d="
			M1797.71,188.59c-0.23,0-0.42,0.19-0.42,0.42s0.19,0.42,0.42,0.42"/>
	</g>
	<g id="LINE_68_">
		
			<line fill="none" stroke="#000000" stroke-width="0.7087" stroke-linecap="round" stroke-linejoin="round" stroke-miterlimit="10" x1="1804.17" y1="189.43" x2="1797.71" y2="189.43"/>
	</g>
	<g id="LINE_69_">
		
			<line fill="none" stroke="#000000" stroke-width="0.7087" stroke-linecap="round" stroke-linejoin="round" stroke-miterlimit="10" x1="1804.17" y1="188.59" x2="1797.71" y2="188.59"/>
	</g>
	<g id="ARC_23_">
		
			<path fill="none" stroke="#000000" stroke-width="0.7087" stroke-linecap="round" stroke-linejoin="round" stroke-miterlimit="10" d="
			M1804.17,189.43c0.23,0,0.42-0.19,0.42-0.42s-0.19-0.42-0.42-0.42"/>
	</g>
	<g id="ARC_24_">
		
			<path fill="none" stroke="#000000" stroke-width="0.7087" stroke-linecap="round" stroke-linejoin="round" stroke-miterlimit="10" d="
			M1802.29,174.43c0-0.92-0.75-1.67-1.67-1.67"/>
	</g>
	<g id="ARC_25_">
		
			<path fill="none" stroke="#000000" stroke-width="0.7087" stroke-linecap="round" stroke-linejoin="round" stroke-miterlimit="10" d="
			M1791.46,172.76c-0.92,0-1.67,0.75-1.67,1.67"/>
	</g>
	<g id="ARC_26_">
		
			<path fill="none" stroke="#000000" stroke-width="0.7087" stroke-linecap="round" stroke-linejoin="round" stroke-miterlimit="10" d="
			M1789.79,203.59c0,0.92,0.75,1.67,1.67,1.67"/>
	</g>
	<g id="ARC_27_">
		
			<path fill="none" stroke="#000000" stroke-width="0.7087" stroke-linecap="round" stroke-linejoin="round" stroke-miterlimit="10" d="
			M1800.62,205.26c0.92,0,1.67-0.75,1.67-1.67"/>
	</g>
	<g id="LINE_70_">
		
			<line fill="none" stroke="#000000" stroke-width="0.7087" stroke-linecap="round" stroke-linejoin="round" stroke-miterlimit="10" x1="1802.29" y1="203.59" x2="1802.29" y2="191.3"/>
	</g>
	<g id="LINE_71_">
		
			<line fill="none" stroke="#000000" stroke-width="0.7087" stroke-linecap="round" stroke-linejoin="round" stroke-miterlimit="10" x1="1791.46" y1="205.26" x2="1800.62" y2="205.26"/>
	</g>
	<g id="LINE_72_">
		
			<line fill="none" stroke="#000000" stroke-width="0.7087" stroke-linecap="round" stroke-linejoin="round" stroke-miterlimit="10" x1="1789.79" y1="174.43" x2="1789.79" y2="186.72"/>
	</g>
	<g id="LINE_73_">
		
			<line fill="none" stroke="#000000" stroke-width="0.7087" stroke-linecap="round" stroke-linejoin="round" stroke-miterlimit="10" x1="1800.62" y1="172.76" x2="1791.46" y2="172.76"/>
	</g>
	<g id="LINE_74_">
		
			<line fill="none" stroke="#000000" stroke-width="0.7087" stroke-linecap="round" stroke-linejoin="round" stroke-miterlimit="10" x1="1807.29" y1="169.01" x2="1786.46" y2="169.01"/>
	</g>
	<g id="ARC_28_">
		
			<path fill="none" stroke="#000000" stroke-width="0.7087" stroke-linecap="round" stroke-linejoin="round" stroke-miterlimit="10" d="
			M1409.27,874.67c-0.92,0-1.67,0.75-1.67,1.67"/>
	</g>
	<g id="LINE_75_">
		
			<line fill="none" stroke="#000000" stroke-width="0.7087" stroke-linecap="round" stroke-linejoin="round" stroke-miterlimit="10" x1="1407.6" y1="922.23" x2="1407.6" y2="876.33"/>
	</g>
	<g id="ARC_29_">
		
			<path fill="none" stroke="#000000" stroke-width="0.7087" stroke-linecap="round" stroke-linejoin="round" stroke-miterlimit="10" d="
			M1427.6,876.33c0-0.92-0.75-1.67-1.67-1.67"/>
	</g>
	<g id="LINE_76_">
		
			<line fill="none" stroke="#000000" stroke-width="0.7087" stroke-linecap="round" stroke-linejoin="round" stroke-miterlimit="10" x1="1427.6" y1="876.33" x2="1427.6" y2="922.23"/>
	</g>
	<g id="LINE_77_">
		
			<line fill="none" stroke="#000000" stroke-width="0.7087" stroke-linecap="round" stroke-linejoin="round" stroke-miterlimit="10" x1="1409.27" y1="874.67" x2="1425.93" y2="874.67"/>
	</g>
	<g id="ARC_30_">
		
			<path fill="none" stroke="#000000" stroke-width="0.7087" stroke-linecap="round" stroke-linejoin="round" stroke-miterlimit="10" d="
			M1425.93,923.9c0.92,0,1.67-0.75,1.67-1.67"/>
	</g>
	<g id="LINE_78_">
		
			<line fill="none" stroke="#000000" stroke-width="0.7087" stroke-linecap="round" stroke-linejoin="round" stroke-miterlimit="10" x1="1425.93" y1="923.9" x2="1409.27" y2="923.9"/>
	</g>
	<g id="ARC_31_">
		
			<path fill="none" stroke="#000000" stroke-width="0.7087" stroke-linecap="round" stroke-linejoin="round" stroke-miterlimit="10" d="
			M1407.6,922.23c0,0.92,0.75,1.67,1.67,1.67"/>
	</g>
	<g id="LINE_79_">
		
			<line fill="none" stroke="#000000" stroke-width="0.7087" stroke-linecap="round" stroke-linejoin="round" stroke-miterlimit="10" x1="1435.26" y1="925.95" x2="1455.26" y2="925.95"/>
	</g>
	<g id="LINE_80_">
		
			<line fill="none" stroke="#000000" stroke-width="0.7087" stroke-linecap="round" stroke-linejoin="round" stroke-miterlimit="10" x1="1451.41" y1="925.95" x2="1451.41" y2="905.95"/>
	</g>
	<g id="LINE_81_">
		
			<line fill="none" stroke="#000000" stroke-width="0.7087" stroke-linecap="round" stroke-linejoin="round" stroke-miterlimit="10" x1="1455.26" y1="905.95" x2="1435.26" y2="905.95"/>
	</g>
	<g id="POLYLINE_15_">
		
			<path fill="none" stroke="#000000" stroke-width="0.7087" stroke-linecap="round" stroke-linejoin="round" stroke-miterlimit="10" d="
			M1435.26,926.91c0-0.21-0.17-0.38-0.38-0.38c-0.21,0-0.38,0.17-0.38,0.38v3.66h21.54v-29.23h-21.54v3.65
			c0,0.21,0.17,0.38,0.38,0.38c0.21,0,0.38-0.17,0.38-0.38"/>
	</g>
	<g id="POLYLINE_16_">
		
			<polyline fill="none" stroke="#000000" stroke-width="0.7087" stroke-linecap="round" stroke-linejoin="round" stroke-miterlimit="10" points="
			1455.26,929.8 1455.26,902.11 1435.26,902.11 1435.26,929.8 1455.26,929.8 		"/>
	</g>
	<g id="POLYLINE_17_">
		
			<polyline fill="none" stroke="#000000" stroke-width="0.7087" stroke-linecap="round" stroke-linejoin="round" stroke-miterlimit="10" points="
			1455.26,896.55 1455.26,868.86 1435.26,868.86 1435.26,896.55 1455.26,896.55 		"/>
	</g>
	<g id="POLYLINE_18_">
		
			<path fill="none" stroke="#000000" stroke-width="0.7087" stroke-linecap="round" stroke-linejoin="round" stroke-miterlimit="10" d="
			M1435.26,893.66c0-0.21-0.17-0.38-0.38-0.38c-0.21,0-0.38,0.17-0.38,0.38v3.66h21.54v-29.23h-21.54v3.65
			c0,0.21,0.17,0.38,0.38,0.38c0.21,0,0.38-0.17,0.38-0.38"/>
	</g>
	<g id="LINE_82_">
		
			<line fill="none" stroke="#000000" stroke-width="0.7087" stroke-linecap="round" stroke-linejoin="round" stroke-miterlimit="10" x1="1455.26" y1="872.7" x2="1435.26" y2="872.7"/>
	</g>
	<g id="LINE_83_">
		
			<line fill="none" stroke="#000000" stroke-width="0.7087" stroke-linecap="round" stroke-linejoin="round" stroke-miterlimit="10" x1="1451.41" y1="892.7" x2="1451.41" y2="872.7"/>
	</g>
	<g id="LINE_84_">
		
			<line fill="none" stroke="#000000" stroke-width="0.7087" stroke-linecap="round" stroke-linejoin="round" stroke-miterlimit="10" x1="1435.26" y1="892.7" x2="1455.26" y2="892.7"/>
	</g>
	<g id="POLYLINE_19_">
		
			<polyline fill="none" stroke="#000000" stroke-width="0.7087" stroke-linecap="round" stroke-linejoin="round" stroke-miterlimit="10" points="
			1361.83,972.36 1324.02,994.19 1314.02,976.87 1331.34,966.87 		"/>
	</g>
	<g id="LINE_85_">
		
			<line fill="none" stroke="#000000" stroke-width="0.7087" stroke-linecap="round" stroke-linejoin="round" stroke-miterlimit="10" x1="1296.34" y1="906.25" x2="1331.34" y2="966.87"/>
	</g>
	<g id="LINE_86_">
		
			<line fill="none" stroke="#000000" stroke-width="0.7087" stroke-linecap="round" stroke-linejoin="round" stroke-miterlimit="10" x1="1316.83" y1="894.42" x2="1296.34" y2="906.25"/>
	</g>
	<g id="LINE_87_">
		
			<line fill="none" stroke="#000000" stroke-width="0.7087" stroke-linecap="round" stroke-linejoin="round" stroke-miterlimit="10" x1="1361.83" y1="972.36" x2="1316.83" y2="894.42"/>
	</g>
	<g id="LINE_88_">
		
			<line fill="none" stroke="#000000" stroke-width="0.7087" stroke-linecap="round" stroke-linejoin="round" stroke-miterlimit="10" x1="1323.22" y1="952.82" x2="1312.34" y2="959.1"/>
	</g>
	<g id="LINE_89_">
		
			<line fill="none" stroke="#000000" stroke-width="0.7087" stroke-linecap="round" stroke-linejoin="round" stroke-miterlimit="10" x1="1303.38" y1="943.58" x2="1314.26" y2="937.3"/>
	</g>
	<g id="ARC_32_">
		
			<path fill="none" stroke="#000000" stroke-width="0.7087" stroke-linecap="round" stroke-linejoin="round" stroke-miterlimit="10" d="
			M1303.38,943.58c-0.4,0.23-0.54,0.74-0.31,1.14"/>
	</g>
	<g id="LINE_90_">
		
			<line fill="none" stroke="#000000" stroke-width="0.7087" stroke-linecap="round" stroke-linejoin="round" stroke-miterlimit="10" x1="1311.2" y1="958.8" x2="1303.07" y2="944.72"/>
	</g>
	<g id="ARC_33_">
		
			<path fill="none" stroke="#000000" stroke-width="0.7087" stroke-linecap="round" stroke-linejoin="round" stroke-miterlimit="10" d="
			M1311.2,958.8c0.23,0.4,0.74,0.54,1.14,0.31"/>
	</g>
	<g id="ARC_34_">
		
			<path fill="none" stroke="#000000" stroke-width="0.7087" stroke-linecap="round" stroke-linejoin="round" stroke-miterlimit="10" d="
			M1303.48,943.76c-0.4,0.23-0.54,0.74-0.3,1.14"/>
	</g>
	<g id="ARC_35_">
		
			<path fill="none" stroke="#000000" stroke-width="0.7087" stroke-linecap="round" stroke-linejoin="round" stroke-miterlimit="10" d="
			M1311.1,958.61c0.23,0.4,0.74,0.54,1.14,0.31"/>
	</g>
	<g id="ARC_36_">
		
			<path fill="none" stroke="#000000" stroke-width="0.7087" stroke-linecap="round" stroke-linejoin="round" stroke-miterlimit="10" d="
			M1307.05,943.63c-0.46-0.8-1.48-1.07-2.28-0.61"/>
	</g>
	<g id="ARC_37_">
		
			<path fill="none" stroke="#000000" stroke-width="0.7087" stroke-linecap="round" stroke-linejoin="round" stroke-miterlimit="10" d="
			M1313.52,958.18c0.8-0.46,1.07-1.48,0.61-2.28"/>
	</g>
	<g id="LINE_91_">
		
			<line fill="none" stroke="#000000" stroke-width="0.7087" stroke-linecap="round" stroke-linejoin="round" stroke-miterlimit="10" x1="1303.48" y1="943.76" x2="1304.77" y2="943.02"/>
	</g>
	<g id="LINE_92_">
		
			<line fill="none" stroke="#000000" stroke-width="0.7087" stroke-linecap="round" stroke-linejoin="round" stroke-miterlimit="10" x1="1314.13" y1="955.9" x2="1307.05" y2="943.63"/>
	</g>
	<g id="LINE_93_">
		
			<line fill="none" stroke="#000000" stroke-width="0.7087" stroke-linecap="round" stroke-linejoin="round" stroke-miterlimit="10" x1="1312.23" y1="958.92" x2="1313.52" y2="958.18"/>
	</g>
	<g id="POLYLINE_20_">
		
			<path fill="none" stroke="#000000" stroke-width="0.7087" stroke-linecap="round" stroke-linejoin="round" stroke-miterlimit="10" d="
			M1328.86,807.5c0,0.21-0.17,0.38-0.38,0.38c-0.21,0-0.38-0.17-0.38-0.38v-3.66h21.54v29.23h-21.54v-3.65
			c0-0.21,0.17-0.38,0.38-0.38c0.21,0,0.38,0.17,0.38,0.38"/>
	</g>
	<g id="ARC_38_">
		
			<path fill="none" stroke="#000000" stroke-width="0.7087" stroke-linecap="round" stroke-linejoin="round" stroke-miterlimit="10" d="
			M1295.53,808.45c-0.92,0-1.67,0.75-1.67,1.67"/>
	</g>
	<g id="LINE_94_">
		
			<line fill="none" stroke="#000000" stroke-width="0.7087" stroke-linecap="round" stroke-linejoin="round" stroke-miterlimit="10" x1="1293.86" y1="856.01" x2="1293.86" y2="810.12"/>
	</g>
	<g id="ARC_39_">
		
			<path fill="none" stroke="#000000" stroke-width="0.7087" stroke-linecap="round" stroke-linejoin="round" stroke-miterlimit="10" d="
			M1313.86,810.12c0-0.92-0.75-1.67-1.67-1.67"/>
	</g>
	<g id="LINE_95_">
		
			<line fill="none" stroke="#000000" stroke-width="0.7087" stroke-linecap="round" stroke-linejoin="round" stroke-miterlimit="10" x1="1313.86" y1="810.12" x2="1313.86" y2="856.01"/>
	</g>
	<g id="LINE_96_">
		
			<line fill="none" stroke="#000000" stroke-width="0.7087" stroke-linecap="round" stroke-linejoin="round" stroke-miterlimit="10" x1="1295.53" y1="808.45" x2="1312.2" y2="808.45"/>
	</g>
	<g id="LINE_97_">
		
			<line fill="none" stroke="#000000" stroke-width="0.7087" stroke-linecap="round" stroke-linejoin="round" stroke-miterlimit="10" x1="1278.86" y1="808.45" x2="1258.86" y2="808.45"/>
	</g>
	<g id="LINE_98_">
		
			<line fill="none" stroke="#000000" stroke-width="0.7087" stroke-linecap="round" stroke-linejoin="round" stroke-miterlimit="10" x1="1262.71" y1="808.45" x2="1262.71" y2="828.45"/>
	</g>
	<g id="LINE_99_">
		
			<line fill="none" stroke="#000000" stroke-width="0.7087" stroke-linecap="round" stroke-linejoin="round" stroke-miterlimit="10" x1="1258.86" y1="828.45" x2="1278.86" y2="828.45"/>
	</g>
	<g id="POLYLINE_21_">
		
			<path fill="none" stroke="#000000" stroke-width="0.7087" stroke-linecap="round" stroke-linejoin="round" stroke-miterlimit="10" d="
			M1278.86,807.5c0,0.21,0.17,0.38,0.38,0.38s0.38-0.17,0.38-0.38v-3.66h-21.54v29.23h21.54v-3.65c0-0.21-0.17-0.38-0.38-0.38
			s-0.38,0.17-0.38,0.38"/>
	</g>
	<g id="POLYLINE_22_">
		
			<polyline fill="none" stroke="#000000" stroke-width="0.7087" stroke-linecap="round" stroke-linejoin="round" stroke-miterlimit="10" points="
			1258.86,804.6 1258.86,832.3 1278.86,832.3 1278.86,804.6 1258.86,804.6 		"/>
	</g>
	<g id="POLYLINE_23_">
		
			<polyline fill="none" stroke="#000000" stroke-width="0.7087" stroke-linecap="round" stroke-linejoin="round" stroke-miterlimit="10" points="
			1348.86,804.6 1348.86,832.3 1328.86,832.3 1328.86,804.6 1348.86,804.6 		"/>
	</g>
	<g id="LINE_100_">
		
			<line fill="none" stroke="#000000" stroke-width="0.7087" stroke-linecap="round" stroke-linejoin="round" stroke-miterlimit="10" x1="1348.86" y1="828.45" x2="1328.86" y2="828.45"/>
	</g>
	<g id="LINE_101_">
		
			<line fill="none" stroke="#000000" stroke-width="0.7087" stroke-linecap="round" stroke-linejoin="round" stroke-miterlimit="10" x1="1345.02" y1="808.45" x2="1345.02" y2="828.45"/>
	</g>
	<g id="LINE_102_">
		
			<line fill="none" stroke="#000000" stroke-width="0.7087" stroke-linecap="round" stroke-linejoin="round" stroke-miterlimit="10" x1="1328.86" y1="808.45" x2="1348.86" y2="808.45"/>
	</g>
	<g id="ARC_40_">
		
			<path fill="none" stroke="#000000" stroke-width="0.7087" stroke-linecap="round" stroke-linejoin="round" stroke-miterlimit="10" d="
			M1312.2,857.68c0.92,0,1.67-0.75,1.67-1.67"/>
	</g>
	<g id="LINE_103_">
		
			<line fill="none" stroke="#000000" stroke-width="0.7087" stroke-linecap="round" stroke-linejoin="round" stroke-miterlimit="10" x1="1312.2" y1="857.68" x2="1295.53" y2="857.68"/>
	</g>
	<g id="ARC_41_">
		
			<path fill="none" stroke="#000000" stroke-width="0.7087" stroke-linecap="round" stroke-linejoin="round" stroke-miterlimit="10" d="
			M1293.86,856.01c0,0.92,0.75,1.67,1.67,1.67"/>
	</g>
	<g id="LINE_104_">
		
			<line fill="none" stroke="#000000" stroke-width="0.7087" stroke-linecap="round" stroke-linejoin="round" stroke-miterlimit="10" x1="1328.86" y1="837.68" x2="1348.86" y2="837.68"/>
	</g>
	<g id="LINE_105_">
		
			<line fill="none" stroke="#000000" stroke-width="0.7087" stroke-linecap="round" stroke-linejoin="round" stroke-miterlimit="10" x1="1345.02" y1="837.68" x2="1345.02" y2="857.68"/>
	</g>
	<g id="LINE_106_">
		
			<line fill="none" stroke="#000000" stroke-width="0.7087" stroke-linecap="round" stroke-linejoin="round" stroke-miterlimit="10" x1="1348.86" y1="857.68" x2="1328.86" y2="857.68"/>
	</g>
	<g id="POLYLINE_24_">
		
			<path fill="none" stroke="#000000" stroke-width="0.7087" stroke-linecap="round" stroke-linejoin="round" stroke-miterlimit="10" d="
			M1328.86,836.73c0,0.21-0.17,0.38-0.38,0.38c-0.21,0-0.38-0.17-0.38-0.38v-3.66h21.54v29.23h-21.54v-3.65
			c0-0.21,0.17-0.38,0.38-0.38c0.21,0,0.38,0.17,0.38,0.38"/>
	</g>
	<g id="POLYLINE_25_">
		
			<polyline fill="none" stroke="#000000" stroke-width="0.7087" stroke-linecap="round" stroke-linejoin="round" stroke-miterlimit="10" points="
			1348.86,833.83 1348.86,861.53 1328.86,861.53 1328.86,833.83 1348.86,833.83 		"/>
	</g>
	<g id="POLYLINE_26_">
		
			<polyline fill="none" stroke="#000000" stroke-width="0.7087" stroke-linecap="round" stroke-linejoin="round" stroke-miterlimit="10" points="
			1258.86,833.83 1258.86,861.53 1278.86,861.53 1278.86,833.83 1258.86,833.83 		"/>
	</g>
	<g id="POLYLINE_27_">
		
			<path fill="none" stroke="#000000" stroke-width="0.7087" stroke-linecap="round" stroke-linejoin="round" stroke-miterlimit="10" d="
			M1278.86,836.73c0,0.21,0.17,0.38,0.38,0.38s0.38-0.17,0.38-0.38v-3.66h-21.54v29.23h21.54v-3.65c0-0.21-0.17-0.38-0.38-0.38
			s-0.38,0.17-0.38,0.38"/>
	</g>
	<g id="LINE_107_">
		
			<line fill="none" stroke="#000000" stroke-width="0.7087" stroke-linecap="round" stroke-linejoin="round" stroke-miterlimit="10" x1="1258.86" y1="857.68" x2="1278.86" y2="857.68"/>
	</g>
	<g id="LINE_108_">
		
			<line fill="none" stroke="#000000" stroke-width="0.7087" stroke-linecap="round" stroke-linejoin="round" stroke-miterlimit="10" x1="1262.71" y1="837.68" x2="1262.71" y2="857.68"/>
	</g>
	<g id="LINE_109_">
		
			<line fill="none" stroke="#000000" stroke-width="0.7087" stroke-linecap="round" stroke-linejoin="round" stroke-miterlimit="10" x1="1278.86" y1="837.68" x2="1258.86" y2="837.68"/>
	</g>
</g>
</svg>
