<?xml version="1.0" encoding="utf-8"?>
<!-- Generator: Adobe Illustrator 18.1.1, SVG Export Plug-In . SVG Version: 6.00 Build 0)  -->
<!DOCTYPE svg PUBLIC "-//W3C//DTD SVG 1.1//EN" "http://www.w3.org/Graphics/SVG/1.1/DTD/svg11.dtd">
<svg version="1.1" id="cells" xmlns="http://www.w3.org/2000/svg" xmlns:xlink="http://www.w3.org/1999/xlink" x="0px" y="0px"
	 width="1130px" height="610px" viewBox="0 0 1130 610" enable-background="new 0 0 1130 610" xml:space="preserve">
<rect x="634.98" y="8.99" fill="none" stroke="#231F20" stroke-width="0.25" stroke-linecap="round" stroke-linejoin="round" width="50.91" height="63.84"/>
<rect x="685.89" y="8.99" fill="none" stroke="#231F20" stroke-width="0.25" stroke-linecap="round" stroke-linejoin="round" width="52.53" height="63.84"/>
<rect x="738.42" y="8.99" fill="none" stroke="#231F20" stroke-width="0.25" stroke-linecap="round" stroke-linejoin="round" width="66.88" height="63.84"/>
<rect x="805.3" y="8.99" fill="none" stroke="#231F20" stroke-width="0.25" stroke-linecap="round" stroke-linejoin="round" width="51.76" height="63.84"/>
<rect x="857.06" y="8.99" fill="none" stroke="#231F20" stroke-width="0.25" stroke-linecap="round" stroke-linejoin="round" width="88.34" height="63.84"/>
<rect x="945.4" y="8.99" fill="none" stroke="#231F20" stroke-width="0.25" stroke-linecap="round" stroke-linejoin="round" width="51.66" height="63.84"/>
<rect x="997.06" y="8.99" fill="none" stroke="#231F20" stroke-width="0.25" stroke-linecap="round" stroke-linejoin="round" width="50.88" height="63.84"/>
<rect x="1047.94" y="8.99" fill="none" stroke="#231F20" stroke-width="0.25" stroke-linecap="round" stroke-linejoin="round" width="71.70" height="107.4"/>
<rect x="1047.94" y="116.4" fill="none" stroke="#231F20" stroke-width="0.25" stroke-linecap="round" stroke-linejoin="round" width="71.70" height="51.70"/>
<rect x="1047.94" y="168.1" fill="none" stroke="#231F20" stroke-width="0.25" stroke-linecap="round" stroke-linejoin="round" width="71.70" height="51.71"/>
<rect x="1047.94" y="219.80" fill="none" stroke="#231F20" stroke-width="0.25" stroke-linecap="round" stroke-linejoin="round" width="71.70" height="66.94"/>
<rect x="1047.94" y="286.74" fill="none" stroke="#231F20" stroke-width="0.25" stroke-linecap="round" stroke-linejoin="round" width="71.70" height="88.25"/>
<rect x="1047.94" y="374.98" fill="none" stroke="#231F20" stroke-width="0.25" stroke-linecap="round" stroke-linejoin="round" width="71.70" height="51.72"/>
<rect x="1047.94" y="426.71" fill="none" stroke="#231F20" stroke-width="0.25" stroke-linecap="round" stroke-linejoin="round" width="71.70" height="51.72"/>
<rect x="997.02" y="530.69" fill="none" stroke="#231F20" stroke-width="0.25" stroke-linecap="round" stroke-linejoin="round" width="122.59" height="69.83"/>
<rect x="908.77" y="530.69" fill="none" stroke="#231F20" stroke-width="0.25" stroke-linecap="round" stroke-linejoin="round" width="88.25" height="69.83"/>
<rect x="857.06" y="530.69" fill="none" stroke="#231F20" stroke-width="0.25" stroke-linecap="round" stroke-linejoin="round" width="51.72" height="69.83"/>
<rect x="805.33" y="530.69" fill="none" stroke="#231F20" stroke-width="0.25" stroke-linecap="round" stroke-linejoin="round" width="51.72" height="69.83"/>
<rect x="751.41" y="530.69" fill="none" stroke="#231F20" stroke-width="0.25" stroke-linecap="round" stroke-linejoin="round" width="53.93" height="69.83"/>
<rect x="697.48" y="530.69" fill="none" stroke="#231F20" stroke-width="0.25" stroke-linecap="round" stroke-linejoin="round" width="53.93" height="69.83"/>
<rect x="531.54" y="106.44" fill="none" stroke="#231F20" stroke-width="0.25" stroke-linecap="round" stroke-linejoin="round" width="51.72" height="101.12"/>
<rect x="583.26" y="106.44" fill="none" stroke="#231F20" stroke-width="0.25" stroke-linecap="round" stroke-linejoin="round" width="51.72" height="101.12"/>
<rect x="634.98" y="106.44" fill="none" stroke="#231F20" stroke-width="0.25" stroke-linecap="round" stroke-linejoin="round" width="50.91" height="101.12"/>
<rect x="685.89" y="106.44" fill="none" stroke="#231F20" stroke-width="0.25" stroke-linecap="round" stroke-linejoin="round" width="52.53" height="101.12"/>
<rect x="738.42" y="106.44" fill="none" stroke="#231F20" stroke-width="0.25" stroke-linecap="round" stroke-linejoin="round" width="55.95" height="101.12"/>
<rect x="815.06" y="159.89" fill="none" stroke="#231F20" stroke-width="0.25" stroke-linecap="round" stroke-linejoin="round" width="28.69" height="75.4"/>
<rect x="843.75" y="159.89" fill="none" stroke="#231F20" stroke-width="0.25" stroke-linecap="round" stroke-linejoin="round" width="50.81" height="75.4"/>
<rect x="894.56" y="159.89" fill="none" stroke="#231F20" stroke-width="0.25" stroke-linecap="round" stroke-linejoin="round" width="50.74" height="75.4"/>
<rect x="945.3" y="159.89" fill="none" stroke="#231F20" stroke-width="0.25" stroke-linecap="round" stroke-linejoin="round" width="81.94" height="75.4"/>
<rect x="963.9" y="235.29" fill="none" stroke="#231F20" stroke-width="0.25" stroke-linecap="round" stroke-linejoin="round" width="63.35" height="71.6"/>
<rect x="960.4" y="306.89" fill="none" stroke="#231F20" stroke-width="0.25" stroke-linecap="round" stroke-linejoin="round" width="66.85" height="67.24"/>
<polygon fill="none" stroke="#231F20" stroke-width="0.25" stroke-linecap="round" stroke-linejoin="round" points="1027.25,374.12 
	908.49,374.12 908.49,438.49 944.55,438.49 944.55,446.34 1027.25,446.34 "/>
<rect x="944.55" y="446.34" fill="none" stroke="#231F20" stroke-width="0.25" stroke-linecap="round" stroke-linejoin="round" width="82.7" height="63.66"/>
<rect x="880.71" y="438.49" fill="none" stroke="#231F20" stroke-width="0.25" stroke-linecap="round" stroke-linejoin="round" width="63.84" height="71.51"/>
<rect x="821.47" y="438.49" fill="none" stroke="#231F20" stroke-width="0.25" stroke-linecap="round" stroke-linejoin="round" width="59.25" height="71.51"/>
<rect x="946.11" y="93.51" fill="none" stroke="#231F20" stroke-width="0.25" stroke-linecap="round" stroke-linejoin="round" width="81.14" height="45.69"/>
<rect x="857.06" y="93.51" fill="none" stroke="#231F20" stroke-width="0.25" stroke-linecap="round" stroke-linejoin="round" width="87.44" height="45.69"/>
<rect x="815.06" y="93.51" fill="none" stroke="#231F20" stroke-width="0.25" stroke-linecap="round" stroke-linejoin="round" width="42" height="45.69"/>
<polygon fill="none" stroke="#231F20" stroke-width="0.25" stroke-linecap="round" stroke-linejoin="round" points="821.47,510 
	762.22,510 762.22,452.19 776.73,426.83 799.62,438.48 821.47,438.49 "/>
<rect x="1047.94" y="478.42" fill="none" stroke="#231F20" stroke-width="0.25" stroke-linecap="round" stroke-linejoin="round" width="71.70" height="52.26"/>
<rect x="583.26" y="8.99" fill="none" stroke="#231F20" stroke-width="0.25" stroke-linecap="round" stroke-linejoin="round" width="51.72" height="63.84"/>
<rect x="531.54" y="8.99" fill="none" stroke="#231F20" stroke-width="0.25" stroke-linecap="round" stroke-linejoin="round" width="51.72" height="63.84"/>
</svg>
