<?xml version="1.0" encoding="utf-8"?>
<!-- Generator: Adobe Illustrator 18.1.1, SVG Export Plug-In . SVG Version: 6.00 Build 0)  -->
<!DOCTYPE svg PUBLIC "-//W3C//DTD SVG 1.1//EN" "http://www.w3.org/Graphics/SVG/1.1/DTD/svg11.dtd">
<svg version="1.1" id="Your_Icon" xmlns="http://www.w3.org/2000/svg" xmlns:xlink="http://www.w3.org/1999/xlink" x="0px" y="0px"
	 width="74.1px" height="74.1px" viewBox="-170 134 74.1 74.1" enable-background="new -170 134 74.1 74.1" xml:space="preserve">
<g>
	<path fill="#5C5B79" d="M-130.1,205.2c0,1.6-1.3,2.9-2.9,2.9h0c-1.6,0-2.9-1.3-2.9-2.9v-13.1c0-1.6,1.3-2.9,2.9-2.9h0
		c1.6,0,2.9,1.3,2.9,2.9V205.2z"/>
	<path fill="#5C5B79" d="M-130.1,149.9c0,1.6-1.3,2.9-2.9,2.9h0c-1.6,0-2.9-1.3-2.9-2.9v-13.1c0-1.6,1.3-2.9,2.9-2.9h0
		c1.6,0,2.9,1.3,2.9,2.9L-130.1,149.9L-130.1,149.9z"/>
	<path fill="#5C5B79" d="M-167.2,173.9c-1.6,0-2.9-1.3-2.9-2.9v0c0-1.6,1.3-2.9,2.9-2.9h13.1c1.6,0,2.9,1.3,2.9,2.9v0
		c0,1.6-1.3,2.9-2.9,2.9H-167.2z"/>
	<path fill="#5C5B79" d="M-111.9,173.9c-1.6,0-2.9-1.3-2.9-2.9v0c0-1.6,1.3-2.9,2.9-2.9h13.1c1.6,0,2.9,1.3,2.9,2.9v0
		c0,1.6-1.3,2.9-2.9,2.9H-111.9z"/>
	<path fill="#5C5B79" d="M-113.4,199.2c0.8,1.4,0.3,3.1-1,3.9l0,0c-1.4,0.8-3.1,0.3-3.9-1l-6.5-11.3c-0.8-1.4-0.3-3.1,1-3.9l0,0
		c1.4-0.8,3.1-0.3,3.9,1L-113.4,199.2z"/>
	<path fill="#5C5B79" d="M-141.1,151.3c0.8,1.4,0.3,3.1-1,3.9l0,0c-1.4,0.8-3.1,0.3-3.9-1l-6.5-11.3c-0.8-1.4-0.3-3.1,1-3.9l0,0
		c1.4-0.8,3.1-0.3,3.9,1L-141.1,151.3z"/>
	<path fill="#5C5B79" d="M-161.2,190.6c-1.4,0.8-3.1,0.3-3.9-1l0,0c-0.8-1.4-0.3-3.1,1-3.9l11.3-6.5c1.4-0.8,3.1-0.3,3.9,1l0,0
		c0.8,1.4,0.3,3.1-1,3.9L-161.2,190.6z"/>
	<path fill="#5C5B79" d="M-113.3,162.9c-1.4,0.8-3.1,0.3-3.9-1l0,0c-0.8-1.4-0.3-3.1,1-3.9l11.3-6.5c1.4-0.8,3.1-0.3,3.9,1l0,0
		c0.8,1.4,0.3,3.1-1.1,3.9L-113.3,162.9z"/>
	<path fill="#5C5B79" d="M-102,185.6c1.4,0.8,1.8,2.5,1,3.9l0,0c-0.8,1.4-2.5,1.8-3.9,1l-11.3-6.5c-1.4-0.8-1.8-2.5-1-3.9l0,0
		c0.8-1.4,2.5-1.8,3.9-1L-102,185.6z"/>
	<path fill="#5C5B79" d="M-149.8,158c1.4,0.8,1.8,2.5,1,3.9l0,0c-0.8,1.4-2.5,1.8-3.9,1l-11.3-6.5c-1.4-0.8-1.8-2.5-1-3.9l0,0
		c0.8-1.4,2.5-1.8,3.9-1L-149.8,158z"/>
	<path fill="#5C5B79" d="M-147.6,202c-0.8,1.4-2.5,1.8-3.9,1.1l0,0c-1.4-0.8-1.8-2.5-1-3.9l6.5-11.3c0.8-1.4,2.5-1.8,3.9-1l0,0
		c1.4,0.8,1.8,2.5,1,3.9L-147.6,202z"/>
	<path fill="#5C5B79" d="M-120,154.2c-0.8,1.4-2.5,1.8-3.9,1l0,0c-1.4-0.8-1.8-2.5-1-3.9l6.5-11.3c0.8-1.4,2.5-1.8,3.9-1l0,0
		c1.4,0.8,1.8,2.5,1,3.9L-120,154.2z"/>
</g>
</svg>
