<?xml version="1.0" encoding="utf-8"?>
<!-- Generator: Adobe Illustrator 18.0.0, SVG Export Plug-In . SVG Version: 6.00 Build 0)  -->
<!DOCTYPE svg PUBLIC "-//W3C//DTD SVG 1.1//EN" "http://www.w3.org/Graphics/SVG/1.1/DTD/svg11.dtd">
<svg version="1.1" id="Layer_1" xmlns="http://www.w3.org/2000/svg" xmlns:xlink="http://www.w3.org/1999/xlink" x="0px" y="0px"
	 width="500px" height="500px" viewBox="0 0 500 500" enable-background="new 0 0 500 500" xml:space="preserve">
<circle fill="#F0566D" stroke="#000000" stroke-miterlimit="10" cx="75.406" cy="75.406" r="18.344"/>
<circle fill="#F0566D" stroke="#000000" stroke-miterlimit="10" cx="125.406" cy="75.406" r="18.344"/>
<circle fill="#F0566D" stroke="#000000" stroke-miterlimit="10" cx="174.594" cy="75.406" r="18.344"/>
<circle fill="#F0566D" stroke="#000000" stroke-miterlimit="10" cx="224.594" cy="75.406" r="18.344"/>
<circle fill="#F0566D" stroke="#000000" stroke-miterlimit="10" cx="273.781" cy="75.406" r="18.344"/>
<circle fill="#F0566D" stroke="#000000" stroke-miterlimit="10" cx="74.594" cy="125.406" r="18.344"/>
<circle fill="#F0566D" stroke="#000000" stroke-miterlimit="10" cx="124.594" cy="125.406" r="18.344"/>
<circle fill="#F0566D" stroke="#000000" stroke-miterlimit="10" cx="173.781" cy="125.406" r="18.344"/>
<circle fill="#F0566D" stroke="#000000" stroke-miterlimit="10" cx="223.781" cy="125.406" r="18.344"/>
<circle fill="#F0566D" stroke="#000000" stroke-miterlimit="10" cx="324.594" cy="75.406" r="18.344"/>
<circle fill="#F0566D" stroke="#000000" stroke-miterlimit="10" cx="374.594" cy="75.406" r="18.344"/>
<circle fill="#F0566D" stroke="#000000" stroke-miterlimit="10" cx="423.781" cy="75.406" r="18.344"/>
<circle fill="#F0566D" stroke="#000000" stroke-miterlimit="10" cx="274.594" cy="124.594" r="18.344"/>
<circle fill="#F0566D" stroke="#000000" stroke-miterlimit="10" cx="325.406" cy="124.594" r="18.344"/>
<circle fill="#F0566D" stroke="#000000" stroke-miterlimit="10" cx="375.406" cy="124.594" r="18.344"/>
<circle fill="#F0566D" stroke="#000000" stroke-miterlimit="10" cx="424.594" cy="124.594" r="18.344"/>
<circle fill="#F0566D" stroke="#000000" stroke-miterlimit="10" cx="75.406" cy="174.594" r="18.344"/>
<circle fill="#F0566D" stroke="#000000" stroke-miterlimit="10" cx="125.406" cy="174.594" r="18.344"/>
<circle fill="#F0566D" stroke="#000000" stroke-miterlimit="10" cx="174.594" cy="174.594" r="18.344"/>
<circle fill="#F0566D" stroke="#000000" stroke-miterlimit="10" cx="224.594" cy="174.594" r="18.344"/>
<circle fill="#F0566D" stroke="#000000" stroke-miterlimit="10" cx="273.781" cy="174.594" r="18.344"/>
<circle fill="#F0566D" stroke="#000000" stroke-miterlimit="10" cx="74.594" cy="224.594" r="18.344"/>
<circle fill="#F0566D" stroke="#000000" stroke-miterlimit="10" cx="124.594" cy="224.594" r="18.344"/>
<circle fill="#F0566D" stroke="#000000" stroke-miterlimit="10" cx="173.781" cy="224.594" r="18.344"/>
<circle fill="#F0566D" stroke="#000000" stroke-miterlimit="10" cx="223.781" cy="224.594" r="18.344"/>
<circle fill="#F0566D" stroke="#000000" stroke-miterlimit="10" cx="324.594" cy="174.594" r="18.344"/>
<circle fill="#F0566D" stroke="#000000" stroke-miterlimit="10" cx="374.594" cy="174.594" r="18.344"/>
<circle fill="#F0566D" stroke="#000000" stroke-miterlimit="10" cx="423.781" cy="174.594" r="18.344"/>
<circle fill="#F0566D" stroke="#000000" stroke-miterlimit="10" cx="274.594" cy="223.781" r="18.344"/>
<circle fill="#F0566D" stroke="#000000" stroke-miterlimit="10" cx="325.406" cy="223.781" r="18.344"/>
<circle fill="#F0566D" stroke="#000000" stroke-miterlimit="10" cx="375.406" cy="223.781" r="18.344"/>
<circle fill="#F0566D" stroke="#000000" stroke-miterlimit="10" cx="424.594" cy="223.781" r="18.344"/>
<circle fill="#F0566D" stroke="#000000" stroke-miterlimit="10" cx="76.219" cy="274.594" r="18.344"/>
<circle fill="#F0566D" stroke="#000000" stroke-miterlimit="10" cx="126.219" cy="274.594" r="18.344"/>
<circle fill="#F0566D" stroke="#000000" stroke-miterlimit="10" cx="175.406" cy="274.594" r="18.344"/>
<circle fill="#F0566D" stroke="#000000" stroke-miterlimit="10" cx="225.406" cy="274.594" r="18.344"/>
<circle fill="#F0566D" stroke="#000000" stroke-miterlimit="10" cx="274.594" cy="274.594" r="18.344"/>
<circle fill="#F0566D" stroke="#000000" stroke-miterlimit="10" cx="75.406" cy="324.594" r="18.344"/>
<circle fill="#F0566D" stroke="#000000" stroke-miterlimit="10" cx="125.406" cy="324.594" r="18.344"/>
<circle fill="#F0566D" stroke="#000000" stroke-miterlimit="10" cx="174.594" cy="324.594" r="18.344"/>
<circle fill="#F0566D" stroke="#000000" stroke-miterlimit="10" cx="224.594" cy="324.594" r="18.344"/>
<circle fill="#F0566D" stroke="#000000" stroke-miterlimit="10" cx="325.406" cy="274.594" r="18.344"/>
<circle fill="#F0566D" stroke="#000000" stroke-miterlimit="10" cx="375.406" cy="274.594" r="18.344"/>
<circle fill="#F0566D" stroke="#000000" stroke-miterlimit="10" cx="424.594" cy="274.594" r="18.344"/>
<circle fill="#F0566D" stroke="#000000" stroke-miterlimit="10" cx="275.406" cy="323.781" r="18.344"/>
<circle fill="#F0566D" stroke="#000000" stroke-miterlimit="10" cx="326.219" cy="323.781" r="18.344"/>
<circle fill="#F0566D" stroke="#000000" stroke-miterlimit="10" cx="376.219" cy="323.781" r="18.344"/>
<circle fill="#F0566D" stroke="#000000" stroke-miterlimit="10" cx="425.406" cy="323.781" r="18.344"/>
<circle fill="#F0566D" stroke="#000000" stroke-miterlimit="10" cx="76.219" cy="373.781" r="18.344"/>
<circle fill="#F0566D" stroke="#000000" stroke-miterlimit="10" cx="126.219" cy="373.781" r="18.344"/>
<circle fill="#F0566D" stroke="#000000" stroke-miterlimit="10" cx="175.406" cy="373.781" r="18.344"/>
<circle fill="#F0566D" stroke="#000000" stroke-miterlimit="10" cx="225.406" cy="373.781" r="18.344"/>
<circle fill="#F0566D" stroke="#000000" stroke-miterlimit="10" cx="274.594" cy="373.781" r="18.344"/>
<circle fill="#F0566D" stroke="#000000" stroke-miterlimit="10" cx="75.406" cy="423.781" r="18.344"/>
<circle fill="#F0566D" stroke="#000000" stroke-miterlimit="10" cx="125.406" cy="423.781" r="18.344"/>
<circle fill="#F0566D" stroke="#000000" stroke-miterlimit="10" cx="174.594" cy="423.781" r="18.344"/>
<circle fill="#F0566D" stroke="#000000" stroke-miterlimit="10" cx="224.594" cy="423.781" r="18.344"/>
<circle fill="#F0566D" stroke="#000000" stroke-miterlimit="10" cx="325.406" cy="373.781" r="18.344"/>
<circle fill="#F0566D" stroke="#000000" stroke-miterlimit="10" cx="375.406" cy="373.781" r="18.344"/>
<circle fill="#F0566D" stroke="#000000" stroke-miterlimit="10" cx="424.594" cy="373.781" r="18.344"/>
<circle fill="#F0566D" stroke="#000000" stroke-miterlimit="10" cx="275.406" cy="422.969" r="18.344"/>
<circle fill="#F0566D" stroke="#000000" stroke-miterlimit="10" cx="326.219" cy="422.969" r="18.344"/>
<circle fill="#F0566D" stroke="#000000" stroke-miterlimit="10" cx="376.219" cy="422.969" r="18.344"/>
<circle fill="#F0566D" stroke="#000000" stroke-miterlimit="10" cx="425.406" cy="422.969" r="18.344"/>
</svg>
