<?xml version="1.0" encoding="utf-8"?>
<!-- Generator: Adobe Illustrator 18.0.0, SVG Export Plug-In . SVG Version: 6.00 Build 0)  -->
<!DOCTYPE svg PUBLIC "-//W3C//DTD SVG 1.1//EN" "http://www.w3.org/Graphics/SVG/1.1/DTD/svg11.dtd">
<svg version="1.1" id="Layer_1" xmlns="http://www.w3.org/2000/svg" xmlns:xlink="http://www.w3.org/1999/xlink" x="0px" y="0px"
	 width="500px" height="500px" viewBox="0 0 500 500" enable-background="new 0 0 500 500" xml:space="preserve">
<g>
	<line fill="none" stroke="#000000" stroke-miterlimit="10" x1="50" y1="50" x2="50" y2="100"/>
	<line fill="none" stroke="#000000" stroke-miterlimit="10" x1="50" y1="100" x2="100" y2="100"/>
	<line fill="none" stroke="#000000" stroke-miterlimit="10" x1="100" y1="100" x2="100" y2="50"/>
	<line fill="none" stroke="#000000" stroke-miterlimit="10" x1="100" y1="50" x2="50" y2="50"/>
</g>
<g>
	<line fill="none" stroke="#000000" stroke-miterlimit="10" x1="100" y1="50" x2="100" y2="100"/>
	<line fill="none" stroke="#000000" stroke-miterlimit="10" x1="100" y1="100" x2="150" y2="100"/>
	<line fill="none" stroke="#000000" stroke-miterlimit="10" x1="150" y1="100" x2="150" y2="50"/>
	<line fill="none" stroke="#000000" stroke-miterlimit="10" x1="150" y1="50" x2="100" y2="50"/>
</g>
<g>
	<line fill="none" stroke="#000000" stroke-miterlimit="10" x1="150" y1="50" x2="150" y2="100"/>
	<line fill="none" stroke="#000000" stroke-miterlimit="10" x1="150" y1="100" x2="200" y2="100"/>
	<line fill="none" stroke="#000000" stroke-miterlimit="10" x1="200" y1="100" x2="200" y2="50"/>
	<line fill="none" stroke="#000000" stroke-miterlimit="10" x1="200" y1="50" x2="150" y2="50"/>
</g>
<g>
	<line fill="none" stroke="#000000" stroke-miterlimit="10" x1="200" y1="50" x2="200" y2="100"/>
	<line fill="none" stroke="#000000" stroke-miterlimit="10" x1="200" y1="100" x2="250" y2="100"/>
	<line fill="none" stroke="#000000" stroke-miterlimit="10" x1="250" y1="100" x2="250" y2="50"/>
	<line fill="none" stroke="#000000" stroke-miterlimit="10" x1="250" y1="50" x2="200" y2="50"/>
</g>
<g>
	<line fill="none" stroke="#000000" stroke-miterlimit="10" x1="250" y1="50" x2="250" y2="100"/>
	<line fill="none" stroke="#000000" stroke-miterlimit="10" x1="250" y1="100" x2="300" y2="100"/>
	<line fill="none" stroke="#000000" stroke-miterlimit="10" x1="300" y1="100" x2="300" y2="50"/>
	<line fill="none" stroke="#000000" stroke-miterlimit="10" x1="300" y1="50" x2="250" y2="50"/>
</g>
<g>
	<line fill="none" stroke="#000000" stroke-miterlimit="10" x1="300" y1="50" x2="300" y2="100"/>
	<line fill="none" stroke="#000000" stroke-miterlimit="10" x1="300" y1="100" x2="350" y2="100"/>
	<line fill="none" stroke="#000000" stroke-miterlimit="10" x1="350" y1="100" x2="350" y2="50"/>
	<line fill="none" stroke="#000000" stroke-miterlimit="10" x1="350" y1="50" x2="300" y2="50"/>
</g>
<g>
	<line fill="none" stroke="#000000" stroke-miterlimit="10" x1="350" y1="50" x2="350" y2="100"/>
	<line fill="none" stroke="#000000" stroke-miterlimit="10" x1="350" y1="100" x2="400" y2="100"/>
	<line fill="none" stroke="#000000" stroke-miterlimit="10" x1="400" y1="100" x2="400" y2="50"/>
	<line fill="none" stroke="#000000" stroke-miterlimit="10" x1="400" y1="50" x2="350" y2="50"/>
</g>
<g>
	<line fill="none" stroke="#000000" stroke-miterlimit="10" x1="400" y1="50" x2="400" y2="100"/>
	<line fill="none" stroke="#000000" stroke-miterlimit="10" x1="400" y1="100" x2="450" y2="100"/>
	<line fill="none" stroke="#000000" stroke-miterlimit="10" x1="450" y1="100" x2="450" y2="50"/>
	<line fill="none" stroke="#000000" stroke-miterlimit="10" x1="450" y1="50" x2="400" y2="50"/>
</g>
<g>
	<line fill="none" stroke="#000000" stroke-miterlimit="10" x1="50" y1="100" x2="50" y2="150"/>
	<line fill="none" stroke="#000000" stroke-miterlimit="10" x1="50" y1="150" x2="100" y2="150"/>
	<line fill="none" stroke="#000000" stroke-miterlimit="10" x1="100" y1="150" x2="100" y2="100"/>
	<line fill="none" stroke="#000000" stroke-miterlimit="10" x1="100" y1="100" x2="50" y2="100"/>
</g>
<g>
	<line fill="none" stroke="#000000" stroke-miterlimit="10" x1="100" y1="100" x2="100" y2="150"/>
	<line fill="none" stroke="#000000" stroke-miterlimit="10" x1="100" y1="150" x2="150" y2="150"/>
	<line fill="none" stroke="#000000" stroke-miterlimit="10" x1="150" y1="150" x2="150" y2="100"/>
	<line fill="none" stroke="#000000" stroke-miterlimit="10" x1="150" y1="100" x2="100" y2="100"/>
</g>
<g>
	<line fill="none" stroke="#000000" stroke-miterlimit="10" x1="150" y1="100" x2="150" y2="150"/>
	<line fill="none" stroke="#000000" stroke-miterlimit="10" x1="150" y1="150" x2="200" y2="150"/>
	<line fill="none" stroke="#000000" stroke-miterlimit="10" x1="200" y1="150" x2="200" y2="100"/>
	<line fill="none" stroke="#000000" stroke-miterlimit="10" x1="200" y1="100" x2="150" y2="100"/>
</g>
<g>
	<line fill="none" stroke="#000000" stroke-miterlimit="10" x1="200" y1="100" x2="200" y2="150"/>
	<line fill="none" stroke="#000000" stroke-miterlimit="10" x1="200" y1="150" x2="250" y2="150"/>
	<line fill="none" stroke="#000000" stroke-miterlimit="10" x1="250" y1="150" x2="250" y2="100"/>
	<line fill="none" stroke="#000000" stroke-miterlimit="10" x1="250" y1="100" x2="200" y2="100"/>
</g>
<g>
	<line fill="none" stroke="#000000" stroke-miterlimit="10" x1="250" y1="100" x2="250" y2="150"/>
	<line fill="none" stroke="#000000" stroke-miterlimit="10" x1="250" y1="150" x2="300" y2="150"/>
	<line fill="none" stroke="#000000" stroke-miterlimit="10" x1="300" y1="150" x2="300" y2="100"/>
	<line fill="none" stroke="#000000" stroke-miterlimit="10" x1="300" y1="100" x2="250" y2="100"/>
</g>
<g>
	<line fill="none" stroke="#000000" stroke-miterlimit="10" x1="300" y1="100" x2="300" y2="150"/>
	<line fill="none" stroke="#000000" stroke-miterlimit="10" x1="300" y1="150" x2="350" y2="150"/>
	<line fill="none" stroke="#000000" stroke-miterlimit="10" x1="350" y1="150" x2="350" y2="100"/>
	<line fill="none" stroke="#000000" stroke-miterlimit="10" x1="350" y1="100" x2="300" y2="100"/>
</g>
<g>
	<line fill="none" stroke="#000000" stroke-miterlimit="10" x1="350" y1="100" x2="350" y2="150"/>
	<line fill="none" stroke="#000000" stroke-miterlimit="10" x1="350" y1="150" x2="400" y2="150"/>
	<line fill="none" stroke="#000000" stroke-miterlimit="10" x1="400" y1="150" x2="400" y2="100"/>
	<line fill="none" stroke="#000000" stroke-miterlimit="10" x1="400" y1="100" x2="350" y2="100"/>
</g>
<g>
	<line fill="none" stroke="#000000" stroke-miterlimit="10" x1="400" y1="100" x2="400" y2="150"/>
	<line fill="none" stroke="#000000" stroke-miterlimit="10" x1="400" y1="150" x2="450" y2="150"/>
	<line fill="none" stroke="#000000" stroke-miterlimit="10" x1="450" y1="150" x2="450" y2="100"/>
	<line fill="none" stroke="#000000" stroke-miterlimit="10" x1="450" y1="100" x2="400" y2="100"/>
</g>
<g>
	<line fill="none" stroke="#000000" stroke-miterlimit="10" x1="50" y1="150" x2="50" y2="200"/>
	<line fill="none" stroke="#000000" stroke-miterlimit="10" x1="50" y1="200" x2="100" y2="200"/>
	<line fill="none" stroke="#000000" stroke-miterlimit="10" x1="100" y1="200" x2="100" y2="150"/>
	<line fill="none" stroke="#000000" stroke-miterlimit="10" x1="100" y1="150" x2="50" y2="150"/>
</g>
<g>
	<line fill="none" stroke="#000000" stroke-miterlimit="10" x1="100" y1="150" x2="100" y2="200"/>
	<line fill="none" stroke="#000000" stroke-miterlimit="10" x1="100" y1="200" x2="150" y2="200"/>
	<line fill="none" stroke="#000000" stroke-miterlimit="10" x1="150" y1="200" x2="150" y2="150"/>
	<line fill="none" stroke="#000000" stroke-miterlimit="10" x1="150" y1="150" x2="100" y2="150"/>
</g>
<g>
	<line fill="none" stroke="#000000" stroke-miterlimit="10" x1="150" y1="150" x2="150" y2="200"/>
	<line fill="none" stroke="#000000" stroke-miterlimit="10" x1="150" y1="200" x2="200" y2="200"/>
	<line fill="none" stroke="#000000" stroke-miterlimit="10" x1="200" y1="200" x2="200" y2="150"/>
	<line fill="none" stroke="#000000" stroke-miterlimit="10" x1="200" y1="150" x2="150" y2="150"/>
</g>
<g>
	<line fill="none" stroke="#000000" stroke-miterlimit="10" x1="200" y1="150" x2="200" y2="200"/>
	<line fill="none" stroke="#000000" stroke-miterlimit="10" x1="200" y1="200" x2="250" y2="200"/>
	<line fill="none" stroke="#000000" stroke-miterlimit="10" x1="250" y1="200" x2="250" y2="150"/>
	<line fill="none" stroke="#000000" stroke-miterlimit="10" x1="250" y1="150" x2="200" y2="150"/>
</g>
<g>
	<line fill="none" stroke="#000000" stroke-miterlimit="10" x1="250" y1="150" x2="250" y2="200"/>
	<line fill="none" stroke="#000000" stroke-miterlimit="10" x1="250" y1="200" x2="300" y2="200"/>
	<line fill="none" stroke="#000000" stroke-miterlimit="10" x1="300" y1="200" x2="300" y2="150"/>
	<line fill="none" stroke="#000000" stroke-miterlimit="10" x1="300" y1="150" x2="250" y2="150"/>
</g>
<g>
	<line fill="none" stroke="#000000" stroke-miterlimit="10" x1="300" y1="150" x2="300" y2="200"/>
	<line fill="none" stroke="#000000" stroke-miterlimit="10" x1="300" y1="200" x2="350" y2="200"/>
	<line fill="none" stroke="#000000" stroke-miterlimit="10" x1="350" y1="200" x2="350" y2="150"/>
	<line fill="none" stroke="#000000" stroke-miterlimit="10" x1="350" y1="150" x2="300" y2="150"/>
</g>
<g>
	<line fill="none" stroke="#000000" stroke-miterlimit="10" x1="350" y1="150" x2="350" y2="200"/>
	<line fill="none" stroke="#000000" stroke-miterlimit="10" x1="350" y1="200" x2="400" y2="200"/>
	<line fill="none" stroke="#000000" stroke-miterlimit="10" x1="400" y1="200" x2="400" y2="150"/>
	<line fill="none" stroke="#000000" stroke-miterlimit="10" x1="400" y1="150" x2="350" y2="150"/>
</g>
<g>
	<line fill="none" stroke="#000000" stroke-miterlimit="10" x1="400" y1="150" x2="400" y2="200"/>
	<line fill="none" stroke="#000000" stroke-miterlimit="10" x1="400" y1="200" x2="450" y2="200"/>
	<line fill="none" stroke="#000000" stroke-miterlimit="10" x1="450" y1="200" x2="450" y2="150"/>
	<line fill="none" stroke="#000000" stroke-miterlimit="10" x1="450" y1="150" x2="400" y2="150"/>
</g>
<g>
	<line fill="none" stroke="#000000" stroke-miterlimit="10" x1="50" y1="200" x2="50" y2="250"/>
	<line fill="none" stroke="#000000" stroke-miterlimit="10" x1="50" y1="250" x2="100" y2="250"/>
	<line fill="none" stroke="#000000" stroke-miterlimit="10" x1="100" y1="250" x2="100" y2="200"/>
	<line fill="none" stroke="#000000" stroke-miterlimit="10" x1="100" y1="200" x2="50" y2="200"/>
</g>
<g>
	<line fill="none" stroke="#000000" stroke-miterlimit="10" x1="100" y1="200" x2="100" y2="250"/>
	<line fill="none" stroke="#000000" stroke-miterlimit="10" x1="100" y1="250" x2="150" y2="250"/>
	<line fill="none" stroke="#000000" stroke-miterlimit="10" x1="150" y1="250" x2="150" y2="200"/>
	<line fill="none" stroke="#000000" stroke-miterlimit="10" x1="150" y1="200" x2="100" y2="200"/>
</g>
<g>
	<line fill="none" stroke="#000000" stroke-miterlimit="10" x1="150" y1="200" x2="150" y2="250"/>
	<line fill="none" stroke="#000000" stroke-miterlimit="10" x1="150" y1="250" x2="200" y2="250"/>
	<line fill="none" stroke="#000000" stroke-miterlimit="10" x1="200" y1="250" x2="200" y2="200"/>
	<line fill="none" stroke="#000000" stroke-miterlimit="10" x1="200" y1="200" x2="150" y2="200"/>
</g>
<g>
	<line fill="none" stroke="#000000" stroke-miterlimit="10" x1="200" y1="200" x2="200" y2="250"/>
	<line fill="none" stroke="#000000" stroke-miterlimit="10" x1="200" y1="250" x2="250" y2="250"/>
	<line fill="none" stroke="#000000" stroke-miterlimit="10" x1="250" y1="250" x2="250" y2="200"/>
	<line fill="none" stroke="#000000" stroke-miterlimit="10" x1="250" y1="200" x2="200" y2="200"/>
</g>
<g>
	<line fill="none" stroke="#000000" stroke-miterlimit="10" x1="250" y1="200" x2="250" y2="250"/>
	<line fill="none" stroke="#000000" stroke-miterlimit="10" x1="250" y1="250" x2="300" y2="250"/>
	<line fill="none" stroke="#000000" stroke-miterlimit="10" x1="300" y1="250" x2="300" y2="200"/>
	<line fill="none" stroke="#000000" stroke-miterlimit="10" x1="300" y1="200" x2="250" y2="200"/>
</g>
<g>
	<line fill="none" stroke="#000000" stroke-miterlimit="10" x1="300" y1="200" x2="300" y2="250"/>
	<line fill="none" stroke="#000000" stroke-miterlimit="10" x1="300" y1="250" x2="350" y2="250"/>
	<line fill="none" stroke="#000000" stroke-miterlimit="10" x1="350" y1="250" x2="350" y2="200"/>
	<line fill="none" stroke="#000000" stroke-miterlimit="10" x1="350" y1="200" x2="300" y2="200"/>
</g>
<g>
	<line fill="none" stroke="#000000" stroke-miterlimit="10" x1="350" y1="200" x2="350" y2="250"/>
	<line fill="none" stroke="#000000" stroke-miterlimit="10" x1="350" y1="250" x2="400" y2="250"/>
	<line fill="none" stroke="#000000" stroke-miterlimit="10" x1="400" y1="250" x2="400" y2="200"/>
	<line fill="none" stroke="#000000" stroke-miterlimit="10" x1="400" y1="200" x2="350" y2="200"/>
</g>
<g>
	<line fill="none" stroke="#000000" stroke-miterlimit="10" x1="400" y1="200" x2="400" y2="250"/>
	<line fill="none" stroke="#000000" stroke-miterlimit="10" x1="400" y1="250" x2="450" y2="250"/>
	<line fill="none" stroke="#000000" stroke-miterlimit="10" x1="450" y1="250" x2="450" y2="200"/>
	<line fill="none" stroke="#000000" stroke-miterlimit="10" x1="450" y1="200" x2="400" y2="200"/>
</g>
<g>
	<line fill="none" stroke="#000000" stroke-miterlimit="10" x1="50" y1="250" x2="50" y2="300"/>
	<line fill="none" stroke="#000000" stroke-miterlimit="10" x1="50" y1="300" x2="100" y2="300"/>
	<line fill="none" stroke="#000000" stroke-miterlimit="10" x1="100" y1="300" x2="100" y2="250"/>
	<line fill="none" stroke="#000000" stroke-miterlimit="10" x1="100" y1="250" x2="50" y2="250"/>
</g>
<g>
	<line fill="none" stroke="#000000" stroke-miterlimit="10" x1="100" y1="250" x2="100" y2="300"/>
	<line fill="none" stroke="#000000" stroke-miterlimit="10" x1="100" y1="300" x2="150" y2="300"/>
	<line fill="none" stroke="#000000" stroke-miterlimit="10" x1="150" y1="300" x2="150" y2="250"/>
	<line fill="none" stroke="#000000" stroke-miterlimit="10" x1="150" y1="250" x2="100" y2="250"/>
</g>
<g>
	<line fill="none" stroke="#000000" stroke-miterlimit="10" x1="150" y1="250" x2="150" y2="300"/>
	<line fill="none" stroke="#000000" stroke-miterlimit="10" x1="150" y1="300" x2="200" y2="300"/>
	<line fill="none" stroke="#000000" stroke-miterlimit="10" x1="200" y1="300" x2="200" y2="250"/>
	<line fill="none" stroke="#000000" stroke-miterlimit="10" x1="200" y1="250" x2="150" y2="250"/>
</g>
<g>
	<line fill="none" stroke="#000000" stroke-miterlimit="10" x1="200" y1="250" x2="200" y2="300"/>
	<line fill="none" stroke="#000000" stroke-miterlimit="10" x1="200" y1="300" x2="250" y2="300"/>
	<line fill="none" stroke="#000000" stroke-miterlimit="10" x1="250" y1="300" x2="250" y2="250"/>
	<line fill="none" stroke="#000000" stroke-miterlimit="10" x1="250" y1="250" x2="200" y2="250"/>
</g>
<g>
	<line fill="none" stroke="#000000" stroke-miterlimit="10" x1="250" y1="250" x2="250" y2="300"/>
	<line fill="none" stroke="#000000" stroke-miterlimit="10" x1="250" y1="300" x2="300" y2="300"/>
	<line fill="none" stroke="#000000" stroke-miterlimit="10" x1="300" y1="300" x2="300" y2="250"/>
	<line fill="none" stroke="#000000" stroke-miterlimit="10" x1="300" y1="250" x2="250" y2="250"/>
</g>
<g>
	<line fill="none" stroke="#000000" stroke-miterlimit="10" x1="300" y1="250" x2="300" y2="300"/>
	<line fill="none" stroke="#000000" stroke-miterlimit="10" x1="300" y1="300" x2="350" y2="300"/>
	<line fill="none" stroke="#000000" stroke-miterlimit="10" x1="350" y1="300" x2="350" y2="250"/>
	<line fill="none" stroke="#000000" stroke-miterlimit="10" x1="350" y1="250" x2="300" y2="250"/>
</g>
<g>
	<line fill="none" stroke="#000000" stroke-miterlimit="10" x1="350" y1="250" x2="350" y2="300"/>
	<line fill="none" stroke="#000000" stroke-miterlimit="10" x1="350" y1="300" x2="400" y2="300"/>
	<line fill="none" stroke="#000000" stroke-miterlimit="10" x1="400" y1="300" x2="400" y2="250"/>
	<line fill="none" stroke="#000000" stroke-miterlimit="10" x1="400" y1="250" x2="350" y2="250"/>
</g>
<g>
	<line fill="none" stroke="#000000" stroke-miterlimit="10" x1="400" y1="250" x2="400" y2="300"/>
	<line fill="none" stroke="#000000" stroke-miterlimit="10" x1="400" y1="300" x2="450" y2="300"/>
	<line fill="none" stroke="#000000" stroke-miterlimit="10" x1="450" y1="300" x2="450" y2="250"/>
	<line fill="none" stroke="#000000" stroke-miterlimit="10" x1="450" y1="250" x2="400" y2="250"/>
</g>
<g>
	<line fill="none" stroke="#000000" stroke-miterlimit="10" x1="50" y1="300" x2="50" y2="350"/>
	<line fill="none" stroke="#000000" stroke-miterlimit="10" x1="50" y1="350" x2="100" y2="350"/>
	<line fill="none" stroke="#000000" stroke-miterlimit="10" x1="100" y1="350" x2="100" y2="300"/>
	<line fill="none" stroke="#000000" stroke-miterlimit="10" x1="100" y1="300" x2="50" y2="300"/>
</g>
<g>
	<line fill="none" stroke="#000000" stroke-miterlimit="10" x1="100" y1="300" x2="100" y2="350"/>
	<line fill="none" stroke="#000000" stroke-miterlimit="10" x1="100" y1="350" x2="150" y2="350"/>
	<line fill="none" stroke="#000000" stroke-miterlimit="10" x1="150" y1="350" x2="150" y2="300"/>
	<line fill="none" stroke="#000000" stroke-miterlimit="10" x1="150" y1="300" x2="100" y2="300"/>
</g>
<g>
	<line fill="none" stroke="#000000" stroke-miterlimit="10" x1="150" y1="300" x2="150" y2="350"/>
	<line fill="none" stroke="#000000" stroke-miterlimit="10" x1="150" y1="350" x2="200" y2="350"/>
	<line fill="none" stroke="#000000" stroke-miterlimit="10" x1="200" y1="350" x2="200" y2="300"/>
	<line fill="none" stroke="#000000" stroke-miterlimit="10" x1="200" y1="300" x2="150" y2="300"/>
</g>
<g>
	<line fill="none" stroke="#000000" stroke-miterlimit="10" x1="200" y1="300" x2="200" y2="350"/>
	<line fill="none" stroke="#000000" stroke-miterlimit="10" x1="200" y1="350" x2="250" y2="350"/>
	<line fill="none" stroke="#000000" stroke-miterlimit="10" x1="250" y1="350" x2="250" y2="300"/>
	<line fill="none" stroke="#000000" stroke-miterlimit="10" x1="250" y1="300" x2="200" y2="300"/>
</g>
<g>
	<line fill="none" stroke="#000000" stroke-miterlimit="10" x1="250" y1="300" x2="250" y2="350"/>
	<line fill="none" stroke="#000000" stroke-miterlimit="10" x1="250" y1="350" x2="300" y2="350"/>
	<line fill="none" stroke="#000000" stroke-miterlimit="10" x1="300" y1="350" x2="300" y2="300"/>
	<line fill="none" stroke="#000000" stroke-miterlimit="10" x1="300" y1="300" x2="250" y2="300"/>
</g>
<g>
	<line fill="none" stroke="#000000" stroke-miterlimit="10" x1="300" y1="300" x2="300" y2="350"/>
	<line fill="none" stroke="#000000" stroke-miterlimit="10" x1="300" y1="350" x2="350" y2="350"/>
	<line fill="none" stroke="#000000" stroke-miterlimit="10" x1="350" y1="350" x2="350" y2="300"/>
	<line fill="none" stroke="#000000" stroke-miterlimit="10" x1="350" y1="300" x2="300" y2="300"/>
</g>
<g>
	<line fill="none" stroke="#000000" stroke-miterlimit="10" x1="350" y1="300" x2="350" y2="350"/>
	<line fill="none" stroke="#000000" stroke-miterlimit="10" x1="350" y1="350" x2="400" y2="350"/>
	<line fill="none" stroke="#000000" stroke-miterlimit="10" x1="400" y1="350" x2="400" y2="300"/>
	<line fill="none" stroke="#000000" stroke-miterlimit="10" x1="400" y1="300" x2="350" y2="300"/>
</g>
<g>
	<line fill="none" stroke="#000000" stroke-miterlimit="10" x1="400" y1="300" x2="400" y2="350"/>
	<line fill="none" stroke="#000000" stroke-miterlimit="10" x1="400" y1="350" x2="450" y2="350"/>
	<line fill="none" stroke="#000000" stroke-miterlimit="10" x1="450" y1="350" x2="450" y2="300"/>
	<line fill="none" stroke="#000000" stroke-miterlimit="10" x1="450" y1="300" x2="400" y2="300"/>
</g>
<g>
	<line fill="none" stroke="#000000" stroke-miterlimit="10" x1="50" y1="350" x2="50" y2="400"/>
	<line fill="none" stroke="#000000" stroke-miterlimit="10" x1="50" y1="400" x2="100" y2="400"/>
	<line fill="none" stroke="#000000" stroke-miterlimit="10" x1="100" y1="400" x2="100" y2="350"/>
	<line fill="none" stroke="#000000" stroke-miterlimit="10" x1="100" y1="350" x2="50" y2="350"/>
</g>
<g>
	<line fill="none" stroke="#000000" stroke-miterlimit="10" x1="100" y1="350" x2="100" y2="400"/>
	<line fill="none" stroke="#000000" stroke-miterlimit="10" x1="100" y1="400" x2="150" y2="400"/>
	<line fill="none" stroke="#000000" stroke-miterlimit="10" x1="150" y1="400" x2="150" y2="350"/>
	<line fill="none" stroke="#000000" stroke-miterlimit="10" x1="150" y1="350" x2="100" y2="350"/>
</g>
<g>
	<line fill="none" stroke="#000000" stroke-miterlimit="10" x1="150" y1="350" x2="150" y2="400"/>
	<line fill="none" stroke="#000000" stroke-miterlimit="10" x1="150" y1="400" x2="200" y2="400"/>
	<line fill="none" stroke="#000000" stroke-miterlimit="10" x1="200" y1="400" x2="200" y2="350"/>
	<line fill="none" stroke="#000000" stroke-miterlimit="10" x1="200" y1="350" x2="150" y2="350"/>
</g>
<g>
	<line fill="none" stroke="#000000" stroke-miterlimit="10" x1="200" y1="350" x2="200" y2="400"/>
	<line fill="none" stroke="#000000" stroke-miterlimit="10" x1="200" y1="400" x2="250" y2="400"/>
	<line fill="none" stroke="#000000" stroke-miterlimit="10" x1="250" y1="400" x2="250" y2="350"/>
	<line fill="none" stroke="#000000" stroke-miterlimit="10" x1="250" y1="350" x2="200" y2="350"/>
</g>
<g>
	<line fill="none" stroke="#000000" stroke-miterlimit="10" x1="250" y1="350" x2="250" y2="400"/>
	<line fill="none" stroke="#000000" stroke-miterlimit="10" x1="250" y1="400" x2="300" y2="400"/>
	<line fill="none" stroke="#000000" stroke-miterlimit="10" x1="300" y1="400" x2="300" y2="350"/>
	<line fill="none" stroke="#000000" stroke-miterlimit="10" x1="300" y1="350" x2="250" y2="350"/>
</g>
<g>
	<line fill="none" stroke="#000000" stroke-miterlimit="10" x1="300" y1="350" x2="300" y2="400"/>
	<line fill="none" stroke="#000000" stroke-miterlimit="10" x1="300" y1="400" x2="350" y2="400"/>
	<line fill="none" stroke="#000000" stroke-miterlimit="10" x1="350" y1="400" x2="350" y2="350"/>
	<line fill="none" stroke="#000000" stroke-miterlimit="10" x1="350" y1="350" x2="300" y2="350"/>
</g>
<g>
	<line fill="none" stroke="#000000" stroke-miterlimit="10" x1="350" y1="350" x2="350" y2="400"/>
	<line fill="none" stroke="#000000" stroke-miterlimit="10" x1="350" y1="400" x2="400" y2="400"/>
	<line fill="none" stroke="#000000" stroke-miterlimit="10" x1="400" y1="400" x2="400" y2="350"/>
	<line fill="none" stroke="#000000" stroke-miterlimit="10" x1="400" y1="350" x2="350" y2="350"/>
</g>
<g>
	<line fill="none" stroke="#000000" stroke-miterlimit="10" x1="400" y1="350" x2="400" y2="400"/>
	<line fill="none" stroke="#000000" stroke-miterlimit="10" x1="400" y1="400" x2="450" y2="400"/>
	<line fill="none" stroke="#000000" stroke-miterlimit="10" x1="450" y1="400" x2="450" y2="350"/>
	<line fill="none" stroke="#000000" stroke-miterlimit="10" x1="450" y1="350" x2="400" y2="350"/>
</g>
<g>
	<line fill="none" stroke="#000000" stroke-miterlimit="10" x1="50" y1="400" x2="50" y2="450"/>
	<line fill="none" stroke="#000000" stroke-miterlimit="10" x1="50" y1="450" x2="100" y2="450"/>
	<line fill="none" stroke="#000000" stroke-miterlimit="10" x1="100" y1="450" x2="100" y2="400"/>
	<line fill="none" stroke="#000000" stroke-miterlimit="10" x1="100" y1="400" x2="50" y2="400"/>
</g>
<g>
	<line fill="none" stroke="#000000" stroke-miterlimit="10" x1="100" y1="400" x2="100" y2="450"/>
	<line fill="none" stroke="#000000" stroke-miterlimit="10" x1="100" y1="450" x2="150" y2="450"/>
	<line fill="none" stroke="#000000" stroke-miterlimit="10" x1="150" y1="450" x2="150" y2="400"/>
	<line fill="none" stroke="#000000" stroke-miterlimit="10" x1="150" y1="400" x2="100" y2="400"/>
</g>
<g>
	<line fill="none" stroke="#000000" stroke-miterlimit="10" x1="150" y1="400" x2="150" y2="450"/>
	<line fill="none" stroke="#000000" stroke-miterlimit="10" x1="150" y1="450" x2="200" y2="450"/>
	<line fill="none" stroke="#000000" stroke-miterlimit="10" x1="200" y1="450" x2="200" y2="400"/>
	<line fill="none" stroke="#000000" stroke-miterlimit="10" x1="200" y1="400" x2="150" y2="400"/>
</g>
<g>
	<line fill="none" stroke="#000000" stroke-miterlimit="10" x1="200" y1="400" x2="200" y2="450"/>
	<line fill="none" stroke="#000000" stroke-miterlimit="10" x1="200" y1="450" x2="250" y2="450"/>
	<line fill="none" stroke="#000000" stroke-miterlimit="10" x1="250" y1="450" x2="250" y2="400"/>
	<line fill="none" stroke="#000000" stroke-miterlimit="10" x1="250" y1="400" x2="200" y2="400"/>
</g>
<g>
	<line fill="none" stroke="#000000" stroke-miterlimit="10" x1="250" y1="400" x2="250" y2="450"/>
	<line fill="none" stroke="#000000" stroke-miterlimit="10" x1="250" y1="450" x2="300" y2="450"/>
	<line fill="none" stroke="#000000" stroke-miterlimit="10" x1="300" y1="450" x2="300" y2="400"/>
	<line fill="none" stroke="#000000" stroke-miterlimit="10" x1="300" y1="400" x2="250" y2="400"/>
</g>
<g>
	<line fill="none" stroke="#000000" stroke-miterlimit="10" x1="300" y1="400" x2="300" y2="450"/>
	<line fill="none" stroke="#000000" stroke-miterlimit="10" x1="300" y1="450" x2="350" y2="450"/>
	<line fill="none" stroke="#000000" stroke-miterlimit="10" x1="350" y1="450" x2="350" y2="400"/>
	<line fill="none" stroke="#000000" stroke-miterlimit="10" x1="350" y1="400" x2="300" y2="400"/>
</g>
<g>
	<line fill="none" stroke="#000000" stroke-miterlimit="10" x1="350" y1="400" x2="350" y2="450"/>
	<line fill="none" stroke="#000000" stroke-miterlimit="10" x1="350" y1="450" x2="400" y2="450"/>
	<line fill="none" stroke="#000000" stroke-miterlimit="10" x1="400" y1="450" x2="400" y2="400"/>
	<line fill="none" stroke="#000000" stroke-miterlimit="10" x1="400" y1="400" x2="350" y2="400"/>
</g>
<g>
	<line fill="none" stroke="#000000" stroke-miterlimit="10" x1="400" y1="400" x2="400" y2="450"/>
	<line fill="none" stroke="#000000" stroke-miterlimit="10" x1="400" y1="450" x2="450" y2="450"/>
	<line fill="none" stroke="#000000" stroke-miterlimit="10" x1="450" y1="450" x2="450" y2="400"/>
	<line fill="none" stroke="#000000" stroke-miterlimit="10" x1="450" y1="400" x2="400" y2="400"/>
</g>
</svg>
