<?xml version="1.0" encoding="utf-8"?>
<!-- Generator: Adobe Illustrator 18.1.1, SVG Export Plug-In . SVG Version: 6.00 Build 0)  -->
<!DOCTYPE svg PUBLIC "-//W3C//DTD SVG 1.1//EN" "http://www.w3.org/Graphics/SVG/1.1/DTD/svg11.dtd">
<svg version="1.1" id="Layer_1" xmlns="http://www.w3.org/2000/svg" xmlns:xlink="http://www.w3.org/1999/xlink" x="0px" y="0px"
	 width="1734px" height="1566px" viewBox="561 -387 1734 1566" enable-background="new 561 -387 1734 1566" xml:space="preserve">
<g id="_x30_-PF-CELLULAR::0-PF-CELL">
	
		<rect x="1590.6" y="-20.6" fill="none" stroke="#FF00FF" stroke-linecap="round" stroke-linejoin="round" width="139.2" height="72"/>
	
		<rect x="1590.6" y="412" fill="none" stroke="#FF00FF" stroke-linecap="round" stroke-linejoin="round" width="139.2" height="72"/>
	
		<rect x="1590.6" y="484" fill="none" stroke="#FF00FF" stroke-linecap="round" stroke-linejoin="round" width="139.2" height="75"/>
	
		<rect x="1590.6" y="559" fill="none" stroke="#FF00FF" stroke-linecap="round" stroke-linejoin="round" width="139.2" height="116.4"/>
	
		<rect x="1590.6" y="675.4" fill="none" stroke="#FF00FF" stroke-linecap="round" stroke-linejoin="round" width="139.2" height="72"/>
	
		<rect x="1590.6" y="747.4" fill="none" stroke="#FF00FF" stroke-linecap="round" stroke-linejoin="round" width="139.2" height="75"/>
	
		<rect x="1590.6" y="51.4" fill="none" stroke="#FF00FF" stroke-linecap="round" stroke-linejoin="round" width="139.2" height="79.8"/>
	
		<rect x="1590.6" y="131.2" fill="none" stroke="#FF00FF" stroke-linecap="round" stroke-linejoin="round" width="139.2" height="118.5"/>
	
		<rect x="1025.4" y="412" fill="none" stroke="#FF00FF" stroke-linecap="round" stroke-linejoin="round" width="143.4" height="72"/>
	
		<rect x="1025.4" y="484" fill="none" stroke="#FF00FF" stroke-linecap="round" stroke-linejoin="round" width="143.4" height="75"/>
	
		<rect x="1025.4" y="-21.2" fill="none" stroke="#FF00FF" stroke-linecap="round" stroke-linejoin="round" width="143.4" height="72.6"/>
	
		<rect x="1025.4" y="51.4" fill="none" stroke="#FF00FF" stroke-linecap="round" stroke-linejoin="round" width="143.4" height="82.2"/>
	
		<rect x="1025.4" y="133.6" fill="none" stroke="#FF00FF" stroke-linecap="round" stroke-linejoin="round" width="143.4" height="115.8"/>
	
		<rect x="1025.4" y="559" fill="none" stroke="#FF00FF" stroke-linecap="round" stroke-linejoin="round" width="143.4" height="117"/>
	
		<rect x="1025.4" y="676" fill="none" stroke="#FF00FF" stroke-linecap="round" stroke-linejoin="round" width="143.4" height="72"/>
	
		<rect x="1025.4" y="748" fill="none" stroke="#FF00FF" stroke-linecap="round" stroke-linejoin="round" width="143.4" height="74.4"/>
	
		<rect x="1765.8" y="-20.6" fill="none" stroke="#FF00FF" stroke-linecap="round" stroke-linejoin="round" width="161.4" height="72"/>
	
		<rect x="1765.8" y="51.4" fill="none" stroke="#FF00FF" stroke-linecap="round" stroke-linejoin="round" width="161.4" height="79.8"/>
	
		<rect x="1765.8" y="131.2" fill="none" stroke="#FF00FF" stroke-linecap="round" stroke-linejoin="round" width="161.4" height="118.2"/>
	
		<rect x="1590.6" y="330.8" fill="none" stroke="#FF00FF" stroke-linecap="round" stroke-linejoin="round" width="139.2" height="81.2"/>
	
		<rect x="1590.6" y="249.7" fill="none" stroke="#FF00FF" stroke-linecap="round" stroke-linejoin="round" width="139.2" height="81.2"/>
	
		<rect x="1025.4" y="330.7" fill="none" stroke="#FF00FF" stroke-linecap="round" stroke-linejoin="round" width="143.4" height="81.3"/>
	
		<rect x="1025.4" y="249.4" fill="none" stroke="#FF00FF" stroke-linecap="round" stroke-linejoin="round" width="143.4" height="81.3"/>
	
		<rect x="1765.8" y="249.4" fill="none" stroke="#FF00FF" stroke-linecap="round" stroke-linejoin="round" width="161.4" height="81.2"/>
	
		<rect x="1765.8" y="747.1" fill="none" stroke="#FF00FF" stroke-linecap="round" stroke-linejoin="round" width="161.4" height="75.3"/>
	
		<rect x="1817.5" y="822.4" fill="none" stroke="#FF00FF" stroke-linecap="round" stroke-linejoin="round" width="109.7" height="77.1"/>
	
		<rect x="1817.5" y="899.5" fill="none" stroke="#FF00FF" stroke-linecap="round" stroke-linejoin="round" width="109.7" height="77.1"/>
	<rect x="828" y="-20.6" fill="none" stroke="#FF00FF" stroke-linecap="round" stroke-linejoin="round" width="161.4" height="72"/>
	
		<rect x="828" y="51.4" fill="none" stroke="#FF00FF" stroke-linecap="round" stroke-linejoin="round" width="161.4" height="79.8"/>
	
		<rect x="828" y="131.2" fill="none" stroke="#FF00FF" stroke-linecap="round" stroke-linejoin="round" width="161.4" height="118.2"/>
	<rect x="828" y="411.7" fill="none" stroke="#FF00FF" stroke-linecap="round" stroke-linejoin="round" width="161.4" height="72"/>
	<rect x="828" y="483.7" fill="none" stroke="#FF00FF" stroke-linecap="round" stroke-linejoin="round" width="161.4" height="75"/>
	
		<rect x="828" y="558.7" fill="none" stroke="#FF00FF" stroke-linecap="round" stroke-linejoin="round" width="161.4" height="116.4"/>
	<rect x="828" y="675.1" fill="none" stroke="#FF00FF" stroke-linecap="round" stroke-linejoin="round" width="161.4" height="72"/>
	
		<rect x="828" y="330.5" fill="none" stroke="#FF00FF" stroke-linecap="round" stroke-linejoin="round" width="161.4" height="81.2"/>
	
		<rect x="828" y="249.4" fill="none" stroke="#FF00FF" stroke-linecap="round" stroke-linejoin="round" width="161.4" height="81.2"/>
	
		<rect x="828" y="747.1" fill="none" stroke="#FF00FF" stroke-linecap="round" stroke-linejoin="round" width="161.4" height="75.3"/>
	
		<rect x="828" y="822.4" fill="none" stroke="#FF00FF" stroke-linecap="round" stroke-linejoin="round" width="109.7" height="77.1"/>
	
		<rect x="828" y="899.5" fill="none" stroke="#FF00FF" stroke-linecap="round" stroke-linejoin="round" width="109.7" height="77.1"/>
	
		<rect x="828" y="-181.4" fill="none" stroke="#FF00FF" stroke-linecap="round" stroke-linejoin="round" width="161.4" height="80.4"/>
	
		<rect x="1025.4" y="-101.6" fill="none" stroke="#FF00FF" stroke-linecap="round" stroke-linejoin="round" width="143.4" height="80.4"/>
	
		<rect x="1025.4" y="-181.4" fill="none" stroke="#FF00FF" stroke-linecap="round" stroke-linejoin="round" width="143.4" height="79.8"/>
	
		<rect x="1765.8" y="675.4" fill="none" stroke="#FF00FF" stroke-linecap="round" stroke-linejoin="round" width="161.4" height="71.7"/>
	
		<rect x="1765.8" y="559" fill="none" stroke="#FF00FF" stroke-linecap="round" stroke-linejoin="round" width="161.4" height="116.4"/>
	
		<rect x="1765.8" y="483.7" fill="none" stroke="#FF00FF" stroke-linecap="round" stroke-linejoin="round" width="161.4" height="75.3"/>
	
		<rect x="1765.8" y="412" fill="none" stroke="#FF00FF" stroke-linecap="round" stroke-linejoin="round" width="161.4" height="71.7"/>
	
		<rect x="1765.8" y="330.6" fill="none" stroke="#FF00FF" stroke-linecap="round" stroke-linejoin="round" width="161.4" height="81.5"/>
	<polygon fill="none" stroke="#FF00FF" stroke-linecap="round" stroke-linejoin="round" points="1963.2,-57.2 1963.2,-88.4 
		2065.8,-88.4 2065.8,-150.8 2058.2,-150.8 2058.2,-167 1927.2,-167 1927.2,-57.2 	"/>
	<polygon fill="none" stroke="#FF00FF" stroke-linecap="round" stroke-linejoin="round" points="693.1,-251.6 792,-251.6 792,-239 
		828,-239 828,-343.4 693.1,-343.4 	"/>
	
		<rect x="828" y="-343.4" fill="none" stroke="#FF00FF" stroke-linecap="round" stroke-linejoin="round" width="72.9" height="104.4"/>
	
		<rect x="900.9" y="-343.4" fill="none" stroke="#FF00FF" stroke-linecap="round" stroke-linejoin="round" width="72.9" height="104.4"/>
	
		<rect x="973.8" y="-343.4" fill="none" stroke="#FF00FF" stroke-linecap="round" stroke-linejoin="round" width="72.9" height="104.4"/>
	
		<rect x="1046.7" y="-343.4" fill="none" stroke="#FF00FF" stroke-linecap="round" stroke-linejoin="round" width="72.3" height="104.4"/>
	
		<rect x="1854.3" y="-167" fill="none" stroke="#FF00FF" stroke-linecap="round" stroke-linejoin="round" width="72.9" height="109.8"/>
	
		<rect x="1781.4" y="-167" fill="none" stroke="#FF00FF" stroke-linecap="round" stroke-linejoin="round" width="72.9" height="109.8"/>
	
		<rect x="1708.5" y="-167" fill="none" stroke="#FF00FF" stroke-linecap="round" stroke-linejoin="round" width="72.9" height="109.8"/>
	
		<rect x="1636.2" y="-167" fill="none" stroke="#FF00FF" stroke-linecap="round" stroke-linejoin="round" width="72.3" height="109.8"/>
	<polygon fill="none" stroke="#FF00FF" stroke-linecap="round" stroke-linejoin="round" points="1636.2,-167 1585.2,-167 
		1585.2,-130.7 1553.4,-130.7 1553.4,-57.2 1636.2,-57.2 	"/>
	<polygon fill="none" stroke="#FF00FF" stroke-linecap="round" stroke-linejoin="round" points="1470.6,-161.9 1521.6,-161.9 
		1521.6,-130.7 1553.4,-130.7 1553.4,-57.2 1470.6,-57.2 	"/>
	
		<rect x="1398.6" y="-161.9" fill="none" stroke="#FF00FF" stroke-linecap="round" stroke-linejoin="round" width="72" height="104.7"/>
	
		<rect x="1326.6" y="-161.9" fill="none" stroke="#FF00FF" stroke-linecap="round" stroke-linejoin="round" width="72" height="104.7"/>
	
		<rect x="1234.2" y="-165.8" fill="none" stroke="#FF00FF" stroke-linecap="round" stroke-linejoin="round" width="92.4" height="108.6"/>
	<polygon fill="none" stroke="#FF00FF" stroke-linecap="round" stroke-linejoin="round" points="1234.2,-239 1205.4,-239 
		1205.4,-343.4 1351.2,-343.4 1351.2,-321.8 1372.5,-321.8 1372.5,-258 1234.2,-258 	"/>
	<polygon fill="none" stroke="#FF00FF" stroke-linecap="round" stroke-linejoin="round" points="1234.2,-165.8 1326.6,-165.8 
		1326.6,-161.9 1356.6,-161.9 1356.6,-186.5 1371,-186.5 1371,-258 1234.2,-258 	"/>
	
		<rect x="1119" y="-343.4" fill="none" stroke="#FF00FF" stroke-linecap="round" stroke-linejoin="round" width="86.4" height="104.4"/>
	<polygon fill="none" stroke="#FF00FF" stroke-linecap="round" stroke-linejoin="round" points="693.1,1023.4 792,1023.4 
		792,1012.5 824.5,1012.5 824.5,1102.6 693.1,1102.6 	"/>
	
		<rect x="973.8" y="858.4" fill="none" stroke="#FF00FF" stroke-linecap="round" stroke-linejoin="round" width="102" height="121.2"/>
	
		<rect x="1247.9" y="858.4" fill="none" stroke="#FF00FF" stroke-linecap="round" stroke-linejoin="round" width="95.8" height="79.8"/>
	
		<rect x="1175.9" y="858.4" fill="none" stroke="#FF00FF" stroke-linecap="round" stroke-linejoin="round" width="72" height="79.8"/>
	
		<rect x="1075.8" y="858.4" fill="none" stroke="#FF00FF" stroke-linecap="round" stroke-linejoin="round" width="100.1" height="79.8"/>
	
		<rect x="1343.7" y="858.4" fill="none" stroke="#FF00FF" stroke-linecap="round" stroke-linejoin="round" width="102.3" height="79.8"/>
	
		<rect x="1446" y="858.4" fill="none" stroke="#FF00FF" stroke-linecap="round" stroke-linejoin="round" width="100.2" height="79.8"/>
	
		<rect x="1679.4" y="858.4" fill="none" stroke="#FF00FF" stroke-linecap="round" stroke-linejoin="round" width="102" height="121.2"/>
	<polygon fill="none" stroke="#FF00FF" stroke-linecap="round" stroke-linejoin="round" points="2063.6,1023.4 1963.2,1023.4 
		1963.2,1012.5 1930.7,1012.5 1930.7,1102.6 2063.6,1102.6 	"/>
	
		<rect x="1546.2" y="858.4" fill="none" stroke="#FF00FF" stroke-linecap="round" stroke-linejoin="round" width="133.2" height="79.8"/>
	
		<rect x="1781.4" y="1012.5" fill="none" stroke="#FF00FF" stroke-linecap="round" stroke-linejoin="round" width="74.7" height="90.1"/>
	
		<rect x="1856.1" y="1012.5" fill="none" stroke="#FF00FF" stroke-linecap="round" stroke-linejoin="round" width="74.7" height="90.1"/>
	
		<rect x="824.5" y="1012.5" fill="none" stroke="#FF00FF" stroke-linecap="round" stroke-linejoin="round" width="74.7" height="90.1"/>
	
		<rect x="899.1" y="1012.5" fill="none" stroke="#FF00FF" stroke-linecap="round" stroke-linejoin="round" width="74.7" height="90.1"/>
	<polygon fill="none" stroke="#FF00FF" stroke-linecap="round" stroke-linejoin="round" points="1067.9,1108.6 973.8,1108.6 
		973.8,979.6 1075.8,979.6 1075.8,1098.9 1067.9,1098.9 	"/>
	
		<rect x="828" y="-101" fill="none" stroke="#FF00FF" stroke-linecap="round" stroke-linejoin="round" width="161.4" height="80.4"/>
	
		<rect x="689.4" y="-20.6" fill="none" stroke="#FF00FF" stroke-linecap="round" stroke-linejoin="round" width="102.6" height="72"/>
	
		<rect x="1963.2" y="-88.4" fill="none" stroke="#FF00FF" stroke-linecap="round" stroke-linejoin="round" width="102.6" height="67.8"/>
	
		<rect x="1963.2" y="899.5" fill="none" stroke="#FF00FF" stroke-linecap="round" stroke-linejoin="round" width="102.6" height="123.9"/>
	
		<rect x="1963.2" y="822.4" fill="none" stroke="#FF00FF" stroke-linecap="round" stroke-linejoin="round" width="102.6" height="77.1"/>
	
		<rect x="1963.2" y="-20.6" fill="none" stroke="#FF00FF" stroke-linecap="round" stroke-linejoin="round" width="102.6" height="72"/>
	
		<rect x="1963.2" y="51.4" fill="none" stroke="#FF00FF" stroke-linecap="round" stroke-linejoin="round" width="102.6" height="79.8"/>
	
		<rect x="1963.2" y="131.2" fill="none" stroke="#FF00FF" stroke-linecap="round" stroke-linejoin="round" width="102.6" height="118.2"/>
	
		<rect x="1963.2" y="249.4" fill="none" stroke="#FF00FF" stroke-linecap="round" stroke-linejoin="round" width="102.6" height="81.2"/>
	
		<rect x="1963.2" y="747.1" fill="none" stroke="#FF00FF" stroke-linecap="round" stroke-linejoin="round" width="102.6" height="75.3"/>
	
		<rect x="1963.2" y="675.4" fill="none" stroke="#FF00FF" stroke-linecap="round" stroke-linejoin="round" width="102.6" height="71.7"/>
	
		<rect x="1963.2" y="559" fill="none" stroke="#FF00FF" stroke-linecap="round" stroke-linejoin="round" width="102.6" height="116.4"/>
	
		<rect x="1963.2" y="483.7" fill="none" stroke="#FF00FF" stroke-linecap="round" stroke-linejoin="round" width="102.6" height="75.3"/>
	
		<rect x="1963.2" y="412" fill="none" stroke="#FF00FF" stroke-linecap="round" stroke-linejoin="round" width="102.6" height="71.7"/>
	
		<rect x="1963.2" y="330.6" fill="none" stroke="#FF00FF" stroke-linecap="round" stroke-linejoin="round" width="102.6" height="81.5"/>
	
		<rect x="689.4" y="-251.6" fill="none" stroke="#FF00FF" stroke-linecap="round" stroke-linejoin="round" width="102.6" height="70.2"/>
	
		<rect x="689.4" y="899.5" fill="none" stroke="#FF00FF" stroke-linecap="round" stroke-linejoin="round" width="102.6" height="123.9"/>
	
		<rect x="689.4" y="822.4" fill="none" stroke="#FF00FF" stroke-linecap="round" stroke-linejoin="round" width="102.6" height="77.1"/>
	
		<rect x="689.4" y="51.4" fill="none" stroke="#FF00FF" stroke-linecap="round" stroke-linejoin="round" width="102.6" height="79.8"/>
	
		<rect x="689.4" y="131.2" fill="none" stroke="#FF00FF" stroke-linecap="round" stroke-linejoin="round" width="102.6" height="118.2"/>
	
		<rect x="689.4" y="411.7" fill="none" stroke="#FF00FF" stroke-linecap="round" stroke-linejoin="round" width="102.6" height="72"/>
	
		<rect x="689.4" y="483.7" fill="none" stroke="#FF00FF" stroke-linecap="round" stroke-linejoin="round" width="102.6" height="75"/>
	
		<rect x="689.4" y="558.7" fill="none" stroke="#FF00FF" stroke-linecap="round" stroke-linejoin="round" width="102.6" height="116.4"/>
	
		<rect x="689.4" y="675.1" fill="none" stroke="#FF00FF" stroke-linecap="round" stroke-linejoin="round" width="102.6" height="72"/>
	
		<rect x="689.4" y="330.5" fill="none" stroke="#FF00FF" stroke-linecap="round" stroke-linejoin="round" width="102.6" height="81.2"/>
	
		<rect x="689.4" y="249.4" fill="none" stroke="#FF00FF" stroke-linecap="round" stroke-linejoin="round" width="102.6" height="81.2"/>
	
		<rect x="689.4" y="747.1" fill="none" stroke="#FF00FF" stroke-linecap="round" stroke-linejoin="round" width="102.6" height="75.3"/>
	
		<rect x="689.4" y="-181.4" fill="none" stroke="#FF00FF" stroke-linecap="round" stroke-linejoin="round" width="102.6" height="80.4"/>
	
		<rect x="689.4" y="-101" fill="none" stroke="#FF00FF" stroke-linecap="round" stroke-linejoin="round" width="102.6" height="80.4"/>
	<polygon fill="none" stroke="#FF00FF" stroke-linecap="round" stroke-linejoin="round" points="1687.3,1108.6 1781.4,1108.6 
		1781.4,979.6 1679.4,979.6 1679.4,1098.9 1687.3,1098.9 	"/>
</g>
</svg>
