<?xml version="1.0" encoding="utf-8"?>
<!-- Generator: Adobe Illustrator 18.1.1, SVG Export Plug-In . SVG Version: 6.00 Build 0)  -->
<!DOCTYPE svg PUBLIC "-//W3C//DTD SVG 1.1//EN" "http://www.w3.org/Graphics/SVG/1.1/DTD/svg11.dtd">
<svg version="1.1" id="_x30_-PF-CELLULAR_x24_0-PF-CELL"
	 xmlns="http://www.w3.org/2000/svg" xmlns:xlink="http://www.w3.org/1999/xlink" x="0px" y="0px" width="612px" height="792px"
	 viewBox="0 0 612 792" enable-background="new 0 0 612 792" xml:space="preserve">
<g id="POLYLINE_78_">
	<polyline fill="none" stroke="#000000" stroke-linecap="round" stroke-linejoin="round" stroke-miterlimit="10" points="
		-649.83,-171.5 -507.33,-171.5 -507.33,-283.21 -649.83,-283.21 -649.83,-171.5 	"/>
</g>
<g id="POLYLINE_79_">
	<polyline fill="none" stroke="#000000" stroke-linecap="round" stroke-linejoin="round" stroke-miterlimit="10" points="
		-507.33,-71.5 -649.83,-71.5 -649.83,-171.5 -507.33,-171.5 -507.33,-71.5 	"/>
</g>
<g id="POLYLINE_88_">
	<polyline fill="none" stroke="#000000" stroke-linecap="round" stroke-linejoin="round" stroke-miterlimit="10" points="
		-457.33,-171.5 -233.17,-171.5 -233.17,-283.21 -457.33,-283.21 -457.33,-171.5 	"/>
</g>
<g id="POLYLINE_1375_">
	<polyline fill="none" stroke="#000000" stroke-linecap="round" stroke-linejoin="round" stroke-miterlimit="10" points="
		-124.1,1396.83 -254.83,1396.83 -254.83,1217.67 -113.17,1217.67 -113.17,1383.4 -124.1,1383.4 -124.1,1396.83 	"/>
</g>
<g id="POLYLINE_1376_">
	<polyline fill="none" stroke="#000000" stroke-linecap="round" stroke-linejoin="round" stroke-miterlimit="10" points="
		-254.83,1388.5 -358.53,1388.5 -358.53,1263.4 -254.83,1263.4 -254.83,1388.5 	"/>
</g>
<g id="POLYLINE_1377_">
	<polyline fill="none" stroke="#000000" stroke-linecap="round" stroke-linejoin="round" stroke-miterlimit="10" points="
		-358.53,1388.5 -462.23,1388.5 -462.23,1263.4 -358.53,1263.4 -358.53,1388.5 	"/>
</g>
<g id="POLYLINE_1378_">
	<polyline fill="none" stroke="#000000" stroke-linecap="round" stroke-linejoin="round" stroke-miterlimit="10" points="
		970.53,1388.5 1074.23,1388.5 1074.23,1263.4 970.53,1263.4 970.53,1388.5 	"/>
</g>
<g id="POLYLINE_1379_">
	<polyline fill="none" stroke="#000000" stroke-linecap="round" stroke-linejoin="round" stroke-miterlimit="10" points="
		866.83,1388.5 970.53,1388.5 970.53,1263.4 866.83,1263.4 866.83,1388.5 	"/>
</g>
<g id="POLYLINE_1380_">
	<polyline fill="none" stroke="#000000" stroke-linecap="round" stroke-linejoin="round" stroke-miterlimit="10" points="
		736.1,1396.83 866.83,1396.83 866.83,1217.67 725.17,1217.67 725.17,1383.4 736.1,1383.4 736.1,1396.83 	"/>
</g>
<g id="POLYLINE_2115_">
	<polyline fill="none" stroke="#000000" stroke-linecap="round" stroke-linejoin="round" stroke-miterlimit="10" points="
		1119.33,-171.5 1261.83,-171.5 1261.83,-265.67 1119.33,-265.67 1119.33,-171.5 	"/>
</g>
<g id="POLYLINE_2116_">
	<polyline fill="none" stroke="#000000" stroke-linecap="round" stroke-linejoin="round" stroke-miterlimit="10" points="
		1119.33,1278.5 1261.83,1278.5 1261.83,1106.36 1119.33,1106.36 1119.33,1278.5 	"/>
</g>
<g id="POLYLINE_2117_">
	<polyline fill="none" stroke="#000000" stroke-linecap="round" stroke-linejoin="round" stroke-miterlimit="10" points="
		1119.33,1106.36 1261.83,1106.36 1261.83,999.33 1119.33,999.33 1119.33,1106.36 	"/>
</g>
<g id="POLYLINE_2118_">
	<polyline fill="none" stroke="#000000" stroke-linecap="round" stroke-linejoin="round" stroke-miterlimit="10" points="
		1119.33,-71.5 1261.83,-71.5 1261.83,-171.5 1119.33,-171.5 1119.33,-71.5 	"/>
</g>
<g id="POLYLINE_2119_">
	<polyline fill="none" stroke="#000000" stroke-linecap="round" stroke-linejoin="round" stroke-miterlimit="10" points="
		1119.33,39.33 1261.83,39.33 1261.83,-71.5 1119.33,-71.5 1119.33,39.33 	"/>
</g>
<g id="POLYLINE_2120_">
	<polyline fill="none" stroke="#000000" stroke-linecap="round" stroke-linejoin="round" stroke-miterlimit="10" points="
		1119.33,203.5 1261.83,203.5 1261.83,39.33 1119.33,39.33 1119.33,203.5 	"/>
</g>
<g id="POLYLINE_2121_">
	<polyline fill="none" stroke="#000000" stroke-linecap="round" stroke-linejoin="round" stroke-miterlimit="10" points="
		1119.33,316.21 1261.83,316.21 1261.83,203.5 1119.33,203.5 1119.33,316.21 	"/>
</g>
<g id="POLYLINE_2122_">
	<polyline fill="none" stroke="#000000" stroke-linecap="round" stroke-linejoin="round" stroke-miterlimit="10" points="
		1119.33,999.33 1261.83,999.33 1261.83,894.75 1119.33,894.75 1119.33,999.33 	"/>
</g>
<g id="POLYLINE_2123_">
	<polyline fill="none" stroke="#000000" stroke-linecap="round" stroke-linejoin="round" stroke-miterlimit="10" points="
		1119.33,894.75 1261.83,894.75 1261.83,795.17 1119.33,795.17 1119.33,894.75 	"/>
</g>
<g id="POLYLINE_2124_">
	<polyline fill="none" stroke="#000000" stroke-linecap="round" stroke-linejoin="round" stroke-miterlimit="10" points="
		1119.33,795.17 1261.83,795.17 1261.83,633.5 1119.33,633.5 1119.33,795.17 	"/>
</g>
<g id="POLYLINE_2125_">
	<polyline fill="none" stroke="#000000" stroke-linecap="round" stroke-linejoin="round" stroke-miterlimit="10" points="
		1119.33,633.5 1261.83,633.5 1261.83,528.92 1119.33,528.92 1119.33,633.5 	"/>
</g>
<g id="POLYLINE_2126_">
	<polyline fill="none" stroke="#000000" stroke-linecap="round" stroke-linejoin="round" stroke-miterlimit="10" points="
		1119.33,528.92 1261.83,528.92 1261.83,429.33 1119.33,429.33 1119.33,528.92 	"/>
</g>
<g id="POLYLINE_2127_">
	<polyline fill="none" stroke="#000000" stroke-linecap="round" stroke-linejoin="round" stroke-miterlimit="10" points="
		1119.33,429.33 1261.83,429.33 1261.83,316.21 1119.33,316.21 1119.33,429.33 	"/>
</g>
<g id="POLYLINE_2128_">
	<polyline fill="none" stroke="#000000" stroke-linecap="round" stroke-linejoin="round" stroke-miterlimit="10" points="
		-649.83,-394.83 -507.33,-394.83 -507.33,-492.34 -649.83,-492.34 -649.83,-394.83 	"/>
</g>
<g id="POLYLINE_2129_">
	<polyline fill="none" stroke="#000000" stroke-linecap="round" stroke-linejoin="round" stroke-miterlimit="10" points="
		-507.33,1278.5 -649.83,1278.5 -649.83,1106.36 -507.33,1106.36 -507.33,1278.5 	"/>
</g>
<g id="POLYLINE_2130_">
	<polyline fill="none" stroke="#000000" stroke-linecap="round" stroke-linejoin="round" stroke-miterlimit="10" points="
		-507.33,1106.36 -649.83,1106.36 -649.83,999.33 -507.33,999.33 -507.33,1106.36 	"/>
</g>
<g id="POLYLINE_2131_">
	<polyline fill="none" stroke="#000000" stroke-linecap="round" stroke-linejoin="round" stroke-miterlimit="10" points="
		-507.33,39.33 -649.83,39.33 -649.83,-71.5 -507.33,-71.5 -507.33,39.33 	"/>
</g>
<g id="POLYLINE_2132_">
	<polyline fill="none" stroke="#000000" stroke-linecap="round" stroke-linejoin="round" stroke-miterlimit="10" points="
		-507.33,203.5 -649.83,203.5 -649.83,39.33 -507.33,39.33 -507.33,203.5 	"/>
</g>
<g id="POLYLINE_2133_">
	<polyline fill="none" stroke="#000000" stroke-linecap="round" stroke-linejoin="round" stroke-miterlimit="10" points="
		-507.33,528.92 -649.83,528.92 -649.83,428.92 -507.33,428.92 -507.33,528.92 	"/>
</g>
<g id="POLYLINE_2134_">
	<polyline fill="none" stroke="#000000" stroke-linecap="round" stroke-linejoin="round" stroke-miterlimit="10" points="
		-507.33,633.08 -649.83,633.08 -649.83,528.92 -507.33,528.92 -507.33,633.08 	"/>
</g>
<g id="POLYLINE_2135_">
	<polyline fill="none" stroke="#000000" stroke-linecap="round" stroke-linejoin="round" stroke-miterlimit="10" points="
		-507.33,794.75 -649.83,794.75 -649.83,633.08 -507.33,633.08 -507.33,794.75 	"/>
</g>
<g id="POLYLINE_2136_">
	<polyline fill="none" stroke="#000000" stroke-linecap="round" stroke-linejoin="round" stroke-miterlimit="10" points="
		-507.33,894.75 -649.83,894.75 -649.83,794.75 -507.33,794.75 -507.33,894.75 	"/>
</g>
<g id="POLYLINE_2137_">
	<polyline fill="none" stroke="#000000" stroke-linecap="round" stroke-linejoin="round" stroke-miterlimit="10" points="
		-507.33,428.92 -649.83,428.92 -649.83,316.21 -507.33,316.21 -507.33,428.92 	"/>
</g>
<g id="POLYLINE_2138_">
	<polyline fill="none" stroke="#000000" stroke-linecap="round" stroke-linejoin="round" stroke-miterlimit="10" points="
		-507.33,316.21 -649.83,316.21 -649.83,203.5 -507.33,203.5 -507.33,316.21 	"/>
</g>
<g id="POLYLINE_2139_">
	<polyline fill="none" stroke="#000000" stroke-linecap="round" stroke-linejoin="round" stroke-miterlimit="10" points="
		-507.33,999.33 -649.83,999.33 -649.83,894.75 -507.33,894.75 -507.33,999.33 	"/>
</g>
<g id="POLYLINE_2140_">
	<polyline fill="none" stroke="#000000" stroke-linecap="round" stroke-linejoin="round" stroke-miterlimit="10" points="
		-649.83,-283.21 -507.33,-283.21 -507.33,-394.83 -649.83,-394.83 -649.83,-283.21 	"/>
</g>
<g id="POLYLINE_2141_">
	<polyline fill="none" stroke="#000000" stroke-linecap="round" stroke-linejoin="round" stroke-miterlimit="10" points="
		601.83,-71.5 795.17,-71.5 795.17,-171.5 601.83,-171.5 601.83,-71.5 	"/>
</g>
<g id="POLYLINE_2142_">
	<polyline fill="none" stroke="#000000" stroke-linecap="round" stroke-linejoin="round" stroke-miterlimit="10" points="
		601.83,529.33 795.17,529.33 795.17,429.33 601.83,429.33 601.83,529.33 	"/>
</g>
<g id="POLYLINE_2143_">
	<polyline fill="none" stroke="#000000" stroke-linecap="round" stroke-linejoin="round" stroke-miterlimit="10" points="
		601.83,633.5 795.17,633.5 795.17,529.33 601.83,529.33 601.83,633.5 	"/>
</g>
<g id="POLYLINE_2144_">
	<polyline fill="none" stroke="#000000" stroke-linecap="round" stroke-linejoin="round" stroke-miterlimit="10" points="
		601.83,795.17 795.17,795.17 795.17,633.5 601.83,633.5 601.83,795.17 	"/>
</g>
<g id="POLYLINE_2145_">
	<polyline fill="none" stroke="#000000" stroke-linecap="round" stroke-linejoin="round" stroke-miterlimit="10" points="
		601.83,895.17 795.17,895.17 795.17,795.17 601.83,795.17 601.83,895.17 	"/>
</g>
<g id="POLYLINE_2146_">
	<polyline fill="none" stroke="#000000" stroke-linecap="round" stroke-linejoin="round" stroke-miterlimit="10" points="
		601.83,999.33 795.17,999.33 795.17,895.17 601.83,895.17 601.83,999.33 	"/>
</g>
<g id="POLYLINE_2147_">
	<polyline fill="none" stroke="#000000" stroke-linecap="round" stroke-linejoin="round" stroke-miterlimit="10" points="
		601.83,39.33 795.17,39.33 795.17,-71.5 601.83,-71.5 601.83,39.33 	"/>
</g>
<g id="POLYLINE_2148_">
	<polyline fill="none" stroke="#000000" stroke-linecap="round" stroke-linejoin="round" stroke-miterlimit="10" points="
		601.83,203.92 795.17,203.92 795.17,39.33 601.83,39.33 601.83,203.92 	"/>
</g>
<g id="POLYLINE_2149_">
	<polyline fill="none" stroke="#000000" stroke-linecap="round" stroke-linejoin="round" stroke-miterlimit="10" points="
		-183.17,529.33 16,529.33 16,429.33 -183.17,429.33 -183.17,529.33 	"/>
</g>
<g id="POLYLINE_2150_">
	<polyline fill="none" stroke="#000000" stroke-linecap="round" stroke-linejoin="round" stroke-miterlimit="10" points="
		-183.17,633.5 16,633.5 16,529.33 -183.17,529.33 -183.17,633.5 	"/>
</g>
<g id="POLYLINE_2151_">
	<polyline fill="none" stroke="#000000" stroke-linecap="round" stroke-linejoin="round" stroke-miterlimit="10" points="
		-183.17,-71.5 16,-71.5 16,-172.33 -183.17,-172.33 -183.17,-71.5 	"/>
</g>
<g id="POLYLINE_2152_">
	<polyline fill="none" stroke="#000000" stroke-linecap="round" stroke-linejoin="round" stroke-miterlimit="10" points="
		-183.17,42.67 16,42.67 16,-71.5 -183.17,-71.5 -183.17,42.67 	"/>
</g>
<g id="POLYLINE_2153_">
	<polyline fill="none" stroke="#000000" stroke-linecap="round" stroke-linejoin="round" stroke-miterlimit="10" points="
		-183.17,203.5 16,203.5 16,42.67 -183.17,42.67 -183.17,203.5 	"/>
</g>
<g id="POLYLINE_2154_">
	<polyline fill="none" stroke="#000000" stroke-linecap="round" stroke-linejoin="round" stroke-miterlimit="10" points="
		-183.17,796 16,796 16,633.5 -183.17,633.5 -183.17,796 	"/>
</g>
<g id="POLYLINE_2155_">
	<polyline fill="none" stroke="#000000" stroke-linecap="round" stroke-linejoin="round" stroke-miterlimit="10" points="
		-183.17,896 16,896 16,796 -183.17,796 -183.17,896 	"/>
</g>
<g id="POLYLINE_2156_">
	<polyline fill="none" stroke="#000000" stroke-linecap="round" stroke-linejoin="round" stroke-miterlimit="10" points="
		-183.17,999.33 16,999.33 16,896 -183.17,896 -183.17,999.33 	"/>
</g>
<g id="POLYLINE_2157_">
	<polyline fill="none" stroke="#000000" stroke-linecap="round" stroke-linejoin="round" stroke-miterlimit="10" points="
		845.17,-71.5 1069.33,-71.5 1069.33,-171.5 845.17,-171.5 845.17,-71.5 	"/>
</g>
<g id="POLYLINE_2158_">
	<polyline fill="none" stroke="#000000" stroke-linecap="round" stroke-linejoin="round" stroke-miterlimit="10" points="
		845.17,39.33 1069.33,39.33 1069.33,-71.5 845.17,-71.5 845.17,39.33 	"/>
</g>
<g id="POLYLINE_2159_">
	<polyline fill="none" stroke="#000000" stroke-linecap="round" stroke-linejoin="round" stroke-miterlimit="10" points="
		845.17,203.5 1069.33,203.5 1069.33,39.33 845.17,39.33 845.17,203.5 	"/>
</g>
<g id="POLYLINE_2160_">
	<polyline fill="none" stroke="#000000" stroke-linecap="round" stroke-linejoin="round" stroke-miterlimit="10" points="
		601.83,429.33 795.17,429.33 795.17,316.63 601.83,316.63 601.83,429.33 	"/>
</g>
<g id="POLYLINE_2161_">
	<polyline fill="none" stroke="#000000" stroke-linecap="round" stroke-linejoin="round" stroke-miterlimit="10" points="
		601.83,316.63 795.17,316.63 795.17,203.92 601.83,203.92 601.83,316.63 	"/>
</g>
<g id="POLYLINE_2162_">
	<polyline fill="none" stroke="#000000" stroke-linecap="round" stroke-linejoin="round" stroke-miterlimit="10" points="
		-183.17,429.33 16,429.33 16,316.42 -183.17,316.42 -183.17,429.33 	"/>
</g>
<g id="POLYLINE_2163_">
	<polyline fill="none" stroke="#000000" stroke-linecap="round" stroke-linejoin="round" stroke-miterlimit="10" points="
		-183.17,316.42 16,316.42 16,203.5 -183.17,203.5 -183.17,316.42 	"/>
</g>
<g id="POLYLINE_2164_">
	<polyline fill="none" stroke="#000000" stroke-linecap="round" stroke-linejoin="round" stroke-miterlimit="10" points="
		845.17,316.21 1069.33,316.21 1069.33,203.5 845.17,203.5 845.17,316.21 	"/>
</g>
<g id="POLYLINE_2165_">
	<polyline fill="none" stroke="#000000" stroke-linecap="round" stroke-linejoin="round" stroke-miterlimit="10" points="
		845.17,999.33 1069.33,999.33 1069.33,894.75 845.17,894.75 845.17,999.33 	"/>
</g>
<g id="POLYLINE_2166_">
	<polyline fill="none" stroke="#000000" stroke-linecap="round" stroke-linejoin="round" stroke-miterlimit="10" points="
		916.94,1106.36 1069.33,1106.36 1069.33,999.33 916.94,999.33 916.94,1106.36 	"/>
</g>
<g id="POLYLINE_2167_">
	<polyline fill="none" stroke="#000000" stroke-linecap="round" stroke-linejoin="round" stroke-miterlimit="10" points="
		916.94,1213.4 1069.33,1213.4 1069.33,1106.36 916.94,1106.36 916.94,1213.4 	"/>
</g>
<g id="POLYLINE_2168_">
	<polyline fill="none" stroke="#000000" stroke-linecap="round" stroke-linejoin="round" stroke-miterlimit="10" points="
		-233.17,-71.5 -457.33,-71.5 -457.33,-171.5 -233.17,-171.5 -233.17,-71.5 	"/>
</g>
<g id="POLYLINE_2169_">
	<polyline fill="none" stroke="#000000" stroke-linecap="round" stroke-linejoin="round" stroke-miterlimit="10" points="
		-233.17,39.33 -457.33,39.33 -457.33,-71.5 -233.17,-71.5 -233.17,39.33 	"/>
</g>
<g id="POLYLINE_2170_">
	<polyline fill="none" stroke="#000000" stroke-linecap="round" stroke-linejoin="round" stroke-miterlimit="10" points="
		-233.17,203.5 -457.33,203.5 -457.33,39.33 -233.17,39.33 -233.17,203.5 	"/>
</g>
<g id="POLYLINE_2171_">
	<polyline fill="none" stroke="#000000" stroke-linecap="round" stroke-linejoin="round" stroke-miterlimit="10" points="
		-233.17,528.92 -457.33,528.92 -457.33,428.92 -233.17,428.92 -233.17,528.92 	"/>
</g>
<g id="POLYLINE_2172_">
	<polyline fill="none" stroke="#000000" stroke-linecap="round" stroke-linejoin="round" stroke-miterlimit="10" points="
		-233.17,633.08 -457.33,633.08 -457.33,528.92 -233.17,528.92 -233.17,633.08 	"/>
</g>
<g id="POLYLINE_2173_">
	<polyline fill="none" stroke="#000000" stroke-linecap="round" stroke-linejoin="round" stroke-miterlimit="10" points="
		-233.17,794.75 -457.33,794.75 -457.33,633.08 -233.17,633.08 -233.17,794.75 	"/>
</g>
<g id="POLYLINE_2174_">
	<polyline fill="none" stroke="#000000" stroke-linecap="round" stroke-linejoin="round" stroke-miterlimit="10" points="
		-233.17,894.75 -457.33,894.75 -457.33,794.75 -233.17,794.75 -233.17,894.75 	"/>
</g>
<g id="POLYLINE_2175_">
	<polyline fill="none" stroke="#000000" stroke-linecap="round" stroke-linejoin="round" stroke-miterlimit="10" points="
		-233.17,428.92 -457.33,428.92 -457.33,316.21 -233.17,316.21 -233.17,428.92 	"/>
</g>
<g id="POLYLINE_2176_">
	<polyline fill="none" stroke="#000000" stroke-linecap="round" stroke-linejoin="round" stroke-miterlimit="10" points="
		-233.17,316.21 -457.33,316.21 -457.33,203.5 -233.17,203.5 -233.17,316.21 	"/>
</g>
<g id="POLYLINE_2177_">
	<polyline fill="none" stroke="#000000" stroke-linecap="round" stroke-linejoin="round" stroke-miterlimit="10" points="
		-233.17,999.33 -457.33,999.33 -457.33,894.75 -233.17,894.75 -233.17,999.33 	"/>
</g>
<g id="POLYLINE_2178_">
	<polyline fill="none" stroke="#000000" stroke-linecap="round" stroke-linejoin="round" stroke-miterlimit="10" points="
		-304.94,1106.36 -457.33,1106.36 -457.33,999.33 -304.94,999.33 -304.94,1106.36 	"/>
</g>
<g id="POLYLINE_2179_">
	<polyline fill="none" stroke="#000000" stroke-linecap="round" stroke-linejoin="round" stroke-miterlimit="10" points="
		-304.94,1213.4 -457.33,1213.4 -457.33,1106.36 -304.94,1106.36 -304.94,1213.4 	"/>
</g>
<g id="POLYLINE_2180_">
	<polyline fill="none" stroke="#000000" stroke-linecap="round" stroke-linejoin="round" stroke-miterlimit="10" points="
		-457.33,-283.21 -233.17,-283.21 -233.17,-394.83 -457.33,-394.83 -457.33,-283.21 	"/>
</g>
<g id="POLYLINE_2181_">
	<polyline fill="none" stroke="#000000" stroke-linecap="round" stroke-linejoin="round" stroke-miterlimit="10" points="
		-183.17,-172.33 16,-172.33 16,-283.96 -183.17,-283.96 -183.17,-172.33 	"/>
</g>
<g id="POLYLINE_2182_">
	<polyline fill="none" stroke="#000000" stroke-linecap="round" stroke-linejoin="round" stroke-miterlimit="10" points="
		-183.17,-283.96 16,-283.96 16,-394.83 -183.17,-394.83 -183.17,-283.96 	"/>
</g>
<g id="POLYLINE_2183_">
	<polyline fill="none" stroke="#000000" stroke-linecap="round" stroke-linejoin="round" stroke-miterlimit="10" points="
		845.17,894.75 1069.33,894.75 1069.33,795.17 845.17,795.17 845.17,894.75 	"/>
</g>
<g id="POLYLINE_2184_">
	<polyline fill="none" stroke="#000000" stroke-linecap="round" stroke-linejoin="round" stroke-miterlimit="10" points="
		845.17,795.17 1069.33,795.17 1069.33,633.5 845.17,633.5 845.17,795.17 	"/>
</g>
<g id="POLYLINE_2185_">
	<polyline fill="none" stroke="#000000" stroke-linecap="round" stroke-linejoin="round" stroke-miterlimit="10" points="
		845.17,633.5 1069.33,633.5 1069.33,528.92 845.17,528.92 845.17,633.5 	"/>
</g>
<g id="POLYLINE_2186_">
	<polyline fill="none" stroke="#000000" stroke-linecap="round" stroke-linejoin="round" stroke-miterlimit="10" points="
		845.17,528.92 1069.33,528.92 1069.33,429.33 845.17,429.33 845.17,528.92 	"/>
</g>
<g id="POLYLINE_2187_">
	<polyline fill="none" stroke="#000000" stroke-linecap="round" stroke-linejoin="round" stroke-miterlimit="10" points="
		845.17,429.33 1069.33,429.33 1069.33,316.21 845.17,316.21 845.17,429.33 	"/>
</g>
<g id="POLYLINE_2188_">
	<polyline fill="none" stroke="#000000" stroke-linecap="round" stroke-linejoin="round" stroke-miterlimit="10" points="
		1119.33,-222.33 1119.33,-265.67 1261.83,-265.67 1261.83,-352.33 1251.31,-352.33 1251.31,-374.83 1069.33,-374.83 
		1069.33,-222.33 1119.33,-222.33 	"/>
</g>
<g id="POLYLINE_2189_">
	<polyline fill="none" stroke="#000000" stroke-linecap="round" stroke-linejoin="round" stroke-miterlimit="10" points="
		-644.73,-492.34 -507.33,-492.34 -507.33,-474.83 -457.33,-474.83 -457.33,-619.83 -644.73,-619.83 -644.73,-492.34 	"/>
</g>
<g id="POLYLINE_2190_">
	<polyline fill="none" stroke="#000000" stroke-linecap="round" stroke-linejoin="round" stroke-miterlimit="10" points="
		-457.33,-474.83 -356.08,-474.83 -356.08,-619.83 -457.33,-619.83 -457.33,-474.83 	"/>
</g>
<g id="POLYLINE_2191_">
	<polyline fill="none" stroke="#000000" stroke-linecap="round" stroke-linejoin="round" stroke-miterlimit="10" points="
		-356.08,-474.83 -254.83,-474.83 -254.83,-619.83 -356.08,-619.83 -356.08,-474.83 	"/>
</g>
<g id="POLYLINE_2192_">
	<polyline fill="none" stroke="#000000" stroke-linecap="round" stroke-linejoin="round" stroke-miterlimit="10" points="
		-254.83,-474.83 -153.58,-474.83 -153.58,-619.83 -254.83,-619.83 -254.83,-474.83 	"/>
</g>
<g id="POLYLINE_2193_">
	<polyline fill="none" stroke="#000000" stroke-linecap="round" stroke-linejoin="round" stroke-miterlimit="10" points="
		-153.58,-474.83 -53.17,-474.83 -53.17,-619.83 -153.58,-619.83 -153.58,-474.83 	"/>
</g>
<g id="POLYLINE_2194_">
	<polyline fill="none" stroke="#000000" stroke-linecap="round" stroke-linejoin="round" stroke-miterlimit="10" points="
		968.08,-222.33 1069.33,-222.33 1069.33,-374.83 968.08,-374.83 968.08,-222.33 	"/>
</g>
<g id="POLYLINE_2195_">
	<polyline fill="none" stroke="#000000" stroke-linecap="round" stroke-linejoin="round" stroke-miterlimit="10" points="
		866.83,-222.33 968.08,-222.33 968.08,-374.83 866.83,-374.83 866.83,-222.33 	"/>
</g>
<g id="POLYLINE_2196_">
	<polyline fill="none" stroke="#000000" stroke-linecap="round" stroke-linejoin="round" stroke-miterlimit="10" points="
		765.58,-222.33 866.83,-222.33 866.83,-374.83 765.58,-374.83 765.58,-222.33 	"/>
</g>
<g id="POLYLINE_2197_">
	<polyline fill="none" stroke="#000000" stroke-linecap="round" stroke-linejoin="round" stroke-miterlimit="10" points="
		665.17,-222.33 765.58,-222.33 765.58,-374.83 665.17,-374.83 665.17,-222.33 	"/>
</g>
<g id="POLYLINE_2198_">
	<polyline fill="none" stroke="#000000" stroke-linecap="round" stroke-linejoin="round" stroke-miterlimit="10" points="
		665.17,-374.83 594.33,-374.83 594.33,-324.42 550.17,-324.42 550.17,-222.33 665.17,-222.33 665.17,-374.83 	"/>
</g>
<g id="POLYLINE_2199_">
	<polyline fill="none" stroke="#000000" stroke-linecap="round" stroke-linejoin="round" stroke-miterlimit="10" points="
		435.17,-367.75 506,-367.75 506,-324.42 550.17,-324.42 550.17,-222.33 435.17,-222.33 435.17,-367.75 	"/>
</g>
<g id="POLYLINE_2200_">
	<polyline fill="none" stroke="#000000" stroke-linecap="round" stroke-linejoin="round" stroke-miterlimit="10" points="
		335.17,-222.33 435.17,-222.33 435.17,-367.75 335.17,-367.75 335.17,-222.33 	"/>
</g>
<g id="POLYLINE_2201_">
	<polyline fill="none" stroke="#000000" stroke-linecap="round" stroke-linejoin="round" stroke-miterlimit="10" points="
		235.17,-222.33 335.17,-222.33 335.17,-367.75 235.17,-367.75 235.17,-222.33 	"/>
</g>
<g id="POLYLINE_2202_">
	<polyline fill="none" stroke="#000000" stroke-linecap="round" stroke-linejoin="round" stroke-miterlimit="10" points="
		106.83,-222.33 235.17,-222.33 235.17,-373.17 106.83,-373.17 106.83,-222.33 	"/>
</g>
<g id="POLYLINE_2203_">
	<polyline fill="none" stroke="#000000" stroke-linecap="round" stroke-linejoin="round" stroke-miterlimit="10" points="
		106.83,-474.83 66.83,-474.83 66.83,-619.83 269.33,-619.83 269.33,-589.83 298.92,-589.83 298.92,-501.29 106.83,-501.29 
		106.83,-474.83 	"/>
</g>
<g id="POLYLINE_2204_">
	<polyline fill="none" stroke="#000000" stroke-linecap="round" stroke-linejoin="round" stroke-miterlimit="10" points="
		106.83,-373.17 235.17,-373.17 235.17,-367.75 276.83,-367.75 276.83,-401.92 296.83,-401.92 296.83,-501.29 106.83,-501.29 
		106.83,-373.17 	"/>
</g>
<g id="POLYLINE_2205_">
	<polyline fill="none" stroke="#000000" stroke-linecap="round" stroke-linejoin="round" stroke-miterlimit="10" points="
		-53.17,-474.83 66.83,-474.83 66.83,-619.83 -53.17,-619.83 -53.17,-474.83 	"/>
</g>
<g id="POLYLINE_2206_">
	<polyline fill="none" stroke="#000000" stroke-linecap="round" stroke-linejoin="round" stroke-miterlimit="10" points="
		-644.73,1278.5 -507.33,1278.5 -507.33,1263.4 -462.23,1263.4 -462.23,1388.5 -644.73,1388.5 -644.73,1278.5 	"/>
</g>
<g id="POLYLINE_2207_">
	<polyline fill="none" stroke="#000000" stroke-linecap="round" stroke-linejoin="round" stroke-miterlimit="10" points="
		-254.83,1217.67 -113.17,1217.67 -113.17,1049.33 -254.83,1049.33 -254.83,1217.67 	"/>
</g>
<g id="POLYLINE_2208_">
	<polyline fill="none" stroke="#000000" stroke-linecap="round" stroke-linejoin="round" stroke-miterlimit="10" points="
		125.9,1160.17 258.92,1160.17 258.92,1049.33 125.9,1049.33 125.9,1160.17 	"/>
</g>
<g id="POLYLINE_2209_">
	<polyline fill="none" stroke="#000000" stroke-linecap="round" stroke-linejoin="round" stroke-miterlimit="10" points="
		25.9,1160.17 125.9,1160.17 125.9,1049.33 25.9,1049.33 25.9,1160.17 	"/>
</g>
<g id="POLYLINE_2210_">
	<polyline fill="none" stroke="#000000" stroke-linecap="round" stroke-linejoin="round" stroke-miterlimit="10" points="
		-113.17,1160.17 25.9,1160.17 25.9,1049.33 -113.17,1049.33 -113.17,1160.17 	"/>
</g>
<g id="POLYLINE_2211_">
	<polyline fill="none" stroke="#000000" stroke-linecap="round" stroke-linejoin="round" stroke-miterlimit="10" points="
		258.92,1160.17 401,1160.17 401,1049.33 258.92,1049.33 258.92,1160.17 	"/>
</g>
<g id="POLYLINE_2212_">
	<polyline fill="none" stroke="#000000" stroke-linecap="round" stroke-linejoin="round" stroke-miterlimit="10" points="
		401,1160.17 540.17,1160.17 540.17,1049.33 401,1049.33 401,1160.17 	"/>
</g>
<g id="POLYLINE_2213_">
	<polyline fill="none" stroke="#000000" stroke-linecap="round" stroke-linejoin="round" stroke-miterlimit="10" points="
		866.83,1217.67 725.17,1217.67 725.17,1049.33 866.83,1049.33 866.83,1217.67 	"/>
</g>
<g id="POLYLINE_2214_">
	<polyline fill="none" stroke="#000000" stroke-linecap="round" stroke-linejoin="round" stroke-miterlimit="10" points="
		1258.81,1278.5 1119.33,1278.5 1119.33,1263.4 1074.23,1263.4 1074.23,1388.5 1258.81,1388.5 1258.81,1278.5 	"/>
</g>
<g id="POLYLINE_2215_">
	<polyline fill="none" stroke="#000000" stroke-linecap="round" stroke-linejoin="round" stroke-miterlimit="10" points="
		540.17,1160.17 725.17,1160.17 725.17,1049.33 540.17,1049.33 540.17,1160.17 	"/>
</g>
</svg>
