<?xml version="1.0" encoding="utf-8"?>
<!-- Generator: Adobe Illustrator 18.1.1, SVG Export Plug-In . SVG Version: 6.00 Build 0)  -->
<!DOCTYPE svg PUBLIC "-//W3C//DTD SVG 1.1//EN" "http://www.w3.org/Graphics/SVG/1.1/DTD/svg11.dtd">
<svg version="1.1" id="_x30_-PF-CELLULAR::0-PF-CELL"
	 xmlns="http://www.w3.org/2000/svg" xmlns:xlink="http://www.w3.org/1999/xlink" x="0px" y="0px" width="1734px" height="1566px"
	 viewBox="0 0 1734 1566" enable-background="new 0 0 1734 1566" xml:space="preserve">
<rect x="1029.6" y="366.4" fill="none" stroke="#000000" stroke-linecap="round" stroke-linejoin="round" width="139.2" height="72"/>
<rect x="1029.6" y="799" fill="none" stroke="#000000" stroke-linecap="round" stroke-linejoin="round" width="139.2" height="72"/>
<rect x="1029.6" y="871" fill="none" stroke="#000000" stroke-linecap="round" stroke-linejoin="round" width="139.2" height="75"/>
<rect x="1029.6" y="946" fill="none" stroke="#000000" stroke-linecap="round" stroke-linejoin="round" width="139.2" height="116.4"/>
<rect x="1029.6" y="1062.4" fill="none" stroke="#000000" stroke-linecap="round" stroke-linejoin="round" width="139.2" height="72"/>
<rect x="1029.6" y="1134.4" fill="none" stroke="#000000" stroke-linecap="round" stroke-linejoin="round" width="139.2" height="75"/>
<rect x="1029.6" y="438.4" fill="none" stroke="#000000" stroke-linecap="round" stroke-linejoin="round" width="139.2" height="79.8"/>
<rect x="1029.6" y="518.2" fill="none" stroke="#000000" stroke-linecap="round" stroke-linejoin="round" width="139.2" height="118.5"/>
<rect x="464.4" y="799" fill="none" stroke="#000000" stroke-linecap="round" stroke-linejoin="round" width="143.4" height="72"/>
<rect x="464.4" y="871" fill="none" stroke="#000000" stroke-linecap="round" stroke-linejoin="round" width="143.4" height="75"/>
<rect x="464.4" y="365.8" fill="none" stroke="#000000" stroke-linecap="round" stroke-linejoin="round" width="143.4" height="72.6"/>
<rect x="464.4" y="438.4" fill="none" stroke="#000000" stroke-linecap="round" stroke-linejoin="round" width="143.4" height="82.2"/>
<rect x="464.4" y="520.6" fill="none" stroke="#000000" stroke-linecap="round" stroke-linejoin="round" width="143.4" height="115.8"/>
<rect x="464.4" y="946" fill="none" stroke="#000000" stroke-linecap="round" stroke-linejoin="round" width="143.4" height="117"/>
<rect x="464.4" y="1063" fill="none" stroke="#000000" stroke-linecap="round" stroke-linejoin="round" width="143.4" height="72"/>
<rect x="464.4" y="1135" fill="none" stroke="#000000" stroke-linecap="round" stroke-linejoin="round" width="143.4" height="74.4"/>
<rect x="1204.8" y="366.4" fill="none" stroke="#000000" stroke-linecap="round" stroke-linejoin="round" width="161.4" height="72"/>
<rect x="1204.8" y="438.4" fill="none" stroke="#000000" stroke-linecap="round" stroke-linejoin="round" width="161.4" height="79.8"/>
<rect x="1204.8" y="518.2" fill="none" stroke="#000000" stroke-linecap="round" stroke-linejoin="round" width="161.4" height="118.2"/>
<rect x="1029.6" y="717.85" fill="none" stroke="#000000" stroke-linecap="round" stroke-linejoin="round" width="139.2" height="81.15"/>
<rect x="1029.6" y="636.7" fill="none" stroke="#000000" stroke-linecap="round" stroke-linejoin="round" width="139.2" height="81.15"/>
<rect x="464.4" y="717.7" fill="none" stroke="#000000" stroke-linecap="round" stroke-linejoin="round" width="143.4" height="81.3"/>
<rect x="464.4" y="636.4" fill="none" stroke="#000000" stroke-linecap="round" stroke-linejoin="round" width="143.4" height="81.3"/>
<rect x="1204.8" y="636.4" fill="none" stroke="#000000" stroke-linecap="round" stroke-linejoin="round" width="161.4" height="81.15"/>
<rect x="1204.8" y="1134.1" fill="none" stroke="#000000" stroke-linecap="round" stroke-linejoin="round" width="161.4" height="75.3"/>
<rect x="1256.48" y="1209.4" fill="none" stroke="#000000" stroke-linecap="round" stroke-linejoin="round" width="109.72" height="77.06"/>
<rect x="1256.48" y="1286.46" fill="none" stroke="#000000" stroke-linecap="round" stroke-linejoin="round" width="109.72" height="77.06"/>
<rect x="267" y="366.4" fill="none" stroke="#000000" stroke-linecap="round" stroke-linejoin="round" width="161.4" height="72"/>
<rect x="267" y="438.4" fill="none" stroke="#000000" stroke-linecap="round" stroke-linejoin="round" width="161.4" height="79.8"/>
<rect x="267" y="518.2" fill="none" stroke="#000000" stroke-linecap="round" stroke-linejoin="round" width="161.4" height="118.2"/>
<rect x="267" y="798.7" fill="none" stroke="#000000" stroke-linecap="round" stroke-linejoin="round" width="161.4" height="72"/>
<rect x="267" y="870.7" fill="none" stroke="#000000" stroke-linecap="round" stroke-linejoin="round" width="161.4" height="75"/>
<rect x="267" y="945.7" fill="none" stroke="#000000" stroke-linecap="round" stroke-linejoin="round" width="161.4" height="116.4"/>
<rect x="267" y="1062.1" fill="none" stroke="#000000" stroke-linecap="round" stroke-linejoin="round" width="161.4" height="72"/>
<rect x="267" y="717.55" fill="none" stroke="#000000" stroke-linecap="round" stroke-linejoin="round" width="161.4" height="81.15"/>
<rect x="267" y="636.4" fill="none" stroke="#000000" stroke-linecap="round" stroke-linejoin="round" width="161.4" height="81.15"/>
<rect x="267" y="1134.1" fill="none" stroke="#000000" stroke-linecap="round" stroke-linejoin="round" width="161.4" height="75.3"/>
<rect x="267" y="1209.4" fill="none" stroke="#000000" stroke-linecap="round" stroke-linejoin="round" width="109.73" height="77.06"/>
<rect x="267" y="1286.46" fill="none" stroke="#000000" stroke-linecap="round" stroke-linejoin="round" width="109.73" height="77.06"/>
<rect x="267" y="205.6" fill="none" stroke="#000000" stroke-linecap="round" stroke-linejoin="round" width="161.4" height="80.37"/>
<rect x="464.4" y="285.43" fill="none" stroke="#000000" stroke-linecap="round" stroke-linejoin="round" width="143.4" height="80.37"/>
<rect x="464.4" y="205.6" fill="none" stroke="#000000" stroke-linecap="round" stroke-linejoin="round" width="143.4" height="79.83"/>
<rect x="1204.8" y="1062.4" fill="none" stroke="#000000" stroke-linecap="round" stroke-linejoin="round" width="161.4" height="71.7"/>
<rect x="1204.8" y="946" fill="none" stroke="#000000" stroke-linecap="round" stroke-linejoin="round" width="161.4" height="116.4"/>
<rect x="1204.8" y="870.7" fill="none" stroke="#000000" stroke-linecap="round" stroke-linejoin="round" width="161.4" height="75.3"/>
<rect x="1204.8" y="799" fill="none" stroke="#000000" stroke-linecap="round" stroke-linejoin="round" width="161.4" height="71.7"/>
<rect x="1204.8" y="717.55" fill="none" stroke="#000000" stroke-linecap="round" stroke-linejoin="round" width="161.4" height="81.45"/>
<polygon fill="none" stroke="#000000" stroke-linecap="round" stroke-linejoin="round" points="1402.2,329.8 1402.2,298.6 
	1504.8,298.6 1504.8,236.2 1497.23,236.2 1497.23,220 1366.2,220 1366.2,329.8 "/>
<polygon fill="none" stroke="#000000" stroke-linecap="round" stroke-linejoin="round" points="132.08,135.39 231,135.39 231,148 
	267,148 267,43.6 132.08,43.6 "/>
<rect x="267" y="43.6" fill="none" stroke="#000000" stroke-linecap="round" stroke-linejoin="round" width="72.9" height="104.4"/>
<rect x="339.9" y="43.6" fill="none" stroke="#000000" stroke-linecap="round" stroke-linejoin="round" width="72.9" height="104.4"/>
<rect x="412.8" y="43.6" fill="none" stroke="#000000" stroke-linecap="round" stroke-linejoin="round" width="72.9" height="104.4"/>
<rect x="485.7" y="43.6" fill="none" stroke="#000000" stroke-linecap="round" stroke-linejoin="round" width="72.3" height="104.4"/>
<rect x="1293.3" y="220" fill="none" stroke="#000000" stroke-linecap="round" stroke-linejoin="round" width="72.9" height="109.8"/>
<rect x="1220.4" y="220" fill="none" stroke="#000000" stroke-linecap="round" stroke-linejoin="round" width="72.9" height="109.8"/>
<rect x="1147.5" y="220" fill="none" stroke="#000000" stroke-linecap="round" stroke-linejoin="round" width="72.9" height="109.8"/>
<rect x="1075.2" y="220" fill="none" stroke="#000000" stroke-linecap="round" stroke-linejoin="round" width="72.3" height="109.8"/>
<polygon fill="none" stroke="#000000" stroke-linecap="round" stroke-linejoin="round" points="1075.2,220 1024.2,220 1024.2,256.3 
	992.4,256.3 992.4,329.8 1075.2,329.8 "/>
<polygon fill="none" stroke="#000000" stroke-linecap="round" stroke-linejoin="round" points="909.6,225.1 960.6,225.1 
	960.6,256.3 992.4,256.3 992.4,329.8 909.6,329.8 "/>
<rect x="837.6" y="225.1" fill="none" stroke="#000000" stroke-linecap="round" stroke-linejoin="round" width="72" height="104.7"/>
<rect x="765.6" y="225.1" fill="none" stroke="#000000" stroke-linecap="round" stroke-linejoin="round" width="72" height="104.7"/>
<rect x="673.2" y="221.2" fill="none" stroke="#000000" stroke-linecap="round" stroke-linejoin="round" width="92.4" height="108.6"/>
<polygon fill="none" stroke="#000000" stroke-linecap="round" stroke-linejoin="round" points="673.2,148 644.4,148 644.4,43.6 
	790.2,43.6 790.2,65.2 811.5,65.2 811.5,128.95 673.2,128.95 "/>
<polygon fill="none" stroke="#000000" stroke-linecap="round" stroke-linejoin="round" points="673.2,221.2 765.6,221.2 
	765.6,225.1 795.6,225.1 795.6,200.5 810,200.5 810,128.95 673.2,128.95 "/>
<rect x="558" y="43.6" fill="none" stroke="#000000" stroke-linecap="round" stroke-linejoin="round" width="86.4" height="104.4"/>
<polygon fill="none" stroke="#000000" stroke-linecap="round" stroke-linejoin="round" points="132.08,1410.4 231,1410.4 
	231,1399.52 263.48,1399.52 263.48,1489.6 132.08,1489.6 "/>
<rect x="412.8" y="1245.4" fill="none" stroke="#000000" stroke-linecap="round" stroke-linejoin="round" width="102" height="121.2"/>
<rect x="686.93" y="1245.4" fill="none" stroke="#000000" stroke-linecap="round" stroke-linejoin="round" width="95.77" height="79.8"/>
<rect x="614.93" y="1245.4" fill="none" stroke="#000000" stroke-linecap="round" stroke-linejoin="round" width="72" height="79.8"/>
<rect x="514.8" y="1245.4" fill="none" stroke="#000000" stroke-linecap="round" stroke-linejoin="round" width="100.12" height="79.8"/>
<rect x="782.7" y="1245.4" fill="none" stroke="#000000" stroke-linecap="round" stroke-linejoin="round" width="102.3" height="79.8"/>
<rect x="885" y="1245.4" fill="none" stroke="#000000" stroke-linecap="round" stroke-linejoin="round" width="100.2" height="79.8"/>
<rect x="1118.4" y="1245.4" fill="none" stroke="#000000" stroke-linecap="round" stroke-linejoin="round" width="102" height="121.2"/>
<polygon fill="none" stroke="#000000" stroke-linecap="round" stroke-linejoin="round" points="1502.63,1410.4 1402.2,1410.4 
	1402.2,1399.52 1369.73,1399.52 1369.73,1489.6 1502.63,1489.6 "/>
<rect x="985.2" y="1245.4" fill="none" stroke="#000000" stroke-linecap="round" stroke-linejoin="round" width="133.2" height="79.8"/>
<rect x="1220.4" y="1399.52" fill="none" stroke="#000000" stroke-linecap="round" stroke-linejoin="round" width="74.66" height="90.07"/>
<rect x="1295.06" y="1399.52" fill="none" stroke="#000000" stroke-linecap="round" stroke-linejoin="round" width="74.66" height="90.07"/>
<rect x="263.48" y="1399.52" fill="none" stroke="#000000" stroke-linecap="round" stroke-linejoin="round" width="74.66" height="90.07"/>
<rect x="338.14" y="1399.52" fill="none" stroke="#000000" stroke-linecap="round" stroke-linejoin="round" width="74.66" height="90.07"/>
<polygon fill="none" stroke="#000000" stroke-linecap="round" stroke-linejoin="round" points="506.93,1495.6 412.8,1495.6 
	412.8,1366.6 514.8,1366.6 514.8,1485.92 506.93,1485.92 "/>
<rect x="267" y="285.97" fill="none" stroke="#000000" stroke-linecap="round" stroke-linejoin="round" width="161.4" height="80.43"/>
<rect x="128.4" y="366.4" fill="none" stroke="#000000" stroke-linecap="round" stroke-linejoin="round" width="102.6" height="72"/>
<rect x="1402.2" y="298.6" fill="none" stroke="#000000" stroke-linecap="round" stroke-linejoin="round" width="102.6" height="67.8"/>
<rect x="1402.2" y="1286.46" fill="none" stroke="#000000" stroke-linecap="round" stroke-linejoin="round" width="102.6" height="123.94"/>
<rect x="1402.2" y="1209.4" fill="none" stroke="#000000" stroke-linecap="round" stroke-linejoin="round" width="102.6" height="77.06"/>
<rect x="1402.2" y="366.4" fill="none" stroke="#000000" stroke-linecap="round" stroke-linejoin="round" width="102.6" height="72"/>
<rect x="1402.2" y="438.4" fill="none" stroke="#000000" stroke-linecap="round" stroke-linejoin="round" width="102.6" height="79.8"/>
<rect x="1402.2" y="518.2" fill="none" stroke="#000000" stroke-linecap="round" stroke-linejoin="round" width="102.6" height="118.2"/>
<rect x="1402.2" y="636.4" fill="none" stroke="#000000" stroke-linecap="round" stroke-linejoin="round" width="102.6" height="81.15"/>
<rect x="1402.2" y="1134.1" fill="none" stroke="#000000" stroke-linecap="round" stroke-linejoin="round" width="102.6" height="75.3"/>
<rect x="1402.2" y="1062.4" fill="none" stroke="#000000" stroke-linecap="round" stroke-linejoin="round" width="102.6" height="71.7"/>
<rect x="1402.2" y="946" fill="none" stroke="#000000" stroke-linecap="round" stroke-linejoin="round" width="102.6" height="116.4"/>
<rect x="1402.2" y="870.7" fill="none" stroke="#000000" stroke-linecap="round" stroke-linejoin="round" width="102.6" height="75.3"/>
<rect x="1402.2" y="799" fill="none" stroke="#000000" stroke-linecap="round" stroke-linejoin="round" width="102.6" height="71.7"/>
<rect x="1402.2" y="717.55" fill="none" stroke="#000000" stroke-linecap="round" stroke-linejoin="round" width="102.6" height="81.45"/>
<rect x="128.4" y="135.39" fill="none" stroke="#000000" stroke-linecap="round" stroke-linejoin="round" width="102.6" height="70.2"/>
<rect x="128.4" y="1286.46" fill="none" stroke="#000000" stroke-linecap="round" stroke-linejoin="round" width="102.6" height="123.94"/>
<rect x="128.4" y="1209.4" fill="none" stroke="#000000" stroke-linecap="round" stroke-linejoin="round" width="102.6" height="77.06"/>
<rect x="128.4" y="438.4" fill="none" stroke="#000000" stroke-linecap="round" stroke-linejoin="round" width="102.6" height="79.8"/>
<rect x="128.4" y="518.2" fill="none" stroke="#000000" stroke-linecap="round" stroke-linejoin="round" width="102.6" height="118.2"/>
<rect x="128.4" y="798.7" fill="none" stroke="#000000" stroke-linecap="round" stroke-linejoin="round" width="102.6" height="72"/>
<rect x="128.4" y="870.7" fill="none" stroke="#000000" stroke-linecap="round" stroke-linejoin="round" width="102.6" height="75"/>
<rect x="128.4" y="945.7" fill="none" stroke="#000000" stroke-linecap="round" stroke-linejoin="round" width="102.6" height="116.4"/>
<rect x="128.4" y="1062.1" fill="none" stroke="#000000" stroke-linecap="round" stroke-linejoin="round" width="102.6" height="72"/>
<rect x="128.4" y="717.55" fill="none" stroke="#000000" stroke-linecap="round" stroke-linejoin="round" width="102.6" height="81.15"/>
<rect x="128.4" y="636.4" fill="none" stroke="#000000" stroke-linecap="round" stroke-linejoin="round" width="102.6" height="81.15"/>
<rect x="128.4" y="1134.1" fill="none" stroke="#000000" stroke-linecap="round" stroke-linejoin="round" width="102.6" height="75.3"/>
<rect x="128.4" y="205.6" fill="none" stroke="#000000" stroke-linecap="round" stroke-linejoin="round" width="102.6" height="80.37"/>
<rect x="128.4" y="285.97" fill="none" stroke="#000000" stroke-linecap="round" stroke-linejoin="round" width="102.6" height="80.43"/>
<polygon fill="none" stroke="#000000" stroke-linecap="round" stroke-linejoin="round" points="1126.28,1495.6 1220.4,1495.6 
	1220.4,1366.6 1118.4,1366.6 1118.4,1485.92 1126.28,1485.92 "/>
</svg>
