<?xml version="1.0" encoding="utf-8"?>
<!-- Generator: Adobe Illustrator 18.1.1, SVG Export Plug-In . SVG Version: 6.00 Build 0)  -->
<!DOCTYPE svg PUBLIC "-//W3C//DTD SVG 1.1//EN" "http://www.w3.org/Graphics/SVG/1.1/DTD/svg11.dtd">
<svg version="1.1" id="static" xmlns="http://www.w3.org/2000/svg" xmlns:xlink="http://www.w3.org/1999/xlink" x="0px" y="0px"
	 width="1734px" height="1566px" viewBox="0 0 1734 1566" enable-background="new 0 0 1734 1566" xml:space="preserve">
<g id="FURN::0-FURN-PANTRY">
	<path fill="none" stroke="#000000" stroke-linecap="round" stroke-linejoin="round" d="M981.88,1171.26c0-6.96-5.64-12.6-12.6-12.6
		c-6.96,0-12.6,5.64-12.6,12.6"/>
	<polyline fill="none" stroke="#000000" stroke-linecap="round" stroke-linejoin="round" points="981.35,1174.85 988.14,1181.64 
		979.66,1190.12 972.87,1183.33 	"/>
	
		<line fill="none" stroke="#000000" stroke-linecap="round" stroke-linejoin="round" x1="977.96" y1="1188.43" x2="986.44" y2="1179.94"/>
	
		<line fill="none" stroke="#000000" stroke-linecap="round" stroke-linejoin="round" x1="873.08" y1="1173.79" x2="864.59" y2="1165.31"/>
	
		<line fill="none" stroke="#000000" stroke-linecap="round" stroke-linejoin="round" x1="859.5" y1="1170.4" x2="866.29" y2="1163.61"/>
	
		<line fill="none" stroke="#000000" stroke-linecap="round" stroke-linejoin="round" x1="866.29" y1="1163.61" x2="874.77" y2="1172.09"/>
	
		<line fill="none" stroke="#000000" stroke-linecap="round" stroke-linejoin="round" x1="874.77" y1="1172.09" x2="867.98" y2="1178.88"/>
	<polyline fill="none" stroke="#000000" stroke-linecap="round" stroke-linejoin="round" points="843.83,1186.07 837.04,1192.85 
		845.53,1201.34 852.31,1194.55 	"/>
	
		<line fill="none" stroke="#000000" stroke-linecap="round" stroke-linejoin="round" x1="847.22" y1="1199.64" x2="838.74" y2="1191.16"/>
	<polyline fill="none" stroke="#000000" stroke-linecap="round" stroke-linejoin="round" points="852.31,1170.4 845.53,1163.61 
		837.04,1172.09 843.83,1178.88 	"/>
	
		<line fill="none" stroke="#000000" stroke-linecap="round" stroke-linejoin="round" x1="838.74" y1="1173.79" x2="847.22" y2="1165.31"/>
	<path fill="none" stroke="#000000" stroke-linecap="round" stroke-linejoin="round" d="M843.31,1182.47c0,6.96,5.64,12.6,12.6,12.6
		c6.96,0,12.6-5.64,12.6-12.6"/>
	<path fill="none" stroke="#000000" stroke-linecap="round" stroke-linejoin="round" d="M868.51,1182.47c0-6.96-5.64-12.6-12.6-12.6
		c-6.96,0-12.6,5.64-12.6,12.6"/>
	<polyline fill="none" stroke="#000000" stroke-linecap="round" stroke-linejoin="round" points="867.98,1186.07 874.77,1192.85 
		866.29,1201.34 859.5,1194.55 	"/>
	
		<line fill="none" stroke="#000000" stroke-linecap="round" stroke-linejoin="round" x1="864.59" y1="1199.64" x2="873.08" y2="1191.16"/>
	
		<line fill="none" stroke="#000000" stroke-linecap="round" stroke-linejoin="round" x1="928.99" y1="1147.48" x2="920.5" y2="1139"/>
	
		<line fill="none" stroke="#000000" stroke-linecap="round" stroke-linejoin="round" x1="915.41" y1="1144.09" x2="922.2" y2="1137.3"/>
	
		<line fill="none" stroke="#000000" stroke-linecap="round" stroke-linejoin="round" x1="922.2" y1="1137.3" x2="930.69" y2="1145.78"/>
	
		<line fill="none" stroke="#000000" stroke-linecap="round" stroke-linejoin="round" x1="930.69" y1="1145.78" x2="923.9" y2="1152.57"/>
	<polyline fill="none" stroke="#000000" stroke-linecap="round" stroke-linejoin="round" points="899.74,1159.76 892.96,1166.54 
		901.44,1175.03 908.23,1168.24 	"/>
	
		<line fill="none" stroke="#000000" stroke-linecap="round" stroke-linejoin="round" x1="903.14" y1="1173.33" x2="894.65" y2="1164.85"/>
	<polyline fill="none" stroke="#000000" stroke-linecap="round" stroke-linejoin="round" points="908.23,1144.09 901.44,1137.3 
		892.96,1145.78 899.74,1152.57 	"/>
	
		<line fill="none" stroke="#000000" stroke-linecap="round" stroke-linejoin="round" x1="894.65" y1="1147.48" x2="903.14" y2="1139"/>
	<path fill="none" stroke="#000000" stroke-linecap="round" stroke-linejoin="round" d="M899.22,1156.16c0,6.96,5.64,12.6,12.6,12.6
		c6.96,0,12.6-5.64,12.6-12.6"/>
	<path fill="none" stroke="#000000" stroke-linecap="round" stroke-linejoin="round" d="M924.42,1156.16c0-6.96-5.64-12.6-12.6-12.6
		c-6.96,0-12.6,5.64-12.6,12.6"/>
	<polyline fill="none" stroke="#000000" stroke-linecap="round" stroke-linejoin="round" points="923.9,1159.76 930.69,1166.54 
		922.2,1175.03 915.41,1168.24 	"/>
	
		<line fill="none" stroke="#000000" stroke-linecap="round" stroke-linejoin="round" x1="920.5" y1="1173.33" x2="928.99" y2="1164.85"/>
	
		<line fill="none" stroke="#000000" stroke-linecap="round" stroke-linejoin="round" x1="704.22" y1="1147.48" x2="712.7" y2="1139"/>
	
		<line fill="none" stroke="#000000" stroke-linecap="round" stroke-linejoin="round" x1="717.79" y1="1144.09" x2="711" y2="1137.3"/>
	
		<line fill="none" stroke="#000000" stroke-linecap="round" stroke-linejoin="round" x1="711" y1="1137.3" x2="702.52" y2="1145.78"/>
	
		<line fill="none" stroke="#000000" stroke-linecap="round" stroke-linejoin="round" x1="702.52" y1="1145.78" x2="709.31" y2="1152.57"/>
	<polyline fill="none" stroke="#000000" stroke-linecap="round" stroke-linejoin="round" points="733.46,1159.76 740.25,1166.54 
		731.76,1175.03 724.98,1168.24 	"/>
	
		<line fill="none" stroke="#000000" stroke-linecap="round" stroke-linejoin="round" x1="730.07" y1="1173.33" x2="738.55" y2="1164.85"/>
	<polyline fill="none" stroke="#000000" stroke-linecap="round" stroke-linejoin="round" points="724.98,1144.09 731.76,1137.3 
		740.25,1145.78 733.46,1152.57 	"/>
	
		<line fill="none" stroke="#000000" stroke-linecap="round" stroke-linejoin="round" x1="738.55" y1="1147.48" x2="730.07" y2="1139"/>
	<path fill="none" stroke="#000000" stroke-linecap="round" stroke-linejoin="round" d="M733.98,1156.16c0,6.96-5.64,12.6-12.6,12.6
		c-6.96,0-12.6-5.64-12.6-12.6"/>
	<path fill="none" stroke="#000000" stroke-linecap="round" stroke-linejoin="round" d="M708.78,1156.16c0-6.96,5.64-12.6,12.6-12.6
		c6.96,0,12.6,5.64,12.6,12.6"/>
	<polyline fill="none" stroke="#000000" stroke-linecap="round" stroke-linejoin="round" points="709.31,1159.76 702.52,1166.54 
		711,1175.03 717.79,1168.24 	"/>
	
		<line fill="none" stroke="#000000" stroke-linecap="round" stroke-linejoin="round" x1="712.7" y1="1173.33" x2="704.22" y2="1164.85"/>
	
		<line fill="none" stroke="#000000" stroke-linecap="round" stroke-linejoin="round" x1="760.13" y1="1173.79" x2="768.61" y2="1165.31"/>
	
		<line fill="none" stroke="#000000" stroke-linecap="round" stroke-linejoin="round" x1="773.71" y1="1170.4" x2="766.92" y2="1163.61"/>
	
		<line fill="none" stroke="#000000" stroke-linecap="round" stroke-linejoin="round" x1="766.92" y1="1163.61" x2="758.43" y2="1172.09"/>
	
		<line fill="none" stroke="#000000" stroke-linecap="round" stroke-linejoin="round" x1="758.43" y1="1172.09" x2="765.22" y2="1178.88"/>
	<polyline fill="none" stroke="#000000" stroke-linecap="round" stroke-linejoin="round" points="789.38,1186.07 796.16,1192.85 
		787.68,1201.34 780.89,1194.55 	"/>
	
		<line fill="none" stroke="#000000" stroke-linecap="round" stroke-linejoin="round" x1="785.98" y1="1199.64" x2="794.47" y2="1191.16"/>
	<polyline fill="none" stroke="#000000" stroke-linecap="round" stroke-linejoin="round" points="780.89,1170.4 787.68,1163.61 
		796.16,1172.09 789.38,1178.88 	"/>
	
		<line fill="none" stroke="#000000" stroke-linecap="round" stroke-linejoin="round" x1="794.47" y1="1173.79" x2="785.98" y2="1165.31"/>
	<path fill="none" stroke="#000000" stroke-linecap="round" stroke-linejoin="round" d="M789.9,1182.47c0,6.96-5.64,12.6-12.6,12.6
		c-6.96,0-12.6-5.64-12.6-12.6"/>
	<path fill="none" stroke="#000000" stroke-linecap="round" stroke-linejoin="round" d="M764.7,1182.47c0-6.96,5.64-12.6,12.6-12.6
		c6.96,0,12.6,5.64,12.6,12.6"/>
	<polyline fill="none" stroke="#000000" stroke-linecap="round" stroke-linejoin="round" points="765.22,1186.07 758.43,1192.85 
		766.92,1201.34 773.71,1194.55 	"/>
	
		<line fill="none" stroke="#000000" stroke-linecap="round" stroke-linejoin="round" x1="768.61" y1="1199.64" x2="760.13" y2="1191.16"/>
	
		<line fill="none" stroke="#000000" stroke-linecap="round" stroke-linejoin="round" x1="646.76" y1="1162.57" x2="655.25" y2="1154.09"/>
	
		<line fill="none" stroke="#000000" stroke-linecap="round" stroke-linejoin="round" x1="660.34" y1="1159.18" x2="653.55" y2="1152.39"/>
	
		<line fill="none" stroke="#000000" stroke-linecap="round" stroke-linejoin="round" x1="653.55" y1="1152.39" x2="645.06" y2="1160.88"/>
	
		<line fill="none" stroke="#000000" stroke-linecap="round" stroke-linejoin="round" x1="645.06" y1="1160.88" x2="651.85" y2="1167.67"/>
	<polyline fill="none" stroke="#000000" stroke-linecap="round" stroke-linejoin="round" points="676.01,1174.85 682.79,1181.64 
		674.31,1190.12 667.52,1183.33 	"/>
	
		<line fill="none" stroke="#000000" stroke-linecap="round" stroke-linejoin="round" x1="672.61" y1="1188.43" x2="681.1" y2="1179.94"/>
	<polyline fill="none" stroke="#000000" stroke-linecap="round" stroke-linejoin="round" points="667.52,1159.18 674.31,1152.39 
		682.79,1160.88 676.01,1167.67 	"/>
	
		<line fill="none" stroke="#000000" stroke-linecap="round" stroke-linejoin="round" x1="681.1" y1="1162.57" x2="672.61" y2="1154.09"/>
	<path fill="none" stroke="#000000" stroke-linecap="round" stroke-linejoin="round" d="M676.53,1171.26c0,6.96-5.64,12.6-12.6,12.6
		c-6.96,0-12.6-5.64-12.6-12.6"/>
	<path fill="none" stroke="#000000" stroke-linecap="round" stroke-linejoin="round" d="M651.33,1171.26c0-6.96,5.64-12.6,12.6-12.6
		c6.96,0,12.6,5.64,12.6,12.6"/>
	<polyline fill="none" stroke="#000000" stroke-linecap="round" stroke-linejoin="round" points="651.85,1174.85 645.06,1181.64 
		653.55,1190.12 660.34,1183.33 	"/>
	
		<line fill="none" stroke="#000000" stroke-linecap="round" stroke-linejoin="round" x1="655.25" y1="1188.43" x2="646.76" y2="1179.94"/>
	
		<line fill="none" stroke="#000000" stroke-linecap="round" stroke-linejoin="round" x1="952.11" y1="1162.57" x2="960.59" y2="1154.09"/>
	<polyline fill="none" stroke="#000000" stroke-linecap="round" stroke-linejoin="round" points="965.68,1159.18 958.9,1152.39 
		950.41,1160.88 957.2,1167.67 	"/>
	
		<line fill="none" stroke="#000000" stroke-linecap="round" stroke-linejoin="round" x1="960.59" y1="1188.43" x2="952.11" y2="1179.94"/>
	<polyline fill="none" stroke="#000000" stroke-linecap="round" stroke-linejoin="round" points="957.2,1174.85 950.41,1181.64 
		958.9,1190.12 965.68,1183.33 	"/>
	
		<line fill="none" stroke="#000000" stroke-linecap="round" stroke-linejoin="round" x1="988.14" y1="1160.88" x2="981.35" y2="1167.67"/>
	
		<line fill="none" stroke="#000000" stroke-linecap="round" stroke-linejoin="round" x1="979.66" y1="1152.39" x2="988.14" y2="1160.88"/>
	
		<line fill="none" stroke="#000000" stroke-linecap="round" stroke-linejoin="round" x1="972.87" y1="1159.18" x2="979.66" y2="1152.39"/>
	
		<line fill="none" stroke="#000000" stroke-linecap="round" stroke-linejoin="round" x1="986.44" y1="1162.57" x2="977.96" y2="1154.09"/>
	
		<line fill="none" stroke="#000000" stroke-linecap="round" stroke-linejoin="round" x1="764.68" y1="1131.55" x2="764.68" y2="1113.4"/>
	
		<line fill="none" stroke="#000000" stroke-linecap="round" stroke-linejoin="round" x1="886.5" y1="1116.55" x2="886.5" y2="1131.55"/>
	
		<line fill="none" stroke="#000000" stroke-width="0.7087" stroke-linecap="round" stroke-linejoin="round" x1="886.5" y1="1113.4" x2="886.5" y2="1116.55"/>
	
		<line fill="none" stroke="#000000" stroke-width="0.7087" stroke-linecap="round" stroke-linejoin="round" x1="822.9" y1="1116.55" x2="822.9" y2="1113.4"/>
	<line fill="none" stroke="#000000" stroke-linecap="round" stroke-linejoin="round" x1="886.5" y1="1117" x2="822.9" y2="1117"/>
	
		<line fill="none" stroke="#000000" stroke-width="0.7087" stroke-linecap="round" stroke-linejoin="round" x1="822.9" y1="1113.4" x2="886.5" y2="1113.4"/>
	
		<line fill="none" stroke="#000000" stroke-width="0.7087" stroke-linecap="round" stroke-linejoin="round" x1="886.5" y1="1116.55" x2="822.9" y2="1116.55"/>
	
		<line fill="none" stroke="#000000" stroke-width="0.7087" stroke-linecap="round" stroke-linejoin="round" x1="809.7" y1="1113.4" x2="809.7" y2="1116.55"/>
	
		<line fill="none" stroke="#000000" stroke-linecap="round" stroke-linejoin="round" x1="842.22" y1="1117.45" x2="867.42" y2="1117.45"/>
	
		<line fill="none" stroke="#000000" stroke-linecap="round" stroke-linejoin="round" x1="867.42" y1="1117.45" x2="867.42" y2="1130.05"/>
	
		<line fill="none" stroke="#000000" stroke-linecap="round" stroke-linejoin="round" x1="867.42" y1="1130.05" x2="842.22" y2="1130.05"/>
	
		<line fill="none" stroke="#000000" stroke-linecap="round" stroke-linejoin="round" x1="842.22" y1="1130.05" x2="842.22" y2="1117.45"/>
	<path fill="none" stroke="#000000" stroke-linecap="round" stroke-linejoin="round" d="M851.82,1118.8c0-0.42,0.18-0.6,0.6-0.6
		c0.42,0,0.6,0.18,0.6,0.6"/>
	<path fill="none" stroke="#000000" stroke-linecap="round" stroke-linejoin="round" d="M853.02,1118.8c0,0.42-0.18,0.6-0.6,0.6
		c-0.42,0-0.6-0.18-0.6-0.6"/>
	<path fill="none" stroke="#000000" stroke-linecap="round" stroke-linejoin="round" d="M856.62,1118.8c0-0.42,0.18-0.6,0.6-0.6
		c0.42,0,0.6,0.18,0.6,0.6"/>
	<path fill="none" stroke="#000000" stroke-linecap="round" stroke-linejoin="round" d="M857.82,1118.8c0,0.42-0.18,0.6-0.6,0.6
		c-0.42,0-0.6-0.18-0.6-0.6"/>
	<path fill="none" stroke="#000000" stroke-linecap="round" stroke-linejoin="round" d="M849.57,1124.65c0,0.42-0.18,0.6-0.6,0.6
		c-0.42,0-0.6-0.18-0.6-0.6"/>
	<path fill="none" stroke="#000000" stroke-linecap="round" stroke-linejoin="round" d="M848.37,1124.65c0-0.42,0.18-0.6,0.6-0.6
		c0.42,0,0.6,0.18,0.6,0.6"/>
	<path fill="none" stroke="#000000" stroke-linecap="round" stroke-linejoin="round" d="M861.27,1124.65c0,0.42-0.18,0.6-0.6,0.6
		c-0.42,0-0.6-0.18-0.6-0.6"/>
	<path fill="none" stroke="#000000" stroke-linecap="round" stroke-linejoin="round" d="M860.07,1124.65c0-0.42,0.18-0.6,0.6-0.6
		c0.42,0,0.6,0.18,0.6,0.6"/>
	<path fill="none" stroke="#000000" stroke-linecap="round" stroke-linejoin="round" d="M855.27,1121.35c0-0.85,0.35-1.2,1.2-1.2"/>
	<path fill="none" stroke="#000000" stroke-linecap="round" stroke-linejoin="round" d="M856.47,1129.15c-0.85,0-1.2-0.35-1.2-1.2"
		/>
	<path fill="none" stroke="#000000" stroke-linecap="round" stroke-linejoin="round" d="M854.37,1127.95c0,0.85-0.35,1.2-1.2,1.2"/>
	<path fill="none" stroke="#000000" stroke-linecap="round" stroke-linejoin="round" d="M853.17,1120.15c0.85,0,1.2,0.35,1.2,1.2"/>
	
		<line fill="none" stroke="#000000" stroke-linecap="round" stroke-linejoin="round" x1="856.47" y1="1120.15" x2="865.32" y2="1120.15"/>
	
		<line fill="none" stroke="#000000" stroke-linecap="round" stroke-linejoin="round" x1="853.17" y1="1129.15" x2="844.32" y2="1129.15"/>
	
		<line fill="none" stroke="#000000" stroke-linecap="round" stroke-linejoin="round" x1="854.37" y1="1121.35" x2="854.37" y2="1127.95"/>
	
		<line fill="none" stroke="#000000" stroke-linecap="round" stroke-linejoin="round" x1="855.27" y1="1121.35" x2="855.27" y2="1127.95"/>
	<path fill="none" stroke="#000000" stroke-linecap="round" stroke-linejoin="round" d="M855.12,1123.45c0,0.21-0.09,0.3-0.3,0.3
		c-0.21,0-0.3-0.09-0.3-0.3"/>
	
		<line fill="none" stroke="#000000" stroke-linecap="round" stroke-linejoin="round" x1="854.52" y1="1118.8" x2="854.52" y2="1123.45"/>
	
		<line fill="none" stroke="#000000" stroke-linecap="round" stroke-linejoin="round" x1="855.12" y1="1118.8" x2="855.12" y2="1123.45"/>
	<path fill="none" stroke="#000000" stroke-linecap="round" stroke-linejoin="round" d="M854.52,1118.8c0-0.21,0.09-0.3,0.3-0.3
		c0.21,0,0.3,0.09,0.3,0.3"/>
	<path fill="none" stroke="#000000" stroke-linecap="round" stroke-linejoin="round" d="M865.32,1120.15c0.85,0,1.2,0.35,1.2,1.2"/>
	<path fill="none" stroke="#000000" stroke-linecap="round" stroke-linejoin="round" d="M866.52,1127.95c0,0.85-0.35,1.2-1.2,1.2"/>
	<path fill="none" stroke="#000000" stroke-linecap="round" stroke-linejoin="round" d="M844.32,1129.15c-0.85,0-1.2-0.35-1.2-1.2"
		/>
	<path fill="none" stroke="#000000" stroke-linecap="round" stroke-linejoin="round" d="M843.12,1121.35c0-0.85,0.35-1.2,1.2-1.2"/>
	
		<line fill="none" stroke="#000000" stroke-linecap="round" stroke-linejoin="round" x1="844.32" y1="1120.15" x2="853.17" y2="1120.15"/>
	
		<line fill="none" stroke="#000000" stroke-linecap="round" stroke-linejoin="round" x1="843.12" y1="1127.95" x2="843.12" y2="1121.35"/>
	
		<line fill="none" stroke="#000000" stroke-linecap="round" stroke-linejoin="round" x1="865.32" y1="1129.15" x2="856.47" y2="1129.15"/>
	
		<line fill="none" stroke="#000000" stroke-linecap="round" stroke-linejoin="round" x1="866.52" y1="1121.35" x2="866.52" y2="1127.95"/>
	
		<rect x="746.1" y="1113.4" fill="none" stroke="#000000" stroke-linecap="round" stroke-linejoin="round" width="18.15" height="18.15"/>
	
		<line fill="none" stroke="#000000" stroke-width="0.7087" stroke-linecap="round" stroke-linejoin="round" x1="809.7" y1="1116.55" x2="764.68" y2="1116.55"/>
	
		<line fill="none" stroke="#000000" stroke-width="0.7087" stroke-linecap="round" stroke-linejoin="round" x1="764.68" y1="1113.4" x2="809.7" y2="1113.4"/>
	<line fill="none" stroke="#000000" stroke-linecap="round" stroke-linejoin="round" x1="809.7" y1="1117" x2="764.68" y2="1117"/>
	
		<line fill="none" stroke="#000000" stroke-linecap="round" stroke-linejoin="round" x1="886.5" y1="1131.55" x2="764.68" y2="1131.55"/>
	<path fill="none" stroke="#000000" stroke-linecap="round" stroke-linejoin="round" d="M956.68,1171.26c0,6.96,5.64,12.6,12.6,12.6
		c6.96,0,12.6-5.64,12.6-12.6"/>
</g>
<g id="FURN::0-FURN-RECEPTION">
	
		<line fill="none" stroke="#000000" stroke-linecap="round" stroke-linejoin="round" x1="1032.93" y1="514.87" x2="1032.93" y2="500.47"/>
	
		<line fill="none" stroke="#000000" stroke-linecap="round" stroke-linejoin="round" x1="1030.16" y1="500.47" x2="1044.56" y2="500.47"/>
	<path fill="none" stroke="#000000" stroke-linecap="round" stroke-linejoin="round" d="M1044.56,515.56c0-0.2,0.08-0.28,0.28-0.28
		s0.28,0.08,0.28,0.28c0,0.88,0,1.76,0,2.64c-5.17,0-10.34,0-15.51,0c0-7.02,0-14.03,0-21.05c5.17,0,10.34,0,15.51,0
		c0,0.88,0,1.75,0,2.63c0,0.2-0.08,0.28-0.28,0.28s-0.28-0.08-0.28-0.28"/>
	
		<rect x="1030.16" y="497.7" fill="none" stroke="#000000" stroke-linecap="round" stroke-linejoin="round" width="14.4" height="19.94"/>
	
		<line fill="none" stroke="#000000" stroke-linecap="round" stroke-linejoin="round" x1="1044.56" y1="493.83" x2="1030.16" y2="493.83"/>
	
		<line fill="none" stroke="#000000" stroke-linecap="round" stroke-linejoin="round" x1="1032.93" y1="493.83" x2="1032.93" y2="479.43"/>
	
		<line fill="none" stroke="#000000" stroke-linecap="round" stroke-linejoin="round" x1="1030.16" y1="479.43" x2="1044.56" y2="479.43"/>
	<path fill="none" stroke="#000000" stroke-linecap="round" stroke-linejoin="round" d="M1044.56,494.51c0-0.2,0.08-0.28,0.28-0.28
		s0.28,0.08,0.28,0.28c0,0.88,0,1.76,0,2.64c-5.17,0-10.34,0-15.51,0c0-7.02,0-14.03,0-21.05c5.17,0,10.34,0,15.51,0
		c0,0.88,0,1.75,0,2.63c0,0.2-0.08,0.28-0.28,0.28s-0.28-0.08-0.28-0.28"/>
	
		<rect x="1030.16" y="476.66" fill="none" stroke="#000000" stroke-linecap="round" stroke-linejoin="round" width="14.4" height="19.94"/>
	
		<line fill="none" stroke="#000000" stroke-linecap="round" stroke-linejoin="round" x1="1075.85" y1="493.83" x2="1090.25" y2="493.83"/>
	
		<line fill="none" stroke="#000000" stroke-linecap="round" stroke-linejoin="round" x1="1087.48" y1="493.83" x2="1087.48" y2="479.43"/>
	
		<line fill="none" stroke="#000000" stroke-linecap="round" stroke-linejoin="round" x1="1090.25" y1="479.43" x2="1075.85" y2="479.43"/>
	<path fill="none" stroke="#000000" stroke-linecap="round" stroke-linejoin="round" d="M1075.85,494.51c0-0.2-0.08-0.28-0.28-0.28
		s-0.28,0.08-0.28,0.28c0,0.88,0,1.76,0,2.64c5.17,0,10.34,0,15.51,0c0-7.02,0-14.03,0-21.05c-5.17,0-10.34,0-15.51,0
		c0,0.88,0,1.75,0,2.63c0,0.2,0.08,0.28,0.28,0.28s0.28-0.08,0.28-0.28"/>
	
		<rect x="1075.85" y="476.66" fill="none" stroke="#000000" stroke-linecap="round" stroke-linejoin="round" width="14.4" height="19.94"/>
	<path fill="none" stroke="#000000" stroke-linecap="round" stroke-linejoin="round" d="M1067.4,512.35c0,0.85-0.35,1.2-1.2,1.2"/>
	
		<line fill="none" stroke="#000000" stroke-linecap="round" stroke-linejoin="round" x1="1054.2" y1="513.55" x2="1066.2" y2="513.55"/>
	<path fill="none" stroke="#000000" stroke-linecap="round" stroke-linejoin="round" d="M1054.2,513.55c-0.85,0-1.2-0.35-1.2-1.2"/>
	
		<line fill="none" stroke="#000000" stroke-linecap="round" stroke-linejoin="round" x1="1066.2" y1="478.11" x2="1054.2" y2="478.11"/>
	<line fill="none" stroke="#000000" stroke-linecap="round" stroke-linejoin="round" x1="1053" y1="479.31" x2="1053" y2="512.35"/>
	<path fill="none" stroke="#000000" stroke-linecap="round" stroke-linejoin="round" d="M1053,479.31c0-0.85,0.35-1.2,1.2-1.2"/>
	
		<line fill="none" stroke="#000000" stroke-linecap="round" stroke-linejoin="round" x1="1067.4" y1="512.35" x2="1067.4" y2="479.31"/>
	<path fill="none" stroke="#000000" stroke-linecap="round" stroke-linejoin="round" d="M1066.2,478.11c0.85,0,1.2,0.35,1.2,1.2"/>
	
		<line fill="none" stroke="#000000" stroke-linecap="round" stroke-linejoin="round" x1="1110.84" y1="500.47" x2="1096.44" y2="500.47"/>
	
		<line fill="none" stroke="#000000" stroke-linecap="round" stroke-linejoin="round" x1="1099.21" y1="500.47" x2="1099.21" y2="514.87"/>
	
		<line fill="none" stroke="#000000" stroke-linecap="round" stroke-linejoin="round" x1="1096.44" y1="514.87" x2="1110.84" y2="514.87"/>
	<path fill="none" stroke="#000000" stroke-linecap="round" stroke-linejoin="round" d="M1110.84,499.79c0,0.2,0.08,0.28,0.28,0.28
		s0.28-0.08,0.28-0.28c0-0.88,0-1.76,0-2.64c-5.17,0-10.34,0-15.51,0c0,7.02,0,14.03,0,21.05c5.17,0,10.34,0,15.51,0
		c0-0.88,0-1.75,0-2.63c0-0.2-0.08-0.28-0.28-0.28s-0.28,0.08-0.28,0.28"/>
	
		<rect x="1096.44" y="497.7" fill="none" stroke="#000000" stroke-linecap="round" stroke-linejoin="round" width="14.4" height="19.94"/>
	
		<rect x="1146.84" y="497.7" fill="none" stroke="#000000" stroke-linecap="round" stroke-linejoin="round" width="14.4" height="19.94"/>
	<path fill="none" stroke="#000000" stroke-linecap="round" stroke-linejoin="round" d="M1146.84,499.79c0,0.2-0.08,0.28-0.28,0.28
		c-0.2,0-0.28-0.08-0.28-0.28c0-0.88,0-1.76,0-2.64c5.17,0,10.34,0,15.51,0c0,7.02,0,14.03,0,21.05c-5.17,0-10.34,0-15.51,0
		c0-0.88,0-1.75,0-2.63c0-0.2,0.08-0.28,0.28-0.28c0.2,0,0.28,0.08,0.28,0.28"/>
	
		<line fill="none" stroke="#000000" stroke-linecap="round" stroke-linejoin="round" x1="1161.24" y1="514.87" x2="1146.84" y2="514.87"/>
	
		<line fill="none" stroke="#000000" stroke-linecap="round" stroke-linejoin="round" x1="1158.47" y1="500.47" x2="1158.47" y2="514.87"/>
	
		<line fill="none" stroke="#000000" stroke-linecap="round" stroke-linejoin="round" x1="1146.84" y1="500.47" x2="1161.24" y2="500.47"/>
	<path fill="none" stroke="#000000" stroke-linecap="round" stroke-linejoin="round" d="M1121.64,513.67c0,0.85,0.35,1.2,1.2,1.2"/>
	
		<line fill="none" stroke="#000000" stroke-linecap="round" stroke-linejoin="round" x1="1134.84" y1="514.87" x2="1122.84" y2="514.87"/>
	<path fill="none" stroke="#000000" stroke-linecap="round" stroke-linejoin="round" d="M1134.84,514.87c0.85,0,1.2-0.35,1.2-1.2"/>
	
		<line fill="none" stroke="#000000" stroke-linecap="round" stroke-linejoin="round" x1="1146.84" y1="479.43" x2="1161.24" y2="479.43"/>
	
		<line fill="none" stroke="#000000" stroke-linecap="round" stroke-linejoin="round" x1="1158.47" y1="479.43" x2="1158.47" y2="493.83"/>
	
		<line fill="none" stroke="#000000" stroke-linecap="round" stroke-linejoin="round" x1="1161.24" y1="493.83" x2="1146.84" y2="493.83"/>
	
		<rect x="1146.84" y="476.66" fill="none" stroke="#000000" stroke-linecap="round" stroke-linejoin="round" width="14.4" height="19.94"/>
	
		<rect x="1096.44" y="476.66" fill="none" stroke="#000000" stroke-linecap="round" stroke-linejoin="round" width="14.4" height="19.94"/>
	<path fill="none" stroke="#000000" stroke-linecap="round" stroke-linejoin="round" d="M1110.84,478.74c0,0.2,0.08,0.28,0.28,0.28
		s0.28-0.08,0.28-0.28c0-0.88,0-1.76,0-2.64c-5.17,0-10.34,0-15.51,0c0,7.02,0,14.03,0,21.05c5.17,0,10.34,0,15.51,0
		c0-0.88,0-1.75,0-2.63c0-0.2-0.08-0.28-0.28-0.28s-0.28,0.08-0.28,0.28"/>
	
		<line fill="none" stroke="#000000" stroke-linecap="round" stroke-linejoin="round" x1="1096.44" y1="493.83" x2="1110.84" y2="493.83"/>
	
		<line fill="none" stroke="#000000" stroke-linecap="round" stroke-linejoin="round" x1="1099.21" y1="479.43" x2="1099.21" y2="493.83"/>
	
		<line fill="none" stroke="#000000" stroke-linecap="round" stroke-linejoin="round" x1="1110.84" y1="479.43" x2="1096.44" y2="479.43"/>
	
		<line fill="none" stroke="#000000" stroke-linecap="round" stroke-linejoin="round" x1="1122.84" y1="479.43" x2="1134.84" y2="479.43"/>
	
		<line fill="none" stroke="#000000" stroke-linecap="round" stroke-linejoin="round" x1="1136.04" y1="480.63" x2="1136.04" y2="513.67"/>
	<path fill="none" stroke="#000000" stroke-linecap="round" stroke-linejoin="round" d="M1136.04,480.63c0-0.85-0.35-1.2-1.2-1.2"/>
	
		<line fill="none" stroke="#000000" stroke-linecap="round" stroke-linejoin="round" x1="1121.64" y1="513.67" x2="1121.64" y2="480.63"/>
	<path fill="none" stroke="#000000" stroke-linecap="round" stroke-linejoin="round" d="M1122.84,479.43c-0.85,0-1.2,0.35-1.2,1.2"
		/>
	<path fill="none" stroke="#000000" stroke-linecap="round" stroke-linejoin="round" d="M1146.84,478.74c0,0.2-0.08,0.28-0.28,0.28
		c-0.2,0-0.28-0.08-0.28-0.28c0-0.88,0-1.76,0-2.64c5.17,0,10.34,0,15.51,0c0,7.02,0,14.03,0,21.05c-5.17,0-10.34,0-15.51,0
		c0-0.88,0-1.75,0-2.63c0-0.2,0.08-0.28,0.28-0.28c0.2,0,0.28,0.08,0.28,0.28"/>
	<polyline fill="none" stroke="#000000" stroke-linecap="round" stroke-linejoin="round" points="1164,428.91 1164,397.48 
		1149.6,397.48 1149.6,411.88 	"/>
	
		<line fill="none" stroke="#000000" stroke-linecap="round" stroke-linejoin="round" x1="1099.2" y1="411.88" x2="1149.6" y2="411.88"/>
	
		<line fill="none" stroke="#000000" stroke-linecap="round" stroke-linejoin="round" x1="1164" y1="428.91" x2="1099.2" y2="428.91"/>
	
		<line fill="none" stroke="#000000" stroke-linecap="round" stroke-linejoin="round" x1="1034.4" y1="428.91" x2="1099.2" y2="428.91"/>
	
		<line fill="none" stroke="#000000" stroke-linecap="round" stroke-linejoin="round" x1="1099.2" y1="411.88" x2="1048.8" y2="411.88"/>
	<polyline fill="none" stroke="#000000" stroke-linecap="round" stroke-linejoin="round" points="1034.4,428.91 1034.4,397.48 
		1048.8,397.48 1048.8,411.88 	"/>
	
		<line fill="none" stroke="#000000" stroke-linecap="round" stroke-linejoin="round" x1="1067.5" y1="411.88" x2="1067.5" y2="402.83"/>
	
		<line fill="none" stroke="#000000" stroke-linecap="round" stroke-linejoin="round" x1="1080.4" y1="402.83" x2="1080.4" y2="411.88"/>
	<path fill="none" stroke="#000000" stroke-linecap="round" stroke-linejoin="round" d="M1080.4,402.83c0-0.42-0.18-0.6-0.6-0.6"/>
	
		<line fill="none" stroke="#000000" stroke-linecap="round" stroke-linejoin="round" x1="1068.1" y1="402.23" x2="1079.8" y2="402.23"/>
	<path fill="none" stroke="#000000" stroke-linecap="round" stroke-linejoin="round" d="M1068.1,402.23c-0.42,0-0.6,0.18-0.6,0.6"/>
	<path fill="none" stroke="#000000" stroke-linecap="round" stroke-linejoin="round" d="M1080.25,402.83c0-0.42-0.18-0.6-0.6-0.6"/>
	<path fill="none" stroke="#000000" stroke-linecap="round" stroke-linejoin="round" d="M1068.25,402.23c-0.42,0-0.6,0.18-0.6,0.6"
		/>
	<path fill="none" stroke="#000000" stroke-linecap="round" stroke-linejoin="round" d="M1079.05,405.1c0.85,0,1.2-0.35,1.2-1.2"/>
	<path fill="none" stroke="#000000" stroke-linecap="round" stroke-linejoin="round" d="M1067.65,403.9c0,0.85,0.35,1.2,1.2,1.2"/>
	
		<line fill="none" stroke="#000000" stroke-linecap="round" stroke-linejoin="round" x1="1080.25" y1="402.83" x2="1080.25" y2="403.9"/>
	
		<line fill="none" stroke="#000000" stroke-linecap="round" stroke-linejoin="round" x1="1068.85" y1="405.1" x2="1079.05" y2="405.1"/>
	
		<line fill="none" stroke="#000000" stroke-linecap="round" stroke-linejoin="round" x1="1067.65" y1="402.83" x2="1067.65" y2="403.9"/>
	
		<line fill="none" stroke="#000000" stroke-linecap="round" stroke-linejoin="round" x1="1131.32" y1="402.83" x2="1131.32" y2="403.9"/>
	
		<line fill="none" stroke="#000000" stroke-linecap="round" stroke-linejoin="round" x1="1130.12" y1="405.1" x2="1119.92" y2="405.1"/>
	
		<line fill="none" stroke="#000000" stroke-linecap="round" stroke-linejoin="round" x1="1118.72" y1="402.83" x2="1118.72" y2="403.9"/>
	<path fill="none" stroke="#000000" stroke-linecap="round" stroke-linejoin="round" d="M1131.32,403.9c0,0.85-0.35,1.2-1.2,1.2"/>
	<path fill="none" stroke="#000000" stroke-linecap="round" stroke-linejoin="round" d="M1119.92,405.1c-0.85,0-1.2-0.35-1.2-1.2"/>
	<path fill="none" stroke="#000000" stroke-linecap="round" stroke-linejoin="round" d="M1130.72,402.23c0.42,0,0.6,0.18,0.6,0.6"/>
	<path fill="none" stroke="#000000" stroke-linecap="round" stroke-linejoin="round" d="M1118.72,402.83c0-0.42,0.18-0.6,0.6-0.6"/>
	<path fill="none" stroke="#000000" stroke-linecap="round" stroke-linejoin="round" d="M1130.87,402.23c0.42,0,0.6,0.18,0.6,0.6"/>
	
		<line fill="none" stroke="#000000" stroke-linecap="round" stroke-linejoin="round" x1="1130.87" y1="402.23" x2="1119.17" y2="402.23"/>
	<path fill="none" stroke="#000000" stroke-linecap="round" stroke-linejoin="round" d="M1118.57,402.83c0-0.42,0.18-0.6,0.6-0.6"/>
	
		<line fill="none" stroke="#000000" stroke-linecap="round" stroke-linejoin="round" x1="1118.57" y1="402.83" x2="1118.57" y2="411.88"/>
	
		<line fill="none" stroke="#000000" stroke-linecap="round" stroke-linejoin="round" x1="1131.47" y1="411.88" x2="1131.47" y2="402.83"/>
	
		<line fill="none" stroke="#000000" stroke-linecap="round" stroke-linejoin="round" x1="1044.56" y1="514.87" x2="1030.16" y2="514.87"/>
</g>
</svg>
