<?xml version="1.0" encoding="utf-8"?>
<!-- Generator: Adobe Illustrator 18.1.1, SVG Export Plug-In . SVG Version: 6.00 Build 0)  -->
<!DOCTYPE svg PUBLIC "-//W3C//DTD SVG 1.1//EN" "http://www.w3.org/Graphics/SVG/1.1/DTD/svg11.dtd">
<svg version="1.1" id="FURN_x24_0-FURN-PANTRY" xmlns="http://www.w3.org/2000/svg" xmlns:xlink="http://www.w3.org/1999/xlink"
	 x="0px" y="0px" width="612px" height="792px" viewBox="0 0 612 792" enable-background="new 0 0 612 792" xml:space="preserve">
<g>
	<g id="ARC_1552_">
		<path fill="none" stroke="#000000" stroke-linecap="round" stroke-linejoin="round" stroke-miterlimit="10" d="M652.67-16.35
			c0.92,0,1.67,0.75,1.67,1.67"/>
	</g>
	<g id="LINE_4398_">
		
			<line fill="none" stroke="#000000" stroke-linecap="round" stroke-linejoin="round" stroke-miterlimit="10" x1="654.33" y1="31.22" x2="654.33" y2="-14.68"/>
	</g>
	<g id="ARC_1553_">
		<path fill="none" stroke="#000000" stroke-linecap="round" stroke-linejoin="round" stroke-miterlimit="10" d="M634.33-14.68
			c0-0.92,0.75-1.67,1.67-1.67"/>
	</g>
	<g id="LINE_4399_">
		
			<line fill="none" stroke="#000000" stroke-linecap="round" stroke-linejoin="round" stroke-miterlimit="10" x1="634.33" y1="-14.68" x2="634.33" y2="31.22"/>
	</g>
	<g id="LINE_4400_">
		
			<line fill="none" stroke="#000000" stroke-linecap="round" stroke-linejoin="round" stroke-miterlimit="10" x1="652.67" y1="-16.35" x2="636" y2="-16.35"/>
	</g>
	<g id="ARC_1554_">
		<path fill="none" stroke="#000000" stroke-linecap="round" stroke-linejoin="round" stroke-miterlimit="10" d="M636,32.89
			c-0.92,0-1.67-0.75-1.67-1.67"/>
	</g>
	<g id="LINE_4401_">
		
			<line fill="none" stroke="#000000" stroke-linecap="round" stroke-linejoin="round" stroke-miterlimit="10" x1="636" y1="32.89" x2="652.67" y2="32.89"/>
	</g>
	<g id="ARC_1555_">
		<path fill="none" stroke="#000000" stroke-linecap="round" stroke-linejoin="round" stroke-miterlimit="10" d="M654.33,31.22
			c0,0.92-0.75,1.67-1.67,1.67"/>
	</g>
	<g id="POLYLINE_2081_">
		<polyline fill="none" stroke="#000000" stroke-linecap="round" stroke-linejoin="round" stroke-miterlimit="10" points="
			686.06,9.33 686.06,-18.36 666.06,-18.36 666.06,9.33 686.06,9.33 		"/>
	</g>
	<g id="POLYLINE_2082_">
		<path fill="none" stroke="#000000" stroke-linecap="round" stroke-linejoin="round" stroke-miterlimit="10" d="M666.06,6.44
			c0-0.21-0.17-0.38-0.38-0.38s-0.38,0.17-0.38,0.38v3.66h21.54v-29.23c0,0-21.54,0-21.54,0v3.65c0,0.21,0.17,0.38,0.38,0.38
			s0.38-0.17,0.38-0.38"/>
	</g>
	<g id="LINE_4402_">
		
			<line fill="none" stroke="#000000" stroke-linecap="round" stroke-linejoin="round" stroke-miterlimit="10" x1="686.06" y1="-14.51" x2="666.06" y2="-14.51"/>
	</g>
	<g id="LINE_4403_">
		
			<line fill="none" stroke="#000000" stroke-linecap="round" stroke-linejoin="round" stroke-miterlimit="10" x1="682.22" y1="5.49" x2="682.22" y2="-14.51"/>
	</g>
	<g id="LINE_4404_">
		
			<line fill="none" stroke="#000000" stroke-linecap="round" stroke-linejoin="round" stroke-miterlimit="10" x1="666.06" y1="5.49" x2="686.06" y2="5.49"/>
	</g>
	<g id="POLYLINE_2083_">
		<polyline fill="none" stroke="#000000" stroke-linecap="round" stroke-linejoin="round" stroke-miterlimit="10" points="
			602.6,9.33 602.6,-18.36 622.6,-18.36 622.6,9.33 602.6,9.33 		"/>
	</g>
	<g id="POLYLINE_2084_">
		<path fill="none" stroke="#000000" stroke-linecap="round" stroke-linejoin="round" stroke-miterlimit="10" d="M622.6,6.44
			c0-0.21,0.17-0.38,0.38-0.38s0.38,0.17,0.38,0.38v3.66h-21.54v-29.23h21.54v3.65c0,0.21-0.17,0.38-0.38,0.38s-0.38-0.17-0.38-0.38
			"/>
	</g>
	<g id="LINE_4405_">
		
			<line fill="none" stroke="#000000" stroke-linecap="round" stroke-linejoin="round" stroke-miterlimit="10" x1="602.6" y1="-14.51" x2="622.6" y2="-14.51"/>
	</g>
	<g id="LINE_4406_">
		
			<line fill="none" stroke="#000000" stroke-linecap="round" stroke-linejoin="round" stroke-miterlimit="10" x1="606.45" y1="5.49" x2="606.45" y2="-14.51"/>
	</g>
	<g id="LINE_4407_">
		
			<line fill="none" stroke="#000000" stroke-linecap="round" stroke-linejoin="round" stroke-miterlimit="10" x1="622.6" y1="5.49" x2="602.6" y2="5.49"/>
	</g>
	<g id="POLYLINE_2085_">
		<polyline fill="none" stroke="#000000" stroke-linecap="round" stroke-linejoin="round" stroke-miterlimit="10" points="
			602.6,38.56 602.6,10.87 622.6,10.87 622.6,38.56 602.6,38.56 		"/>
	</g>
	<g id="POLYLINE_2086_">
		<path fill="none" stroke="#000000" stroke-linecap="round" stroke-linejoin="round" stroke-miterlimit="10" d="M622.6,35.67
			c0-0.21,0.17-0.38,0.38-0.38s0.38,0.17,0.38,0.38v3.66h-21.54V10.1h21.54v3.65c0,0.21-0.17,0.38-0.38,0.38s-0.38-0.17-0.38-0.38"
			/>
	</g>
	<g id="LINE_4408_">
		
			<line fill="none" stroke="#000000" stroke-linecap="round" stroke-linejoin="round" stroke-miterlimit="10" x1="602.6" y1="14.72" x2="622.6" y2="14.72"/>
	</g>
	<g id="LINE_4409_">
		
			<line fill="none" stroke="#000000" stroke-linecap="round" stroke-linejoin="round" stroke-miterlimit="10" x1="606.45" y1="34.72" x2="606.45" y2="14.72"/>
	</g>
	<g id="LINE_4410_">
		
			<line fill="none" stroke="#000000" stroke-linecap="round" stroke-linejoin="round" stroke-miterlimit="10" x1="622.6" y1="34.72" x2="602.6" y2="34.72"/>
	</g>
	<g id="POLYLINE_2087_">
		<path fill="none" stroke="#000000" stroke-linecap="round" stroke-linejoin="round" stroke-miterlimit="10" d="M764.66-15.47
			c0,0.21-0.17,0.38-0.38,0.38c-0.21,0-0.38-0.17-0.38-0.38v-3.66h21.54c0,0,0,29.23,0,29.23h-21.54V6.45
			c0-0.21,0.17-0.38,0.38-0.38c0.21,0,0.38,0.17,0.38,0.38"/>
	</g>
	<g id="ARC_1556_">
		<path fill="none" stroke="#000000" stroke-linecap="round" stroke-linejoin="round" stroke-miterlimit="10" d="M731.32-14.51
			c-0.92,0-1.67,0.75-1.67,1.67"/>
	</g>
	<g id="LINE_4411_">
		
			<line fill="none" stroke="#000000" stroke-linecap="round" stroke-linejoin="round" stroke-miterlimit="10" x1="729.66" y1="33.05" x2="729.66" y2="-12.85"/>
	</g>
	<g id="ARC_1557_">
		<path fill="none" stroke="#000000" stroke-linecap="round" stroke-linejoin="round" stroke-miterlimit="10" d="M749.66-12.85
			c0-0.92-0.75-1.67-1.67-1.67"/>
	</g>
	<g id="LINE_4412_">
		
			<line fill="none" stroke="#000000" stroke-linecap="round" stroke-linejoin="round" stroke-miterlimit="10" x1="749.66" y1="-12.85" x2="749.66" y2="33.05"/>
	</g>
	<g id="LINE_4413_">
		
			<line fill="none" stroke="#000000" stroke-linecap="round" stroke-linejoin="round" stroke-miterlimit="10" x1="731.32" y1="-14.51" x2="747.99" y2="-14.51"/>
	</g>
	<g id="LINE_4414_">
		
			<line fill="none" stroke="#000000" stroke-linecap="round" stroke-linejoin="round" stroke-miterlimit="10" x1="714.66" y1="-14.51" x2="694.66" y2="-14.51"/>
	</g>
	<g id="LINE_4415_">
		
			<line fill="none" stroke="#000000" stroke-linecap="round" stroke-linejoin="round" stroke-miterlimit="10" x1="698.5" y1="-14.51" x2="698.5" y2="5.49"/>
	</g>
	<g id="LINE_4416_">
		
			<line fill="none" stroke="#000000" stroke-linecap="round" stroke-linejoin="round" stroke-miterlimit="10" x1="694.66" y1="5.49" x2="714.66" y2="5.49"/>
	</g>
	<g id="POLYLINE_2088_">
		<path fill="none" stroke="#000000" stroke-linecap="round" stroke-linejoin="round" stroke-miterlimit="10" d="M714.66-15.47
			c0,0.21,0.17,0.38,0.38,0.38c0.21,0,0.38-0.17,0.38-0.38v-3.66h-21.54V10.1h21.54V6.45c0-0.21-0.17-0.38-0.38-0.38
			c-0.21,0-0.38,0.17-0.38,0.38"/>
	</g>
	<g id="POLYLINE_2089_">
		<polyline fill="none" stroke="#000000" stroke-linecap="round" stroke-linejoin="round" stroke-miterlimit="10" points="
			694.66,-18.36 694.66,9.33 714.66,9.33 714.66,-18.36 694.66,-18.36 		"/>
	</g>
	<g id="POLYLINE_2090_">
		<polyline fill="none" stroke="#000000" stroke-linecap="round" stroke-linejoin="round" stroke-miterlimit="10" points="
			784.66,-18.36 784.66,9.33 764.66,9.33 764.66,-18.36 784.66,-18.36 		"/>
	</g>
	<g id="LINE_4417_">
		
			<line fill="none" stroke="#000000" stroke-linecap="round" stroke-linejoin="round" stroke-miterlimit="10" x1="784.66" y1="5.49" x2="764.66" y2="5.49"/>
	</g>
	<g id="LINE_4418_">
		
			<line fill="none" stroke="#000000" stroke-linecap="round" stroke-linejoin="round" stroke-miterlimit="10" x1="780.81" y1="-14.51" x2="780.81" y2="5.49"/>
	</g>
	<g id="LINE_4419_">
		
			<line fill="none" stroke="#000000" stroke-linecap="round" stroke-linejoin="round" stroke-miterlimit="10" x1="764.66" y1="-14.51" x2="784.66" y2="-14.51"/>
	</g>
	<g id="ARC_1558_">
		<path fill="none" stroke="#000000" stroke-linecap="round" stroke-linejoin="round" stroke-miterlimit="10" d="M747.99,34.72
			c0.92,0,1.67-0.75,1.67-1.67"/>
	</g>
	<g id="LINE_4420_">
		
			<line fill="none" stroke="#000000" stroke-linecap="round" stroke-linejoin="round" stroke-miterlimit="10" x1="747.99" y1="34.72" x2="731.32" y2="34.72"/>
	</g>
	<g id="ARC_1559_">
		<path fill="none" stroke="#000000" stroke-linecap="round" stroke-linejoin="round" stroke-miterlimit="10" d="M729.66,33.05
			c0,0.92,0.75,1.67,1.67,1.67"/>
	</g>
	<g id="LINE_4421_">
		
			<line fill="none" stroke="#000000" stroke-linecap="round" stroke-linejoin="round" stroke-miterlimit="10" x1="764.66" y1="14.72" x2="784.66" y2="14.72"/>
	</g>
	<g id="LINE_4422_">
		
			<line fill="none" stroke="#000000" stroke-linecap="round" stroke-linejoin="round" stroke-miterlimit="10" x1="780.81" y1="14.72" x2="780.81" y2="34.72"/>
	</g>
	<g id="LINE_4423_">
		
			<line fill="none" stroke="#000000" stroke-linecap="round" stroke-linejoin="round" stroke-miterlimit="10" x1="784.66" y1="34.72" x2="764.66" y2="34.72"/>
	</g>
	<g id="POLYLINE_2091_">
		<path fill="none" stroke="#000000" stroke-linecap="round" stroke-linejoin="round" stroke-miterlimit="10" d="M764.66,13.76
			c0,0.21-0.17,0.38-0.38,0.38c-0.21,0-0.38-0.17-0.38-0.38V10.1h21.54v29.23h-21.54v-3.65c0-0.21,0.17-0.38,0.38-0.38
			c0.21,0,0.38,0.17,0.38,0.38"/>
	</g>
	<g id="POLYLINE_2092_">
		<polyline fill="none" stroke="#000000" stroke-linecap="round" stroke-linejoin="round" stroke-miterlimit="10" points="
			784.66,10.87 784.66,38.56 764.66,38.56 764.66,10.87 784.66,10.87 		"/>
	</g>
	<g id="POLYLINE_2093_">
		<polyline fill="none" stroke="#000000" stroke-linecap="round" stroke-linejoin="round" stroke-miterlimit="10" points="
			694.66,10.87 694.66,38.56 714.66,38.56 714.66,10.87 694.66,10.87 		"/>
	</g>
	<g id="POLYLINE_2094_">
		<path fill="none" stroke="#000000" stroke-linecap="round" stroke-linejoin="round" stroke-miterlimit="10" d="M714.66,13.76
			c0,0.21,0.17,0.38,0.38,0.38c0.21,0,0.38-0.17,0.38-0.38V10.1h-21.54v29.23h21.54v-3.65c0-0.21-0.17-0.38-0.38-0.38
			c-0.21,0-0.38,0.17-0.38,0.38"/>
	</g>
	<g id="LINE_4424_">
		
			<line fill="none" stroke="#000000" stroke-linecap="round" stroke-linejoin="round" stroke-miterlimit="10" x1="694.66" y1="34.72" x2="714.66" y2="34.72"/>
	</g>
	<g id="LINE_4425_">
		
			<line fill="none" stroke="#000000" stroke-linecap="round" stroke-linejoin="round" stroke-miterlimit="10" x1="698.5" y1="14.72" x2="698.5" y2="34.72"/>
	</g>
	<g id="LINE_4426_">
		
			<line fill="none" stroke="#000000" stroke-linecap="round" stroke-linejoin="round" stroke-miterlimit="10" x1="714.66" y1="14.72" x2="694.66" y2="14.72"/>
	</g>
	<g id="LINE_4427_">
		
			<line fill="none" stroke="#000000" stroke-linecap="round" stroke-linejoin="round" stroke-miterlimit="10" x1="743.31" y1="-108.33" x2="743.31" y2="-120.9"/>
	</g>
	<g id="LINE_4428_">
		
			<line fill="none" stroke="#000000" stroke-linecap="round" stroke-linejoin="round" stroke-miterlimit="10" x1="725.39" y1="-120.9" x2="725.39" y2="-108.33"/>
	</g>
	<g id="ARC_1560_">
		<path fill="none" stroke="#000000" stroke-linecap="round" stroke-linejoin="round" stroke-miterlimit="10" d="M726.23-121.73
			c-0.46,0-0.83,0.37-0.83,0.83"/>
	</g>
	<g id="LINE_4429_">
		
			<line fill="none" stroke="#000000" stroke-linecap="round" stroke-linejoin="round" stroke-miterlimit="10" x1="742.48" y1="-121.73" x2="726.23" y2="-121.73"/>
	</g>
	<g id="ARC_1561_">
		<path fill="none" stroke="#000000" stroke-linecap="round" stroke-linejoin="round" stroke-miterlimit="10" d="M743.31-120.9
			c0-0.46-0.37-0.83-0.83-0.83"/>
	</g>
	<g id="ARC_1562_">
		<path fill="none" stroke="#000000" stroke-linecap="round" stroke-linejoin="round" stroke-miterlimit="10" d="M726.44-121.73
			c-0.46,0-0.83,0.37-0.83,0.83"/>
	</g>
	<g id="ARC_1563_">
		<path fill="none" stroke="#000000" stroke-linecap="round" stroke-linejoin="round" stroke-miterlimit="10" d="M743.1-120.9
			c0-0.46-0.37-0.83-0.83-0.83"/>
	</g>
	<g id="ARC_1564_">
		<path fill="none" stroke="#000000" stroke-linecap="round" stroke-linejoin="round" stroke-miterlimit="10" d="M725.6-119.41
			c0,0.92,0.75,1.67,1.67,1.67"/>
	</g>
	<g id="ARC_1565_">
		<path fill="none" stroke="#000000" stroke-linecap="round" stroke-linejoin="round" stroke-miterlimit="10" d="M741.44-117.75
			c0.92,0,1.67-0.75,1.67-1.67"/>
	</g>
	<g id="LINE_4430_">
		
			<line fill="none" stroke="#000000" stroke-linecap="round" stroke-linejoin="round" stroke-miterlimit="10" x1="725.6" y1="-120.9" x2="725.6" y2="-119.41"/>
	</g>
	<g id="LINE_4431_">
		
			<line fill="none" stroke="#000000" stroke-linecap="round" stroke-linejoin="round" stroke-miterlimit="10" x1="741.44" y1="-117.75" x2="727.27" y2="-117.75"/>
	</g>
	<g id="LINE_4432_">
		
			<line fill="none" stroke="#000000" stroke-linecap="round" stroke-linejoin="round" stroke-miterlimit="10" x1="743.1" y1="-120.9" x2="743.1" y2="-119.41"/>
	</g>
	<g id="LINE_4433_">
		
			<line fill="none" stroke="#000000" stroke-linecap="round" stroke-linejoin="round" stroke-miterlimit="10" x1="654.67" y1="-120.9" x2="654.67" y2="-119.41"/>
	</g>
	<g id="LINE_4434_">
		
			<line fill="none" stroke="#000000" stroke-linecap="round" stroke-linejoin="round" stroke-miterlimit="10" x1="656.34" y1="-117.75" x2="670.51" y2="-117.75"/>
	</g>
	<g id="LINE_4435_">
		
			<line fill="none" stroke="#000000" stroke-linecap="round" stroke-linejoin="round" stroke-miterlimit="10" x1="672.17" y1="-120.9" x2="672.17" y2="-119.41"/>
	</g>
	<g id="ARC_1566_">
		<path fill="none" stroke="#000000" stroke-linecap="round" stroke-linejoin="round" stroke-miterlimit="10" d="M654.67-119.41
			c0,0.92,0.75,1.67,1.67,1.67"/>
	</g>
	<g id="ARC_1567_">
		<path fill="none" stroke="#000000" stroke-linecap="round" stroke-linejoin="round" stroke-miterlimit="10" d="M670.51-117.75
			c0.92,0,1.67-0.75,1.67-1.67"/>
	</g>
	<g id="ARC_1568_">
		<path fill="none" stroke="#000000" stroke-linecap="round" stroke-linejoin="round" stroke-miterlimit="10" d="M655.51-121.73
			c-0.46,0-0.83,0.37-0.83,0.83"/>
	</g>
	<g id="ARC_1569_">
		<path fill="none" stroke="#000000" stroke-linecap="round" stroke-linejoin="round" stroke-miterlimit="10" d="M672.17-120.9
			c0-0.46-0.37-0.83-0.83-0.83"/>
	</g>
	<g id="ARC_1570_">
		<path fill="none" stroke="#000000" stroke-linecap="round" stroke-linejoin="round" stroke-miterlimit="10" d="M655.3-121.73
			c-0.46,0-0.83,0.37-0.83,0.83"/>
	</g>
	<g id="LINE_4436_">
		
			<line fill="none" stroke="#000000" stroke-linecap="round" stroke-linejoin="round" stroke-miterlimit="10" x1="655.3" y1="-121.73" x2="671.55" y2="-121.73"/>
	</g>
	<g id="ARC_1571_">
		<path fill="none" stroke="#000000" stroke-linecap="round" stroke-linejoin="round" stroke-miterlimit="10" d="M672.38-120.9
			c0-0.46-0.37-0.83-0.83-0.83"/>
	</g>
	<g id="LINE_4437_">
		
			<line fill="none" stroke="#000000" stroke-linecap="round" stroke-linejoin="round" stroke-miterlimit="10" x1="672.38" y1="-120.9" x2="672.38" y2="-108.33"/>
	</g>
	<g id="LINE_4438_">
		
			<line fill="none" stroke="#000000" stroke-linecap="round" stroke-linejoin="round" stroke-miterlimit="10" x1="654.46" y1="-108.33" x2="654.46" y2="-120.9"/>
	</g>
	<g id="POLYLINE_2095_">
		<polyline fill="none" stroke="#000000" stroke-linecap="round" stroke-linejoin="round" stroke-miterlimit="10" points="
			608.5,-84.67 608.5,-128.33 628.5,-128.33 628.5,-108.33 		"/>
	</g>
	<g id="LINE_4439_">
		
			<line fill="none" stroke="#000000" stroke-linecap="round" stroke-linejoin="round" stroke-miterlimit="10" x1="698.5" y1="-108.33" x2="628.5" y2="-108.33"/>
	</g>
	<g id="LINE_4440_">
		
			<line fill="none" stroke="#000000" stroke-linecap="round" stroke-linejoin="round" stroke-miterlimit="10" x1="608.5" y1="-84.67" x2="698.5" y2="-84.67"/>
	</g>
	<g id="LINE_4441_">
		
			<line fill="none" stroke="#000000" stroke-linecap="round" stroke-linejoin="round" stroke-miterlimit="10" x1="788.5" y1="-84.67" x2="698.5" y2="-84.67"/>
	</g>
	<g id="LINE_4442_">
		
			<line fill="none" stroke="#000000" stroke-linecap="round" stroke-linejoin="round" stroke-miterlimit="10" x1="698.5" y1="-108.33" x2="768.5" y2="-108.33"/>
	</g>
	<g id="POLYLINE_2096_">
		<polyline fill="none" stroke="#000000" stroke-linecap="round" stroke-linejoin="round" stroke-miterlimit="10" points="
			788.5,-84.67 788.5,-128.33 768.5,-128.33 768.5,-108.33 		"/>
	</g>
	<g id="LINE_4443_">
		
			<line fill="none" stroke="#000000" stroke-linecap="round" stroke-linejoin="round" stroke-miterlimit="10" x1="70.11" y1="934.3" x2="81.89" y2="922.52"/>
	</g>
	<g id="LINE_4444_">
		
			<line fill="none" stroke="#000000" stroke-linecap="round" stroke-linejoin="round" stroke-miterlimit="10" x1="88.97" y1="929.59" x2="79.54" y2="920.16"/>
	</g>
	<g id="LINE_4445_">
		
			<line fill="none" stroke="#000000" stroke-linecap="round" stroke-linejoin="round" stroke-miterlimit="10" x1="79.54" y1="920.16" x2="67.75" y2="931.95"/>
	</g>
	<g id="LINE_4446_">
		
			<line fill="none" stroke="#000000" stroke-linecap="round" stroke-linejoin="round" stroke-miterlimit="10" x1="67.75" y1="931.95" x2="77.18" y2="941.37"/>
	</g>
	<g id="POLYLINE_2097_">
		<polyline fill="none" stroke="#000000" stroke-linecap="round" stroke-linejoin="round" stroke-miterlimit="10" points="
			110.73,951.35 120.16,960.78 108.37,972.56 98.94,963.14 		"/>
	</g>
	<g id="LINE_4447_">
		
			<line fill="none" stroke="#000000" stroke-linecap="round" stroke-linejoin="round" stroke-miterlimit="10" x1="106.01" y1="970.21" x2="117.8" y2="958.42"/>
	</g>
	<g id="POLYLINE_2098_">
		<polyline fill="none" stroke="#000000" stroke-linecap="round" stroke-linejoin="round" stroke-miterlimit="10" points="
			98.94,929.59 108.37,920.16 120.16,931.95 110.73,941.37 		"/>
	</g>
	<g id="LINE_4448_">
		
			<line fill="none" stroke="#000000" stroke-linecap="round" stroke-linejoin="round" stroke-miterlimit="10" x1="117.8" y1="934.3" x2="106.01" y2="922.52"/>
	</g>
	<g id="ARC_1572_">
		<path fill="none" stroke="#000000" stroke-linecap="round" stroke-linejoin="round" stroke-miterlimit="10" d="M111.45,946.36
			c0,9.66-7.84,17.5-17.5,17.5s-17.5-7.84-17.5-17.5"/>
	</g>
	<g id="ARC_1573_">
		<path fill="none" stroke="#000000" stroke-linecap="round" stroke-linejoin="round" stroke-miterlimit="10" d="M76.45,946.36
			c0-9.66,7.84-17.5,17.5-17.5s17.5,7.84,17.5,17.5"/>
	</g>
	<g id="POLYLINE_2099_">
		<polyline fill="none" stroke="#000000" stroke-linecap="round" stroke-linejoin="round" stroke-miterlimit="10" points="
			77.18,951.35 67.75,960.78 79.54,972.56 88.97,963.14 		"/>
	</g>
	<g id="LINE_4449_">
		
			<line fill="none" stroke="#000000" stroke-linecap="round" stroke-linejoin="round" stroke-miterlimit="10" x1="81.89" y1="970.21" x2="70.11" y2="958.42"/>
	</g>
	<g id="LINE_4450_">
		
			<line fill="none" stroke="#000000" stroke-linecap="round" stroke-linejoin="round" stroke-miterlimit="10" x1="227.57" y1="949.88" x2="239.35" y2="938.1"/>
	</g>
	<g id="LINE_4451_">
		
			<line fill="none" stroke="#000000" stroke-linecap="round" stroke-linejoin="round" stroke-miterlimit="10" x1="246.42" y1="945.17" x2="236.99" y2="935.74"/>
	</g>
	<g id="LINE_4452_">
		
			<line fill="none" stroke="#000000" stroke-linecap="round" stroke-linejoin="round" stroke-miterlimit="10" x1="236.99" y1="935.74" x2="225.21" y2="947.52"/>
	</g>
	<g id="LINE_4453_">
		
			<line fill="none" stroke="#000000" stroke-linecap="round" stroke-linejoin="round" stroke-miterlimit="10" x1="225.21" y1="947.52" x2="234.64" y2="956.95"/>
	</g>
	<g id="POLYLINE_2100_">
		<polyline fill="none" stroke="#000000" stroke-linecap="round" stroke-linejoin="round" stroke-miterlimit="10" points="
			268.18,966.93 277.61,976.36 265.83,988.14 256.4,978.72 		"/>
	</g>
	<g id="LINE_4454_">
		
			<line fill="none" stroke="#000000" stroke-linecap="round" stroke-linejoin="round" stroke-miterlimit="10" x1="263.47" y1="985.79" x2="275.26" y2="974"/>
	</g>
	<g id="POLYLINE_2101_">
		<polyline fill="none" stroke="#000000" stroke-linecap="round" stroke-linejoin="round" stroke-miterlimit="10" points="
			256.4,945.17 265.83,935.74 277.61,947.52 268.18,956.95 		"/>
	</g>
	<g id="LINE_4455_">
		
			<line fill="none" stroke="#000000" stroke-linecap="round" stroke-linejoin="round" stroke-miterlimit="10" x1="275.26" y1="949.88" x2="263.47" y2="938.1"/>
	</g>
	<g id="ARC_1574_">
		<path fill="none" stroke="#000000" stroke-linecap="round" stroke-linejoin="round" stroke-miterlimit="10" d="M268.91,961.94
			c0,9.66-7.84,17.5-17.5,17.5s-17.5-7.84-17.5-17.5"/>
	</g>
	<g id="ARC_1575_">
		<path fill="none" stroke="#000000" stroke-linecap="round" stroke-linejoin="round" stroke-miterlimit="10" d="M233.91,961.94
			c0-9.66,7.84-17.5,17.5-17.5s17.5,7.84,17.5,17.5"/>
	</g>
	<g id="POLYLINE_2102_">
		<polyline fill="none" stroke="#000000" stroke-linecap="round" stroke-linejoin="round" stroke-miterlimit="10" points="
			234.64,966.93 225.21,976.36 236.99,988.14 246.42,978.72 		"/>
	</g>
	<g id="LINE_4456_">
		
			<line fill="none" stroke="#000000" stroke-linecap="round" stroke-linejoin="round" stroke-miterlimit="10" x1="239.35" y1="985.79" x2="227.57" y2="974"/>
	</g>
	<g id="LINE_4457_">
		
			<line fill="none" stroke="#000000" stroke-linecap="round" stroke-linejoin="round" stroke-miterlimit="10" x1="149.91" y1="913.34" x2="161.69" y2="901.55"/>
	</g>
	<g id="LINE_4458_">
		
			<line fill="none" stroke="#000000" stroke-linecap="round" stroke-linejoin="round" stroke-miterlimit="10" x1="168.76" y1="908.63" x2="159.34" y2="899.2"/>
	</g>
	<g id="LINE_4459_">
		
			<line fill="none" stroke="#000000" stroke-linecap="round" stroke-linejoin="round" stroke-miterlimit="10" x1="159.34" y1="899.2" x2="147.55" y2="910.98"/>
	</g>
	<g id="LINE_4460_">
		
			<line fill="none" stroke="#000000" stroke-linecap="round" stroke-linejoin="round" stroke-miterlimit="10" x1="147.55" y1="910.98" x2="156.98" y2="920.41"/>
	</g>
	<g id="POLYLINE_2103_">
		<polyline fill="none" stroke="#000000" stroke-linecap="round" stroke-linejoin="round" stroke-miterlimit="10" points="
			190.53,930.39 199.95,939.82 188.17,951.6 178.74,942.17 		"/>
	</g>
	<g id="LINE_4461_">
		
			<line fill="none" stroke="#000000" stroke-linecap="round" stroke-linejoin="round" stroke-miterlimit="10" x1="185.81" y1="949.24" x2="197.6" y2="937.46"/>
	</g>
	<g id="POLYLINE_2104_">
		<polyline fill="none" stroke="#000000" stroke-linecap="round" stroke-linejoin="round" stroke-miterlimit="10" points="
			178.74,908.63 188.17,899.2 199.95,910.98 190.53,920.41 		"/>
	</g>
	<g id="LINE_4462_">
		
			<line fill="none" stroke="#000000" stroke-linecap="round" stroke-linejoin="round" stroke-miterlimit="10" x1="197.6" y1="913.34" x2="185.81" y2="901.55"/>
	</g>
	<g id="ARC_1576_">
		<path fill="none" stroke="#000000" stroke-linecap="round" stroke-linejoin="round" stroke-miterlimit="10" d="M191.25,925.4
			c0,9.66-7.84,17.5-17.5,17.5s-17.5-7.84-17.5-17.5"/>
	</g>
	<g id="ARC_1577_">
		<path fill="none" stroke="#000000" stroke-linecap="round" stroke-linejoin="round" stroke-miterlimit="10" d="M156.25,925.4
			c0-9.66,7.84-17.5,17.5-17.5s17.5,7.84,17.5,17.5"/>
	</g>
	<g id="POLYLINE_2105_">
		<polyline fill="none" stroke="#000000" stroke-linecap="round" stroke-linejoin="round" stroke-miterlimit="10" points="
			156.98,930.39 147.55,939.82 159.34,951.6 168.76,942.17 		"/>
	</g>
	<g id="LINE_4463_">
		
			<line fill="none" stroke="#000000" stroke-linecap="round" stroke-linejoin="round" stroke-miterlimit="10" x1="161.69" y1="949.24" x2="149.91" y2="937.46"/>
	</g>
	<g id="LINE_4464_">
		
			<line fill="none" stroke="#000000" stroke-linecap="round" stroke-linejoin="round" stroke-miterlimit="10" x1="462.09" y1="913.34" x2="450.31" y2="901.55"/>
	</g>
	<g id="LINE_4465_">
		
			<line fill="none" stroke="#000000" stroke-linecap="round" stroke-linejoin="round" stroke-miterlimit="10" x1="443.24" y1="908.63" x2="452.66" y2="899.2"/>
	</g>
	<g id="LINE_4466_">
		
			<line fill="none" stroke="#000000" stroke-linecap="round" stroke-linejoin="round" stroke-miterlimit="10" x1="452.66" y1="899.2" x2="464.45" y2="910.98"/>
	</g>
	<g id="LINE_4467_">
		
			<line fill="none" stroke="#000000" stroke-linecap="round" stroke-linejoin="round" stroke-miterlimit="10" x1="464.45" y1="910.98" x2="455.02" y2="920.41"/>
	</g>
	<g id="POLYLINE_2106_">
		<polyline fill="none" stroke="#000000" stroke-linecap="round" stroke-linejoin="round" stroke-miterlimit="10" points="
			421.47,930.39 412.05,939.82 423.83,951.6 433.26,942.17 		"/>
	</g>
	<g id="LINE_4468_">
		
			<line fill="none" stroke="#000000" stroke-linecap="round" stroke-linejoin="round" stroke-miterlimit="10" x1="426.19" y1="949.24" x2="414.4" y2="937.46"/>
	</g>
	<g id="POLYLINE_2107_">
		<polyline fill="none" stroke="#000000" stroke-linecap="round" stroke-linejoin="round" stroke-miterlimit="10" points="
			433.26,908.63 423.83,899.2 412.05,910.98 421.47,920.41 		"/>
	</g>
	<g id="LINE_4469_">
		
			<line fill="none" stroke="#000000" stroke-linecap="round" stroke-linejoin="round" stroke-miterlimit="10" x1="414.4" y1="913.34" x2="426.19" y2="901.55"/>
	</g>
	<g id="ARC_1578_">
		<path fill="none" stroke="#000000" stroke-linecap="round" stroke-linejoin="round" stroke-miterlimit="10" d="M420.75,925.4
			c0,9.66,7.84,17.5,17.5,17.5s17.5-7.84,17.5-17.5"/>
	</g>
	<g id="ARC_1579_">
		<path fill="none" stroke="#000000" stroke-linecap="round" stroke-linejoin="round" stroke-miterlimit="10" d="M455.75,925.4
			c0-9.66-7.84-17.5-17.5-17.5s-17.5,7.84-17.5,17.5"/>
	</g>
	<g id="POLYLINE_2108_">
		<polyline fill="none" stroke="#000000" stroke-linecap="round" stroke-linejoin="round" stroke-miterlimit="10" points="
			455.02,930.39 464.45,939.82 452.66,951.6 443.24,942.17 		"/>
	</g>
	<g id="LINE_4470_">
		
			<line fill="none" stroke="#000000" stroke-linecap="round" stroke-linejoin="round" stroke-miterlimit="10" x1="450.31" y1="949.24" x2="462.09" y2="937.46"/>
	</g>
	<g id="LINE_4471_">
		
			<line fill="none" stroke="#000000" stroke-linecap="round" stroke-linejoin="round" stroke-miterlimit="10" x1="384.43" y1="949.88" x2="372.65" y2="938.1"/>
	</g>
	<g id="LINE_4472_">
		
			<line fill="none" stroke="#000000" stroke-linecap="round" stroke-linejoin="round" stroke-miterlimit="10" x1="365.58" y1="945.17" x2="375.01" y2="935.74"/>
	</g>
	<g id="LINE_4473_">
		
			<line fill="none" stroke="#000000" stroke-linecap="round" stroke-linejoin="round" stroke-miterlimit="10" x1="375.01" y1="935.74" x2="386.79" y2="947.52"/>
	</g>
	<g id="LINE_4474_">
		
			<line fill="none" stroke="#000000" stroke-linecap="round" stroke-linejoin="round" stroke-miterlimit="10" x1="386.79" y1="947.52" x2="377.36" y2="956.95"/>
	</g>
	<g id="POLYLINE_2109_">
		<polyline fill="none" stroke="#000000" stroke-linecap="round" stroke-linejoin="round" stroke-miterlimit="10" points="
			343.82,966.93 334.39,976.36 346.17,988.14 355.6,978.72 		"/>
	</g>
	<g id="LINE_4475_">
		
			<line fill="none" stroke="#000000" stroke-linecap="round" stroke-linejoin="round" stroke-miterlimit="10" x1="348.53" y1="985.79" x2="336.74" y2="974"/>
	</g>
	<g id="POLYLINE_2110_">
		<polyline fill="none" stroke="#000000" stroke-linecap="round" stroke-linejoin="round" stroke-miterlimit="10" points="
			355.6,945.17 346.17,935.74 334.39,947.52 343.82,956.95 		"/>
	</g>
	<g id="LINE_4476_">
		
			<line fill="none" stroke="#000000" stroke-linecap="round" stroke-linejoin="round" stroke-miterlimit="10" x1="336.74" y1="949.88" x2="348.53" y2="938.1"/>
	</g>
	<g id="ARC_1580_">
		<path fill="none" stroke="#000000" stroke-linecap="round" stroke-linejoin="round" stroke-miterlimit="10" d="M343.09,961.94
			c0,9.66,7.84,17.5,17.5,17.5s17.5-7.84,17.5-17.5"/>
	</g>
	<g id="ARC_1581_">
		<path fill="none" stroke="#000000" stroke-linecap="round" stroke-linejoin="round" stroke-miterlimit="10" d="M378.09,961.94
			c0-9.66-7.84-17.5-17.5-17.5s-17.5,7.84-17.5,17.5"/>
	</g>
	<g id="POLYLINE_2111_">
		<polyline fill="none" stroke="#000000" stroke-linecap="round" stroke-linejoin="round" stroke-miterlimit="10" points="
			377.36,966.93 386.79,976.36 375.01,988.14 365.58,978.72 		"/>
	</g>
	<g id="LINE_4477_">
		
			<line fill="none" stroke="#000000" stroke-linecap="round" stroke-linejoin="round" stroke-miterlimit="10" x1="372.65" y1="985.79" x2="384.43" y2="974"/>
	</g>
	<g id="LINE_4478_">
		
			<line fill="none" stroke="#000000" stroke-linecap="round" stroke-linejoin="round" stroke-miterlimit="10" x1="541.89" y1="934.3" x2="530.11" y2="922.52"/>
	</g>
	<g id="LINE_4479_">
		
			<line fill="none" stroke="#000000" stroke-linecap="round" stroke-linejoin="round" stroke-miterlimit="10" x1="523.03" y1="929.59" x2="532.46" y2="920.16"/>
	</g>
	<g id="LINE_4480_">
		
			<line fill="none" stroke="#000000" stroke-linecap="round" stroke-linejoin="round" stroke-miterlimit="10" x1="532.46" y1="920.16" x2="544.25" y2="931.95"/>
	</g>
	<g id="LINE_4481_">
		
			<line fill="none" stroke="#000000" stroke-linecap="round" stroke-linejoin="round" stroke-miterlimit="10" x1="544.25" y1="931.95" x2="534.82" y2="941.37"/>
	</g>
	<g id="POLYLINE_2112_">
		<polyline fill="none" stroke="#000000" stroke-linecap="round" stroke-linejoin="round" stroke-miterlimit="10" points="
			501.27,951.35 491.84,960.78 503.63,972.56 513.06,963.14 		"/>
	</g>
	<g id="LINE_4482_">
		
			<line fill="none" stroke="#000000" stroke-linecap="round" stroke-linejoin="round" stroke-miterlimit="10" x1="505.99" y1="970.21" x2="494.2" y2="958.42"/>
	</g>
	<g id="POLYLINE_2113_">
		<polyline fill="none" stroke="#000000" stroke-linecap="round" stroke-linejoin="round" stroke-miterlimit="10" points="
			513.06,929.59 503.63,920.16 491.84,931.95 501.27,941.37 		"/>
	</g>
	<g id="LINE_4483_">
		
			<line fill="none" stroke="#000000" stroke-linecap="round" stroke-linejoin="round" stroke-miterlimit="10" x1="494.2" y1="934.3" x2="505.99" y2="922.52"/>
	</g>
	<g id="ARC_1582_">
		<path fill="none" stroke="#000000" stroke-linecap="round" stroke-linejoin="round" stroke-miterlimit="10" d="M500.55,946.36
			c0,9.66,7.84,17.5,17.5,17.5s17.5-7.84,17.5-17.5"/>
	</g>
	<g id="ARC_1583_">
		<path fill="none" stroke="#000000" stroke-linecap="round" stroke-linejoin="round" stroke-miterlimit="10" d="M535.55,946.36
			c0-9.66-7.84-17.5-17.5-17.5s-17.5,7.84-17.5,17.5"/>
	</g>
	<g id="POLYLINE_2114_">
		<polyline fill="none" stroke="#000000" stroke-linecap="round" stroke-linejoin="round" stroke-miterlimit="10" points="
			534.82,951.35 544.25,960.78 532.46,972.56 523.03,963.14 		"/>
	</g>
	<g id="LINE_4484_">
		
			<line fill="none" stroke="#000000" stroke-linecap="round" stroke-linejoin="round" stroke-miterlimit="10" x1="530.11" y1="970.21" x2="541.89" y2="958.42"/>
	</g>
	<g id="LINE_11755_">
		
			<line fill="none" stroke="#000000" stroke-linecap="round" stroke-linejoin="round" stroke-miterlimit="10" x1="233.89" y1="891.21" x2="233.89" y2="866"/>
	</g>
	<g id="LINE_11756_">
		
			<line fill="none" stroke="#000000" stroke-linecap="round" stroke-linejoin="round" stroke-miterlimit="10" x1="403.08" y1="891.21" x2="233.89" y2="891.21"/>
	</g>
	<g id="LINE_11757_">
		
			<line fill="none" stroke="#000000" stroke-linecap="round" stroke-linejoin="round" stroke-miterlimit="10" x1="296.42" y1="871" x2="233.89" y2="871"/>
	</g>
	<g id="LINE_11758_">
		
			<line fill="none" stroke="#000000" stroke-linecap="round" stroke-linejoin="round" stroke-miterlimit="10" x1="233.89" y1="866" x2="296.42" y2="866"/>
	</g>
	<g id="LINE_11759_">
		
			<line fill="none" stroke="#000000" stroke-linecap="round" stroke-linejoin="round" stroke-miterlimit="10" x1="296.42" y1="870.38" x2="233.89" y2="870.38"/>
	</g>
	<g id="POLYLINE_3917_">
		<polyline fill="none" stroke="#000000" stroke-linecap="round" stroke-linejoin="round" stroke-miterlimit="10" points="
			208.08,866 233.29,866 233.29,891.21 208.08,891.21 208.08,866 		"/>
	</g>
	<g id="LINE_11760_">
		
			<line fill="none" stroke="#000000" stroke-linecap="round" stroke-linejoin="round" stroke-miterlimit="10" x1="375.33" y1="877.04" x2="375.33" y2="886.21"/>
	</g>
	<g id="LINE_11761_">
		
			<line fill="none" stroke="#000000" stroke-linecap="round" stroke-linejoin="round" stroke-miterlimit="10" x1="373.67" y1="887.88" x2="361.38" y2="887.88"/>
	</g>
	<g id="LINE_11762_">
		
			<line fill="none" stroke="#000000" stroke-linecap="round" stroke-linejoin="round" stroke-miterlimit="10" x1="342.83" y1="886.21" x2="342.83" y2="877.04"/>
	</g>
	<g id="LINE_11763_">
		
			<line fill="none" stroke="#000000" stroke-linecap="round" stroke-linejoin="round" stroke-miterlimit="10" x1="344.5" y1="875.38" x2="356.79" y2="875.38"/>
	</g>
	<g id="ARC_2344_">
		<path fill="none" stroke="#000000" stroke-linecap="round" stroke-linejoin="round" stroke-miterlimit="10" d="M344.5,875.38
			c-0.92,0-1.67,0.75-1.67,1.67"/>
	</g>
	<g id="ARC_2345_">
		<path fill="none" stroke="#000000" stroke-linecap="round" stroke-linejoin="round" stroke-miterlimit="10" d="M342.83,886.21
			c0,0.92,0.75,1.67,1.67,1.67"/>
	</g>
	<g id="ARC_2346_">
		<path fill="none" stroke="#000000" stroke-linecap="round" stroke-linejoin="round" stroke-miterlimit="10" d="M373.67,887.88
			c0.92,0,1.67-0.75,1.67-1.67"/>
	</g>
	<g id="ARC_2347_">
		<path fill="none" stroke="#000000" stroke-linecap="round" stroke-linejoin="round" stroke-miterlimit="10" d="M375.33,877.04
			c0-0.92-0.75-1.67-1.67-1.67"/>
	</g>
	<g id="ARC_2348_">
		<path fill="none" stroke="#000000" stroke-linecap="round" stroke-linejoin="round" stroke-miterlimit="10" d="M359.5,873.5
			c0-0.23-0.19-0.42-0.42-0.42s-0.42,0.19-0.42,0.42"/>
	</g>
	<g id="LINE_11764_">
		
			<line fill="none" stroke="#000000" stroke-linecap="round" stroke-linejoin="round" stroke-miterlimit="10" x1="359.5" y1="873.5" x2="359.5" y2="879.96"/>
	</g>
	<g id="LINE_11765_">
		
			<line fill="none" stroke="#000000" stroke-linecap="round" stroke-linejoin="round" stroke-miterlimit="10" x1="358.67" y1="873.5" x2="358.67" y2="879.96"/>
	</g>
	<g id="ARC_2349_">
		<path fill="none" stroke="#000000" stroke-linecap="round" stroke-linejoin="round" stroke-miterlimit="10" d="M358.67,879.96
			c0,0.23,0.19,0.42,0.42,0.42s0.42-0.19,0.42-0.42"/>
	</g>
	<g id="LINE_11766_">
		
			<line fill="none" stroke="#000000" stroke-linecap="round" stroke-linejoin="round" stroke-miterlimit="10" x1="359.71" y1="877.04" x2="359.71" y2="886.21"/>
	</g>
	<g id="LINE_11767_">
		
			<line fill="none" stroke="#000000" stroke-linecap="round" stroke-linejoin="round" stroke-miterlimit="10" x1="358.46" y1="877.04" x2="358.46" y2="886.21"/>
	</g>
	<g id="LINE_11768_">
		
			<line fill="none" stroke="#000000" stroke-linecap="round" stroke-linejoin="round" stroke-miterlimit="10" x1="356.79" y1="887.88" x2="344.5" y2="887.88"/>
	</g>
	<g id="LINE_11769_">
		
			<line fill="none" stroke="#000000" stroke-linecap="round" stroke-linejoin="round" stroke-miterlimit="10" x1="361.38" y1="875.38" x2="373.67" y2="875.38"/>
	</g>
	<g id="ARC_2350_">
		<path fill="none" stroke="#000000" stroke-linecap="round" stroke-linejoin="round" stroke-miterlimit="10" d="M358.46,877.04
			c0-0.92-0.75-1.67-1.67-1.67"/>
	</g>
	<g id="ARC_2351_">
		<path fill="none" stroke="#000000" stroke-linecap="round" stroke-linejoin="round" stroke-miterlimit="10" d="M356.79,887.88
			c0.92,0,1.67-0.75,1.67-1.67"/>
	</g>
	<g id="ARC_2352_">
		<path fill="none" stroke="#000000" stroke-linecap="round" stroke-linejoin="round" stroke-miterlimit="10" d="M359.71,886.21
			c0,0.92,0.75,1.67,1.67,1.67"/>
	</g>
	<g id="ARC_2353_">
		<path fill="none" stroke="#000000" stroke-linecap="round" stroke-linejoin="round" stroke-miterlimit="10" d="M361.38,875.38
			c-0.92,0-1.67,0.75-1.67,1.67"/>
	</g>
	<g id="ARC_2354_">
		<path fill="none" stroke="#000000" stroke-linecap="round" stroke-linejoin="round" stroke-miterlimit="10" d="M368.04,881.62
			c0-0.46-0.37-0.83-0.83-0.83s-0.83,0.37-0.83,0.83"/>
	</g>
	<g id="ARC_2355_">
		<path fill="none" stroke="#000000" stroke-linecap="round" stroke-linejoin="round" stroke-miterlimit="10" d="M366.38,881.62
			c0,0.46,0.37,0.83,0.83,0.83s0.83-0.37,0.83-0.83"/>
	</g>
	<g id="ARC_2356_">
		<path fill="none" stroke="#000000" stroke-linecap="round" stroke-linejoin="round" stroke-miterlimit="10" d="M351.79,881.62
			c0-0.46-0.37-0.83-0.83-0.83s-0.83,0.37-0.83,0.83"/>
	</g>
	<g id="ARC_2357_">
		<path fill="none" stroke="#000000" stroke-linecap="round" stroke-linejoin="round" stroke-miterlimit="10" d="M350.13,881.62
			c0,0.46,0.37,0.83,0.83,0.83s0.83-0.37,0.83-0.83"/>
	</g>
	<g id="ARC_2358_">
		<path fill="none" stroke="#000000" stroke-linecap="round" stroke-linejoin="round" stroke-miterlimit="10" d="M361.58,873.5
			c0,0.46,0.37,0.83,0.83,0.83s0.83-0.37,0.83-0.83"/>
	</g>
	<g id="ARC_2359_">
		<path fill="none" stroke="#000000" stroke-linecap="round" stroke-linejoin="round" stroke-miterlimit="10" d="M363.25,873.5
			c0-0.46-0.37-0.83-0.83-0.83s-0.83,0.37-0.83,0.83"/>
	</g>
	<g id="ARC_2360_">
		<path fill="none" stroke="#000000" stroke-linecap="round" stroke-linejoin="round" stroke-miterlimit="10" d="M354.92,873.5
			c0,0.46,0.37,0.83,0.83,0.83s0.83-0.37,0.83-0.83"/>
	</g>
	<g id="ARC_2361_">
		<path fill="none" stroke="#000000" stroke-linecap="round" stroke-linejoin="round" stroke-miterlimit="10" d="M356.58,873.5
			c0-0.46-0.37-0.83-0.83-0.83s-0.83,0.37-0.83,0.83"/>
	</g>
	<g id="LINE_11770_">
		
			<line fill="none" stroke="#000000" stroke-linecap="round" stroke-linejoin="round" stroke-miterlimit="10" x1="341.58" y1="889.12" x2="341.58" y2="871.62"/>
	</g>
	<g id="LINE_11771_">
		
			<line fill="none" stroke="#000000" stroke-linecap="round" stroke-linejoin="round" stroke-miterlimit="10" x1="376.58" y1="889.12" x2="341.58" y2="889.12"/>
	</g>
	<g id="LINE_11772_">
		
			<line fill="none" stroke="#000000" stroke-linecap="round" stroke-linejoin="round" stroke-miterlimit="10" x1="376.58" y1="871.62" x2="376.58" y2="889.12"/>
	</g>
	<g id="LINE_11773_">
		
			<line fill="none" stroke="#000000" stroke-linecap="round" stroke-linejoin="round" stroke-miterlimit="10" x1="341.58" y1="871.62" x2="376.58" y2="871.62"/>
	</g>
	<g id="LINE_11774_">
		
			<line fill="none" stroke="#000000" stroke-linecap="round" stroke-linejoin="round" stroke-miterlimit="10" x1="296.42" y1="866" x2="296.42" y2="870.38"/>
	</g>
	<g id="LINE_11775_">
		
			<line fill="none" stroke="#000000" stroke-linecap="round" stroke-linejoin="round" stroke-miterlimit="10" x1="403.08" y1="870.38" x2="314.75" y2="870.38"/>
	</g>
	<g id="LINE_11776_">
		
			<line fill="none" stroke="#000000" stroke-linecap="round" stroke-linejoin="round" stroke-miterlimit="10" x1="314.75" y1="866" x2="403.08" y2="866"/>
	</g>
	<g id="LINE_11777_">
		
			<line fill="none" stroke="#000000" stroke-linecap="round" stroke-linejoin="round" stroke-miterlimit="10" x1="403.08" y1="871" x2="314.75" y2="871"/>
	</g>
	<g id="LINE_11778_">
		
			<line fill="none" stroke="#000000" stroke-linecap="round" stroke-linejoin="round" stroke-miterlimit="10" x1="314.75" y1="870.38" x2="314.75" y2="866"/>
	</g>
	<g id="LINE_11779_">
		
			<line fill="none" stroke="#000000" stroke-linecap="round" stroke-linejoin="round" stroke-miterlimit="10" x1="403.08" y1="866" x2="403.08" y2="870.38"/>
	</g>
	<g id="LINE_11780_">
		
			<line fill="none" stroke="#000000" stroke-linecap="round" stroke-linejoin="round" stroke-miterlimit="10" x1="403.08" y1="870.38" x2="403.08" y2="891.21"/>
	</g>
</g>
</svg>
