<?xml version="1.0" encoding="utf-8"?>
<!-- Generator: Adobe Illustrator 18.1.1, SVG Export Plug-In . SVG Version: 6.00 Build 0)  -->
<!DOCTYPE svg PUBLIC "-//W3C//DTD SVG 1.1//EN" "http://www.w3.org/Graphics/SVG/1.1/DTD/svg11.dtd">
<svg version="1.1" id="Layer_1" xmlns="http://www.w3.org/2000/svg" xmlns:xlink="http://www.w3.org/1999/xlink" x="0px" y="0px"
	 width="1734px" height="1566px" viewBox="561 -387 1734 1566" enable-background="new 561 -387 1734 1566" xml:space="preserve">
<g id="FURN::0-FURN-PANTRY">
	<path fill="none" stroke="#000000" stroke-linecap="round" stroke-linejoin="round" d="M1542.9,784.3c0-7-5.6-12.6-12.6-12.6
		s-12.6,5.6-12.6,12.6"/>
	<polyline fill="none" stroke="#000000" stroke-linecap="round" stroke-linejoin="round" points="1542.3,787.8 1549.1,794.6 
		1540.7,803.1 1533.9,796.3 	"/>
	<line fill="none" stroke="#000000" stroke-linecap="round" stroke-linejoin="round" x1="1539" y1="801.4" x2="1547.4" y2="792.9"/>
	
		<line fill="none" stroke="#000000" stroke-linecap="round" stroke-linejoin="round" x1="1434.1" y1="786.8" x2="1425.6" y2="778.3"/>
	
		<line fill="none" stroke="#000000" stroke-linecap="round" stroke-linejoin="round" x1="1420.5" y1="783.4" x2="1427.3" y2="776.6"/>
	
		<line fill="none" stroke="#000000" stroke-linecap="round" stroke-linejoin="round" x1="1427.3" y1="776.6" x2="1435.8" y2="785.1"/>
	<line fill="none" stroke="#000000" stroke-linecap="round" stroke-linejoin="round" x1="1435.8" y1="785.1" x2="1429" y2="791.9"/>
	<polyline fill="none" stroke="#000000" stroke-linecap="round" stroke-linejoin="round" points="1404.8,799.1 1398,805.8 
		1406.5,814.3 1413.3,807.6 	"/>
	
		<line fill="none" stroke="#000000" stroke-linecap="round" stroke-linejoin="round" x1="1408.2" y1="812.6" x2="1399.7" y2="804.2"/>
	<polyline fill="none" stroke="#000000" stroke-linecap="round" stroke-linejoin="round" points="1413.3,783.4 1406.5,776.6 
		1398,785.1 1404.8,791.9 	"/>
	
		<line fill="none" stroke="#000000" stroke-linecap="round" stroke-linejoin="round" x1="1399.7" y1="786.8" x2="1408.2" y2="778.3"/>
	<path fill="none" stroke="#000000" stroke-linecap="round" stroke-linejoin="round" d="M1404.3,795.5c0,7,5.6,12.6,12.6,12.6
		c7,0,12.6-5.6,12.6-12.6"/>
	<path fill="none" stroke="#000000" stroke-linecap="round" stroke-linejoin="round" d="M1429.5,795.5c0-7-5.6-12.6-12.6-12.6
		c-7,0-12.6,5.6-12.6,12.6"/>
	<polyline fill="none" stroke="#000000" stroke-linecap="round" stroke-linejoin="round" points="1429,799.1 1435.8,805.8 
		1427.3,814.3 1420.5,807.6 	"/>
	
		<line fill="none" stroke="#000000" stroke-linecap="round" stroke-linejoin="round" x1="1425.6" y1="812.6" x2="1434.1" y2="804.2"/>
	<line fill="none" stroke="#000000" stroke-linecap="round" stroke-linejoin="round" x1="1490" y1="760.5" x2="1481.5" y2="752"/>
	
		<line fill="none" stroke="#000000" stroke-linecap="round" stroke-linejoin="round" x1="1476.4" y1="757.1" x2="1483.2" y2="750.3"/>
	
		<line fill="none" stroke="#000000" stroke-linecap="round" stroke-linejoin="round" x1="1483.2" y1="750.3" x2="1491.7" y2="758.8"/>
	
		<line fill="none" stroke="#000000" stroke-linecap="round" stroke-linejoin="round" x1="1491.7" y1="758.8" x2="1484.9" y2="765.6"/>
	<polyline fill="none" stroke="#000000" stroke-linecap="round" stroke-linejoin="round" points="1460.7,772.8 1454,779.5 
		1462.4,788 1469.2,781.2 	"/>
	
		<line fill="none" stroke="#000000" stroke-linecap="round" stroke-linejoin="round" x1="1464.1" y1="786.3" x2="1455.7" y2="777.8"/>
	<polyline fill="none" stroke="#000000" stroke-linecap="round" stroke-linejoin="round" points="1469.2,757.1 1462.4,750.3 
		1454,758.8 1460.7,765.6 	"/>
	<line fill="none" stroke="#000000" stroke-linecap="round" stroke-linejoin="round" x1="1455.7" y1="760.5" x2="1464.1" y2="752"/>
	<path fill="none" stroke="#000000" stroke-linecap="round" stroke-linejoin="round" d="M1460.2,769.2c0,7,5.6,12.6,12.6,12.6
		c7,0,12.6-5.6,12.6-12.6"/>
	<path fill="none" stroke="#000000" stroke-linecap="round" stroke-linejoin="round" d="M1485.4,769.2c0-7-5.6-12.6-12.6-12.6
		c-7,0-12.6,5.6-12.6,12.6"/>
	<polyline fill="none" stroke="#000000" stroke-linecap="round" stroke-linejoin="round" points="1484.9,772.8 1491.7,779.5 
		1483.2,788 1476.4,781.2 	"/>
	<line fill="none" stroke="#000000" stroke-linecap="round" stroke-linejoin="round" x1="1481.5" y1="786.3" x2="1490" y2="777.8"/>
	<line fill="none" stroke="#000000" stroke-linecap="round" stroke-linejoin="round" x1="1265.2" y1="760.5" x2="1273.7" y2="752"/>
	<line fill="none" stroke="#000000" stroke-linecap="round" stroke-linejoin="round" x1="1278.8" y1="757.1" x2="1272" y2="750.3"/>
	<line fill="none" stroke="#000000" stroke-linecap="round" stroke-linejoin="round" x1="1272" y1="750.3" x2="1263.5" y2="758.8"/>
	
		<line fill="none" stroke="#000000" stroke-linecap="round" stroke-linejoin="round" x1="1263.5" y1="758.8" x2="1270.3" y2="765.6"/>
	<polyline fill="none" stroke="#000000" stroke-linecap="round" stroke-linejoin="round" points="1294.5,772.8 1301.2,779.5 
		1292.8,788 1286,781.2 	"/>
	
		<line fill="none" stroke="#000000" stroke-linecap="round" stroke-linejoin="round" x1="1291.1" y1="786.3" x2="1299.6" y2="777.8"/>
	<polyline fill="none" stroke="#000000" stroke-linecap="round" stroke-linejoin="round" points="1286,757.1 1292.8,750.3 
		1301.2,758.8 1294.5,765.6 	"/>
	<line fill="none" stroke="#000000" stroke-linecap="round" stroke-linejoin="round" x1="1299.6" y1="760.5" x2="1291.1" y2="752"/>
	<path fill="none" stroke="#000000" stroke-linecap="round" stroke-linejoin="round" d="M1295,769.2c0,7-5.6,12.6-12.6,12.6
		c-7,0-12.6-5.6-12.6-12.6"/>
	<path fill="none" stroke="#000000" stroke-linecap="round" stroke-linejoin="round" d="M1269.8,769.2c0-7,5.6-12.6,12.6-12.6
		c7,0,12.6,5.6,12.6,12.6"/>
	<polyline fill="none" stroke="#000000" stroke-linecap="round" stroke-linejoin="round" points="1270.3,772.8 1263.5,779.5 
		1272,788 1278.8,781.2 	"/>
	
		<line fill="none" stroke="#000000" stroke-linecap="round" stroke-linejoin="round" x1="1273.7" y1="786.3" x2="1265.2" y2="777.8"/>
	
		<line fill="none" stroke="#000000" stroke-linecap="round" stroke-linejoin="round" x1="1321.1" y1="786.8" x2="1329.6" y2="778.3"/>
	
		<line fill="none" stroke="#000000" stroke-linecap="round" stroke-linejoin="round" x1="1334.7" y1="783.4" x2="1327.9" y2="776.6"/>
	
		<line fill="none" stroke="#000000" stroke-linecap="round" stroke-linejoin="round" x1="1327.9" y1="776.6" x2="1319.4" y2="785.1"/>
	
		<line fill="none" stroke="#000000" stroke-linecap="round" stroke-linejoin="round" x1="1319.4" y1="785.1" x2="1326.2" y2="791.9"/>
	<polyline fill="none" stroke="#000000" stroke-linecap="round" stroke-linejoin="round" points="1350.4,799.1 1357.2,805.8 
		1348.7,814.3 1341.9,807.6 	"/>
	<line fill="none" stroke="#000000" stroke-linecap="round" stroke-linejoin="round" x1="1347" y1="812.6" x2="1355.5" y2="804.2"/>
	<polyline fill="none" stroke="#000000" stroke-linecap="round" stroke-linejoin="round" points="1341.9,783.4 1348.7,776.6 
		1357.2,785.1 1350.4,791.9 	"/>
	<line fill="none" stroke="#000000" stroke-linecap="round" stroke-linejoin="round" x1="1355.5" y1="786.8" x2="1347" y2="778.3"/>
	<path fill="none" stroke="#000000" stroke-linecap="round" stroke-linejoin="round" d="M1350.9,795.5c0,7-5.6,12.6-12.6,12.6
		s-12.6-5.6-12.6-12.6"/>
	<path fill="none" stroke="#000000" stroke-linecap="round" stroke-linejoin="round" d="M1325.7,795.5c0-7,5.6-12.6,12.6-12.6
		s12.6,5.6,12.6,12.6"/>
	<polyline fill="none" stroke="#000000" stroke-linecap="round" stroke-linejoin="round" points="1326.2,799.1 1319.4,805.8 
		1327.9,814.3 1334.7,807.6 	"/>
	
		<line fill="none" stroke="#000000" stroke-linecap="round" stroke-linejoin="round" x1="1329.6" y1="812.6" x2="1321.1" y2="804.2"/>
	
		<line fill="none" stroke="#000000" stroke-linecap="round" stroke-linejoin="round" x1="1207.8" y1="775.6" x2="1216.2" y2="767.1"/>
	
		<line fill="none" stroke="#000000" stroke-linecap="round" stroke-linejoin="round" x1="1221.3" y1="772.2" x2="1214.6" y2="765.4"/>
	
		<line fill="none" stroke="#000000" stroke-linecap="round" stroke-linejoin="round" x1="1214.6" y1="765.4" x2="1206.1" y2="773.9"/>
	
		<line fill="none" stroke="#000000" stroke-linecap="round" stroke-linejoin="round" x1="1206.1" y1="773.9" x2="1212.8" y2="780.7"/>
	<polyline fill="none" stroke="#000000" stroke-linecap="round" stroke-linejoin="round" points="1237,787.8 1243.8,794.6 
		1235.3,803.1 1228.5,796.3 	"/>
	
		<line fill="none" stroke="#000000" stroke-linecap="round" stroke-linejoin="round" x1="1233.6" y1="801.4" x2="1242.1" y2="792.9"/>
	<polyline fill="none" stroke="#000000" stroke-linecap="round" stroke-linejoin="round" points="1228.5,772.2 1235.3,765.4 
		1243.8,773.9 1237,780.7 	"/>
	
		<line fill="none" stroke="#000000" stroke-linecap="round" stroke-linejoin="round" x1="1242.1" y1="775.6" x2="1233.6" y2="767.1"/>
	<path fill="none" stroke="#000000" stroke-linecap="round" stroke-linejoin="round" d="M1237.5,784.3c0,7-5.6,12.6-12.6,12.6
		c-7,0-12.6-5.6-12.6-12.6"/>
	<path fill="none" stroke="#000000" stroke-linecap="round" stroke-linejoin="round" d="M1212.3,784.3c0-7,5.6-12.6,12.6-12.6
		c7,0,12.6,5.6,12.6,12.6"/>
	<polyline fill="none" stroke="#000000" stroke-linecap="round" stroke-linejoin="round" points="1212.8,787.8 1206.1,794.6 
		1214.6,803.1 1221.3,796.3 	"/>
	
		<line fill="none" stroke="#000000" stroke-linecap="round" stroke-linejoin="round" x1="1216.2" y1="801.4" x2="1207.8" y2="792.9"/>
	
		<line fill="none" stroke="#000000" stroke-linecap="round" stroke-linejoin="round" x1="1513.1" y1="775.6" x2="1521.6" y2="767.1"/>
	<polyline fill="none" stroke="#000000" stroke-linecap="round" stroke-linejoin="round" points="1526.7,772.2 1519.9,765.4 
		1511.4,773.9 1518.2,780.7 	"/>
	
		<line fill="none" stroke="#000000" stroke-linecap="round" stroke-linejoin="round" x1="1521.6" y1="801.4" x2="1513.1" y2="792.9"/>
	<polyline fill="none" stroke="#000000" stroke-linecap="round" stroke-linejoin="round" points="1518.2,787.8 1511.4,794.6 
		1519.9,803.1 1526.7,796.3 	"/>
	
		<line fill="none" stroke="#000000" stroke-linecap="round" stroke-linejoin="round" x1="1549.1" y1="773.9" x2="1542.3" y2="780.7"/>
	
		<line fill="none" stroke="#000000" stroke-linecap="round" stroke-linejoin="round" x1="1540.7" y1="765.4" x2="1549.1" y2="773.9"/>
	
		<line fill="none" stroke="#000000" stroke-linecap="round" stroke-linejoin="round" x1="1533.9" y1="772.2" x2="1540.7" y2="765.4"/>
	<line fill="none" stroke="#000000" stroke-linecap="round" stroke-linejoin="round" x1="1547.4" y1="775.6" x2="1539" y2="767.1"/>
	
		<line fill="none" stroke="#000000" stroke-linecap="round" stroke-linejoin="round" x1="1325.7" y1="744.6" x2="1325.7" y2="726.4"/>
	
		<line fill="none" stroke="#000000" stroke-linecap="round" stroke-linejoin="round" x1="1447.5" y1="729.6" x2="1447.5" y2="744.6"/>
	
		<line fill="none" stroke="#000000" stroke-width="0.7087" stroke-linecap="round" stroke-linejoin="round" x1="1447.5" y1="726.4" x2="1447.5" y2="729.6"/>
	
		<line fill="none" stroke="#000000" stroke-width="0.7087" stroke-linecap="round" stroke-linejoin="round" x1="1383.9" y1="729.6" x2="1383.9" y2="726.4"/>
	<line fill="none" stroke="#000000" stroke-linecap="round" stroke-linejoin="round" x1="1447.5" y1="730" x2="1383.9" y2="730"/>
	
		<line fill="none" stroke="#000000" stroke-width="0.7087" stroke-linecap="round" stroke-linejoin="round" x1="1383.9" y1="726.4" x2="1447.5" y2="726.4"/>
	
		<line fill="none" stroke="#000000" stroke-width="0.7087" stroke-linecap="round" stroke-linejoin="round" x1="1447.5" y1="729.6" x2="1383.9" y2="729.6"/>
	
		<line fill="none" stroke="#000000" stroke-width="0.7087" stroke-linecap="round" stroke-linejoin="round" x1="1370.7" y1="726.4" x2="1370.7" y2="729.6"/>
	
		<line fill="none" stroke="#000000" stroke-linecap="round" stroke-linejoin="round" x1="1403.2" y1="730.4" x2="1428.4" y2="730.4"/>
	
		<line fill="none" stroke="#000000" stroke-linecap="round" stroke-linejoin="round" x1="1428.4" y1="730.4" x2="1428.4" y2="743.1"/>
	
		<line fill="none" stroke="#000000" stroke-linecap="round" stroke-linejoin="round" x1="1428.4" y1="743.1" x2="1403.2" y2="743.1"/>
	
		<line fill="none" stroke="#000000" stroke-linecap="round" stroke-linejoin="round" x1="1403.2" y1="743.1" x2="1403.2" y2="730.4"/>
	<path fill="none" stroke="#000000" stroke-linecap="round" stroke-linejoin="round" d="M1412.8,731.8c0-0.4,0.2-0.6,0.6-0.6
		c0.4,0,0.6,0.2,0.6,0.6"/>
	<path fill="none" stroke="#000000" stroke-linecap="round" stroke-linejoin="round" d="M1414,731.8c0,0.4-0.2,0.6-0.6,0.6
		s-0.6-0.2-0.6-0.6"/>
	<path fill="none" stroke="#000000" stroke-linecap="round" stroke-linejoin="round" d="M1417.6,731.8c0-0.4,0.2-0.6,0.6-0.6
		s0.6,0.2,0.6,0.6"/>
	<path fill="none" stroke="#000000" stroke-linecap="round" stroke-linejoin="round" d="M1418.8,731.8c0,0.4-0.2,0.6-0.6,0.6
		c-0.4,0-0.6-0.2-0.6-0.6"/>
	<path fill="none" stroke="#000000" stroke-linecap="round" stroke-linejoin="round" d="M1410.6,737.7c0,0.4-0.2,0.6-0.6,0.6
		c-0.4,0-0.6-0.2-0.6-0.6"/>
	<path fill="none" stroke="#000000" stroke-linecap="round" stroke-linejoin="round" d="M1409.4,737.7c0-0.4,0.2-0.6,0.6-0.6
		s0.6,0.2,0.6,0.6"/>
	<path fill="none" stroke="#000000" stroke-linecap="round" stroke-linejoin="round" d="M1422.3,737.7c0,0.4-0.2,0.6-0.6,0.6
		s-0.6-0.2-0.6-0.6"/>
	<path fill="none" stroke="#000000" stroke-linecap="round" stroke-linejoin="round" d="M1421.1,737.7c0-0.4,0.2-0.6,0.6-0.6
		c0.4,0,0.6,0.2,0.6,0.6"/>
	<path fill="none" stroke="#000000" stroke-linecap="round" stroke-linejoin="round" d="M1416.3,734.3c0-0.8,0.3-1.2,1.2-1.2"/>
	<path fill="none" stroke="#000000" stroke-linecap="round" stroke-linejoin="round" d="M1417.5,742.2c-0.8,0-1.2-0.3-1.2-1.2"/>
	<path fill="none" stroke="#000000" stroke-linecap="round" stroke-linejoin="round" d="M1415.4,740.9c0,0.8-0.3,1.2-1.2,1.2"/>
	<path fill="none" stroke="#000000" stroke-linecap="round" stroke-linejoin="round" d="M1414.2,733.2c0.9,0,1.2,0.3,1.2,1.2"/>
	
		<line fill="none" stroke="#000000" stroke-linecap="round" stroke-linejoin="round" x1="1417.5" y1="733.2" x2="1426.3" y2="733.2"/>
	
		<line fill="none" stroke="#000000" stroke-linecap="round" stroke-linejoin="round" x1="1414.2" y1="742.2" x2="1405.3" y2="742.2"/>
	
		<line fill="none" stroke="#000000" stroke-linecap="round" stroke-linejoin="round" x1="1415.4" y1="734.3" x2="1415.4" y2="740.9"/>
	
		<line fill="none" stroke="#000000" stroke-linecap="round" stroke-linejoin="round" x1="1416.3" y1="734.3" x2="1416.3" y2="740.9"/>
	<path fill="none" stroke="#000000" stroke-linecap="round" stroke-linejoin="round" d="M1416.1,736.4c0,0.2-0.1,0.3-0.3,0.3
		c-0.2,0-0.3-0.1-0.3-0.3"/>
	
		<line fill="none" stroke="#000000" stroke-linecap="round" stroke-linejoin="round" x1="1415.5" y1="731.8" x2="1415.5" y2="736.4"/>
	
		<line fill="none" stroke="#000000" stroke-linecap="round" stroke-linejoin="round" x1="1416.1" y1="731.8" x2="1416.1" y2="736.4"/>
	<path fill="none" stroke="#000000" stroke-linecap="round" stroke-linejoin="round" d="M1415.5,731.8c0-0.2,0.1-0.3,0.3-0.3
		s0.3,0.1,0.3,0.3"/>
	<path fill="none" stroke="#000000" stroke-linecap="round" stroke-linejoin="round" d="M1426.3,733.2c0.8,0,1.2,0.3,1.2,1.2"/>
	<path fill="none" stroke="#000000" stroke-linecap="round" stroke-linejoin="round" d="M1427.5,740.9c0,0.8-0.3,1.2-1.2,1.2"/>
	<path fill="none" stroke="#000000" stroke-linecap="round" stroke-linejoin="round" d="M1405.3,742.2c-0.9,0-1.2-0.3-1.2-1.2"/>
	<path fill="none" stroke="#000000" stroke-linecap="round" stroke-linejoin="round" d="M1404.1,734.3c0-0.8,0.3-1.2,1.2-1.2"/>
	
		<line fill="none" stroke="#000000" stroke-linecap="round" stroke-linejoin="round" x1="1405.3" y1="733.2" x2="1414.2" y2="733.2"/>
	
		<line fill="none" stroke="#000000" stroke-linecap="round" stroke-linejoin="round" x1="1404.1" y1="740.9" x2="1404.1" y2="734.3"/>
	
		<line fill="none" stroke="#000000" stroke-linecap="round" stroke-linejoin="round" x1="1426.3" y1="742.2" x2="1417.5" y2="742.2"/>
	
		<line fill="none" stroke="#000000" stroke-linecap="round" stroke-linejoin="round" x1="1427.5" y1="734.3" x2="1427.5" y2="740.9"/>
	
		<rect x="1307.1" y="726.4" fill="none" stroke="#000000" stroke-linecap="round" stroke-linejoin="round" width="18.2" height="18.2"/>
	
		<line fill="none" stroke="#000000" stroke-width="0.7087" stroke-linecap="round" stroke-linejoin="round" x1="1370.7" y1="729.6" x2="1325.7" y2="729.6"/>
	
		<line fill="none" stroke="#000000" stroke-width="0.7087" stroke-linecap="round" stroke-linejoin="round" x1="1325.7" y1="726.4" x2="1370.7" y2="726.4"/>
	<line fill="none" stroke="#000000" stroke-linecap="round" stroke-linejoin="round" x1="1370.7" y1="730" x2="1325.7" y2="730"/>
	
		<line fill="none" stroke="#000000" stroke-linecap="round" stroke-linejoin="round" x1="1447.5" y1="744.6" x2="1325.7" y2="744.6"/>
	<path fill="none" stroke="#000000" stroke-linecap="round" stroke-linejoin="round" d="M1517.7,784.3c0,7,5.6,12.6,12.6,12.6
		s12.6-5.6,12.6-12.6"/>
</g>
<g id="FURN::0-FURN-RECEPTION">
	
		<line fill="none" stroke="#000000" stroke-linecap="round" stroke-linejoin="round" x1="1593.9" y1="127.9" x2="1593.9" y2="113.5"/>
	
		<line fill="none" stroke="#000000" stroke-linecap="round" stroke-linejoin="round" x1="1591.2" y1="113.5" x2="1605.6" y2="113.5"/>
	<path fill="none" stroke="#000000" stroke-linecap="round" stroke-linejoin="round" d="M1605.6,128.6c0-0.2,0.1-0.3,0.3-0.3
		s0.3,0.1,0.3,0.3c0,0.9,0,1.8,0,2.6c-5.2,0-10.3,0-15.5,0c0-7,0-14,0-21c5.2,0,10.3,0,15.5,0c0,0.9,0,1.8,0,2.6
		c0,0.2-0.1,0.3-0.3,0.3s-0.3-0.1-0.3-0.3"/>
	
		<rect x="1591.2" y="110.7" fill="none" stroke="#000000" stroke-linecap="round" stroke-linejoin="round" width="14.4" height="19.9"/>
	
		<line fill="none" stroke="#000000" stroke-linecap="round" stroke-linejoin="round" x1="1605.6" y1="106.8" x2="1591.2" y2="106.8"/>
	
		<line fill="none" stroke="#000000" stroke-linecap="round" stroke-linejoin="round" x1="1593.9" y1="106.8" x2="1593.9" y2="92.4"/>
	<line fill="none" stroke="#000000" stroke-linecap="round" stroke-linejoin="round" x1="1591.2" y1="92.4" x2="1605.6" y2="92.4"/>
	<path fill="none" stroke="#000000" stroke-linecap="round" stroke-linejoin="round" d="M1605.6,107.5c0-0.2,0.1-0.3,0.3-0.3
		s0.3,0.1,0.3,0.3c0,0.9,0,1.8,0,2.6c-5.2,0-10.3,0-15.5,0c0-7,0-14,0-21c5.2,0,10.3,0,15.5,0c0,0.9,0,1.8,0,2.6
		c0,0.2-0.1,0.3-0.3,0.3s-0.3-0.1-0.3-0.3"/>
	
		<rect x="1591.2" y="89.7" fill="none" stroke="#000000" stroke-linecap="round" stroke-linejoin="round" width="14.4" height="19.9"/>
	
		<line fill="none" stroke="#000000" stroke-linecap="round" stroke-linejoin="round" x1="1636.8" y1="106.8" x2="1651.2" y2="106.8"/>
	
		<line fill="none" stroke="#000000" stroke-linecap="round" stroke-linejoin="round" x1="1648.5" y1="106.8" x2="1648.5" y2="92.4"/>
	<line fill="none" stroke="#000000" stroke-linecap="round" stroke-linejoin="round" x1="1651.2" y1="92.4" x2="1636.8" y2="92.4"/>
	<path fill="none" stroke="#000000" stroke-linecap="round" stroke-linejoin="round" d="M1636.8,107.5c0-0.2-0.1-0.3-0.3-0.3
		s-0.3,0.1-0.3,0.3c0,0.9,0,1.8,0,2.6c5.2,0,10.3,0,15.5,0c0-7,0-14,0-21c-5.2,0-10.3,0-15.5,0c0,0.9,0,1.8,0,2.6
		c0,0.2,0.1,0.3,0.3,0.3s0.3-0.1,0.3-0.3"/>
	
		<rect x="1636.9" y="89.7" fill="none" stroke="#000000" stroke-linecap="round" stroke-linejoin="round" width="14.4" height="19.9"/>
	<path fill="none" stroke="#000000" stroke-linecap="round" stroke-linejoin="round" d="M1628.4,125.3c0,0.8-0.3,1.2-1.2,1.2"/>
	
		<line fill="none" stroke="#000000" stroke-linecap="round" stroke-linejoin="round" x1="1615.2" y1="126.5" x2="1627.2" y2="126.5"/>
	<path fill="none" stroke="#000000" stroke-linecap="round" stroke-linejoin="round" d="M1615.2,126.5c-0.8,0-1.2-0.3-1.2-1.2"/>
	<line fill="none" stroke="#000000" stroke-linecap="round" stroke-linejoin="round" x1="1627.2" y1="91.1" x2="1615.2" y2="91.1"/>
	<line fill="none" stroke="#000000" stroke-linecap="round" stroke-linejoin="round" x1="1614" y1="92.3" x2="1614" y2="125.3"/>
	<path fill="none" stroke="#000000" stroke-linecap="round" stroke-linejoin="round" d="M1614,92.3c0-0.9,0.3-1.2,1.2-1.2"/>
	
		<line fill="none" stroke="#000000" stroke-linecap="round" stroke-linejoin="round" x1="1628.4" y1="125.3" x2="1628.4" y2="92.3"/>
	<path fill="none" stroke="#000000" stroke-linecap="round" stroke-linejoin="round" d="M1627.2,91.1c0.8,0,1.2,0.4,1.2,1.2"/>
	
		<line fill="none" stroke="#000000" stroke-linecap="round" stroke-linejoin="round" x1="1671.8" y1="113.5" x2="1657.4" y2="113.5"/>
	
		<line fill="none" stroke="#000000" stroke-linecap="round" stroke-linejoin="round" x1="1660.2" y1="113.5" x2="1660.2" y2="127.9"/>
	
		<line fill="none" stroke="#000000" stroke-linecap="round" stroke-linejoin="round" x1="1657.4" y1="127.9" x2="1671.8" y2="127.9"/>
	<path fill="none" stroke="#000000" stroke-linecap="round" stroke-linejoin="round" d="M1671.8,112.8c0,0.2,0.1,0.3,0.3,0.3
		s0.3-0.1,0.3-0.3c0-0.9,0-1.8,0-2.6c-5.2,0-10.3,0-15.5,0c0,7,0,14,0,21.1c5.2,0,10.3,0,15.5,0c0-0.9,0-1.8,0-2.6
		c0-0.2-0.1-0.3-0.3-0.3s-0.3,0.1-0.3,0.3"/>
	
		<rect x="1657.4" y="110.7" fill="none" stroke="#000000" stroke-linecap="round" stroke-linejoin="round" width="14.4" height="19.9"/>
	
		<rect x="1707.8" y="110.7" fill="none" stroke="#000000" stroke-linecap="round" stroke-linejoin="round" width="14.4" height="19.9"/>
	<path fill="none" stroke="#000000" stroke-linecap="round" stroke-linejoin="round" d="M1707.8,112.8c0,0.2-0.1,0.3-0.3,0.3
		c-0.2,0-0.3-0.1-0.3-0.3c0-0.9,0-1.8,0-2.6c5.2,0,10.3,0,15.5,0c0,7,0,14,0,21.1c-5.2,0-10.3,0-15.5,0c0-0.9,0-1.8,0-2.6
		c0-0.2,0.1-0.3,0.3-0.3c0.2,0,0.3,0.1,0.3,0.3"/>
	
		<line fill="none" stroke="#000000" stroke-linecap="round" stroke-linejoin="round" x1="1722.2" y1="127.9" x2="1707.8" y2="127.9"/>
	
		<line fill="none" stroke="#000000" stroke-linecap="round" stroke-linejoin="round" x1="1719.5" y1="113.5" x2="1719.5" y2="127.9"/>
	
		<line fill="none" stroke="#000000" stroke-linecap="round" stroke-linejoin="round" x1="1707.8" y1="113.5" x2="1722.2" y2="113.5"/>
	<path fill="none" stroke="#000000" stroke-linecap="round" stroke-linejoin="round" d="M1682.6,126.7c0,0.8,0.3,1.2,1.2,1.2"/>
	
		<line fill="none" stroke="#000000" stroke-linecap="round" stroke-linejoin="round" x1="1695.8" y1="127.9" x2="1683.8" y2="127.9"/>
	<path fill="none" stroke="#000000" stroke-linecap="round" stroke-linejoin="round" d="M1695.8,127.9c0.8,0,1.2-0.3,1.2-1.2"/>
	<line fill="none" stroke="#000000" stroke-linecap="round" stroke-linejoin="round" x1="1707.8" y1="92.4" x2="1722.2" y2="92.4"/>
	
		<line fill="none" stroke="#000000" stroke-linecap="round" stroke-linejoin="round" x1="1719.5" y1="92.4" x2="1719.5" y2="106.8"/>
	
		<line fill="none" stroke="#000000" stroke-linecap="round" stroke-linejoin="round" x1="1722.2" y1="106.8" x2="1707.8" y2="106.8"/>
	
		<rect x="1707.8" y="89.7" fill="none" stroke="#000000" stroke-linecap="round" stroke-linejoin="round" width="14.4" height="19.9"/>
	
		<rect x="1657.4" y="89.7" fill="none" stroke="#000000" stroke-linecap="round" stroke-linejoin="round" width="14.4" height="19.9"/>
	<path fill="none" stroke="#000000" stroke-linecap="round" stroke-linejoin="round" d="M1671.8,91.7c0,0.2,0.1,0.3,0.3,0.3
		s0.3-0.1,0.3-0.3c0-0.9,0-1.8,0-2.6c-5.2,0-10.3,0-15.5,0c0,7,0,14,0,21c5.2,0,10.3,0,15.5,0c0-0.9,0-1.8,0-2.6
		c0-0.2-0.1-0.3-0.3-0.3s-0.3,0.1-0.3,0.3"/>
	
		<line fill="none" stroke="#000000" stroke-linecap="round" stroke-linejoin="round" x1="1657.4" y1="106.8" x2="1671.8" y2="106.8"/>
	
		<line fill="none" stroke="#000000" stroke-linecap="round" stroke-linejoin="round" x1="1660.2" y1="92.4" x2="1660.2" y2="106.8"/>
	<line fill="none" stroke="#000000" stroke-linecap="round" stroke-linejoin="round" x1="1671.8" y1="92.4" x2="1657.4" y2="92.4"/>
	<line fill="none" stroke="#000000" stroke-linecap="round" stroke-linejoin="round" x1="1683.8" y1="92.4" x2="1695.8" y2="92.4"/>
	<line fill="none" stroke="#000000" stroke-linecap="round" stroke-linejoin="round" x1="1697" y1="93.6" x2="1697" y2="126.7"/>
	<path fill="none" stroke="#000000" stroke-linecap="round" stroke-linejoin="round" d="M1697,93.6c0-0.9-0.3-1.2-1.2-1.2"/>
	
		<line fill="none" stroke="#000000" stroke-linecap="round" stroke-linejoin="round" x1="1682.6" y1="126.7" x2="1682.6" y2="93.6"/>
	<path fill="none" stroke="#000000" stroke-linecap="round" stroke-linejoin="round" d="M1683.8,92.4c-0.8,0-1.2,0.4-1.2,1.2"/>
	<path fill="none" stroke="#000000" stroke-linecap="round" stroke-linejoin="round" d="M1707.8,91.7c0,0.2-0.1,0.3-0.3,0.3
		c-0.2,0-0.3-0.1-0.3-0.3c0-0.9,0-1.8,0-2.6c5.2,0,10.3,0,15.5,0c0,7,0,14,0,21c-5.2,0-10.3,0-15.5,0c0-0.9,0-1.8,0-2.6
		c0-0.2,0.1-0.3,0.3-0.3c0.2,0,0.3,0.1,0.3,0.3"/>
	<polyline fill="none" stroke="#000000" stroke-linecap="round" stroke-linejoin="round" points="1725,41.9 1725,10.5 1710.6,10.5 
		1710.6,24.9 	"/>
	<line fill="none" stroke="#000000" stroke-linecap="round" stroke-linejoin="round" x1="1660.2" y1="24.9" x2="1710.6" y2="24.9"/>
	<line fill="none" stroke="#000000" stroke-linecap="round" stroke-linejoin="round" x1="1725" y1="41.9" x2="1660.2" y2="41.9"/>
	<line fill="none" stroke="#000000" stroke-linecap="round" stroke-linejoin="round" x1="1595.4" y1="41.9" x2="1660.2" y2="41.9"/>
	<line fill="none" stroke="#000000" stroke-linecap="round" stroke-linejoin="round" x1="1660.2" y1="24.9" x2="1609.8" y2="24.9"/>
	<polyline fill="none" stroke="#000000" stroke-linecap="round" stroke-linejoin="round" points="1595.4,41.9 1595.4,10.5 
		1609.8,10.5 1609.8,24.9 	"/>
	<line fill="none" stroke="#000000" stroke-linecap="round" stroke-linejoin="round" x1="1628.5" y1="24.9" x2="1628.5" y2="15.8"/>
	<line fill="none" stroke="#000000" stroke-linecap="round" stroke-linejoin="round" x1="1641.4" y1="15.8" x2="1641.4" y2="24.9"/>
	<path fill="none" stroke="#000000" stroke-linecap="round" stroke-linejoin="round" d="M1641.4,15.8c0-0.4-0.2-0.6-0.6-0.6"/>
	<line fill="none" stroke="#000000" stroke-linecap="round" stroke-linejoin="round" x1="1629.1" y1="15.2" x2="1640.8" y2="15.2"/>
	<path fill="none" stroke="#000000" stroke-linecap="round" stroke-linejoin="round" d="M1629.1,15.2c-0.4,0-0.6,0.2-0.6,0.6"/>
	<path fill="none" stroke="#000000" stroke-linecap="round" stroke-linejoin="round" d="M1641.2,15.8c0-0.4-0.2-0.6-0.6-0.6"/>
	<path fill="none" stroke="#000000" stroke-linecap="round" stroke-linejoin="round" d="M1629.2,15.2c-0.4,0-0.6,0.2-0.6,0.6"/>
	<path fill="none" stroke="#000000" stroke-linecap="round" stroke-linejoin="round" d="M1640.1,18.1c0.8,0,1.2-0.4,1.2-1.2"/>
	<path fill="none" stroke="#000000" stroke-linecap="round" stroke-linejoin="round" d="M1628.7,16.9c0,0.9,0.3,1.2,1.2,1.2"/>
	<line fill="none" stroke="#000000" stroke-linecap="round" stroke-linejoin="round" x1="1641.2" y1="15.8" x2="1641.2" y2="16.9"/>
	<line fill="none" stroke="#000000" stroke-linecap="round" stroke-linejoin="round" x1="1629.8" y1="18.1" x2="1640.1" y2="18.1"/>
	<line fill="none" stroke="#000000" stroke-linecap="round" stroke-linejoin="round" x1="1628.7" y1="15.8" x2="1628.7" y2="16.9"/>
	<line fill="none" stroke="#000000" stroke-linecap="round" stroke-linejoin="round" x1="1692.3" y1="15.8" x2="1692.3" y2="16.9"/>
	<line fill="none" stroke="#000000" stroke-linecap="round" stroke-linejoin="round" x1="1691.1" y1="18.1" x2="1680.9" y2="18.1"/>
	<line fill="none" stroke="#000000" stroke-linecap="round" stroke-linejoin="round" x1="1679.7" y1="15.8" x2="1679.7" y2="16.9"/>
	<path fill="none" stroke="#000000" stroke-linecap="round" stroke-linejoin="round" d="M1692.3,16.9c0,0.9-0.3,1.2-1.2,1.2"/>
	<path fill="none" stroke="#000000" stroke-linecap="round" stroke-linejoin="round" d="M1680.9,18.1c-0.8,0-1.2-0.4-1.2-1.2"/>
	<path fill="none" stroke="#000000" stroke-linecap="round" stroke-linejoin="round" d="M1691.7,15.2c0.4,0,0.6,0.2,0.6,0.6"/>
	<path fill="none" stroke="#000000" stroke-linecap="round" stroke-linejoin="round" d="M1679.7,15.8c0-0.4,0.2-0.6,0.6-0.6"/>
	<path fill="none" stroke="#000000" stroke-linecap="round" stroke-linejoin="round" d="M1691.9,15.2c0.4,0,0.6,0.2,0.6,0.6"/>
	<line fill="none" stroke="#000000" stroke-linecap="round" stroke-linejoin="round" x1="1691.9" y1="15.2" x2="1680.2" y2="15.2"/>
	<path fill="none" stroke="#000000" stroke-linecap="round" stroke-linejoin="round" d="M1679.6,15.8c0-0.4,0.2-0.6,0.6-0.6"/>
	<line fill="none" stroke="#000000" stroke-linecap="round" stroke-linejoin="round" x1="1679.6" y1="15.8" x2="1679.6" y2="24.9"/>
	<line fill="none" stroke="#000000" stroke-linecap="round" stroke-linejoin="round" x1="1692.5" y1="24.9" x2="1692.5" y2="15.8"/>
	
		<line fill="none" stroke="#000000" stroke-linecap="round" stroke-linejoin="round" x1="1605.6" y1="127.9" x2="1591.2" y2="127.9"/>
</g>
</svg>
