<?xml version="1.0" encoding="utf-8"?>
<!-- Generator: Adobe Illustrator 18.0.0, SVG Export Plug-In . SVG Version: 6.00 Build 0)  -->
<!DOCTYPE svg PUBLIC "-//W3C//DTD SVG 1.1//EN" "http://www.w3.org/Graphics/SVG/1.1/DTD/svg11.dtd">
<svg version="1.1" id="_x30_-FURN" xmlns="http://www.w3.org/2000/svg" xmlns:xlink="http://www.w3.org/1999/xlink" x="0px" y="0px"
	 width="142.4px" height="62.8px" viewBox="0 0 142.4 62.8" enable-background="new 0 0 142.4 62.8" xml:space="preserve">
	 <g>
<g id="LINE">
	
		<line fill="none" stroke="#000000" stroke-width="0.7087" stroke-linecap="round" stroke-linejoin="round" stroke-miterlimit="10" x1="17.9" y1="59.5" x2="34.6" y2="59.5"/>
</g>
<g id="POLYLINE">
	
		<polyline fill="none" stroke="#000000" stroke-width="0.7087" stroke-linecap="round" stroke-linejoin="round" stroke-miterlimit="10" points="
		34.6,51.6 34.6,62.8 17.9,62.8 17.9,51.6 	"/>
</g>
<g id="POLYLINE_1_">
	
		<polyline fill="none" stroke="#000000" stroke-width="0.7087" stroke-linecap="round" stroke-linejoin="round" stroke-miterlimit="10" points="
		47.9,51.6 47.9,62.8 64.6,62.8 64.6,51.6 	"/>
</g>
<g id="LINE_1_">
	
		<line fill="none" stroke="#000000" stroke-width="0.7087" stroke-linecap="round" stroke-linejoin="round" stroke-miterlimit="10" x1="64.6" y1="59.5" x2="47.9" y2="59.5"/>
</g>
<g id="LINE_2_">
	
		<line fill="none" stroke="#000000" stroke-width="0.7087" stroke-linecap="round" stroke-linejoin="round" stroke-miterlimit="10" x1="77.9" y1="59.5" x2="94.6" y2="59.5"/>
</g>
<g id="POLYLINE_2_">
	
		<polyline fill="none" stroke="#000000" stroke-width="0.7087" stroke-linecap="round" stroke-linejoin="round" stroke-miterlimit="10" points="
		94.6,51.6 94.6,62.8 77.9,62.8 77.9,51.6 	"/>
</g>
<g id="POLYLINE_3_">
	
		<polyline fill="none" stroke="#000000" stroke-width="0.7087" stroke-linecap="round" stroke-linejoin="round" stroke-miterlimit="10" points="
		107.9,51.6 107.9,62.8 124.6,62.8 124.6,51.6 	"/>
</g>
<g id="LINE_3_">
	
		<line fill="none" stroke="#000000" stroke-width="0.7087" stroke-linecap="round" stroke-linejoin="round" stroke-miterlimit="10" x1="124.6" y1="59.5" x2="107.9" y2="59.5"/>
</g>
<g id="LINE_4_">
	
		<line fill="none" stroke="#000000" stroke-width="0.7087" stroke-linecap="round" stroke-linejoin="round" stroke-miterlimit="10" x1="124.6" y1="3.3" x2="107.9" y2="3.3"/>
</g>
<g id="POLYLINE_4_">
	
		<polyline fill="none" stroke="#000000" stroke-width="0.7087" stroke-linecap="round" stroke-linejoin="round" stroke-miterlimit="10" points="
		107.9,11.2 107.9,0 124.6,0 124.6,11.2 	"/>
</g>
<g id="POLYLINE_5_">
	
		<polyline fill="none" stroke="#000000" stroke-width="0.7087" stroke-linecap="round" stroke-linejoin="round" stroke-miterlimit="10" points="
		94.6,11.2 94.6,0 77.9,0 77.9,11.2 	"/>
</g>
<g id="LINE_5_">
	
		<line fill="none" stroke="#000000" stroke-width="0.7087" stroke-linecap="round" stroke-linejoin="round" stroke-miterlimit="10" x1="77.9" y1="3.3" x2="94.6" y2="3.3"/>
</g>
<g id="LINE_6_">
	
		<line fill="none" stroke="#000000" stroke-width="0.7087" stroke-linecap="round" stroke-linejoin="round" stroke-miterlimit="10" x1="64.6" y1="3.3" x2="47.9" y2="3.3"/>
</g>
<g id="POLYLINE_6_">
	
		<polyline fill="none" stroke="#000000" stroke-width="0.7087" stroke-linecap="round" stroke-linejoin="round" stroke-miterlimit="10" points="
		47.9,11.2 47.9,0 64.6,0 64.6,11.2 	"/>
</g>
<g id="POLYLINE_7_">
	
		<polyline fill="none" stroke="#000000" stroke-width="0.7087" stroke-linecap="round" stroke-linejoin="round" stroke-miterlimit="10" points="
		34.6,11.2 34.6,0 17.9,0 17.9,11.2 	"/>
</g>
<g id="LINE_7_">
	
		<line fill="none" stroke="#000000" stroke-width="0.7087" stroke-linecap="round" stroke-linejoin="round" stroke-miterlimit="10" x1="17.9" y1="3.3" x2="34.6" y2="3.3"/>
</g>
<g id="LINE_8_">
	
		<line fill="none" stroke="#000000" stroke-width="0.7087" stroke-linecap="round" stroke-linejoin="round" stroke-miterlimit="10" x1="3.3" y1="39.6" x2="3.3" y2="22.9"/>
</g>
<g id="POLYLINE_8_">
	
		<polyline fill="none" stroke="#000000" stroke-width="0.7087" stroke-linecap="round" stroke-linejoin="round" stroke-miterlimit="10" points="
		11.2,22.9 0,22.9 0,39.6 11.2,39.6 	"/>
</g>
<g id="POLYLINE_9_">
	
		<polyline fill="none" stroke="#000000" stroke-width="0.7087" stroke-linecap="round" stroke-linejoin="round" stroke-miterlimit="10" points="
		131.2,22.9 142.4,22.9 142.4,39.6 131.2,39.6 	"/>
</g>
<g id="LINE_9_">
	
		<line fill="none" stroke="#000000" stroke-width="0.7087" stroke-linecap="round" stroke-linejoin="round" stroke-miterlimit="10" x1="139.1" y1="39.6" x2="139.1" y2="22.9"/>
</g>
<g id="POLYLINE_10_">
	
		<polyline fill="none" stroke="#000000" stroke-width="0.7087" stroke-linecap="round" stroke-linejoin="round" stroke-miterlimit="10" points="
		11.2,51.4 131.2,51.4 131.2,11.4 11.2,11.4 11.2,51.4 	"/>
</g>
</g>
</svg>
