<?xml version="1.0" encoding="utf-8"?>
<!-- Generator: Adobe Illustrator 18.0.0, SVG Export Plug-In . SVG Version: 6.00 Build 0)  -->
<!DOCTYPE svg PUBLIC "-//W3C//DTD SVG 1.1//EN" "http://www.w3.org/Graphics/SVG/1.1/DTD/svg11.dtd">
<svg version="1.1" id="_x30_-FURN" xmlns="http://www.w3.org/2000/svg" xmlns:xlink="http://www.w3.org/1999/xlink" x="0px" y="0px"
	 width="243.2px" height="63.5px" viewBox="0 0 243.2 63.5" enable-background="new 0 0 243.2 63.5" xml:space="preserve">
<g>
	<g id="LINE">
		
			<line fill="none" stroke="#000000" stroke-width="0.7087" stroke-linecap="round" stroke-linejoin="round" stroke-miterlimit="10" x1="23.2" y1="3.7" x2="39.9" y2="3.7"/>
	</g>
	<g id="POLYLINE">
		
			<polyline fill="none" stroke="#000000" stroke-width="0.7087" stroke-linecap="round" stroke-linejoin="round" stroke-miterlimit="10" points="
			39.9,11.6 39.9,0.4 23.2,0.4 23.2,11.6 		"/>
	</g>
	<g id="POLYLINE_1_">
		
			<polyline fill="none" stroke="#000000" stroke-width="0.7087" stroke-linecap="round" stroke-linejoin="round" stroke-miterlimit="10" points="
			39.9,52 39.9,63.2 23.2,63.2 23.2,52 		"/>
	</g>
	<g id="LINE_1_">
		
			<line fill="none" stroke="#000000" stroke-width="0.7087" stroke-linecap="round" stroke-linejoin="round" stroke-miterlimit="10" x1="23.2" y1="59.8" x2="39.9" y2="59.8"/>
	</g>
	<g id="POLYLINE_2_">
		
			<polyline fill="none" stroke="#000000" stroke-width="0.7087" stroke-linecap="round" stroke-linejoin="round" stroke-miterlimit="10" points="
			203.2,52 203.2,63.2 219.9,63.2 219.9,52 		"/>
	</g>
	<g id="LINE_2_">
		
			<line fill="none" stroke="#000000" stroke-width="0.7087" stroke-linecap="round" stroke-linejoin="round" stroke-miterlimit="10" x1="219.9" y1="59.8" x2="203.2" y2="59.8"/>
	</g>
	<g id="LINE_3_">
		
			<line fill="none" stroke="#000000" stroke-width="0.7087" stroke-linecap="round" stroke-linejoin="round" stroke-miterlimit="10" x1="219.9" y1="3.7" x2="203.2" y2="3.7"/>
	</g>
	<g id="POLYLINE_3_">
		
			<polyline fill="none" stroke="#000000" stroke-width="0.7087" stroke-linecap="round" stroke-linejoin="round" stroke-miterlimit="10" points="
			203.2,11.6 203.2,0.4 219.9,0.4 219.9,11.6 		"/>
	</g>
	<g id="LINE_4_">
		
			<line fill="none" stroke="#000000" stroke-width="0.7087" stroke-linecap="round" stroke-linejoin="round" stroke-miterlimit="10" x1="53.2" y1="59.8" x2="69.9" y2="59.8"/>
	</g>
	<g id="POLYLINE_4_">
		
			<polyline fill="none" stroke="#000000" stroke-width="0.7087" stroke-linecap="round" stroke-linejoin="round" stroke-miterlimit="10" points="
			69.9,52 69.9,63.2 53.2,63.2 53.2,52 		"/>
	</g>
	<g id="POLYLINE_5_">
		
			<polyline fill="none" stroke="#000000" stroke-width="0.7087" stroke-linecap="round" stroke-linejoin="round" stroke-miterlimit="10" points="
			83.2,52 83.2,63.2 99.9,63.2 99.9,52 		"/>
	</g>
	<g id="LINE_5_">
		
			<line fill="none" stroke="#000000" stroke-width="0.7087" stroke-linecap="round" stroke-linejoin="round" stroke-miterlimit="10" x1="99.9" y1="59.8" x2="83.2" y2="59.8"/>
	</g>
	<g id="LINE_6_">
		
			<line fill="none" stroke="#000000" stroke-width="0.7087" stroke-linecap="round" stroke-linejoin="round" stroke-miterlimit="10" x1="113.2" y1="59.8" x2="129.9" y2="59.8"/>
	</g>
	<g id="POLYLINE_6_">
		
			<polyline fill="none" stroke="#000000" stroke-width="0.7087" stroke-linecap="round" stroke-linejoin="round" stroke-miterlimit="10" points="
			129.9,52 129.9,63.2 113.2,63.2 113.2,52 		"/>
	</g>
	<g id="POLYLINE_7_">
		
			<polyline fill="none" stroke="#000000" stroke-width="0.7087" stroke-linecap="round" stroke-linejoin="round" stroke-miterlimit="10" points="
			143.2,52 143.2,63.2 159.9,63.2 159.9,52 		"/>
	</g>
	<g id="LINE_7_">
		
			<line fill="none" stroke="#000000" stroke-width="0.7087" stroke-linecap="round" stroke-linejoin="round" stroke-miterlimit="10" x1="159.9" y1="59.8" x2="143.2" y2="59.8"/>
	</g>
	<g id="LINE_8_">
		
			<line fill="none" stroke="#000000" stroke-width="0.7087" stroke-linecap="round" stroke-linejoin="round" stroke-miterlimit="10" x1="159.9" y1="3.7" x2="143.2" y2="3.7"/>
	</g>
	<g id="POLYLINE_8_">
		
			<polyline fill="none" stroke="#000000" stroke-width="0.7087" stroke-linecap="round" stroke-linejoin="round" stroke-miterlimit="10" points="
			143.2,11.6 143.2,0.4 159.9,0.4 159.9,11.6 		"/>
	</g>
	<g id="POLYLINE_9_">
		
			<polyline fill="none" stroke="#000000" stroke-width="0.7087" stroke-linecap="round" stroke-linejoin="round" stroke-miterlimit="10" points="
			129.9,11.6 129.9,0.4 113.2,0.4 113.2,11.6 		"/>
	</g>
	<g id="LINE_9_">
		
			<line fill="none" stroke="#000000" stroke-width="0.7087" stroke-linecap="round" stroke-linejoin="round" stroke-miterlimit="10" x1="113.2" y1="3.7" x2="129.9" y2="3.7"/>
	</g>
	<g id="LINE_10_">
		
			<line fill="none" stroke="#000000" stroke-width="0.7087" stroke-linecap="round" stroke-linejoin="round" stroke-miterlimit="10" x1="99.9" y1="3.7" x2="83.2" y2="3.7"/>
	</g>
	<g id="POLYLINE_10_">
		
			<polyline fill="none" stroke="#000000" stroke-width="0.7087" stroke-linecap="round" stroke-linejoin="round" stroke-miterlimit="10" points="
			83.2,11.6 83.2,0.4 99.9,0.4 99.9,11.6 		"/>
	</g>
	<g id="POLYLINE_11_">
		
			<polyline fill="none" stroke="#000000" stroke-width="0.7087" stroke-linecap="round" stroke-linejoin="round" stroke-miterlimit="10" points="
			69.9,11.6 69.9,0.4 53.2,0.4 53.2,11.6 		"/>
	</g>
	<g id="LINE_11_">
		
			<line fill="none" stroke="#000000" stroke-width="0.7087" stroke-linecap="round" stroke-linejoin="round" stroke-miterlimit="10" x1="53.2" y1="3.7" x2="69.9" y2="3.7"/>
	</g>
	<g id="POLYLINE_12_">
		
			<polyline fill="none" stroke="#000000" stroke-width="0.7087" stroke-linecap="round" stroke-linejoin="round" stroke-miterlimit="10" points="
			173.2,11.6 173.2,0.4 189.9,0.4 189.9,11.6 		"/>
	</g>
	<g id="LINE_12_">
		
			<line fill="none" stroke="#000000" stroke-width="0.7087" stroke-linecap="round" stroke-linejoin="round" stroke-miterlimit="10" x1="189.9" y1="3.7" x2="173.2" y2="3.7"/>
	</g>
	<g id="LINE_13_">
		
			<line fill="none" stroke="#000000" stroke-width="0.7087" stroke-linecap="round" stroke-linejoin="round" stroke-miterlimit="10" x1="189.9" y1="59.8" x2="173.2" y2="59.8"/>
	</g>
	<g id="POLYLINE_13_">
		
			<polyline fill="none" stroke="#000000" stroke-width="0.7087" stroke-linecap="round" stroke-linejoin="round" stroke-miterlimit="10" points="
			173.2,52 173.2,63.2 189.9,63.2 189.9,52 		"/>
	</g>
	<g id="POLYLINE_14_">
		
			<polyline fill="none" stroke="#000000" stroke-width="0.7087" stroke-linecap="round" stroke-linejoin="round" stroke-miterlimit="10" points="
			231.6,23.2 242.8,23.2 242.8,39.9 231.6,39.9 		"/>
	</g>
	<g id="LINE_14_">
		
			<line fill="none" stroke="#000000" stroke-width="0.7087" stroke-linecap="round" stroke-linejoin="round" stroke-miterlimit="10" x1="239.5" y1="39.9" x2="239.5" y2="23.2"/>
	</g>
	<g id="LINE_15_">
		
			<line fill="none" stroke="#000000" stroke-width="0.7087" stroke-linecap="round" stroke-linejoin="round" stroke-miterlimit="10" x1="3.7" y1="39.9" x2="3.7" y2="23.2"/>
	</g>
	<g id="POLYLINE_15_">
		
			<polyline fill="none" stroke="#000000" stroke-width="0.7087" stroke-linecap="round" stroke-linejoin="round" stroke-miterlimit="10" points="
			11.6,23.2 0.4,23.2 0.4,39.9 11.6,39.9 		"/>
	</g>
	<g id="POLYLINE_16_">
		
			<polyline fill="none" stroke="#000000" stroke-width="0.7087" stroke-linecap="round" stroke-linejoin="round" stroke-miterlimit="10" points="
			11.6,51.8 231.6,51.8 231.6,11.8 11.6,11.8 11.6,51.8 		"/>
	</g>
</g>
</svg>
