<?xml version="1.0" encoding="utf-8"?>
<!-- Generator: Adobe Illustrator 18.1.1, SVG Export Plug-In . SVG Version: 6.00 Build 0)  -->
<!DOCTYPE svg PUBLIC "-//W3C//DTD SVG 1.1//EN" "http://www.w3.org/Graphics/SVG/1.1/DTD/svg11.dtd">
<svg version="1.1" id="Layer_1" xmlns="http://www.w3.org/2000/svg" xmlns:xlink="http://www.w3.org/1999/xlink" x="0px" y="0px"
	 width="31.53px" height="42.38px" viewBox="0 0 31.53 42.38" enable-background="new 0 0 31.53 42.38" xml:space="preserve">
<g>
  <line fill="none" stroke="#231F20" stroke-width="0.5" stroke-linecap="round" stroke-linejoin="round" x1="16.2" y1="10.6" x2="7.58" y2="10.6"/>
  <polyline fill="none" stroke="#231F20" stroke-width="0.5" stroke-linecap="round" stroke-linejoin="round" points="7.58,15.77 
  	7.58,8.87 16.2,8.87 16.2,15.77 "/>
  <polyline fill="none" stroke="#231F20" stroke-width="0.5" stroke-linecap="round" stroke-linejoin="round" points="31.28,15.77 
  	31.28,0.25 23.53,0.25 23.53,15.77 "/>
  <rect x="0.25" y="15.77" fill="none" stroke="#231F20" stroke-width="0.5" stroke-linecap="round" stroke-linejoin="round" width="31.03" height="12.93"/>
  <line fill="none" stroke="#231F20" stroke-width="0.5" stroke-linecap="round" stroke-linejoin="round" x1="3.53" y1="38.24" x2="11.85" y2="40.47"/>
  <line fill="none" stroke="#231F20" stroke-width="0.5" stroke-linecap="round" stroke-linejoin="round" x1="11.41" y1="42.13" x2="3.08" y2="39.9"/>
  <polyline fill="none" stroke="#231F20" stroke-width="0.5" stroke-linecap="round" stroke-linejoin="round" points="11.41,42.13 
  	13.64,33.8 5.31,31.58 3.08,39.9 "/>
  <polyline fill="none" stroke="#231F20" stroke-width="0.5" stroke-linecap="round" stroke-linejoin="round" points="20.13,42.13 
  	17.9,33.8 26.23,31.58 28.46,39.9 "/>
  <line fill="none" stroke="#231F20" stroke-width="0.5" stroke-linecap="round" stroke-linejoin="round" x1="20.13" y1="42.13" x2="28.46" y2="39.9"/>
  <line fill="none" stroke="#231F20" stroke-width="0.5" stroke-linecap="round" stroke-linejoin="round" x1="28.01" y1="38.24" x2="19.68" y2="40.47"/>
</g>
</svg>
