<?xml version="1.0" encoding="utf-8"?>
<!-- Generator: Adobe Illustrator 18.0.0, SVG Export Plug-In . SVG Version: 6.00 Build 0)  -->
<!DOCTYPE svg PUBLIC "-//W3C//DTD SVG 1.1//EN" "http://www.w3.org/Graphics/SVG/1.1/DTD/svg11.dtd">
<svg version="1.1" id="FURN_x24_0-FURN-OFFICE" xmlns="http://www.w3.org/2000/svg" xmlns:xlink="http://www.w3.org/1999/xlink"
	 x="0px" y="0px" width="60.7px" height="65px" viewBox="0 0 60.7 65" enable-background="new 0 0 60.7 65" xml:space="preserve">
<g>
	<g id="POLYLINE">
		<path d="M21.9,65C21.9,65,21.9,65,21.9,65c-0.3-0.1-0.4-0.3-0.3-0.4l4.2-15.8l-15.4-4.1L6.2,60.4c-0.1,0.2-0.2,0.3-0.4,0.2
			c-0.2,0-0.3-0.2-0.3-0.4l4.3-16.1c0.1-0.2,0.2-0.3,0.4-0.2l16.1,4.3c0.1,0,0.2,0.1,0.2,0.2c0,0.1,0.1,0.2,0,0.3l-4.3,16.1
			C22.2,64.9,22.1,65,21.9,65z"/>
	</g>
	<g id="LINE">
		<path d="M21.9,65C21.9,65,21.9,65,21.9,65L5.7,60.7c-0.2,0-0.3-0.2-0.3-0.4c0.1-0.2,0.2-0.3,0.4-0.2L22,64.3
			c0.2,0,0.3,0.2,0.3,0.4C22.2,64.9,22.1,65,21.9,65z"/>
	</g>
	<g id="LINE_1_">
		<path d="M22.8,61.8C22.8,61.8,22.7,61.8,22.8,61.8L6.6,57.5c-0.2,0-0.3-0.2-0.3-0.4c0.1-0.2,0.2-0.3,0.4-0.2l16.1,4.3
			c0.2,0,0.3,0.2,0.3,0.4C23.1,61.7,22.9,61.8,22.8,61.8z"/>
	</g>
	<g id="LINE_2_">
		<path d="M38.7,4H22c-0.2,0-0.4-0.2-0.4-0.4s0.2-0.4,0.4-0.4h16.7c0.2,0,0.4,0.2,0.4,0.4S38.9,4,38.7,4z"/>
	</g>
	<g id="POLYLINE_1_">
		<path d="M38.7,14c-0.2,0-0.4-0.2-0.4-0.4v-13h-16v13c0,0.2-0.2,0.4-0.4,0.4s-0.4-0.2-0.4-0.4V0.4C21.7,0.2,21.8,0,22,0h16.7
			C38.9,0,39,0.2,39,0.4v13.3C39,13.9,38.9,14,38.7,14z"/>
	</g>
	<g id="LINE_3_">
		<path d="M37.9,61.8c-0.2,0-0.3-0.1-0.3-0.3c-0.1-0.2,0.1-0.4,0.2-0.4l16.1-4.3c0.2-0.1,0.4,0.1,0.4,0.2c0.1,0.2-0.1,0.4-0.2,0.4
			L37.9,61.8C38,61.8,38,61.8,37.9,61.8z"/>
	</g>
	<g id="LINE_4_">
		<path d="M38.8,65c-0.2,0-0.3-0.1-0.3-0.3c-0.1-0.2,0.1-0.4,0.2-0.4L54.8,60c0.2-0.1,0.4,0.1,0.4,0.2c0.1,0.2-0.1,0.4-0.2,0.4
			L38.8,65C38.8,65,38.8,65,38.8,65z"/>
	</g>
	<g id="POLYLINE_2_">
		<path d="M38.8,65c-0.2,0-0.3-0.1-0.3-0.3l-4.3-16.1c-0.1-0.2,0.1-0.4,0.2-0.4l16.1-4.3c0.2-0.1,0.4,0.1,0.4,0.2l4.3,16.1
			c0.1,0.2-0.1,0.4-0.2,0.4c-0.2,0.1-0.4-0.1-0.4-0.2l-4.2-15.8l-15.4,4.1l4.2,15.8C39.2,64.8,39.1,64.9,38.8,65
			C38.8,65,38.8,65,38.8,65z"/>
	</g>
	<g id="POLYLINE_3_">
		<path d="M60.4,39h-60C0.2,39,0,38.9,0,38.7v-25c0-0.2,0.2-0.4,0.4-0.4h60c0.2,0,0.4,0.2,0.4,0.4v25C60.7,38.9,60.5,39,60.4,39z
			 M0.7,38.3H60V14H0.7V38.3z"/>
	</g>
</g>
</svg>
