<?xml version="1.0" encoding="utf-8"?>
<!-- Generator: Adobe Illustrator 18.1.1, SVG Export Plug-In . SVG Version: 6.00 Build 0)  -->
<!DOCTYPE svg PUBLIC "-//W3C//DTD SVG 1.1//EN" "http://www.w3.org/Graphics/SVG/1.1/DTD/svg11.dtd">
<svg version="1.1" id="Layer_1" xmlns="http://www.w3.org/2000/svg" xmlns:xlink="http://www.w3.org/1999/xlink" x="0px" y="0px"
	 width="1280px" height="800px" viewBox="0 0 1280 800" enable-background="new 0 0 1280 800" xml:space="preserve">
<polygon opacity="0.2" fill="none" stroke="#FAFAFF" stroke-linecap="round" stroke-linejoin="round" stroke-miterlimit="10" points="
	342.43,24.84 342.43,33.16 337.28,33.16 337.28,40.96 334.67,40.96 334.67,97.93 332.07,97.93 332.07,53.97 320.51,53.97 
	320.51,33.16 313.31,33.16 313.31,24.84 "/>
<polygon opacity="0.2" fill="none" stroke="#FAFAFF" stroke-linecap="round" stroke-linejoin="round" stroke-miterlimit="10" points="
	280.02,24.84 280.02,33.16 271.07,33.16 271.07,118.86 309.71,118.86 309.71,137.34 332.07,137.34 332.07,117.7 334.67,117.7 
	334.67,140.19 309.71,140.19 309.71,141.23 307.75,141.23 307.75,140.19 301.39,140.19 301.39,121.46 282.66,121.46 282.66,143.85 
	271.07,143.85 271.07,178.03 307.75,178.03 307.75,160.99 309.71,160.99 309.71,169.4 337.8,169.4 337.8,171.79 338.84,171.79 
	338.84,174.66 337.8,174.66 337.8,180.9 268.99,180.9 268.99,163.74 268.22,163.74 268.22,33.16 267.53,33.16 267.53,24.84 "/>
<polygon opacity="0.2" fill="none" stroke="#FAFAFF" stroke-linecap="round" stroke-linejoin="round" stroke-miterlimit="10" points="
	375.72,24.84 404.85,24.84 404.85,33.16 403.33,33.16 403.33,50.85 393.45,50.85 393.45,97.93 390.85,97.93 390.85,50.85 
	380.45,50.85 380.49,33.16 375.72,33.16 "/>
<polygon opacity="0.2" fill="none" stroke="#FAFAFF" stroke-linecap="round" stroke-linejoin="round" stroke-miterlimit="10" points="
	438.14,24.84 467.27,24.84 467.27,33.16 460.55,33.16 460.55,40.96 454.16,40.96 454.16,138.25 436.62,138.25 436.62,149.69 
	454.16,149.69 454.16,169.46 470.95,169.46 470.95,180.9 365.88,180.9 365.88,174.66 359.64,174.66 359.64,171.79 368.73,171.79 
	368.73,178.03 434.54,178.03 434.54,169.46 451.31,169.46 451.31,151.77 434.54,151.77 434.54,138.25 390.85,138.25 390.85,117.7 
	393.45,117.7 393.45,119.26 405.73,119.26 405.73,135.38 451.31,135.38 451.31,40.96 445.98,40.94 445.98,33.16 438.14,33.16 "/>
<polyline opacity="0.2" fill="none" stroke="#FAFAFF" stroke-linecap="round" stroke-linejoin="round" stroke-miterlimit="10" points="
	280.02,26.4 281.06,26.4 281.06,27.57 280.02,27.57 "/>
<polygon opacity="0.2" fill="none" stroke="#FAFAFF" stroke-linecap="round" stroke-linejoin="round" stroke-miterlimit="10" points="
	281.2,34.6 281.33,34.68 281.43,34.6 281.33,34.54 "/>
<polygon opacity="0.2" fill="none" stroke="#FAFAFF" stroke-linecap="round" stroke-linejoin="round" stroke-miterlimit="10" points="
	282.68,34.6 282.81,34.68 282.93,34.6 282.81,34.54 "/>
<rect x="272.74" y="59.5" opacity="0.2" stroke="#FAFAFF" stroke-miterlimit="10" width="0.02" height="0.15"/>
<rect x="272.74" y="58.77" opacity="0.2" stroke="#FAFAFF" stroke-miterlimit="10" width="0.02" height="0.29"/>
<rect x="272.74" y="58.02" opacity="0.2" stroke="#FAFAFF" stroke-miterlimit="10" width="0.02" height="0.29"/>
<rect x="272.74" y="57.3" opacity="0.2" stroke="#FAFAFF" stroke-miterlimit="10" width="0.02" height="0.29"/>
<rect x="272.74" y="56.57" opacity="0.2" stroke="#FAFAFF" stroke-miterlimit="10" width="0.02" height="0.29"/>
<rect x="272.74" y="55.84" opacity="0.2" stroke="#FAFAFF" stroke-miterlimit="10" width="0.02" height="0.29"/>
<rect x="272.74" y="55.09" opacity="0.2" stroke="#FAFAFF" stroke-miterlimit="10" width="0.02" height="0.29"/>
<rect x="272.74" y="54.36" opacity="0.2" stroke="#FAFAFF" stroke-miterlimit="10" width="0.02" height="0.29"/>
<rect x="272.74" y="53.63" opacity="0.2" stroke="#FAFAFF" stroke-miterlimit="10" width="0.02" height="0.29"/>
<rect x="272.74" y="52.89" opacity="0.2" stroke="#FAFAFF" stroke-miterlimit="10" width="0.02" height="0.29"/>
<rect x="272.74" y="52.16" opacity="0.2" stroke="#FAFAFF" stroke-miterlimit="10" width="0.02" height="0.29"/>
<rect x="272.74" y="51.43" opacity="0.2" stroke="#FAFAFF" stroke-miterlimit="10" width="0.02" height="0.29"/>
<rect x="272.74" y="50.68" opacity="0.2" stroke="#FAFAFF" stroke-miterlimit="10" width="0.02" height="0.29"/>
<rect x="272.74" y="49.95" opacity="0.2" stroke="#FAFAFF" stroke-miterlimit="10" width="0.02" height="0.29"/>
<rect x="272.74" y="49.22" opacity="0.2" stroke="#FAFAFF" stroke-miterlimit="10" width="0.02" height="0.29"/>
<rect x="272.74" y="48.5" opacity="0.2" stroke="#FAFAFF" stroke-miterlimit="10" width="0.02" height="0.29"/>
<rect x="272.74" y="47.75" opacity="0.2" stroke="#FAFAFF" stroke-miterlimit="10" width="0.02" height="0.29"/>
<rect x="272.74" y="47.02" opacity="0.2" stroke="#FAFAFF" stroke-miterlimit="10" width="0.02" height="0.29"/>
<rect x="272.74" y="46.29" opacity="0.2" stroke="#FAFAFF" stroke-miterlimit="10" width="0.02" height="0.29"/>
<rect x="272.74" y="45.54" opacity="0.2" stroke="#FAFAFF" stroke-miterlimit="10" width="0.02" height="0.29"/>
<rect x="272.74" y="44.81" opacity="0.2" stroke="#FAFAFF" stroke-miterlimit="10" width="0.02" height="0.29"/>
<rect x="272.74" y="44.09" opacity="0.2" stroke="#FAFAFF" stroke-miterlimit="10" width="0.02" height="0.29"/>
<rect x="272.74" y="43.36" opacity="0.2" stroke="#FAFAFF" stroke-miterlimit="10" width="0.02" height="0.29"/>
<rect x="272.74" y="42.61" opacity="0.2" stroke="#FAFAFF" stroke-miterlimit="10" width="0.02" height="0.29"/>
<rect x="272.74" y="41.88" opacity="0.2" stroke="#FAFAFF" stroke-miterlimit="10" width="0.02" height="0.29"/>
<rect x="272.74" y="41.15" opacity="0.2" stroke="#FAFAFF" stroke-miterlimit="10" width="0.02" height="0.29"/>
<rect x="272.74" y="40.4" opacity="0.2" stroke="#FAFAFF" stroke-miterlimit="10" width="0.02" height="0.29"/>
<rect x="272.74" y="39.67" opacity="0.2" stroke="#FAFAFF" stroke-miterlimit="10" width="0.02" height="0.29"/>
<rect x="272.74" y="38.95" opacity="0.2" stroke="#FAFAFF" stroke-miterlimit="10" width="0.02" height="0.29"/>
<rect x="272.74" y="38.2" opacity="0.2" stroke="#FAFAFF" stroke-miterlimit="10" width="0.02" height="0.29"/>
<rect x="272.74" y="37.47" opacity="0.2" stroke="#FAFAFF" stroke-miterlimit="10" width="0.02" height="0.29"/>
<rect x="272.74" y="36.74" opacity="0.2" stroke="#FAFAFF" stroke-miterlimit="10" width="0.02" height="0.29"/>
<rect x="272.74" y="36.01" opacity="0.2" stroke="#FAFAFF" stroke-miterlimit="10" width="0.02" height="0.29"/>
<rect x="272.74" y="35.26" opacity="0.2" stroke="#FAFAFF" stroke-miterlimit="10" width="0.02" height="0.29"/>
<rect x="272.74" y="34.68" opacity="0.2" stroke="#FAFAFF" stroke-miterlimit="10" width="0.02" height="0.15"/>
<polyline opacity="0.2" fill-rule="evenodd" clip-rule="evenodd" stroke="#FAFAFF" stroke-miterlimit="10" points="272.76,34.68 
	272.74,34.68 272.76,34.68 272.76,34.66 "/>
<rect x="272.76" y="34.66" opacity="0.2" stroke="#FAFAFF" stroke-miterlimit="10" width="0.15" height="0.02"/>
<rect x="273.38" y="34.66" opacity="0.2" stroke="#FAFAFF" stroke-miterlimit="10" width="0.31" height="0.02"/>
<rect x="274.17" y="34.66" opacity="0.2" stroke="#FAFAFF" stroke-miterlimit="10" width="0.29" height="0.02"/>
<rect x="274.94" y="34.66" opacity="0.2" stroke="#FAFAFF" stroke-miterlimit="10" width="0.31" height="0.02"/>
<rect x="275.73" y="34.66" opacity="0.2" stroke="#FAFAFF" stroke-miterlimit="10" width="0.29" height="0.02"/>
<rect x="276.5" y="34.66" opacity="0.2" stroke="#FAFAFF" stroke-miterlimit="10" width="0.31" height="0.02"/>
<rect x="277.29" y="34.66" opacity="0.2" stroke="#FAFAFF" stroke-miterlimit="10" width="0.29" height="0.02"/>
<rect x="278.06" y="34.66" opacity="0.2" stroke="#FAFAFF" stroke-miterlimit="10" width="0.31" height="0.02"/>
<rect x="278.85" y="34.66" opacity="0.2" stroke="#FAFAFF" stroke-miterlimit="10" width="0.15" height="0.02"/>
<polyline opacity="0.2" fill-rule="evenodd" clip-rule="evenodd" stroke="#FAFAFF" stroke-miterlimit="10" points="279,34.68 
	279,34.66 279,34.68 "/>
<rect x="278.98" y="34.68" opacity="0.2" fill-rule="evenodd" clip-rule="evenodd" stroke="#FAFAFF" stroke-miterlimit="10" width="0.02" height="0.15"/>
<rect x="272.76" y="59.63" opacity="0.2" fill-rule="evenodd" clip-rule="evenodd" stroke="#FAFAFF" stroke-miterlimit="10" width="0.15" height="0.02"/>
<line opacity="0.2" fill-rule="evenodd" clip-rule="evenodd" stroke="#FAFAFF" stroke-miterlimit="10" x1="272.76" y1="59.65" x2="272.74" y2="59.65"/>
<polygon opacity="0.2" fill="none" stroke="#FAFAFF" stroke-linecap="round" stroke-linejoin="round" stroke-miterlimit="10" points="
	378.98,379.54 378.98,371.57 363.52,371.57 363.52,278.19 418.31,278.19 418.28,285.65 421.05,285.65 421.05,278.19 430.37,278.19 
	430.37,275.45 379.45,275.45 379.45,263 363.52,263 363.52,234.87 376.45,234.87 376.45,232.88 444.42,232.88 444.42,238.85 
	453.16,238.85 453.16,236.12 447.18,236.09 447.18,230.12 354.67,230.12 354.67,379.54 "/>
<polygon opacity="0.2" fill="none" stroke="#FAFAFF" stroke-linecap="round" stroke-linejoin="round" stroke-miterlimit="10" points="
	410.85,371.57 410.85,379.54 438.66,379.54 438.74,371.57 433.24,371.57 433.24,344.67 421.05,344.67 421.05,305.57 418.28,305.57 
	418.28,371.57 "/>
<polygon opacity="0.2" fill="none" stroke="#FAFAFF" stroke-linecap="round" stroke-linejoin="round" stroke-miterlimit="10" points="
	530.37,371.57 530.37,379.54 558.26,379.54 558.26,371.57 544.31,371.57 544.29,339.44 534.59,339.44 534.59,299.09 535.1,299.09 
	535.1,296.36 534.59,296.36 534.59,275.45 473.08,275.45 473.08,285.65 475.81,285.65 475.81,278.19 531.86,278.19 531.86,371.57 
	"/>
<polygon opacity="0.2" fill="none" stroke="#FAFAFF" stroke-linecap="round" stroke-linejoin="round" stroke-miterlimit="10" points="
	590.13,371.57 590.13,379.54 622.03,379.54 622,371.57 618.02,371.57 618.02,366.1 617.51,366.1 617.51,317.76 630.45,317.76 
	630.45,297.84 617.51,297.84 617.51,230.12 474.06,230.12 474.06,236.09 473.08,236.12 473.08,238.85 488.51,238.85 488.51,241.08 
	544.47,241.08 544.47,254.79 560.49,254.79 560.49,255.77 563.22,255.77 563.22,241.08 608.06,241.08 608.06,278.43 595.36,278.43 
	595.36,296.36 563.97,296.36 563.97,278.43 563.22,278.43 563.22,275.69 560.49,275.69 560.49,296.36 555.02,296.36 555.02,299.09 
	609.04,299.09 609.04,366.1 608.06,366.1 608.06,371.57 "/>
<polygon opacity="0.2" fill="none" stroke="#FAFAFF" stroke-linecap="round" stroke-linejoin="round" stroke-miterlimit="10" points="
	470.61,371.57 473.08,371.57 473.08,305.57 475.81,305.57 475.81,366.1 498.47,366.1 498.5,379.54 470.61,379.54 "/>
<rect x="364.95" y="331.26" opacity="0.2" stroke="#FAFAFF" stroke-miterlimit="10" width="0.03" height="0.37"/>
<rect x="364.95" y="330.3" opacity="0.2" stroke="#FAFAFF" stroke-miterlimit="10" width="0.03" height="0.37"/>
<rect x="364.95" y="329.34" opacity="0.2" stroke="#FAFAFF" stroke-miterlimit="10" width="0.03" height="0.37"/>
<polygon opacity="0.2" fill="none" stroke="#FAFAFF" stroke-linecap="round" stroke-linejoin="round" stroke-miterlimit="10" points="
	120.94,31.08 120.94,33.95 111.85,33.95 111.85,27.71 33.06,27.71 33.04,36.28 29.4,36.28 29.4,53.97 46.04,53.97 46.04,67.51 
	65.31,67.51 65.31,70.11 29.27,70.11 29.27,165.82 34.99,165.82 34.99,172.58 38.24,172.58 38.24,180.9 23.74,180.9 23.74,24.86 
	114.7,24.84 114.7,31.08 "/>
<polygon opacity="0.2" fill="none" stroke="#FAFAFF" stroke-linecap="round" stroke-linejoin="round" stroke-miterlimit="10" points="
	85.07,67.51 125.12,67.49 125.12,70.11 89.75,70.11 89.75,172.58 100.64,172.58 100.64,180.9 71.53,180.9 71.53,172.58 
	76.77,172.58 76.77,139.02 87.15,139.02 87.15,70.11 85.07,70.11 "/>
<polygon opacity="0.2" fill="none" stroke="#FAFAFF" stroke-linecap="round" stroke-linejoin="round" stroke-miterlimit="10" points="
	144.89,67.51 149.55,67.51 149.55,70.11 148.53,70.11 148.53,164.78 156.31,164.78 156.31,172.58 163.05,172.58 163.05,180.9 
	133.92,180.9 133.92,172.58 141.69,172.58 141.69,165.82 145.93,165.82 145.93,70.11 144.89,70.11 "/>
<polygon opacity="0.2" fill="none" stroke="#FAFAFF" stroke-linecap="round" stroke-linejoin="round" stroke-miterlimit="10" points="
	174.28,67.51 174.28,70.11 175.84,70.11 175.84,98.33 214.48,98.33 214.48,154.9 204.47,154.9 204.47,172.58 201.31,172.58 
	201.31,180.9 230.44,180.9 230.44,172.58 227.36,172.58 227.36,154.9 217.33,154.9 217.33,98.33 228.92,98.33 228.9,73.86 
	217.33,73.86 217.33,24.84 147.76,24.84 147.76,31.08 146.72,31.08 146.72,33.95 147.76,33.95 147.76,44.61 175.84,44.61 
	175.84,45.65 177.8,45.65 177.8,38.53 214.48,38.53 214.48,73.86 202.89,73.86 202.89,95.72 184.17,95.72 184.17,77 177.8,77 
	177.8,65.41 175.84,65.41 175.84,67.51 "/>
<polygon opacity="0.2" fill="none" stroke="#FAFAFF" stroke-linecap="round" stroke-linejoin="round" stroke-miterlimit="10" points="
	27.88,227.5 40.02,227.5 40.02,235.59 31.33,235.59 31.33,323.65 64.31,323.65 64.31,310.51 91.92,310.51 91.92,301.9 94.46,301.9 
	94.48,306.97 106.33,306.97 106.33,313.05 66.82,313.05 66.82,326.19 49.79,326.19 49.79,343.89 66.82,343.89 66.82,348.7 
	73.62,348.7 72.76,350.21 65.31,350.21 65.31,345.4 31.33,345.4 31.33,368.18 114.94,368.18 114.94,370.45 121.01,370.45 
	121.01,373.23 114.94,373.23 114.94,379.3 15.38,379.3 15.38,362.62 28.53,362.62 28.53,235.59 27.88,235.59 "/>
<polygon opacity="0.2" fill="none" stroke="#FAFAFF" stroke-linecap="round" stroke-linejoin="round" stroke-miterlimit="10" points="
	72.41,227.5 100.75,227.5 100.75,235.59 95.73,235.59 95.73,243.18 94.48,243.18 94.46,282.69 91.92,282.69 91.89,255.83 
	79.4,255.83 79.4,235.59 72.41,235.59 "/>
<polygon opacity="0.2" fill="none" stroke="#FAFAFF" stroke-linecap="round" stroke-linejoin="round" stroke-miterlimit="10" points="
	133.13,227.5 161.47,227.5 161.47,235.59 159.98,235.59 159.98,252.78 151.67,252.78 151.67,282.61 149.13,282.61 149.13,252.78 
	137.74,252.78 137.72,235.59 133.13,235.59 "/>
<polygon opacity="0.2" fill="none" stroke="#FAFAFF" stroke-linecap="round" stroke-linejoin="round" stroke-miterlimit="10" points="
	193.85,227.5 222.19,227.5 222.19,235.59 213.12,235.59 213.09,241.15 209.31,241.15 209.31,343.25 205.78,343.25 205.78,368.69 
	205.78,368.18 213.12,368.18 213.12,379.3 142.28,379.3 142.28,373.23 141.25,373.23 141.25,370.45 164.65,370.45 164.65,368.42 
	166.54,368.42 166.54,376.52 203,376.52 203,343.25 191.34,343.25 191.34,339.66 191.34,339.71 166.54,339.71 166.54,349.21 
	164.65,349.21 164.65,339.71 149.13,339.71 149.13,301.85 151.67,301.85 151.67,318.96 206.53,318.96 206.53,241.15 203,241.15 
	203,235.59 193.85,235.59 "/>
<polyline opacity="0.2" fill="none" stroke="#FAFAFF" stroke-linecap="round" stroke-linejoin="round" stroke-miterlimit="10" points="
	100.75,228.98 101.77,228.98 101.74,230.12 100.75,230.12 "/>
<path opacity="0.2" fill="none" stroke="#FAFAFF" stroke-linecap="round" stroke-linejoin="round" stroke-miterlimit="10" d="
	M94.46,282.69"/>
<polygon opacity="0.2" fill="none" stroke="#FAFAFF" stroke-linecap="round" stroke-linejoin="round" stroke-miterlimit="10" points="
	275.96,229.39 275.96,235.19 292.98,235.16 292.98,253.04 311.87,253.04 311.87,346.54 270.78,346.54 270.78,318.07 268.02,318.07 
	268.02,349.31 318.77,349.31 318.77,369.96 247.37,369.96 247.37,296.92 271.08,296.89 271.08,294.09 243.8,294.09 243.8,267.32 
	238.03,267.32 238.03,379.3 331.59,379.3 331.59,229.39 "/>
<polygon opacity="0.2" fill="none" stroke="#FAFAFF" stroke-linecap="round" stroke-linejoin="round" stroke-miterlimit="10" points="
	534.16,27.91 534.16,33.84 551.53,33.8 551.53,52.05 570.81,52.05 570.81,147.48 528.88,147.48 528.88,118.42 526.06,118.42 
	526.06,150.3 577.85,150.3 577.85,171.37 504.99,171.37 504.99,96.83 529.18,96.8 529.18,93.95 501.34,93.95 501.34,66.62 
	495.45,66.62 495.45,180.9 590.94,180.9 590.94,27.91 "/>
<polygon opacity="0.2" fill="none" stroke="#FAFAFF" stroke-linecap="round" stroke-linejoin="round" stroke-miterlimit="10" points="
	337.45,770.21 337.45,761.89 332.29,761.89 332.29,754.09 329.69,754.09 329.69,697.12 327.09,697.12 327.09,741.08 315.52,741.08 
	315.52,761.89 308.33,761.89 308.33,770.21 "/>
<polygon opacity="0.2" fill="none" stroke="#FAFAFF" stroke-linecap="round" stroke-linejoin="round" stroke-miterlimit="10" points="
	275.04,770.21 275.04,761.89 266.09,761.89 266.09,676.19 304.73,676.19 304.73,657.71 327.09,657.71 327.09,677.36 329.69,677.36 
	329.69,654.86 304.73,654.86 304.73,653.82 302.77,653.82 302.77,654.86 296.4,654.86 296.4,673.59 277.68,673.59 277.68,651.2 
	266.09,651.2 266.09,617.02 302.77,617.02 302.77,634.06 304.73,634.06 304.73,625.65 332.81,625.65 332.81,623.26 333.85,623.26 
	333.85,620.39 332.81,620.39 332.81,614.15 264.01,614.15 264.01,631.31 263.24,631.31 263.24,761.89 262.55,761.89 262.55,770.21 
	"/>
<polygon opacity="0.2" fill="none" stroke="#FAFAFF" stroke-linecap="round" stroke-linejoin="round" stroke-miterlimit="10" points="
	370.74,770.21 399.87,770.21 399.87,761.89 398.35,761.89 398.35,744.2 388.47,744.2 388.47,697.12 385.87,697.12 385.87,744.2 
	375.47,744.2 375.51,761.89 370.74,761.89 "/>
<polygon opacity="0.2" fill="none" stroke="#FAFAFF" stroke-linecap="round" stroke-linejoin="round" stroke-miterlimit="10" points="
	433.16,770.21 462.29,770.21 462.29,761.89 455.57,761.89 455.57,754.09 449.18,754.09 449.18,656.8 431.64,656.8 431.64,645.36 
	449.18,645.36 449.18,625.59 465.97,625.59 465.97,614.15 360.9,614.15 360.9,620.39 354.66,620.39 354.66,623.26 363.75,623.26 
	363.75,617.02 429.56,617.02 429.56,625.59 446.33,625.59 446.33,643.28 429.56,643.28 429.56,656.8 385.87,656.8 385.87,677.36 
	388.47,677.36 388.47,675.8 400.74,675.8 400.74,659.67 446.33,659.67 446.33,754.09 441,754.11 441,761.89 433.16,761.89 "/>
<polyline opacity="0.2" fill="none" stroke="#FAFAFF" stroke-linecap="round" stroke-linejoin="round" stroke-miterlimit="10" points="
	275.04,768.65 276.08,768.65 276.08,767.49 275.04,767.49 "/>
<polygon opacity="0.2" fill="none" stroke="#FAFAFF" stroke-linecap="round" stroke-linejoin="round" stroke-miterlimit="10" points="
	276.22,760.45 276.35,760.37 276.45,760.45 276.35,760.52 "/>
<polygon opacity="0.2" fill="none" stroke="#FAFAFF" stroke-linecap="round" stroke-linejoin="round" stroke-miterlimit="10" points="
	277.7,760.45 277.83,760.37 277.95,760.45 277.83,760.52 "/>
<rect x="267.76" y="735.4" opacity="0.2" stroke="#FAFAFF" stroke-miterlimit="10" width="0.02" height="0.15"/>
<rect x="267.76" y="735.99" opacity="0.2" stroke="#FAFAFF" stroke-miterlimit="10" width="0.02" height="0.29"/>
<rect x="267.76" y="736.73" opacity="0.2" stroke="#FAFAFF" stroke-miterlimit="10" width="0.02" height="0.29"/>
<rect x="267.76" y="737.46" opacity="0.2" stroke="#FAFAFF" stroke-miterlimit="10" width="0.02" height="0.29"/>
<rect x="267.76" y="738.19" opacity="0.2" stroke="#FAFAFF" stroke-miterlimit="10" width="0.02" height="0.29"/>
<rect x="267.76" y="738.92" opacity="0.2" stroke="#FAFAFF" stroke-miterlimit="10" width="0.02" height="0.29"/>
<rect x="267.76" y="739.67" opacity="0.2" stroke="#FAFAFF" stroke-miterlimit="10" width="0.02" height="0.29"/>
<rect x="267.76" y="740.4" opacity="0.2" stroke="#FAFAFF" stroke-miterlimit="10" width="0.02" height="0.29"/>
<rect x="267.76" y="741.12" opacity="0.2" stroke="#FAFAFF" stroke-miterlimit="10" width="0.02" height="0.29"/>
<rect x="267.76" y="741.87" opacity="0.2" stroke="#FAFAFF" stroke-miterlimit="10" width="0.02" height="0.29"/>
<rect x="267.76" y="742.6" opacity="0.2" stroke="#FAFAFF" stroke-miterlimit="10" width="0.02" height="0.29"/>
<rect x="267.76" y="743.33" opacity="0.2" stroke="#FAFAFF" stroke-miterlimit="10" width="0.02" height="0.29"/>
<rect x="267.76" y="744.08" opacity="0.2" stroke="#FAFAFF" stroke-miterlimit="10" width="0.02" height="0.29"/>
<rect x="267.76" y="744.81" opacity="0.2" stroke="#FAFAFF" stroke-miterlimit="10" width="0.02" height="0.29"/>
<rect x="267.76" y="745.54" opacity="0.2" stroke="#FAFAFF" stroke-miterlimit="10" width="0.02" height="0.29"/>
<rect x="267.76" y="746.26" opacity="0.2" stroke="#FAFAFF" stroke-miterlimit="10" width="0.02" height="0.29"/>
<rect x="267.76" y="747.01" opacity="0.2" stroke="#FAFAFF" stroke-miterlimit="10" width="0.02" height="0.29"/>
<rect x="267.76" y="747.74" opacity="0.2" stroke="#FAFAFF" stroke-miterlimit="10" width="0.02" height="0.29"/>
<rect x="267.76" y="748.47" opacity="0.2" stroke="#FAFAFF" stroke-miterlimit="10" width="0.02" height="0.29"/>
<rect x="267.76" y="749.22" opacity="0.2" stroke="#FAFAFF" stroke-miterlimit="10" width="0.02" height="0.29"/>
<rect x="267.76" y="749.95" opacity="0.2" stroke="#FAFAFF" stroke-miterlimit="10" width="0.02" height="0.29"/>
<rect x="267.76" y="750.67" opacity="0.2" stroke="#FAFAFF" stroke-miterlimit="10" width="0.02" height="0.29"/>
<rect x="267.76" y="751.4" opacity="0.2" stroke="#FAFAFF" stroke-miterlimit="10" width="0.02" height="0.29"/>
<rect x="267.76" y="752.15" opacity="0.2" stroke="#FAFAFF" stroke-miterlimit="10" width="0.02" height="0.29"/>
<rect x="267.76" y="752.88" opacity="0.2" stroke="#FAFAFF" stroke-miterlimit="10" width="0.02" height="0.29"/>
<rect x="267.76" y="753.61" opacity="0.2" stroke="#FAFAFF" stroke-miterlimit="10" width="0.02" height="0.29"/>
<rect x="267.76" y="754.36" opacity="0.2" stroke="#FAFAFF" stroke-miterlimit="10" width="0.02" height="0.29"/>
<rect x="267.76" y="755.09" opacity="0.2" stroke="#FAFAFF" stroke-miterlimit="10" width="0.02" height="0.29"/>
<rect x="267.76" y="755.81" opacity="0.2" stroke="#FAFAFF" stroke-miterlimit="10" width="0.02" height="0.29"/>
<rect x="267.76" y="756.56" opacity="0.2" stroke="#FAFAFF" stroke-miterlimit="10" width="0.02" height="0.29"/>
<rect x="267.76" y="757.29" opacity="0.2" stroke="#FAFAFF" stroke-miterlimit="10" width="0.02" height="0.29"/>
<rect x="267.76" y="758.02" opacity="0.2" stroke="#FAFAFF" stroke-miterlimit="10" width="0.02" height="0.29"/>
<rect x="267.76" y="758.75" opacity="0.2" stroke="#FAFAFF" stroke-miterlimit="10" width="0.02" height="0.29"/>
<rect x="267.76" y="759.5" opacity="0.2" stroke="#FAFAFF" stroke-miterlimit="10" width="0.02" height="0.29"/>
<rect x="267.76" y="760.22" opacity="0.2" stroke="#FAFAFF" stroke-miterlimit="10" width="0.02" height="0.15"/>
<polyline opacity="0.2" fill-rule="evenodd" clip-rule="evenodd" stroke="#FAFAFF" stroke-miterlimit="10" points="267.78,760.37 
	267.76,760.37 267.78,760.37 267.78,760.39 "/>
<rect x="267.78" y="760.37" opacity="0.2" stroke="#FAFAFF" stroke-miterlimit="10" width="0.15" height="0.02"/>
<rect x="268.4" y="760.37" opacity="0.2" stroke="#FAFAFF" stroke-miterlimit="10" width="0.31" height="0.02"/>
<rect x="269.19" y="760.37" opacity="0.2" stroke="#FAFAFF" stroke-miterlimit="10" width="0.29" height="0.02"/>
<rect x="269.96" y="760.37" opacity="0.2" stroke="#FAFAFF" stroke-miterlimit="10" width="0.31" height="0.02"/>
<rect x="270.75" y="760.37" opacity="0.2" stroke="#FAFAFF" stroke-miterlimit="10" width="0.29" height="0.02"/>
<rect x="271.52" y="760.37" opacity="0.2" stroke="#FAFAFF" stroke-miterlimit="10" width="0.31" height="0.02"/>
<rect x="272.31" y="760.37" opacity="0.2" stroke="#FAFAFF" stroke-miterlimit="10" width="0.29" height="0.02"/>
<rect x="273.08" y="760.37" opacity="0.2" stroke="#FAFAFF" stroke-miterlimit="10" width="0.31" height="0.02"/>
<rect x="273.87" y="760.37" opacity="0.2" stroke="#FAFAFF" stroke-miterlimit="10" width="0.15" height="0.02"/>
<polyline opacity="0.2" fill-rule="evenodd" clip-rule="evenodd" stroke="#FAFAFF" stroke-miterlimit="10" points="274.02,760.37 
	274.02,760.39 274.02,760.37 "/>
<rect x="274" y="760.22" opacity="0.2" fill-rule="evenodd" clip-rule="evenodd" stroke="#FAFAFF" stroke-miterlimit="10" width="0.02" height="0.15"/>
<rect x="267.78" y="735.4" opacity="0.2" fill-rule="evenodd" clip-rule="evenodd" stroke="#FAFAFF" stroke-miterlimit="10" width="0.15" height="0.02"/>
<line opacity="0.2" fill-rule="evenodd" clip-rule="evenodd" stroke="#FAFAFF" stroke-miterlimit="10" x1="267.78" y1="735.4" x2="267.76" y2="735.4"/>
<polygon opacity="0.2" fill="none" stroke="#FAFAFF" stroke-linecap="round" stroke-linejoin="round" stroke-miterlimit="10" points="
	378.96,415.51 378.96,423.48 363.5,423.48 363.5,516.86 418.3,516.86 418.27,509.4 421.03,509.4 421.03,516.86 430.36,516.86 
	430.36,519.6 379.44,519.6 379.44,532.05 363.5,532.05 363.5,560.18 376.44,560.18 376.44,562.17 444.41,562.17 444.41,556.2 
	453.15,556.2 453.15,558.93 447.17,558.96 447.17,564.94 354.66,564.94 354.66,415.51 "/>
<polygon opacity="0.2" fill="none" stroke="#FAFAFF" stroke-linecap="round" stroke-linejoin="round" stroke-miterlimit="10" points="
	410.83,423.48 410.83,415.51 438.64,415.51 438.72,423.48 433.23,423.48 433.23,450.38 421.03,450.38 421.03,489.48 418.27,489.48 
	418.27,423.48 "/>
<polygon opacity="0.2" fill="none" stroke="#FAFAFF" stroke-linecap="round" stroke-linejoin="round" stroke-miterlimit="10" points="
	530.36,423.48 530.36,415.51 558.24,415.51 558.24,423.48 544.3,423.48 544.27,455.61 534.58,455.61 534.58,495.96 535.08,495.96 
	535.08,498.69 534.58,498.69 534.58,519.6 473.07,519.6 473.07,509.4 475.8,509.4 475.8,516.86 531.84,516.86 531.84,423.48 "/>
<polygon opacity="0.2" fill="none" stroke="#FAFAFF" stroke-linecap="round" stroke-linejoin="round" stroke-miterlimit="10" points="
	590.12,423.48 590.12,415.51 622.01,415.51 621.99,423.48 618,423.48 618,428.95 617.5,428.95 617.5,477.29 630.43,477.29 
	630.43,497.21 617.5,497.21 617.5,564.94 474.05,564.94 474.05,558.96 473.07,558.93 473.07,556.2 488.5,556.2 488.5,553.97 
	544.46,553.97 544.46,540.26 560.47,540.26 560.47,539.28 563.21,539.28 563.21,553.97 608.04,553.97 608.04,516.62 595.35,516.62 
	595.35,498.69 563.95,498.69 563.95,516.62 563.21,516.62 563.21,519.36 560.47,519.36 560.47,498.69 555,498.69 555,495.96 
	609.03,495.96 609.03,428.95 608.04,428.95 608.04,423.48 "/>
<polygon opacity="0.2" fill="none" stroke="#FAFAFF" stroke-linecap="round" stroke-linejoin="round" stroke-miterlimit="10" points="
	470.6,423.48 473.07,423.48 473.07,489.48 475.8,489.48 475.8,428.95 498.46,428.95 498.48,415.51 470.6,415.51 "/>
<rect x="364.94" y="463.42" opacity="0.2" stroke="#FAFAFF" stroke-miterlimit="10" width="0.03" height="0.37"/>
<rect x="364.94" y="464.38" opacity="0.2" stroke="#FAFAFF" stroke-miterlimit="10" width="0.03" height="0.37"/>
<rect x="364.94" y="465.34" opacity="0.2" stroke="#FAFAFF" stroke-miterlimit="10" width="0.03" height="0.37"/>
<polygon opacity="0.2" fill="none" stroke="#FAFAFF" stroke-linecap="round" stroke-linejoin="round" stroke-miterlimit="10" points="
	120.93,763.97 120.93,761.1 111.84,761.1 111.84,767.34 33.05,767.34 33.03,758.77 29.38,758.77 29.38,741.08 46.03,741.08 
	46.03,727.54 65.3,727.54 65.3,724.94 29.26,724.94 29.26,629.23 34.98,629.23 34.98,622.47 38.23,622.47 38.23,614.15 
	23.73,614.15 23.73,770.19 114.69,770.21 114.69,763.97 "/>
<polygon opacity="0.2" fill="none" stroke="#FAFAFF" stroke-linecap="round" stroke-linejoin="round" stroke-miterlimit="10" points="
	85.06,727.54 125.11,727.56 125.11,724.94 89.74,724.94 89.74,622.47 100.62,622.47 100.62,614.15 71.52,614.15 71.52,622.47 
	76.76,622.47 76.76,656.03 87.14,656.03 87.14,724.94 85.06,724.94 "/>
<polygon opacity="0.2" fill="none" stroke="#FAFAFF" stroke-linecap="round" stroke-linejoin="round" stroke-miterlimit="10" points="
	144.88,727.54 149.54,727.54 149.54,724.94 148.52,724.94 148.52,630.27 156.3,630.27 156.3,622.47 163.04,622.47 163.04,614.15 
	133.91,614.15 133.91,622.47 141.67,622.47 141.67,629.23 145.92,629.23 145.92,724.94 144.88,724.94 "/>
<polygon opacity="0.2" fill="none" stroke="#FAFAFF" stroke-linecap="round" stroke-linejoin="round" stroke-miterlimit="10" points="
	169.3,727.54 169.3,724.94 170.86,724.94 170.86,696.73 209.5,696.73 209.5,640.16 199.49,640.16 199.49,622.47 196.33,622.47 
	196.33,614.15 225.46,614.15 225.46,622.47 222.38,622.47 222.38,640.16 212.35,640.16 212.35,696.73 223.94,696.73 223.92,721.19 
	212.35,721.19 212.35,770.21 142.78,770.21 142.78,763.97 141.73,763.97 141.73,761.1 142.78,761.1 142.78,750.45 170.86,750.45 
	170.86,749.41 172.82,749.41 172.82,756.52 209.5,756.52 209.5,721.19 197.91,721.19 197.91,699.33 179.18,699.33 179.18,718.05 
	172.82,718.05 172.82,729.64 170.86,729.64 170.86,727.54 "/>
<polygon opacity="0.2" fill="none" stroke="#FAFAFF" stroke-linecap="round" stroke-linejoin="round" stroke-miterlimit="10" points="
	27.87,567.55 40.01,567.55 40.01,559.46 31.32,559.46 31.32,471.4 64.3,471.4 64.3,484.54 91.91,484.54 91.91,493.15 94.44,493.15 
	94.47,488.08 106.32,488.08 106.32,482 66.81,482 66.81,468.86 49.78,468.86 49.78,451.16 66.81,451.16 66.81,446.35 73.61,446.35 
	72.75,444.84 65.3,444.84 65.3,449.65 31.32,449.65 31.32,426.87 114.93,426.87 114.93,424.6 121,424.6 121,421.82 114.93,421.82 
	114.93,415.75 15.37,415.75 15.37,432.43 28.51,432.43 28.51,559.46 27.87,559.46 "/>
<polygon opacity="0.2" fill="none" stroke="#FAFAFF" stroke-linecap="round" stroke-linejoin="round" stroke-miterlimit="10" points="
	72.4,567.55 100.73,567.55 100.73,559.46 95.71,559.46 95.71,551.87 94.47,551.87 94.44,512.36 91.91,512.36 91.88,539.22 
	79.39,539.22 79.39,559.46 72.4,559.46 "/>
<polygon opacity="0.2" fill="none" stroke="#FAFAFF" stroke-linecap="round" stroke-linejoin="round" stroke-miterlimit="10" points="
	133.12,567.55 161.45,567.55 161.45,559.46 159.97,559.46 159.97,542.27 151.66,542.27 151.66,512.45 149.12,512.45 149.12,542.27 
	137.73,542.27 137.7,559.46 133.12,559.46 "/>
<polygon opacity="0.2" fill="none" stroke="#FAFAFF" stroke-linecap="round" stroke-linejoin="round" stroke-miterlimit="10" points="
	193.84,567.55 222.17,567.55 222.17,559.46 213.11,559.46 213.08,553.9 209.3,553.9 209.3,451.81 205.77,451.81 205.77,426.36 
	205.77,426.87 213.11,426.87 213.11,415.75 142.27,415.75 142.27,421.82 141.24,421.82 141.24,424.6 164.64,424.6 164.64,426.63 
	166.53,426.63 166.53,418.53 202.99,418.53 202.99,451.81 191.33,451.81 191.33,455.39 191.33,455.34 166.53,455.34 166.53,445.84 
	164.64,445.84 164.64,455.34 149.12,455.34 149.12,493.2 151.66,493.2 151.66,476.09 206.52,476.09 206.52,553.9 202.99,553.9 
	202.99,559.46 193.84,559.46 "/>
<polyline opacity="0.2" fill="none" stroke="#FAFAFF" stroke-linecap="round" stroke-linejoin="round" stroke-miterlimit="10" points="
	100.73,566.07 101.76,566.07 101.73,564.94 100.73,564.94 "/>
<path opacity="0.2" fill="none" stroke="#FAFAFF" stroke-linecap="round" stroke-linejoin="round" stroke-miterlimit="10" d="
	M94.44,512.36"/>
<polygon opacity="0.2" fill="none" stroke="#FAFAFF" stroke-linecap="round" stroke-linejoin="round" stroke-miterlimit="10" points="
	275.95,565.66 275.95,559.86 292.97,559.89 292.97,542.01 311.86,542.01 311.86,448.51 270.77,448.51 270.77,476.98 268,476.98 
	268,445.74 318.76,445.74 318.76,425.09 247.36,425.09 247.36,498.13 271.07,498.16 271.07,500.96 243.79,500.96 243.79,527.73 
	238.02,527.73 238.02,415.75 331.58,415.75 331.58,565.66 "/>
<polygon opacity="0.2" fill="none" stroke="#FAFAFF" stroke-linecap="round" stroke-linejoin="round" stroke-miterlimit="10" points="
	529.18,767.14 529.18,761.22 546.55,761.25 546.55,743 565.83,743 565.83,647.58 523.9,647.58 523.9,676.63 521.07,676.63 
	521.07,644.75 572.87,644.75 572.87,623.68 500,623.68 500,698.22 524.2,698.25 524.2,701.1 496.36,701.1 496.36,728.43 
	490.47,728.43 490.47,614.15 585.96,614.15 585.96,767.14 "/>
<polygon opacity="0.2" fill="none" stroke="#FAFAFF" stroke-linecap="round" stroke-linejoin="round" stroke-miterlimit="10" points="
	929.2,415.51 929.2,423.83 934.36,423.83 934.36,431.63 936.96,431.63 936.96,488.6 939.56,488.6 939.56,444.64 951.13,444.64 
	951.13,423.83 958.33,423.83 958.33,415.51 "/>
<polygon opacity="0.2" fill="none" stroke="#FAFAFF" stroke-linecap="round" stroke-linejoin="round" stroke-miterlimit="10" points="
	991.62,415.51 991.62,423.83 1000.57,423.83 1000.57,509.53 961.93,509.53 961.93,528 939.56,528 939.56,508.36 936.96,508.36 
	936.96,530.85 961.93,530.85 961.93,531.89 963.89,531.89 963.89,530.85 970.25,530.85 970.25,512.13 988.98,512.13 988.98,534.52 
	1000.57,534.52 1000.57,568.7 963.89,568.7 963.89,551.66 961.93,551.66 961.93,560.07 933.84,560.07 933.84,562.46 932.8,562.46 
	932.8,565.33 933.84,565.33 933.84,571.57 1002.65,571.57 1002.65,554.41 1003.42,554.41 1003.42,423.83 1004.1,423.83 
	1004.1,415.51 "/>
<polygon opacity="0.2" fill="none" stroke="#FAFAFF" stroke-linecap="round" stroke-linejoin="round" stroke-miterlimit="10" points="
	895.91,415.51 866.79,415.51 866.79,423.83 868.31,423.83 868.31,441.52 878.19,441.52 878.19,488.6 880.79,488.6 880.79,441.52 
	891.19,441.52 891.15,423.83 895.91,423.83 "/>
<polygon opacity="0.2" fill="none" stroke="#FAFAFF" stroke-linecap="round" stroke-linejoin="round" stroke-miterlimit="10" points="
	833.5,415.51 804.37,415.51 804.37,423.83 811.09,423.83 811.09,431.63 817.48,431.63 817.48,528.92 835.02,528.92 835.02,540.36 
	817.48,540.36 817.48,560.13 800.69,560.13 800.69,571.57 905.76,571.57 905.76,565.33 912,565.33 912,562.46 902.9,562.46 
	902.9,568.7 837.1,568.7 837.1,560.13 820.33,560.13 820.33,542.44 837.1,542.44 837.1,528.92 880.79,528.92 880.79,508.36 
	878.19,508.36 878.19,509.92 865.91,509.92 865.91,526.05 820.33,526.05 820.33,431.63 825.65,431.61 825.65,423.83 833.5,423.83 
	"/>
<polyline opacity="0.2" fill="none" stroke="#FAFAFF" stroke-linecap="round" stroke-linejoin="round" stroke-miterlimit="10" points="
	991.62,417.07 990.58,417.07 990.58,418.23 991.62,418.23 "/>
<polygon opacity="0.2" fill="none" stroke="#FAFAFF" stroke-linecap="round" stroke-linejoin="round" stroke-miterlimit="10" points="
	990.43,425.27 990.31,425.35 990.21,425.27 990.31,425.2 "/>
<polygon opacity="0.2" fill="none" stroke="#FAFAFF" stroke-linecap="round" stroke-linejoin="round" stroke-miterlimit="10" points="
	988.96,425.27 988.83,425.35 988.71,425.27 988.83,425.2 "/>
<rect x="998.88" y="450.17" opacity="0.2" stroke="#FAFAFF" stroke-miterlimit="10" width="0.02" height="0.15"/>
<rect x="998.88" y="449.44" opacity="0.2" stroke="#FAFAFF" stroke-miterlimit="10" width="0.02" height="0.29"/>
<rect x="998.88" y="448.69" opacity="0.2" stroke="#FAFAFF" stroke-miterlimit="10" width="0.02" height="0.29"/>
<rect x="998.88" y="447.96" opacity="0.2" stroke="#FAFAFF" stroke-miterlimit="10" width="0.02" height="0.29"/>
<rect x="998.88" y="447.24" opacity="0.2" stroke="#FAFAFF" stroke-miterlimit="10" width="0.02" height="0.29"/>
<rect x="998.88" y="446.51" opacity="0.2" stroke="#FAFAFF" stroke-miterlimit="10" width="0.02" height="0.29"/>
<rect x="998.88" y="445.76" opacity="0.2" stroke="#FAFAFF" stroke-miterlimit="10" width="0.02" height="0.29"/>
<rect x="998.88" y="445.03" opacity="0.2" stroke="#FAFAFF" stroke-miterlimit="10" width="0.02" height="0.29"/>
<rect x="998.88" y="444.3" opacity="0.2" stroke="#FAFAFF" stroke-miterlimit="10" width="0.02" height="0.29"/>
<rect x="998.88" y="443.55" opacity="0.2" stroke="#FAFAFF" stroke-miterlimit="10" width="0.02" height="0.29"/>
<rect x="998.88" y="442.83" opacity="0.2" stroke="#FAFAFF" stroke-miterlimit="10" width="0.02" height="0.29"/>
<rect x="998.88" y="442.1" opacity="0.2" stroke="#FAFAFF" stroke-miterlimit="10" width="0.02" height="0.29"/>
<rect x="998.88" y="441.35" opacity="0.2" stroke="#FAFAFF" stroke-miterlimit="10" width="0.02" height="0.29"/>
<rect x="998.88" y="440.62" opacity="0.2" stroke="#FAFAFF" stroke-miterlimit="10" width="0.02" height="0.29"/>
<rect x="998.88" y="439.89" opacity="0.2" stroke="#FAFAFF" stroke-miterlimit="10" width="0.02" height="0.29"/>
<rect x="998.88" y="439.16" opacity="0.2" stroke="#FAFAFF" stroke-miterlimit="10" width="0.02" height="0.29"/>
<rect x="998.88" y="438.42" opacity="0.2" stroke="#FAFAFF" stroke-miterlimit="10" width="0.02" height="0.29"/>
<rect x="998.88" y="437.69" opacity="0.2" stroke="#FAFAFF" stroke-miterlimit="10" width="0.02" height="0.29"/>
<rect x="998.88" y="436.96" opacity="0.2" stroke="#FAFAFF" stroke-miterlimit="10" width="0.02" height="0.29"/>
<rect x="998.88" y="436.21" opacity="0.2" stroke="#FAFAFF" stroke-miterlimit="10" width="0.02" height="0.29"/>
<rect x="998.88" y="435.48" opacity="0.2" stroke="#FAFAFF" stroke-miterlimit="10" width="0.02" height="0.29"/>
<rect x="998.88" y="434.75" opacity="0.2" stroke="#FAFAFF" stroke-miterlimit="10" width="0.02" height="0.29"/>
<rect x="998.88" y="434.03" opacity="0.2" stroke="#FAFAFF" stroke-miterlimit="10" width="0.02" height="0.29"/>
<rect x="998.88" y="433.28" opacity="0.2" stroke="#FAFAFF" stroke-miterlimit="10" width="0.02" height="0.29"/>
<rect x="998.88" y="432.55" opacity="0.2" stroke="#FAFAFF" stroke-miterlimit="10" width="0.02" height="0.29"/>
<rect x="998.88" y="431.82" opacity="0.2" stroke="#FAFAFF" stroke-miterlimit="10" width="0.02" height="0.29"/>
<rect x="998.88" y="431.07" opacity="0.2" stroke="#FAFAFF" stroke-miterlimit="10" width="0.02" height="0.29"/>
<rect x="998.88" y="430.34" opacity="0.2" stroke="#FAFAFF" stroke-miterlimit="10" width="0.02" height="0.29"/>
<rect x="998.88" y="429.61" opacity="0.2" stroke="#FAFAFF" stroke-miterlimit="10" width="0.02" height="0.29"/>
<rect x="998.88" y="428.87" opacity="0.2" stroke="#FAFAFF" stroke-miterlimit="10" width="0.02" height="0.29"/>
<rect x="998.88" y="428.14" opacity="0.2" stroke="#FAFAFF" stroke-miterlimit="10" width="0.02" height="0.29"/>
<rect x="998.88" y="427.41" opacity="0.2" stroke="#FAFAFF" stroke-miterlimit="10" width="0.02" height="0.29"/>
<rect x="998.88" y="426.68" opacity="0.2" stroke="#FAFAFF" stroke-miterlimit="10" width="0.02" height="0.29"/>
<rect x="998.88" y="425.93" opacity="0.2" stroke="#FAFAFF" stroke-miterlimit="10" width="0.02" height="0.29"/>
<rect x="998.88" y="425.35" opacity="0.2" stroke="#FAFAFF" stroke-miterlimit="10" width="0.02" height="0.15"/>
<polyline opacity="0.2" fill-rule="evenodd" clip-rule="evenodd" stroke="#FAFAFF" stroke-miterlimit="10" points="998.88,425.35 
	998.9,425.35 998.88,425.35 998.88,425.33 "/>
<rect x="998.74" y="425.33" opacity="0.2" stroke="#FAFAFF" stroke-miterlimit="10" width="0.15" height="0.02"/>
<rect x="997.94" y="425.33" opacity="0.2" stroke="#FAFAFF" stroke-miterlimit="10" width="0.31" height="0.02"/>
<rect x="997.18" y="425.33" opacity="0.2" stroke="#FAFAFF" stroke-miterlimit="10" width="0.29" height="0.02"/>
<rect x="996.38" y="425.33" opacity="0.2" stroke="#FAFAFF" stroke-miterlimit="10" width="0.31" height="0.02"/>
<rect x="995.61" y="425.33" opacity="0.2" stroke="#FAFAFF" stroke-miterlimit="10" width="0.29" height="0.02"/>
<rect x="994.82" y="425.33" opacity="0.2" stroke="#FAFAFF" stroke-miterlimit="10" width="0.31" height="0.02"/>
<rect x="994.05" y="425.33" opacity="0.2" stroke="#FAFAFF" stroke-miterlimit="10" width="0.29" height="0.02"/>
<rect x="993.26" y="425.33" opacity="0.2" stroke="#FAFAFF" stroke-miterlimit="10" width="0.31" height="0.02"/>
<rect x="992.64" y="425.33" opacity="0.2" stroke="#FAFAFF" stroke-miterlimit="10" width="0.15" height="0.02"/>
<polyline opacity="0.2" fill-rule="evenodd" clip-rule="evenodd" stroke="#FAFAFF" stroke-miterlimit="10" points="992.64,425.35 
	992.64,425.33 992.64,425.35 "/>
<rect x="992.64" y="425.35" opacity="0.2" fill-rule="evenodd" clip-rule="evenodd" stroke="#FAFAFF" stroke-miterlimit="10" width="0.02" height="0.15"/>
<rect x="998.74" y="450.3" opacity="0.2" fill-rule="evenodd" clip-rule="evenodd" stroke="#FAFAFF" stroke-miterlimit="10" width="0.15" height="0.02"/>
<line opacity="0.2" fill-rule="evenodd" clip-rule="evenodd" stroke="#FAFAFF" stroke-miterlimit="10" x1="998.88" y1="450.32" x2="998.9" y2="450.32"/>
<polygon opacity="0.2" fill="none" stroke="#FAFAFF" stroke-linecap="round" stroke-linejoin="round" stroke-miterlimit="10" points="
	877.76,770.21 877.76,762.24 893.22,762.24 893.22,668.86 838.42,668.86 838.45,676.32 835.69,676.32 835.69,668.86 826.36,668.86 
	826.36,666.12 877.28,666.12 877.28,653.66 893.22,653.66 893.22,625.54 880.28,625.54 880.28,623.55 812.31,623.55 812.31,629.52 
	803.58,629.52 803.58,626.79 809.55,626.76 809.55,620.78 902.06,620.78 902.06,770.21 "/>
<polygon opacity="0.2" fill="none" stroke="#FAFAFF" stroke-linecap="round" stroke-linejoin="round" stroke-miterlimit="10" points="
	845.89,762.24 845.89,770.21 818.08,770.21 818,762.24 823.5,762.24 823.5,735.34 835.69,735.34 835.69,696.24 838.45,696.24 
	838.45,762.24 "/>
<polygon opacity="0.2" fill="none" stroke="#FAFAFF" stroke-linecap="round" stroke-linejoin="round" stroke-miterlimit="10" points="
	726.37,762.24 726.37,770.21 698.48,770.21 698.48,762.24 712.42,762.24 712.45,730.11 722.14,730.11 722.14,689.76 721.64,689.76 
	721.64,687.02 722.14,687.02 722.14,666.12 783.66,666.12 783.66,676.32 780.92,676.32 780.92,668.86 724.88,668.86 724.88,762.24 
	"/>
<polygon opacity="0.2" fill="none" stroke="#FAFAFF" stroke-linecap="round" stroke-linejoin="round" stroke-miterlimit="10" points="
	666.61,762.24 666.61,770.21 634.71,770.21 634.73,762.24 638.72,762.24 638.72,756.77 639.22,756.77 639.22,708.43 626.29,708.43 
	626.29,688.51 639.22,688.51 639.22,620.78 782.67,620.78 782.67,626.76 783.66,626.79 783.66,629.52 768.22,629.52 768.22,631.75 
	712.26,631.75 712.26,645.46 696.25,645.46 696.25,646.44 693.51,646.44 693.51,631.75 648.68,631.75 648.68,669.1 661.37,669.1 
	661.37,687.02 692.77,687.02 692.77,669.1 693.51,669.1 693.51,666.36 696.25,666.36 696.25,687.02 701.72,687.02 701.72,689.76 
	647.69,689.76 647.69,756.77 648.68,756.77 648.68,762.24 "/>
<polygon opacity="0.2" fill="none" stroke="#FAFAFF" stroke-linecap="round" stroke-linejoin="round" stroke-miterlimit="10" points="
	786.13,762.24 783.66,762.24 783.66,696.24 780.92,696.24 780.92,756.77 758.26,756.77 758.24,770.21 786.13,770.21 "/>
<rect x="901.69" y="721.92" opacity="0.2" stroke="#FAFAFF" stroke-miterlimit="10" width="0.03" height="0.37"/>
<rect x="901.69" y="720.97" opacity="0.2" stroke="#FAFAFF" stroke-miterlimit="10" width="0.03" height="0.37"/>
<rect x="901.69" y="720.01" opacity="0.2" stroke="#FAFAFF" stroke-miterlimit="10" width="0.03" height="0.37"/>
<polygon opacity="0.2" fill="none" stroke="#FAFAFF" stroke-linecap="round" stroke-linejoin="round" stroke-miterlimit="10" points="
	1145.73,421.75 1145.73,424.62 1154.82,424.62 1154.82,418.38 1233.61,418.38 1233.63,426.95 1237.27,426.95 1237.27,444.64 
	1220.63,444.64 1220.63,458.18 1201.36,458.18 1201.36,460.78 1237.4,460.78 1237.4,556.49 1231.68,556.49 1231.68,563.25 
	1228.43,563.25 1228.43,571.57 1242.93,571.57 1242.93,415.53 1151.97,415.51 1151.97,421.75 "/>
<polygon opacity="0.2" fill="none" stroke="#FAFAFF" stroke-linecap="round" stroke-linejoin="round" stroke-miterlimit="10" points="
	1181.6,458.18 1141.55,458.16 1141.55,460.78 1176.92,460.78 1176.92,563.25 1166.03,563.25 1166.03,571.57 1195.14,571.57 
	1195.14,563.25 1189.9,563.25 1189.9,529.69 1179.52,529.69 1179.52,460.78 1181.6,460.78 "/>
<polygon opacity="0.2" fill="none" stroke="#FAFAFF" stroke-linecap="round" stroke-linejoin="round" stroke-miterlimit="10" points="
	1121.78,458.18 1117.12,458.18 1117.12,460.78 1118.14,460.78 1118.14,555.45 1110.36,555.45 1110.36,563.25 1103.62,563.25 
	1103.62,571.57 1132.75,571.57 1132.75,563.25 1124.98,563.25 1124.98,556.49 1120.74,556.49 1120.74,460.78 1121.78,460.78 "/>
<polygon opacity="0.2" fill="none" stroke="#FAFAFF" stroke-linecap="round" stroke-linejoin="round" stroke-miterlimit="10" points="
	1097.36,458.18 1097.36,460.78 1095.79,460.78 1095.79,488.99 1057.16,488.99 1057.16,545.56 1067.17,545.56 1067.17,563.25 
	1070.33,563.25 1070.33,571.57 1041.2,571.57 1041.2,563.25 1044.28,563.25 1044.28,545.56 1054.31,545.56 1054.31,488.99 
	1042.72,488.99 1042.74,464.53 1054.31,464.53 1054.31,415.51 1123.88,415.51 1123.88,421.75 1124.92,421.75 1124.92,424.62 
	1123.88,424.62 1123.88,435.27 1095.79,435.27 1095.79,436.31 1093.84,436.31 1093.84,429.2 1057.16,429.2 1057.16,464.53 
	1068.75,464.53 1068.75,486.39 1087.47,486.39 1087.47,467.67 1093.84,467.67 1093.84,456.08 1095.79,456.08 1095.79,458.18 "/>
<polygon opacity="0.2" fill="none" stroke="#FAFAFF" stroke-linecap="round" stroke-linejoin="round" stroke-miterlimit="10" points="
	1238.79,618.17 1226.65,618.17 1226.65,626.26 1235.34,626.26 1235.34,714.32 1202.36,714.32 1202.36,701.18 1174.75,701.18 
	1174.75,692.57 1172.21,692.57 1172.19,697.64 1160.34,697.64 1160.34,703.71 1199.85,703.71 1199.85,716.86 1216.88,716.86 
	1216.88,734.56 1199.85,734.56 1199.85,739.36 1193.05,739.36 1193.91,740.88 1201.36,740.88 1201.36,736.07 1235.34,736.07 
	1235.34,758.85 1151.73,758.85 1151.73,761.12 1145.66,761.12 1145.66,763.9 1151.73,763.9 1151.73,769.97 1251.29,769.97 
	1251.29,753.29 1238.14,753.29 1238.14,626.26 1238.79,626.26 "/>
<polygon opacity="0.2" fill="none" stroke="#FAFAFF" stroke-linecap="round" stroke-linejoin="round" stroke-miterlimit="10" points="
	1194.26,618.17 1165.93,618.17 1165.93,626.26 1170.94,626.26 1170.94,633.85 1172.19,633.85 1172.21,673.35 1174.75,673.35 
	1174.78,646.5 1187.27,646.5 1187.27,626.26 1194.26,626.26 "/>
<polygon opacity="0.2" fill="none" stroke="#FAFAFF" stroke-linecap="round" stroke-linejoin="round" stroke-miterlimit="10" points="
	1133.54,618.17 1105.2,618.17 1105.2,626.26 1106.69,626.26 1106.69,643.45 1115,643.45 1115,673.27 1117.54,673.27 1117.54,643.45 
	1128.93,643.45 1128.95,626.26 1133.54,626.26 "/>
<polygon opacity="0.2" fill="none" stroke="#FAFAFF" stroke-linecap="round" stroke-linejoin="round" stroke-miterlimit="10" points="
	1072.82,618.17 1044.48,618.17 1044.48,626.26 1053.55,626.26 1053.58,631.82 1057.36,631.82 1057.36,733.91 1060.89,733.91 
	1060.89,759.36 1060.89,758.85 1053.55,758.85 1053.55,769.97 1124.39,769.97 1124.39,763.9 1125.42,763.9 1125.42,761.12 
	1102.02,761.12 1102.02,759.09 1100.13,759.09 1100.13,767.19 1063.67,767.19 1063.67,733.91 1075.33,733.91 1075.33,730.32 
	1075.33,730.38 1100.13,730.38 1100.13,739.88 1102.02,739.88 1102.02,730.38 1117.54,730.38 1117.54,692.52 1115,692.52 
	1115,709.63 1060.14,709.63 1060.14,631.82 1063.67,631.82 1063.67,626.26 1072.82,626.26 "/>
<polyline opacity="0.2" fill="none" stroke="#FAFAFF" stroke-linecap="round" stroke-linejoin="round" stroke-miterlimit="10" points="
	1165.93,619.65 1164.9,619.65 1164.93,620.78 1165.93,620.78 "/>
<path opacity="0.2" fill="none" stroke="#FAFAFF" stroke-linecap="round" stroke-linejoin="round" stroke-miterlimit="10" d="
	M1172.21,673.35"/>
<polygon opacity="0.2" fill="none" stroke="#FAFAFF" stroke-linecap="round" stroke-linejoin="round" stroke-miterlimit="10" points="
	990.71,620.05 990.71,625.86 973.69,625.83 973.69,643.71 954.8,643.71 954.8,737.21 995.89,737.21 995.89,708.74 998.65,708.74 
	998.65,739.98 947.9,739.98 947.9,760.63 1019.3,760.63 1019.3,687.59 995.59,687.56 995.59,684.76 1022.87,684.76 1022.87,657.99 
	1028.64,657.99 1028.64,769.97 935.08,769.97 935.08,620.05 "/>
<polygon opacity="0.2" fill="none" stroke="#FAFAFF" stroke-linecap="round" stroke-linejoin="round" stroke-miterlimit="10" points="
	737.48,418.58 737.48,424.5 720.11,424.47 720.11,442.72 700.83,442.72 700.83,538.14 742.76,538.14 742.76,509.09 745.58,509.09 
	745.58,540.97 693.79,540.97 693.79,562.04 766.65,562.04 766.65,487.5 742.46,487.47 742.46,484.62 770.3,484.62 770.3,457.29 
	776.19,457.29 776.19,571.57 680.7,571.57 680.7,418.58 "/>
<polygon opacity="0.2" fill="none" stroke="#FAFAFF" stroke-linecap="round" stroke-linejoin="round" stroke-miterlimit="10" points="
	973.81,27.61 973.81,35.93 968.65,35.93 968.65,43.73 966.05,43.73 966.05,100.7 963.45,100.7 963.45,56.74 951.88,56.74 
	951.88,35.93 944.68,35.93 944.68,27.61 "/>
<polygon opacity="0.2" fill="none" stroke="#FAFAFF" stroke-linecap="round" stroke-linejoin="round" stroke-miterlimit="10" points="
	911.39,27.61 911.39,35.93 902.45,35.93 902.45,121.63 941.08,121.63 941.08,140.1 963.45,140.1 963.45,120.46 966.05,120.46 
	966.05,142.95 941.08,142.95 941.08,143.99 939.13,143.99 939.13,142.95 932.76,142.95 932.76,124.23 914.04,124.23 914.04,146.62 
	902.45,146.62 902.45,180.8 939.13,180.8 939.13,163.76 941.08,163.76 941.08,172.17 969.17,172.17 969.17,174.56 970.21,174.56 
	970.21,177.43 969.17,177.43 969.17,183.67 900.37,183.67 900.37,166.51 899.6,166.51 899.6,35.93 898.91,35.93 898.91,27.61 "/>
<polygon opacity="0.2" fill="none" stroke="#FAFAFF" stroke-linecap="round" stroke-linejoin="round" stroke-miterlimit="10" points="
	1007.1,27.61 1036.23,27.61 1036.23,35.93 1034.71,35.93 1034.71,53.61 1024.82,53.61 1024.82,100.7 1022.22,100.7 1022.22,53.61 
	1011.82,53.61 1011.86,35.93 1007.1,35.93 "/>
<polygon opacity="0.2" fill="none" stroke="#FAFAFF" stroke-linecap="round" stroke-linejoin="round" stroke-miterlimit="10" points="
	1069.52,27.61 1098.64,27.61 1098.64,35.93 1091.92,35.93 1091.92,43.73 1085.54,43.73 1085.54,141.02 1068,141.02 1068,152.46 
	1085.54,152.46 1085.54,172.23 1102.33,172.23 1102.33,183.67 997.26,183.67 997.26,177.43 991.02,177.43 991.02,174.56 
	1000.11,174.56 1000.11,180.8 1065.92,180.8 1065.92,172.23 1082.69,172.23 1082.69,154.54 1065.92,154.54 1065.92,141.02 
	1022.22,141.02 1022.22,120.46 1024.82,120.46 1024.82,122.02 1037.1,122.02 1037.1,138.15 1082.69,138.15 1082.69,43.73 
	1077.36,43.71 1077.36,35.93 1069.52,35.93 "/>
<polyline opacity="0.2" fill="none" stroke="#FAFAFF" stroke-linecap="round" stroke-linejoin="round" stroke-miterlimit="10" points="
	911.39,29.17 912.43,29.17 912.43,30.33 911.39,30.33 "/>
<polygon opacity="0.2" fill="none" stroke="#FAFAFF" stroke-linecap="round" stroke-linejoin="round" stroke-miterlimit="10" points="
	912.58,37.37 912.7,37.45 912.81,37.37 912.7,37.3 "/>
<polygon opacity="0.2" fill="none" stroke="#FAFAFF" stroke-linecap="round" stroke-linejoin="round" stroke-miterlimit="10" points="
	914.06,37.37 914.18,37.45 914.31,37.37 914.18,37.3 "/>
<rect x="904.11" y="62.27" opacity="0.2" stroke="#FAFAFF" stroke-miterlimit="10" width="0.02" height="0.15"/>
<rect x="904.11" y="61.54" opacity="0.2" stroke="#FAFAFF" stroke-miterlimit="10" width="0.02" height="0.29"/>
<rect x="904.11" y="60.79" opacity="0.2" stroke="#FAFAFF" stroke-miterlimit="10" width="0.02" height="0.29"/>
<rect x="904.11" y="60.06" opacity="0.2" stroke="#FAFAFF" stroke-miterlimit="10" width="0.02" height="0.29"/>
<rect x="904.11" y="59.34" opacity="0.2" stroke="#FAFAFF" stroke-miterlimit="10" width="0.02" height="0.29"/>
<rect x="904.11" y="58.61" opacity="0.2" stroke="#FAFAFF" stroke-miterlimit="10" width="0.02" height="0.29"/>
<rect x="904.11" y="57.86" opacity="0.2" stroke="#FAFAFF" stroke-miterlimit="10" width="0.02" height="0.29"/>
<rect x="904.11" y="57.13" opacity="0.2" stroke="#FAFAFF" stroke-miterlimit="10" width="0.02" height="0.29"/>
<rect x="904.11" y="56.4" opacity="0.2" stroke="#FAFAFF" stroke-miterlimit="10" width="0.02" height="0.29"/>
<rect x="904.11" y="55.65" opacity="0.2" stroke="#FAFAFF" stroke-miterlimit="10" width="0.02" height="0.29"/>
<rect x="904.11" y="54.93" opacity="0.2" stroke="#FAFAFF" stroke-miterlimit="10" width="0.02" height="0.29"/>
<rect x="904.11" y="54.2" opacity="0.2" stroke="#FAFAFF" stroke-miterlimit="10" width="0.02" height="0.29"/>
<rect x="904.11" y="53.45" opacity="0.2" stroke="#FAFAFF" stroke-miterlimit="10" width="0.02" height="0.29"/>
<rect x="904.11" y="52.72" opacity="0.2" stroke="#FAFAFF" stroke-miterlimit="10" width="0.02" height="0.29"/>
<rect x="904.11" y="51.99" opacity="0.2" stroke="#FAFAFF" stroke-miterlimit="10" width="0.02" height="0.29"/>
<rect x="904.11" y="51.26" opacity="0.2" stroke="#FAFAFF" stroke-miterlimit="10" width="0.02" height="0.29"/>
<rect x="904.11" y="50.51" opacity="0.2" stroke="#FAFAFF" stroke-miterlimit="10" width="0.02" height="0.29"/>
<rect x="904.11" y="49.79" opacity="0.2" stroke="#FAFAFF" stroke-miterlimit="10" width="0.02" height="0.29"/>
<rect x="904.11" y="49.06" opacity="0.2" stroke="#FAFAFF" stroke-miterlimit="10" width="0.02" height="0.29"/>
<rect x="904.11" y="48.31" opacity="0.2" stroke="#FAFAFF" stroke-miterlimit="10" width="0.02" height="0.29"/>
<rect x="904.11" y="47.58" opacity="0.2" stroke="#FAFAFF" stroke-miterlimit="10" width="0.02" height="0.29"/>
<rect x="904.11" y="46.85" opacity="0.2" stroke="#FAFAFF" stroke-miterlimit="10" width="0.02" height="0.29"/>
<rect x="904.11" y="46.12" opacity="0.2" stroke="#FAFAFF" stroke-miterlimit="10" width="0.02" height="0.29"/>
<rect x="904.11" y="45.38" opacity="0.2" stroke="#FAFAFF" stroke-miterlimit="10" width="0.02" height="0.29"/>
<rect x="904.11" y="44.65" opacity="0.2" stroke="#FAFAFF" stroke-miterlimit="10" width="0.02" height="0.29"/>
<rect x="904.11" y="43.92" opacity="0.2" stroke="#FAFAFF" stroke-miterlimit="10" width="0.02" height="0.29"/>
<rect x="904.11" y="43.17" opacity="0.2" stroke="#FAFAFF" stroke-miterlimit="10" width="0.02" height="0.29"/>
<rect x="904.11" y="42.44" opacity="0.2" stroke="#FAFAFF" stroke-miterlimit="10" width="0.02" height="0.29"/>
<rect x="904.11" y="41.71" opacity="0.2" stroke="#FAFAFF" stroke-miterlimit="10" width="0.02" height="0.29"/>
<rect x="904.11" y="40.97" opacity="0.2" stroke="#FAFAFF" stroke-miterlimit="10" width="0.02" height="0.29"/>
<rect x="904.11" y="40.24" opacity="0.2" stroke="#FAFAFF" stroke-miterlimit="10" width="0.02" height="0.29"/>
<rect x="904.11" y="39.51" opacity="0.2" stroke="#FAFAFF" stroke-miterlimit="10" width="0.02" height="0.29"/>
<rect x="904.11" y="38.78" opacity="0.2" stroke="#FAFAFF" stroke-miterlimit="10" width="0.02" height="0.29"/>
<rect x="904.11" y="38.03" opacity="0.2" stroke="#FAFAFF" stroke-miterlimit="10" width="0.02" height="0.29"/>
<rect x="904.11" y="37.45" opacity="0.2" stroke="#FAFAFF" stroke-miterlimit="10" width="0.02" height="0.15"/>
<polyline opacity="0.2" fill-rule="evenodd" clip-rule="evenodd" stroke="#FAFAFF" stroke-miterlimit="10" points="904.13,37.45 
	904.11,37.45 904.13,37.45 904.13,37.43 "/>
<rect x="904.13" y="37.43" opacity="0.2" stroke="#FAFAFF" stroke-miterlimit="10" width="0.15" height="0.02"/>
<rect x="904.76" y="37.43" opacity="0.2" stroke="#FAFAFF" stroke-miterlimit="10" width="0.31" height="0.02"/>
<rect x="905.55" y="37.43" opacity="0.2" stroke="#FAFAFF" stroke-miterlimit="10" width="0.29" height="0.02"/>
<rect x="906.32" y="37.43" opacity="0.2" stroke="#FAFAFF" stroke-miterlimit="10" width="0.31" height="0.02"/>
<rect x="907.11" y="37.43" opacity="0.2" stroke="#FAFAFF" stroke-miterlimit="10" width="0.29" height="0.02"/>
<rect x="907.88" y="37.43" opacity="0.2" stroke="#FAFAFF" stroke-miterlimit="10" width="0.31" height="0.02"/>
<rect x="908.67" y="37.43" opacity="0.2" stroke="#FAFAFF" stroke-miterlimit="10" width="0.29" height="0.02"/>
<rect x="909.44" y="37.43" opacity="0.2" stroke="#FAFAFF" stroke-miterlimit="10" width="0.31" height="0.02"/>
<rect x="910.23" y="37.43" opacity="0.2" stroke="#FAFAFF" stroke-miterlimit="10" width="0.15" height="0.02"/>
<polyline opacity="0.2" fill-rule="evenodd" clip-rule="evenodd" stroke="#FAFAFF" stroke-miterlimit="10" points="910.37,37.45 
	910.37,37.43 910.37,37.45 "/>
<rect x="910.35" y="37.45" opacity="0.2" fill-rule="evenodd" clip-rule="evenodd" stroke="#FAFAFF" stroke-miterlimit="10" width="0.02" height="0.15"/>
<rect x="904.13" y="62.39" opacity="0.2" fill-rule="evenodd" clip-rule="evenodd" stroke="#FAFAFF" stroke-miterlimit="10" width="0.15" height="0.02"/>
<line opacity="0.2" fill-rule="evenodd" clip-rule="evenodd" stroke="#FAFAFF" stroke-miterlimit="10" x1="904.13" y1="62.42" x2="904.11" y2="62.42"/>
<polygon opacity="0.2" fill="none" stroke="#FAFAFF" stroke-linecap="round" stroke-linejoin="round" stroke-miterlimit="10" points="
	1015.32,382.31 1015.32,374.34 999.86,374.34 999.86,280.96 1054.65,280.96 1054.63,288.42 1057.39,288.42 1057.39,280.96 
	1066.71,280.96 1066.71,278.22 1015.8,278.22 1015.8,265.76 999.86,265.76 999.86,237.64 1012.8,237.64 1012.8,235.65 
	1080.76,235.65 1080.76,241.62 1089.5,241.62 1089.5,238.89 1083.52,238.86 1083.52,232.88 991.02,232.88 991.02,382.31 "/>
<polygon opacity="0.2" fill="none" stroke="#FAFAFF" stroke-linecap="round" stroke-linejoin="round" stroke-miterlimit="10" points="
	1047.19,374.34 1047.19,382.31 1075,382.31 1075.08,374.34 1069.58,374.34 1069.58,347.44 1057.39,347.44 1057.39,308.34 
	1054.63,308.34 1054.63,374.34 "/>
<polygon opacity="0.2" fill="none" stroke="#FAFAFF" stroke-linecap="round" stroke-linejoin="round" stroke-miterlimit="10" points="
	1166.71,374.34 1166.71,382.31 1194.6,382.31 1194.6,374.34 1180.66,374.34 1180.63,342.2 1170.93,342.2 1170.93,301.86 
	1171.44,301.86 1171.44,299.12 1170.93,299.12 1170.93,278.22 1109.42,278.22 1109.42,288.42 1112.16,288.42 1112.16,280.96 
	1168.2,280.96 1168.2,374.34 "/>
<polygon opacity="0.2" fill="none" stroke="#FAFAFF" stroke-linecap="round" stroke-linejoin="round" stroke-miterlimit="10" points="
	1226.47,374.34 1226.47,382.31 1258.37,382.31 1258.34,374.34 1254.36,374.34 1254.36,368.87 1253.85,368.87 1253.85,320.53 
	1266.79,320.53 1266.79,300.61 1253.85,300.61 1253.85,232.88 1110.4,232.88 1110.4,238.86 1109.42,238.89 1109.42,241.62 
	1124.85,241.62 1124.85,243.85 1180.81,243.85 1180.81,257.56 1196.83,257.56 1196.83,258.54 1199.57,258.54 1199.57,243.85 
	1244.4,243.85 1244.4,281.2 1231.7,281.2 1231.7,299.12 1200.31,299.12 1200.31,281.2 1199.57,281.2 1199.57,278.46 1196.83,278.46 
	1196.83,299.12 1191.36,299.12 1191.36,301.86 1245.38,301.86 1245.38,368.87 1244.4,368.87 1244.4,374.34 "/>
<polygon opacity="0.2" fill="none" stroke="#FAFAFF" stroke-linecap="round" stroke-linejoin="round" stroke-miterlimit="10" points="
	1106.95,374.34 1109.42,374.34 1109.42,308.34 1112.16,308.34 1112.16,368.87 1134.81,368.87 1134.84,382.31 1106.95,382.31 "/>
<rect x="1001.29" y="334.02" opacity="0.2" stroke="#FAFAFF" stroke-miterlimit="10" width="0.03" height="0.37"/>
<rect x="1001.29" y="333.07" opacity="0.2" stroke="#FAFAFF" stroke-miterlimit="10" width="0.03" height="0.37"/>
<rect x="1001.29" y="332.11" opacity="0.2" stroke="#FAFAFF" stroke-miterlimit="10" width="0.03" height="0.37"/>
<polygon opacity="0.2" fill="none" stroke="#FAFAFF" stroke-linecap="round" stroke-linejoin="round" stroke-miterlimit="10" points="
	747.35,33.85 747.35,36.72 738.26,36.72 738.26,30.48 659.47,30.48 659.45,39.05 655.8,39.05 655.8,56.74 672.45,56.74 
	672.45,70.28 691.71,70.28 691.71,72.88 655.68,72.88 655.68,168.59 661.4,168.59 661.4,175.35 664.65,175.35 664.65,183.67 
	650.14,183.67 650.14,27.63 741.11,27.61 741.11,33.85 "/>
<polygon opacity="0.2" fill="none" stroke="#FAFAFF" stroke-linecap="round" stroke-linejoin="round" stroke-miterlimit="10" points="
	711.48,70.28 751.53,70.26 751.53,72.88 716.16,72.88 716.16,175.35 727.04,175.35 727.04,183.67 697.94,183.67 697.94,175.35 
	703.18,175.35 703.18,141.79 713.56,141.79 713.56,72.88 711.48,72.88 "/>
<polygon opacity="0.2" fill="none" stroke="#FAFAFF" stroke-linecap="round" stroke-linejoin="round" stroke-miterlimit="10" points="
	771.3,70.28 775.96,70.28 775.96,72.88 774.94,72.88 774.94,167.55 782.72,167.55 782.72,175.35 789.46,175.35 789.46,183.67 
	760.33,183.67 760.33,175.35 768.09,175.35 768.09,168.59 772.34,168.59 772.34,72.88 771.3,72.88 "/>
<polygon opacity="0.2" fill="none" stroke="#FAFAFF" stroke-linecap="round" stroke-linejoin="round" stroke-miterlimit="10" points="
	795.72,70.28 795.72,72.88 797.28,72.88 797.28,101.09 835.92,101.09 835.92,157.66 825.91,157.66 825.91,175.35 822.75,175.35 
	822.75,183.67 851.88,183.67 851.88,175.35 848.8,175.35 848.8,157.66 838.77,157.66 838.77,101.09 850.36,101.09 850.34,76.63 
	838.77,76.63 838.77,27.61 769.19,27.61 769.19,33.85 768.15,33.85 768.15,36.72 769.19,36.72 769.19,47.37 797.28,47.37 
	797.28,48.41 799.24,48.41 799.24,41.3 835.92,41.3 835.92,76.63 824.33,76.63 824.33,98.49 805.6,98.49 805.6,79.77 799.24,79.77 
	799.24,68.18 797.28,68.18 797.28,70.28 "/>
<polygon opacity="0.2" fill="none" stroke="#FAFAFF" stroke-linecap="round" stroke-linejoin="round" stroke-miterlimit="10" points="
	664.22,230.27 676.37,230.27 676.37,238.36 667.68,238.36 667.68,326.42 700.66,326.42 700.66,313.28 728.26,313.28 728.26,304.67 
	730.8,304.67 730.83,309.74 742.67,309.74 742.67,315.81 703.16,315.81 703.16,328.96 686.14,328.96 686.14,346.66 703.16,346.66 
	703.16,351.46 709.97,351.46 709.1,352.98 701.65,352.98 701.65,348.17 667.68,348.17 667.68,370.95 751.28,370.95 751.28,373.22 
	757.36,373.22 757.36,376 751.28,376 751.28,382.07 651.73,382.07 651.73,365.39 664.87,365.39 664.87,238.36 664.22,238.36 "/>
<polygon opacity="0.2" fill="none" stroke="#FAFAFF" stroke-linecap="round" stroke-linejoin="round" stroke-miterlimit="10" points="
	708.75,230.27 737.09,230.27 737.09,238.36 732.07,238.36 732.07,245.94 730.83,245.94 730.8,285.45 728.26,285.45 728.24,258.6 
	715.74,258.6 715.74,238.36 708.75,238.36 "/>
<polygon opacity="0.2" fill="none" stroke="#FAFAFF" stroke-linecap="round" stroke-linejoin="round" stroke-miterlimit="10" points="
	769.47,230.27 797.81,230.27 797.81,238.36 796.32,238.36 796.32,255.55 788.01,255.55 788.01,285.37 785.48,285.37 785.48,255.55 
	774.09,255.55 774.06,238.36 769.47,238.36 "/>
<polygon opacity="0.2" fill="none" stroke="#FAFAFF" stroke-linecap="round" stroke-linejoin="round" stroke-miterlimit="10" points="
	830.19,230.27 858.53,230.27 858.53,238.36 849.46,238.36 849.44,243.92 845.66,243.92 845.66,346.01 842.12,346.01 842.12,371.46 
	842.12,370.95 849.46,370.95 849.46,382.07 778.62,382.07 778.62,376 777.6,376 777.6,373.22 800.99,373.22 800.99,371.19 
	802.88,371.19 802.88,379.29 839.34,379.29 839.34,346.01 827.68,346.01 827.68,342.42 827.68,342.48 802.88,342.48 802.88,351.98 
	800.99,351.98 800.99,342.48 785.48,342.48 785.48,304.61 788.01,304.61 788.01,321.72 842.88,321.72 842.88,243.92 839.34,243.92 
	839.34,238.36 830.19,238.36 "/>
<polyline opacity="0.2" fill="none" stroke="#FAFAFF" stroke-linecap="round" stroke-linejoin="round" stroke-miterlimit="10" points="
	737.09,231.75 738.11,231.75 738.09,232.88 737.09,232.88 "/>
<path opacity="0.2" fill="none" stroke="#FAFAFF" stroke-linecap="round" stroke-linejoin="round" stroke-miterlimit="10" d="
	M730.8,285.45"/>
<polygon opacity="0.2" fill="none" stroke="#FAFAFF" stroke-linecap="round" stroke-linejoin="round" stroke-miterlimit="10" points="
	912.3,232.15 912.3,237.96 929.32,237.93 929.32,255.81 948.21,255.81 948.21,349.31 907.13,349.31 907.13,320.84 904.36,320.84 
	904.36,352.08 955.11,352.08 955.11,372.73 883.71,372.73 883.71,299.69 907.42,299.66 907.42,296.86 880.14,296.86 880.14,270.09 
	874.37,270.09 874.37,382.07 967.94,382.07 967.94,232.15 "/>
<polygon opacity="0.2" fill="none" stroke="#FAFAFF" stroke-linecap="round" stroke-linejoin="round" stroke-miterlimit="10" points="
	1165.54,30.68 1165.54,36.6 1182.9,36.57 1182.9,54.82 1202.18,54.82 1202.18,150.24 1160.25,150.24 1160.25,121.19 1157.43,121.19 
	1157.43,153.07 1209.23,153.07 1209.23,174.14 1136.36,174.14 1136.36,99.6 1160.56,99.57 1160.56,96.72 1132.72,96.72 
	1132.72,69.39 1126.83,69.39 1126.83,183.67 1222.31,183.67 1222.31,30.68 "/>
</svg>
