<?xml version="1.0" encoding="utf-8"?>
<!-- Generator: Adobe Illustrator 18.1.1, SVG Export Plug-In . SVG Version: 6.00 Build 0)  -->
<!DOCTYPE svg PUBLIC "-//W3C//DTD SVG 1.1//EN" "http://www.w3.org/Graphics/SVG/1.1/DTD/svg11.dtd">
<svg version="1.1" id="Layer_1" xmlns="http://www.w3.org/2000/svg" xmlns:xlink="http://www.w3.org/1999/xlink" x="0px" y="0px"
	 width="1280px" height="800px" viewBox="0 0 1280 800" enable-background="new 0 0 1280 800" xml:space="preserve">
<polygon fill="none" stroke="#FAFAFF" stroke-width="0.3953" stroke-linecap="round" stroke-linejoin="round" stroke-miterlimit="10" points="
	337.47,24.84 337.47,33.16 332.31,33.16 332.31,40.96 329.71,40.96 329.71,97.93 327.11,97.93 327.11,53.97 315.54,53.97 
	315.54,33.16 308.34,33.16 308.34,24.84 "/>
<polygon fill="none" stroke="#FAFAFF" stroke-width="0.3953" stroke-linecap="round" stroke-linejoin="round" stroke-miterlimit="10" points="
	275.05,24.84 275.05,33.16 266.1,33.16 266.1,118.86 304.74,118.86 304.74,137.34 327.11,137.34 327.11,117.7 329.71,117.7 
	329.71,140.19 304.74,140.19 304.74,141.23 302.78,141.23 302.78,140.19 296.42,140.19 296.42,121.46 277.69,121.46 277.69,143.85 
	266.1,143.85 266.1,178.03 302.78,178.03 302.78,160.99 304.74,160.99 304.74,169.4 332.83,169.4 332.83,171.79 333.87,171.79 
	333.87,174.66 332.83,174.66 332.83,180.9 264.02,180.9 264.02,163.74 263.25,163.74 263.25,33.16 262.57,33.16 262.57,24.84 "/>
<polygon fill="none" stroke="#FAFAFF" stroke-width="0.3953" stroke-linecap="round" stroke-linejoin="round" stroke-miterlimit="10" points="
	370.76,24.84 399.88,24.84 399.88,33.16 398.36,33.16 398.36,50.85 388.48,50.85 388.48,97.93 385.88,97.93 385.88,50.85 
	375.48,50.85 375.52,33.16 370.76,33.16 "/>
<polygon fill="none" stroke="#FAFAFF" stroke-width="0.3953" stroke-linecap="round" stroke-linejoin="round" stroke-miterlimit="10" points="
	433.17,24.84 462.3,24.84 462.3,33.16 455.58,33.16 455.58,40.96 449.19,40.96 449.19,138.25 431.65,138.25 431.65,149.69 
	449.19,149.69 449.19,169.46 465.98,169.46 465.98,180.9 360.91,180.9 360.91,174.66 354.67,174.66 354.67,171.79 363.77,171.79 
	363.77,178.03 429.57,178.03 429.57,169.46 446.34,169.46 446.34,151.77 429.57,151.77 429.57,138.25 385.88,138.25 385.88,117.7 
	388.48,117.7 388.48,119.26 400.76,119.26 400.76,135.38 446.34,135.38 446.34,40.96 441.02,40.94 441.02,33.16 433.17,33.16 "/>
<polyline fill="none" stroke="#FAFAFF" stroke-width="0.2913" stroke-linecap="round" stroke-linejoin="round" stroke-miterlimit="10" points="
	275.05,26.4 276.09,26.4 276.09,27.57 275.05,27.57 "/>
<polygon fill="none" stroke="#FAFAFF" stroke-width="0.104" stroke-linecap="round" stroke-linejoin="round" stroke-miterlimit="10" points="
	276.24,34.6 276.36,34.68 276.46,34.6 276.36,34.54 "/>
<polygon fill="none" stroke="#FAFAFF" stroke-width="0.104" stroke-linecap="round" stroke-linejoin="round" stroke-miterlimit="10" points="
	277.71,34.6 277.84,34.68 277.96,34.6 277.84,34.54 "/>
<rect x="267.77" y="59.5" stroke="#FAFAFF" stroke-miterlimit="10" width="0.02" height="0.15"/>
<rect x="267.77" y="58.77" stroke="#FAFAFF" stroke-miterlimit="10" width="0.02" height="0.29"/>
<rect x="267.77" y="58.02" stroke="#FAFAFF" stroke-miterlimit="10" width="0.02" height="0.29"/>
<rect x="267.77" y="57.3" stroke="#FAFAFF" stroke-miterlimit="10" width="0.02" height="0.29"/>
<rect x="267.77" y="56.57" stroke="#FAFAFF" stroke-miterlimit="10" width="0.02" height="0.29"/>
<rect x="267.77" y="55.84" stroke="#FAFAFF" stroke-miterlimit="10" width="0.02" height="0.29"/>
<rect x="267.77" y="55.09" stroke="#FAFAFF" stroke-miterlimit="10" width="0.02" height="0.29"/>
<rect x="267.77" y="54.36" stroke="#FAFAFF" stroke-miterlimit="10" width="0.02" height="0.29"/>
<rect x="267.77" y="53.63" stroke="#FAFAFF" stroke-miterlimit="10" width="0.02" height="0.29"/>
<rect x="267.77" y="52.89" stroke="#FAFAFF" stroke-miterlimit="10" width="0.02" height="0.29"/>
<rect x="267.77" y="52.16" stroke="#FAFAFF" stroke-miterlimit="10" width="0.02" height="0.29"/>
<rect x="267.77" y="51.43" stroke="#FAFAFF" stroke-miterlimit="10" width="0.02" height="0.29"/>
<rect x="267.77" y="50.68" stroke="#FAFAFF" stroke-miterlimit="10" width="0.02" height="0.29"/>
<rect x="267.77" y="49.95" stroke="#FAFAFF" stroke-miterlimit="10" width="0.02" height="0.29"/>
<rect x="267.77" y="49.22" stroke="#FAFAFF" stroke-miterlimit="10" width="0.02" height="0.29"/>
<rect x="267.77" y="48.5" stroke="#FAFAFF" stroke-miterlimit="10" width="0.02" height="0.29"/>
<rect x="267.77" y="47.75" stroke="#FAFAFF" stroke-miterlimit="10" width="0.02" height="0.29"/>
<rect x="267.77" y="47.02" stroke="#FAFAFF" stroke-miterlimit="10" width="0.02" height="0.29"/>
<rect x="267.77" y="46.29" stroke="#FAFAFF" stroke-miterlimit="10" width="0.02" height="0.29"/>
<rect x="267.77" y="45.54" stroke="#FAFAFF" stroke-miterlimit="10" width="0.02" height="0.29"/>
<rect x="267.77" y="44.81" stroke="#FAFAFF" stroke-miterlimit="10" width="0.02" height="0.29"/>
<rect x="267.77" y="44.09" stroke="#FAFAFF" stroke-miterlimit="10" width="0.02" height="0.29"/>
<rect x="267.77" y="43.36" stroke="#FAFAFF" stroke-miterlimit="10" width="0.02" height="0.29"/>
<rect x="267.77" y="42.61" stroke="#FAFAFF" stroke-miterlimit="10" width="0.02" height="0.29"/>
<rect x="267.77" y="41.88" stroke="#FAFAFF" stroke-miterlimit="10" width="0.02" height="0.29"/>
<rect x="267.77" y="41.15" stroke="#FAFAFF" stroke-miterlimit="10" width="0.02" height="0.29"/>
<rect x="267.77" y="40.4" stroke="#FAFAFF" stroke-miterlimit="10" width="0.02" height="0.29"/>
<rect x="267.77" y="39.67" stroke="#FAFAFF" stroke-miterlimit="10" width="0.02" height="0.29"/>
<rect x="267.77" y="38.95" stroke="#FAFAFF" stroke-miterlimit="10" width="0.02" height="0.29"/>
<rect x="267.77" y="38.2" stroke="#FAFAFF" stroke-miterlimit="10" width="0.02" height="0.29"/>
<rect x="267.77" y="37.47" stroke="#FAFAFF" stroke-miterlimit="10" width="0.02" height="0.29"/>
<rect x="267.77" y="36.74" stroke="#FAFAFF" stroke-miterlimit="10" width="0.02" height="0.29"/>
<rect x="267.77" y="36.01" stroke="#FAFAFF" stroke-miterlimit="10" width="0.02" height="0.29"/>
<rect x="267.77" y="35.26" stroke="#FAFAFF" stroke-miterlimit="10" width="0.02" height="0.29"/>
<rect x="267.77" y="34.68" stroke="#FAFAFF" stroke-miterlimit="10" width="0.02" height="0.15"/>
<polyline fill-rule="evenodd" clip-rule="evenodd" stroke="#FAFAFF" stroke-miterlimit="10" points="267.79,34.68 267.77,34.68 
	267.79,34.68 267.79,34.66 "/>
<rect x="267.79" y="34.66" stroke="#FAFAFF" stroke-miterlimit="10" width="0.15" height="0.02"/>
<rect x="268.41" y="34.66" stroke="#FAFAFF" stroke-miterlimit="10" width="0.31" height="0.02"/>
<rect x="269.2" y="34.66" stroke="#FAFAFF" stroke-miterlimit="10" width="0.29" height="0.02"/>
<rect x="269.97" y="34.66" stroke="#FAFAFF" stroke-miterlimit="10" width="0.31" height="0.02"/>
<rect x="270.76" y="34.66" stroke="#FAFAFF" stroke-miterlimit="10" width="0.29" height="0.02"/>
<rect x="271.53" y="34.66" stroke="#FAFAFF" stroke-miterlimit="10" width="0.31" height="0.02"/>
<rect x="272.32" y="34.66" stroke="#FAFAFF" stroke-miterlimit="10" width="0.29" height="0.02"/>
<rect x="273.09" y="34.66" stroke="#FAFAFF" stroke-miterlimit="10" width="0.31" height="0.02"/>
<rect x="273.89" y="34.66" stroke="#FAFAFF" stroke-miterlimit="10" width="0.15" height="0.02"/>
<polyline fill-rule="evenodd" clip-rule="evenodd" stroke="#FAFAFF" stroke-miterlimit="10" points="274.03,34.68 274.03,34.66 
	274.03,34.68 "/>
<rect x="274.01" y="34.68" fill-rule="evenodd" clip-rule="evenodd" stroke="#FAFAFF" stroke-miterlimit="10" width="0.02" height="0.15"/>
<rect x="267.79" y="59.63" fill-rule="evenodd" clip-rule="evenodd" stroke="#FAFAFF" stroke-miterlimit="10" width="0.15" height="0.02"/>
<line fill-rule="evenodd" clip-rule="evenodd" stroke="#FAFAFF" stroke-miterlimit="10" x1="267.79" y1="59.65" x2="267.77" y2="59.65"/>
<polygon fill="none" stroke="#FAFAFF" stroke-width="0.5046" stroke-linecap="round" stroke-linejoin="round" stroke-miterlimit="10" points="
	378.98,379.54 378.98,371.57 363.52,371.57 363.52,278.19 418.31,278.19 418.28,285.65 421.05,285.65 421.05,278.19 430.37,278.19 
	430.37,275.45 379.45,275.45 379.45,263 363.52,263 363.52,234.87 376.45,234.87 376.45,232.88 444.42,232.88 444.42,238.85 
	453.16,238.85 453.16,236.12 447.18,236.09 447.18,230.12 354.67,230.12 354.67,379.54 "/>
<polygon fill="none" stroke="#FAFAFF" stroke-width="0.5046" stroke-linecap="round" stroke-linejoin="round" stroke-miterlimit="10" points="
	410.85,371.57 410.85,379.54 438.66,379.54 438.74,371.57 433.24,371.57 433.24,344.67 421.05,344.67 421.05,305.57 418.28,305.57 
	418.28,371.57 "/>
<polygon fill="none" stroke="#FAFAFF" stroke-width="0.5046" stroke-linecap="round" stroke-linejoin="round" stroke-miterlimit="10" points="
	530.37,371.57 530.37,379.54 558.26,379.54 558.26,371.57 544.31,371.57 544.29,339.44 534.59,339.44 534.59,299.09 535.1,299.09 
	535.1,296.36 534.59,296.36 534.59,275.45 473.08,275.45 473.08,285.65 475.81,285.65 475.81,278.19 531.86,278.19 531.86,371.57 
	"/>
<polygon fill="none" stroke="#FAFAFF" stroke-width="0.5046" stroke-linecap="round" stroke-linejoin="round" stroke-miterlimit="10" points="
	590.13,371.57 590.13,379.54 622.03,379.54 622,371.57 618.02,371.57 618.02,366.1 617.51,366.1 617.51,317.76 630.45,317.76 
	630.45,297.84 617.51,297.84 617.51,230.12 474.06,230.12 474.06,236.09 473.08,236.12 473.08,238.85 488.51,238.85 488.51,241.08 
	544.47,241.08 544.47,254.79 560.49,254.79 560.49,255.77 563.22,255.77 563.22,241.08 608.06,241.08 608.06,278.43 595.36,278.43 
	595.36,296.36 563.97,296.36 563.97,278.43 563.22,278.43 563.22,275.69 560.49,275.69 560.49,296.36 555.02,296.36 555.02,299.09 
	609.04,299.09 609.04,366.1 608.06,366.1 608.06,371.57 "/>
<polygon fill="none" stroke="#FAFAFF" stroke-width="0.5046" stroke-linecap="round" stroke-linejoin="round" stroke-miterlimit="10" points="
	470.61,371.57 473.08,371.57 473.08,305.57 475.81,305.57 475.81,366.1 498.47,366.1 498.5,379.54 470.61,379.54 "/>
<rect x="364.95" y="331.26" stroke="#FAFAFF" stroke-miterlimit="10" width="0.03" height="0.37"/>
<rect x="364.95" y="330.3" stroke="#FAFAFF" stroke-miterlimit="10" width="0.03" height="0.37"/>
<rect x="364.95" y="329.34" stroke="#FAFAFF" stroke-miterlimit="10" width="0.03" height="0.37"/>
<polygon fill="none" stroke="#FAFAFF" stroke-width="0.3953" stroke-linecap="round" stroke-linejoin="round" stroke-miterlimit="10" points="
	120.94,31.08 120.94,33.95 111.85,33.95 111.85,27.71 33.06,27.71 33.04,36.28 29.4,36.28 29.4,53.97 46.04,53.97 46.04,67.51 
	65.31,67.51 65.31,70.11 29.27,70.11 29.27,165.82 34.99,165.82 34.99,172.58 38.24,172.58 38.24,180.9 23.74,180.9 23.74,24.86 
	114.7,24.84 114.7,31.08 "/>
<polygon fill="none" stroke="#FAFAFF" stroke-width="0.3953" stroke-linecap="round" stroke-linejoin="round" stroke-miterlimit="10" points="
	85.07,67.51 125.12,67.49 125.12,70.11 89.75,70.11 89.75,172.58 100.64,172.58 100.64,180.9 71.53,180.9 71.53,172.58 
	76.77,172.58 76.77,139.02 87.15,139.02 87.15,70.11 85.07,70.11 "/>
<polygon fill="none" stroke="#FAFAFF" stroke-width="0.3953" stroke-linecap="round" stroke-linejoin="round" stroke-miterlimit="10" points="
	144.89,67.51 149.55,67.51 149.55,70.11 148.53,70.11 148.53,164.78 156.31,164.78 156.31,172.58 163.05,172.58 163.05,180.9 
	133.92,180.9 133.92,172.58 141.69,172.58 141.69,165.82 145.93,165.82 145.93,70.11 144.89,70.11 "/>
<polygon fill="none" stroke="#FAFAFF" stroke-width="0.3953" stroke-linecap="round" stroke-linejoin="round" stroke-miterlimit="10" points="
	169.32,67.51 169.32,70.11 170.88,70.11 170.88,98.33 209.51,98.33 209.51,154.9 199.5,154.9 199.5,172.58 196.34,172.58 
	196.34,180.9 225.47,180.9 225.47,172.58 222.39,172.58 222.39,154.9 212.36,154.9 212.36,98.33 223.95,98.33 223.93,73.86 
	212.36,73.86 212.36,24.84 142.79,24.84 142.79,31.08 141.75,31.08 141.75,33.95 142.79,33.95 142.79,44.61 170.88,44.61 
	170.88,45.65 172.83,45.65 172.83,38.53 209.51,38.53 209.51,73.86 197.92,73.86 197.92,95.72 179.2,95.72 179.2,77 172.83,77 
	172.83,65.41 170.88,65.41 170.88,67.51 "/>
<polygon fill="none" stroke="#FAFAFF" stroke-width="0.5128" stroke-linecap="round" stroke-linejoin="round" stroke-miterlimit="10" points="
	27.88,227.5 40.02,227.5 40.02,235.59 31.33,235.59 31.33,323.65 64.31,323.65 64.31,310.51 91.92,310.51 91.92,301.9 94.46,301.9 
	94.48,306.97 106.33,306.97 106.33,313.05 66.82,313.05 66.82,326.19 49.79,326.19 49.79,343.89 66.82,343.89 66.82,348.7 
	73.62,348.7 72.76,350.21 65.31,350.21 65.31,345.4 31.33,345.4 31.33,368.18 114.94,368.18 114.94,370.45 121.01,370.45 
	121.01,373.23 114.94,373.23 114.94,379.3 15.38,379.3 15.38,362.62 28.53,362.62 28.53,235.59 27.88,235.59 "/>
<polygon fill="none" stroke="#FAFAFF" stroke-width="0.5128" stroke-linecap="round" stroke-linejoin="round" stroke-miterlimit="10" points="
	72.41,227.5 100.75,227.5 100.75,235.59 95.73,235.59 95.73,243.18 94.48,243.18 94.46,282.69 91.92,282.69 91.89,255.83 
	79.4,255.83 79.4,235.59 72.41,235.59 "/>
<polygon fill="none" stroke="#FAFAFF" stroke-width="0.5128" stroke-linecap="round" stroke-linejoin="round" stroke-miterlimit="10" points="
	133.13,227.5 161.47,227.5 161.47,235.59 159.98,235.59 159.98,252.78 151.67,252.78 151.67,282.61 149.13,282.61 149.13,252.78 
	137.74,252.78 137.72,235.59 133.13,235.59 "/>
<polygon fill="none" stroke="#FAFAFF" stroke-width="0.5128" stroke-linecap="round" stroke-linejoin="round" stroke-miterlimit="10" points="
	193.85,227.5 222.19,227.5 222.19,235.59 213.12,235.59 213.09,241.15 209.31,241.15 209.31,343.25 205.78,343.25 205.78,368.69 
	205.78,368.18 213.12,368.18 213.12,379.3 142.28,379.3 142.28,373.23 141.25,373.23 141.25,370.45 164.65,370.45 164.65,368.42 
	166.54,368.42 166.54,376.52 203,376.52 203,343.25 191.34,343.25 191.34,339.66 191.34,339.71 166.54,339.71 166.54,349.21 
	164.65,349.21 164.65,339.71 149.13,339.71 149.13,301.85 151.67,301.85 151.67,318.96 206.53,318.96 206.53,241.15 203,241.15 
	203,235.59 193.85,235.59 "/>
<polyline fill="none" stroke="#FAFAFF" stroke-width="0.3778" stroke-linecap="round" stroke-linejoin="round" stroke-miterlimit="10" points="
	100.75,228.98 101.77,228.98 101.74,230.12 100.75,230.12 "/>
<path fill="none" stroke="#FAFAFF" stroke-width="0.1619" stroke-linecap="round" stroke-linejoin="round" stroke-miterlimit="10" d="
	M94.46,282.69"/>
<polygon fill="none" stroke="#FAFAFF" stroke-width="0.5653" stroke-linecap="round" stroke-linejoin="round" stroke-miterlimit="10" points="
	275.96,229.39 275.96,235.19 292.98,235.16 292.98,253.04 311.87,253.04 311.87,346.54 270.78,346.54 270.78,318.07 268.02,318.07 
	268.02,349.31 318.77,349.31 318.77,369.96 247.37,369.96 247.37,296.92 271.08,296.89 271.08,294.09 243.8,294.09 243.8,267.32 
	238.03,267.32 238.03,379.3 331.59,379.3 331.59,229.39 "/>
<polygon fill="none" stroke="#FAFAFF" stroke-width="0.5769" stroke-linecap="round" stroke-linejoin="round" stroke-miterlimit="10" points="
	529.19,27.91 529.19,33.84 546.56,33.8 546.56,52.05 565.84,52.05 565.84,147.48 523.91,147.48 523.91,118.42 521.09,118.42 
	521.09,150.3 572.88,150.3 572.88,171.37 500.02,171.37 500.02,96.83 524.21,96.8 524.21,93.95 496.37,93.95 496.37,66.62 
	490.48,66.62 490.48,180.9 585.97,180.9 585.97,27.91 "/>
<polygon fill="none" stroke="#FAFAFF" stroke-width="0.3953" stroke-linecap="round" stroke-linejoin="round" stroke-miterlimit="10" points="
	337.45,770.21 337.45,761.89 332.29,761.89 332.29,754.09 329.69,754.09 329.69,697.12 327.09,697.12 327.09,741.08 315.52,741.08 
	315.52,761.89 308.33,761.89 308.33,770.21 "/>
<polygon fill="none" stroke="#FAFAFF" stroke-width="0.3953" stroke-linecap="round" stroke-linejoin="round" stroke-miterlimit="10" points="
	275.04,770.21 275.04,761.89 266.09,761.89 266.09,676.19 304.73,676.19 304.73,657.71 327.09,657.71 327.09,677.36 329.69,677.36 
	329.69,654.86 304.73,654.86 304.73,653.82 302.77,653.82 302.77,654.86 296.4,654.86 296.4,673.59 277.68,673.59 277.68,651.2 
	266.09,651.2 266.09,617.02 302.77,617.02 302.77,634.06 304.73,634.06 304.73,625.65 332.81,625.65 332.81,623.26 333.85,623.26 
	333.85,620.39 332.81,620.39 332.81,614.15 264.01,614.15 264.01,631.31 263.24,631.31 263.24,761.89 262.55,761.89 262.55,770.21 
	"/>
<polygon fill="none" stroke="#FAFAFF" stroke-width="0.3953" stroke-linecap="round" stroke-linejoin="round" stroke-miterlimit="10" points="
	370.74,770.21 399.87,770.21 399.87,761.89 398.35,761.89 398.35,744.2 388.47,744.2 388.47,697.12 385.87,697.12 385.87,744.2 
	375.47,744.2 375.51,761.89 370.74,761.89 "/>
<polygon fill="none" stroke="#FAFAFF" stroke-width="0.3953" stroke-linecap="round" stroke-linejoin="round" stroke-miterlimit="10" points="
	433.16,770.21 462.29,770.21 462.29,761.89 455.57,761.89 455.57,754.09 449.18,754.09 449.18,656.8 431.64,656.8 431.64,645.36 
	449.18,645.36 449.18,625.59 465.97,625.59 465.97,614.15 360.9,614.15 360.9,620.39 354.66,620.39 354.66,623.26 363.75,623.26 
	363.75,617.02 429.56,617.02 429.56,625.59 446.33,625.59 446.33,643.28 429.56,643.28 429.56,656.8 385.87,656.8 385.87,677.36 
	388.47,677.36 388.47,675.8 400.74,675.8 400.74,659.67 446.33,659.67 446.33,754.09 441,754.11 441,761.89 433.16,761.89 "/>
<polyline fill="none" stroke="#FAFAFF" stroke-width="0.2913" stroke-linecap="round" stroke-linejoin="round" stroke-miterlimit="10" points="
	275.04,768.65 276.08,768.65 276.08,767.49 275.04,767.49 "/>
<polygon fill="none" stroke="#FAFAFF" stroke-width="0.104" stroke-linecap="round" stroke-linejoin="round" stroke-miterlimit="10" points="
	276.22,760.45 276.35,760.37 276.45,760.45 276.35,760.52 "/>
<polygon fill="none" stroke="#FAFAFF" stroke-width="0.104" stroke-linecap="round" stroke-linejoin="round" stroke-miterlimit="10" points="
	277.7,760.45 277.83,760.37 277.95,760.45 277.83,760.52 "/>
<rect x="267.76" y="735.4" stroke="#FAFAFF" stroke-miterlimit="10" width="0.02" height="0.15"/>
<rect x="267.76" y="735.99" stroke="#FAFAFF" stroke-miterlimit="10" width="0.02" height="0.29"/>
<rect x="267.76" y="736.73" stroke="#FAFAFF" stroke-miterlimit="10" width="0.02" height="0.29"/>
<rect x="267.76" y="737.46" stroke="#FAFAFF" stroke-miterlimit="10" width="0.02" height="0.29"/>
<rect x="267.76" y="738.19" stroke="#FAFAFF" stroke-miterlimit="10" width="0.02" height="0.29"/>
<rect x="267.76" y="738.92" stroke="#FAFAFF" stroke-miterlimit="10" width="0.02" height="0.29"/>
<rect x="267.76" y="739.67" stroke="#FAFAFF" stroke-miterlimit="10" width="0.02" height="0.29"/>
<rect x="267.76" y="740.4" stroke="#FAFAFF" stroke-miterlimit="10" width="0.02" height="0.29"/>
<rect x="267.76" y="741.12" stroke="#FAFAFF" stroke-miterlimit="10" width="0.02" height="0.29"/>
<rect x="267.76" y="741.87" stroke="#FAFAFF" stroke-miterlimit="10" width="0.02" height="0.29"/>
<rect x="267.76" y="742.6" stroke="#FAFAFF" stroke-miterlimit="10" width="0.02" height="0.29"/>
<rect x="267.76" y="743.33" stroke="#FAFAFF" stroke-miterlimit="10" width="0.02" height="0.29"/>
<rect x="267.76" y="744.08" stroke="#FAFAFF" stroke-miterlimit="10" width="0.02" height="0.29"/>
<rect x="267.76" y="744.81" stroke="#FAFAFF" stroke-miterlimit="10" width="0.02" height="0.29"/>
<rect x="267.76" y="745.54" stroke="#FAFAFF" stroke-miterlimit="10" width="0.02" height="0.29"/>
<rect x="267.76" y="746.26" stroke="#FAFAFF" stroke-miterlimit="10" width="0.02" height="0.29"/>
<rect x="267.76" y="747.01" stroke="#FAFAFF" stroke-miterlimit="10" width="0.02" height="0.29"/>
<rect x="267.76" y="747.74" stroke="#FAFAFF" stroke-miterlimit="10" width="0.02" height="0.29"/>
<rect x="267.76" y="748.47" stroke="#FAFAFF" stroke-miterlimit="10" width="0.02" height="0.29"/>
<rect x="267.76" y="749.22" stroke="#FAFAFF" stroke-miterlimit="10" width="0.02" height="0.29"/>
<rect x="267.76" y="749.95" stroke="#FAFAFF" stroke-miterlimit="10" width="0.02" height="0.29"/>
<rect x="267.76" y="750.67" stroke="#FAFAFF" stroke-miterlimit="10" width="0.02" height="0.29"/>
<rect x="267.76" y="751.4" stroke="#FAFAFF" stroke-miterlimit="10" width="0.02" height="0.29"/>
<rect x="267.76" y="752.15" stroke="#FAFAFF" stroke-miterlimit="10" width="0.02" height="0.29"/>
<rect x="267.76" y="752.88" stroke="#FAFAFF" stroke-miterlimit="10" width="0.02" height="0.29"/>
<rect x="267.76" y="753.61" stroke="#FAFAFF" stroke-miterlimit="10" width="0.02" height="0.29"/>
<rect x="267.76" y="754.36" stroke="#FAFAFF" stroke-miterlimit="10" width="0.02" height="0.29"/>
<rect x="267.76" y="755.09" stroke="#FAFAFF" stroke-miterlimit="10" width="0.02" height="0.29"/>
<rect x="267.76" y="755.81" stroke="#FAFAFF" stroke-miterlimit="10" width="0.02" height="0.29"/>
<rect x="267.76" y="756.56" stroke="#FAFAFF" stroke-miterlimit="10" width="0.02" height="0.29"/>
<rect x="267.76" y="757.29" stroke="#FAFAFF" stroke-miterlimit="10" width="0.02" height="0.29"/>
<rect x="267.76" y="758.02" stroke="#FAFAFF" stroke-miterlimit="10" width="0.02" height="0.29"/>
<rect x="267.76" y="758.75" stroke="#FAFAFF" stroke-miterlimit="10" width="0.02" height="0.29"/>
<rect x="267.76" y="759.5" stroke="#FAFAFF" stroke-miterlimit="10" width="0.02" height="0.29"/>
<rect x="267.76" y="760.22" stroke="#FAFAFF" stroke-miterlimit="10" width="0.02" height="0.15"/>
<polyline fill-rule="evenodd" clip-rule="evenodd" stroke="#FAFAFF" stroke-miterlimit="10" points="267.78,760.37 267.76,760.37 
	267.78,760.37 267.78,760.39 "/>
<rect x="267.78" y="760.37" stroke="#FAFAFF" stroke-miterlimit="10" width="0.15" height="0.02"/>
<rect x="268.4" y="760.37" stroke="#FAFAFF" stroke-miterlimit="10" width="0.31" height="0.02"/>
<rect x="269.19" y="760.37" stroke="#FAFAFF" stroke-miterlimit="10" width="0.29" height="0.02"/>
<rect x="269.96" y="760.37" stroke="#FAFAFF" stroke-miterlimit="10" width="0.31" height="0.02"/>
<rect x="270.75" y="760.37" stroke="#FAFAFF" stroke-miterlimit="10" width="0.29" height="0.02"/>
<rect x="271.52" y="760.37" stroke="#FAFAFF" stroke-miterlimit="10" width="0.31" height="0.02"/>
<rect x="272.31" y="760.37" stroke="#FAFAFF" stroke-miterlimit="10" width="0.29" height="0.02"/>
<rect x="273.08" y="760.37" stroke="#FAFAFF" stroke-miterlimit="10" width="0.31" height="0.02"/>
<rect x="273.87" y="760.37" stroke="#FAFAFF" stroke-miterlimit="10" width="0.15" height="0.02"/>
<polyline fill-rule="evenodd" clip-rule="evenodd" stroke="#FAFAFF" stroke-miterlimit="10" points="274.02,760.37 274.02,760.39 
	274.02,760.37 "/>
<rect x="274" y="760.22" fill-rule="evenodd" clip-rule="evenodd" stroke="#FAFAFF" stroke-miterlimit="10" width="0.02" height="0.15"/>
<rect x="267.78" y="735.4" fill-rule="evenodd" clip-rule="evenodd" stroke="#FAFAFF" stroke-miterlimit="10" width="0.15" height="0.02"/>
<line fill-rule="evenodd" clip-rule="evenodd" stroke="#FAFAFF" stroke-miterlimit="10" x1="267.78" y1="735.4" x2="267.76" y2="735.4"/>
<polygon fill="none" stroke="#FAFAFF" stroke-width="0.5046" stroke-linecap="round" stroke-linejoin="round" stroke-miterlimit="10" points="
	378.96,415.51 378.96,423.48 363.5,423.48 363.5,516.86 418.3,516.86 418.27,509.4 421.03,509.4 421.03,516.86 430.36,516.86 
	430.36,519.6 379.44,519.6 379.44,532.05 363.5,532.05 363.5,560.18 376.44,560.18 376.44,562.17 444.41,562.17 444.41,556.2 
	453.15,556.2 453.15,558.93 447.17,558.96 447.17,564.94 354.66,564.94 354.66,415.51 "/>
<polygon fill="none" stroke="#FAFAFF" stroke-width="0.5046" stroke-linecap="round" stroke-linejoin="round" stroke-miterlimit="10" points="
	410.83,423.48 410.83,415.51 438.64,415.51 438.72,423.48 433.23,423.48 433.23,450.38 421.03,450.38 421.03,489.48 418.27,489.48 
	418.27,423.48 "/>
<polygon fill="none" stroke="#FAFAFF" stroke-width="0.5046" stroke-linecap="round" stroke-linejoin="round" stroke-miterlimit="10" points="
	530.36,423.48 530.36,415.51 558.24,415.51 558.24,423.48 544.3,423.48 544.27,455.61 534.58,455.61 534.58,495.96 535.08,495.96 
	535.08,498.69 534.58,498.69 534.58,519.6 473.07,519.6 473.07,509.4 475.8,509.4 475.8,516.86 531.84,516.86 531.84,423.48 "/>
<polygon fill="none" stroke="#FAFAFF" stroke-width="0.5046" stroke-linecap="round" stroke-linejoin="round" stroke-miterlimit="10" points="
	590.12,423.48 590.12,415.51 622.01,415.51 621.99,423.48 618,423.48 618,428.95 617.5,428.95 617.5,477.29 630.43,477.29 
	630.43,497.21 617.5,497.21 617.5,564.94 474.05,564.94 474.05,558.96 473.07,558.93 473.07,556.2 488.5,556.2 488.5,553.97 
	544.46,553.97 544.46,540.26 560.47,540.26 560.47,539.28 563.21,539.28 563.21,553.97 608.04,553.97 608.04,516.62 595.35,516.62 
	595.35,498.69 563.95,498.69 563.95,516.62 563.21,516.62 563.21,519.36 560.47,519.36 560.47,498.69 555,498.69 555,495.96 
	609.03,495.96 609.03,428.95 608.04,428.95 608.04,423.48 "/>
<polygon fill="none" stroke="#FAFAFF" stroke-width="0.5046" stroke-linecap="round" stroke-linejoin="round" stroke-miterlimit="10" points="
	470.6,423.48 473.07,423.48 473.07,489.48 475.8,489.48 475.8,428.95 498.46,428.95 498.48,415.51 470.6,415.51 "/>
<rect x="364.94" y="463.42" stroke="#FAFAFF" stroke-miterlimit="10" width="0.03" height="0.37"/>
<rect x="364.94" y="464.38" stroke="#FAFAFF" stroke-miterlimit="10" width="0.03" height="0.37"/>
<rect x="364.94" y="465.34" stroke="#FAFAFF" stroke-miterlimit="10" width="0.03" height="0.37"/>
<polygon fill="none" stroke="#FAFAFF" stroke-width="0.3953" stroke-linecap="round" stroke-linejoin="round" stroke-miterlimit="10" points="
	120.93,763.97 120.93,761.1 111.84,761.1 111.84,767.34 33.05,767.34 33.03,758.77 29.38,758.77 29.38,741.08 46.03,741.08 
	46.03,727.54 65.3,727.54 65.3,724.94 29.26,724.94 29.26,629.23 34.98,629.23 34.98,622.47 38.23,622.47 38.23,614.15 
	23.73,614.15 23.73,770.19 114.69,770.21 114.69,763.97 "/>
<polygon fill="none" stroke="#FAFAFF" stroke-width="0.3953" stroke-linecap="round" stroke-linejoin="round" stroke-miterlimit="10" points="
	85.06,727.54 125.11,727.56 125.11,724.94 89.74,724.94 89.74,622.47 100.62,622.47 100.62,614.15 71.52,614.15 71.52,622.47 
	76.76,622.47 76.76,656.03 87.14,656.03 87.14,724.94 85.06,724.94 "/>
<polygon fill="none" stroke="#FAFAFF" stroke-width="0.3953" stroke-linecap="round" stroke-linejoin="round" stroke-miterlimit="10" points="
	144.88,727.54 149.54,727.54 149.54,724.94 148.52,724.94 148.52,630.27 156.3,630.27 156.3,622.47 163.04,622.47 163.04,614.15 
	133.91,614.15 133.91,622.47 141.67,622.47 141.67,629.23 145.92,629.23 145.92,724.94 144.88,724.94 "/>
<polygon fill="none" stroke="#FAFAFF" stroke-width="0.3953" stroke-linecap="round" stroke-linejoin="round" stroke-miterlimit="10" points="
	169.3,727.54 169.3,724.94 170.86,724.94 170.86,696.73 209.5,696.73 209.5,640.16 199.49,640.16 199.49,622.47 196.33,622.47 
	196.33,614.15 225.46,614.15 225.46,622.47 222.38,622.47 222.38,640.16 212.35,640.16 212.35,696.73 223.94,696.73 223.92,721.19 
	212.35,721.19 212.35,770.21 142.78,770.21 142.78,763.97 141.73,763.97 141.73,761.1 142.78,761.1 142.78,750.45 170.86,750.45 
	170.86,749.41 172.82,749.41 172.82,756.52 209.5,756.52 209.5,721.19 197.91,721.19 197.91,699.33 179.18,699.33 179.18,718.05 
	172.82,718.05 172.82,729.64 170.86,729.64 170.86,727.54 "/>
<polygon fill="none" stroke="#FAFAFF" stroke-width="0.5128" stroke-linecap="round" stroke-linejoin="round" stroke-miterlimit="10" points="
	27.87,567.55 40.01,567.55 40.01,559.46 31.32,559.46 31.32,471.4 64.3,471.4 64.3,484.54 91.91,484.54 91.91,493.15 94.44,493.15 
	94.47,488.08 106.32,488.08 106.32,482 66.81,482 66.81,468.86 49.78,468.86 49.78,451.16 66.81,451.16 66.81,446.35 73.61,446.35 
	72.75,444.84 65.3,444.84 65.3,449.65 31.32,449.65 31.32,426.87 114.93,426.87 114.93,424.6 121,424.6 121,421.82 114.93,421.82 
	114.93,415.75 15.37,415.75 15.37,432.43 28.51,432.43 28.51,559.46 27.87,559.46 "/>
<polygon fill="none" stroke="#FAFAFF" stroke-width="0.5128" stroke-linecap="round" stroke-linejoin="round" stroke-miterlimit="10" points="
	72.4,567.55 100.73,567.55 100.73,559.46 95.71,559.46 95.71,551.87 94.47,551.87 94.44,512.36 91.91,512.36 91.88,539.22 
	79.39,539.22 79.39,559.46 72.4,559.46 "/>
<polygon fill="none" stroke="#FAFAFF" stroke-width="0.5128" stroke-linecap="round" stroke-linejoin="round" stroke-miterlimit="10" points="
	133.12,567.55 161.45,567.55 161.45,559.46 159.97,559.46 159.97,542.27 151.66,542.27 151.66,512.45 149.12,512.45 149.12,542.27 
	137.73,542.27 137.7,559.46 133.12,559.46 "/>
<polygon fill="none" stroke="#FAFAFF" stroke-width="0.5128" stroke-linecap="round" stroke-linejoin="round" stroke-miterlimit="10" points="
	193.84,567.55 222.17,567.55 222.17,559.46 213.11,559.46 213.08,553.9 209.3,553.9 209.3,451.81 205.77,451.81 205.77,426.36 
	205.77,426.87 213.11,426.87 213.11,415.75 142.27,415.75 142.27,421.82 141.24,421.82 141.24,424.6 164.64,424.6 164.64,426.63 
	166.53,426.63 166.53,418.53 202.99,418.53 202.99,451.81 191.33,451.81 191.33,455.39 191.33,455.34 166.53,455.34 166.53,445.84 
	164.64,445.84 164.64,455.34 149.12,455.34 149.12,493.2 151.66,493.2 151.66,476.09 206.52,476.09 206.52,553.9 202.99,553.9 
	202.99,559.46 193.84,559.46 "/>
<polyline fill="none" stroke="#FAFAFF" stroke-width="0.3778" stroke-linecap="round" stroke-linejoin="round" stroke-miterlimit="10" points="
	100.73,566.07 101.76,566.07 101.73,564.94 100.73,564.94 "/>
<path fill="none" stroke="#FAFAFF" stroke-width="0.1619" stroke-linecap="round" stroke-linejoin="round" stroke-miterlimit="10" d="
	M94.44,512.36"/>
<polygon fill="none" stroke="#FAFAFF" stroke-width="0.5653" stroke-linecap="round" stroke-linejoin="round" stroke-miterlimit="10" points="
	275.95,565.66 275.95,559.86 292.97,559.89 292.97,542.01 311.86,542.01 311.86,448.51 270.77,448.51 270.77,476.98 268,476.98 
	268,445.74 318.76,445.74 318.76,425.09 247.36,425.09 247.36,498.13 271.07,498.16 271.07,500.96 243.79,500.96 243.79,527.73 
	238.02,527.73 238.02,415.75 331.58,415.75 331.58,565.66 "/>
<polygon fill="none" stroke="#FAFAFF" stroke-width="0.5769" stroke-linecap="round" stroke-linejoin="round" stroke-miterlimit="10" points="
	529.18,767.14 529.18,761.22 546.55,761.25 546.55,743 565.83,743 565.83,647.58 523.9,647.58 523.9,676.63 521.07,676.63 
	521.07,644.75 572.87,644.75 572.87,623.68 500,623.68 500,698.22 524.2,698.25 524.2,701.1 496.36,701.1 496.36,728.43 
	490.47,728.43 490.47,614.15 585.96,614.15 585.96,767.14 "/>
<polygon fill="none" stroke="#FAFAFF" stroke-width="0.3953" stroke-linecap="round" stroke-linejoin="round" stroke-miterlimit="10" points="
	934.17,415.51 934.17,423.83 939.33,423.83 939.33,431.63 941.93,431.63 941.93,488.6 944.53,488.6 944.53,444.64 956.1,444.64 
	956.1,423.83 963.3,423.83 963.3,415.51 "/>
<polygon fill="none" stroke="#FAFAFF" stroke-width="0.3953" stroke-linecap="round" stroke-linejoin="round" stroke-miterlimit="10" points="
	996.59,415.51 996.59,423.83 1005.53,423.83 1005.53,509.53 966.9,509.53 966.9,528 944.53,528 944.53,508.36 941.93,508.36 
	941.93,530.85 966.9,530.85 966.9,531.89 968.85,531.89 968.85,530.85 975.22,530.85 975.22,512.13 993.95,512.13 993.95,534.52 
	1005.53,534.52 1005.53,568.7 968.85,568.7 968.85,551.66 966.9,551.66 966.9,560.07 938.81,560.07 938.81,562.46 937.77,562.46 
	937.77,565.33 938.81,565.33 938.81,571.57 1007.61,571.57 1007.61,554.41 1008.38,554.41 1008.38,423.83 1009.07,423.83 
	1009.07,415.51 "/>
<polygon fill="none" stroke="#FAFAFF" stroke-width="0.3953" stroke-linecap="round" stroke-linejoin="round" stroke-miterlimit="10" points="
	900.88,415.51 871.75,415.51 871.75,423.83 873.27,423.83 873.27,441.52 883.16,441.52 883.16,488.6 885.76,488.6 885.76,441.52 
	896.16,441.52 896.12,423.83 900.88,423.83 "/>
<polygon fill="none" stroke="#FAFAFF" stroke-width="0.3953" stroke-linecap="round" stroke-linejoin="round" stroke-miterlimit="10" points="
	838.47,415.51 809.34,415.51 809.34,423.83 816.06,423.83 816.06,431.63 822.45,431.63 822.45,528.92 839.98,528.92 839.98,540.36 
	822.45,540.36 822.45,560.13 805.66,560.13 805.66,571.57 910.72,571.57 910.72,565.33 916.97,565.33 916.97,562.46 907.87,562.46 
	907.87,568.7 842.06,568.7 842.06,560.13 825.3,560.13 825.3,542.44 842.06,542.44 842.06,528.92 885.76,528.92 885.76,508.36 
	883.16,508.36 883.16,509.92 870.88,509.92 870.88,526.05 825.3,526.05 825.3,431.63 830.62,431.61 830.62,423.83 838.47,423.83 "/>
<polyline fill="none" stroke="#FAFAFF" stroke-width="0.2913" stroke-linecap="round" stroke-linejoin="round" stroke-miterlimit="10" points="
	996.59,417.07 995.55,417.07 995.55,418.23 996.59,418.23 "/>
<polygon fill="none" stroke="#FAFAFF" stroke-width="0.104" stroke-linecap="round" stroke-linejoin="round" stroke-miterlimit="10" points="
	995.4,425.27 995.28,425.35 995.17,425.27 995.28,425.2 "/>
<polygon fill="none" stroke="#FAFAFF" stroke-width="0.104" stroke-linecap="round" stroke-linejoin="round" stroke-miterlimit="10" points="
	993.92,425.27 993.8,425.35 993.68,425.27 993.8,425.2 "/>
<rect x="1003.85" y="450.17" stroke="#FAFAFF" stroke-miterlimit="10" width="0.02" height="0.15"/>
<rect x="1003.85" y="449.44" stroke="#FAFAFF" stroke-miterlimit="10" width="0.02" height="0.29"/>
<rect x="1003.85" y="448.69" stroke="#FAFAFF" stroke-miterlimit="10" width="0.02" height="0.29"/>
<rect x="1003.85" y="447.96" stroke="#FAFAFF" stroke-miterlimit="10" width="0.02" height="0.29"/>
<rect x="1003.85" y="447.24" stroke="#FAFAFF" stroke-miterlimit="10" width="0.02" height="0.29"/>
<rect x="1003.85" y="446.51" stroke="#FAFAFF" stroke-miterlimit="10" width="0.02" height="0.29"/>
<rect x="1003.85" y="445.76" stroke="#FAFAFF" stroke-miterlimit="10" width="0.02" height="0.29"/>
<rect x="1003.85" y="445.03" stroke="#FAFAFF" stroke-miterlimit="10" width="0.02" height="0.29"/>
<rect x="1003.85" y="444.3" stroke="#FAFAFF" stroke-miterlimit="10" width="0.02" height="0.29"/>
<rect x="1003.85" y="443.55" stroke="#FAFAFF" stroke-miterlimit="10" width="0.02" height="0.29"/>
<rect x="1003.85" y="442.83" stroke="#FAFAFF" stroke-miterlimit="10" width="0.02" height="0.29"/>
<rect x="1003.85" y="442.1" stroke="#FAFAFF" stroke-miterlimit="10" width="0.02" height="0.29"/>
<rect x="1003.85" y="441.35" stroke="#FAFAFF" stroke-miterlimit="10" width="0.02" height="0.29"/>
<rect x="1003.85" y="440.62" stroke="#FAFAFF" stroke-miterlimit="10" width="0.02" height="0.29"/>
<rect x="1003.85" y="439.89" stroke="#FAFAFF" stroke-miterlimit="10" width="0.02" height="0.29"/>
<rect x="1003.85" y="439.16" stroke="#FAFAFF" stroke-miterlimit="10" width="0.02" height="0.29"/>
<rect x="1003.85" y="438.42" stroke="#FAFAFF" stroke-miterlimit="10" width="0.02" height="0.29"/>
<rect x="1003.85" y="437.69" stroke="#FAFAFF" stroke-miterlimit="10" width="0.02" height="0.29"/>
<rect x="1003.85" y="436.96" stroke="#FAFAFF" stroke-miterlimit="10" width="0.02" height="0.29"/>
<rect x="1003.85" y="436.21" stroke="#FAFAFF" stroke-miterlimit="10" width="0.02" height="0.29"/>
<rect x="1003.85" y="435.48" stroke="#FAFAFF" stroke-miterlimit="10" width="0.02" height="0.29"/>
<rect x="1003.85" y="434.75" stroke="#FAFAFF" stroke-miterlimit="10" width="0.02" height="0.29"/>
<rect x="1003.85" y="434.03" stroke="#FAFAFF" stroke-miterlimit="10" width="0.02" height="0.29"/>
<rect x="1003.85" y="433.28" stroke="#FAFAFF" stroke-miterlimit="10" width="0.02" height="0.29"/>
<rect x="1003.85" y="432.55" stroke="#FAFAFF" stroke-miterlimit="10" width="0.02" height="0.29"/>
<rect x="1003.85" y="431.82" stroke="#FAFAFF" stroke-miterlimit="10" width="0.02" height="0.29"/>
<rect x="1003.85" y="431.07" stroke="#FAFAFF" stroke-miterlimit="10" width="0.02" height="0.29"/>
<rect x="1003.85" y="430.34" stroke="#FAFAFF" stroke-miterlimit="10" width="0.02" height="0.29"/>
<rect x="1003.85" y="429.61" stroke="#FAFAFF" stroke-miterlimit="10" width="0.02" height="0.29"/>
<rect x="1003.85" y="428.87" stroke="#FAFAFF" stroke-miterlimit="10" width="0.02" height="0.29"/>
<rect x="1003.85" y="428.14" stroke="#FAFAFF" stroke-miterlimit="10" width="0.02" height="0.29"/>
<rect x="1003.85" y="427.41" stroke="#FAFAFF" stroke-miterlimit="10" width="0.02" height="0.29"/>
<rect x="1003.85" y="426.68" stroke="#FAFAFF" stroke-miterlimit="10" width="0.02" height="0.29"/>
<rect x="1003.85" y="425.93" stroke="#FAFAFF" stroke-miterlimit="10" width="0.02" height="0.29"/>
<rect x="1003.85" y="425.35" stroke="#FAFAFF" stroke-miterlimit="10" width="0.02" height="0.15"/>
<polyline fill-rule="evenodd" clip-rule="evenodd" stroke="#FAFAFF" stroke-miterlimit="10" points="1003.85,425.35 1003.87,425.35 
	1003.85,425.35 1003.85,425.33 "/>
<rect x="1003.7" y="425.33" stroke="#FAFAFF" stroke-miterlimit="10" width="0.15" height="0.02"/>
<rect x="1002.91" y="425.33" stroke="#FAFAFF" stroke-miterlimit="10" width="0.31" height="0.02"/>
<rect x="1002.14" y="425.33" stroke="#FAFAFF" stroke-miterlimit="10" width="0.29" height="0.02"/>
<rect x="1001.35" y="425.33" stroke="#FAFAFF" stroke-miterlimit="10" width="0.31" height="0.02"/>
<rect x="1000.58" y="425.33" stroke="#FAFAFF" stroke-miterlimit="10" width="0.29" height="0.02"/>
<rect x="999.79" y="425.33" stroke="#FAFAFF" stroke-miterlimit="10" width="0.31" height="0.02"/>
<rect x="999.02" y="425.33" stroke="#FAFAFF" stroke-miterlimit="10" width="0.29" height="0.02"/>
<rect x="998.23" y="425.33" stroke="#FAFAFF" stroke-miterlimit="10" width="0.31" height="0.02"/>
<rect x="997.61" y="425.33" stroke="#FAFAFF" stroke-miterlimit="10" width="0.15" height="0.02"/>
<polyline fill-rule="evenodd" clip-rule="evenodd" stroke="#FAFAFF" stroke-miterlimit="10" points="997.61,425.35 997.61,425.33 
	997.61,425.35 "/>
<rect x="997.61" y="425.35" fill-rule="evenodd" clip-rule="evenodd" stroke="#FAFAFF" stroke-miterlimit="10" width="0.02" height="0.15"/>
<rect x="1003.7" y="450.3" fill-rule="evenodd" clip-rule="evenodd" stroke="#FAFAFF" stroke-miterlimit="10" width="0.15" height="0.02"/>
<line fill-rule="evenodd" clip-rule="evenodd" stroke="#FAFAFF" stroke-miterlimit="10" x1="1003.85" y1="450.32" x2="1003.87" y2="450.32"/>
<polygon fill="none" stroke="#FAFAFF" stroke-width="0.5046" stroke-linecap="round" stroke-linejoin="round" stroke-miterlimit="10" points="
	892.66,770.21 892.66,762.24 908.12,762.24 908.12,668.86 853.33,668.86 853.35,676.32 850.59,676.32 850.59,668.86 841.27,668.86 
	841.27,666.12 892.18,666.12 892.18,653.66 908.12,653.66 908.12,625.54 895.19,625.54 895.19,623.55 827.22,623.55 827.22,629.52 
	818.48,629.52 818.48,626.79 824.46,626.76 824.46,620.78 916.97,620.78 916.97,770.21 "/>
<polygon fill="none" stroke="#FAFAFF" stroke-width="0.5046" stroke-linecap="round" stroke-linejoin="round" stroke-miterlimit="10" points="
	860.79,762.24 860.79,770.21 832.98,770.21 832.9,762.24 838.4,762.24 838.4,735.34 850.59,735.34 850.59,696.24 853.35,696.24 
	853.35,762.24 "/>
<polygon fill="none" stroke="#FAFAFF" stroke-width="0.5046" stroke-linecap="round" stroke-linejoin="round" stroke-miterlimit="10" points="
	741.27,762.24 741.27,770.21 713.38,770.21 713.38,762.24 727.33,762.24 727.35,730.11 737.05,730.11 737.05,689.76 736.54,689.76 
	736.54,687.02 737.05,687.02 737.05,666.12 798.56,666.12 798.56,676.32 795.82,676.32 795.82,668.86 739.78,668.86 739.78,762.24 
	"/>
<polygon fill="none" stroke="#FAFAFF" stroke-width="0.5046" stroke-linecap="round" stroke-linejoin="round" stroke-miterlimit="10" points="
	681.51,762.24 681.51,770.21 649.61,770.21 649.64,762.24 653.62,762.24 653.62,756.77 654.13,756.77 654.13,708.43 641.19,708.43 
	641.19,688.51 654.13,688.51 654.13,620.78 797.58,620.78 797.58,626.76 798.56,626.79 798.56,629.52 783.13,629.52 783.13,631.75 
	727.17,631.75 727.17,645.46 711.15,645.46 711.15,646.44 708.41,646.44 708.41,631.75 663.58,631.75 663.58,669.1 676.28,669.1 
	676.28,687.02 707.67,687.02 707.67,669.1 708.41,669.1 708.41,666.36 711.15,666.36 711.15,687.02 716.62,687.02 716.62,689.76 
	662.6,689.76 662.6,756.77 663.58,756.77 663.58,762.24 "/>
<polygon fill="none" stroke="#FAFAFF" stroke-width="0.5046" stroke-linecap="round" stroke-linejoin="round" stroke-miterlimit="10" points="
	801.03,762.24 798.56,762.24 798.56,696.24 795.82,696.24 795.82,756.77 773.17,756.77 773.14,770.21 801.03,770.21 "/>
<rect x="906.66" y="721.92" stroke="#FAFAFF" stroke-miterlimit="10" width="0.03" height="0.37"/>
<rect x="906.66" y="720.97" stroke="#FAFAFF" stroke-miterlimit="10" width="0.03" height="0.37"/>
<rect x="906.66" y="720.01" stroke="#FAFAFF" stroke-miterlimit="10" width="0.03" height="0.37"/>
<polygon fill="none" stroke="#FAFAFF" stroke-width="0.3953" stroke-linecap="round" stroke-linejoin="round" stroke-miterlimit="10" points="
	1150.7,421.75 1150.7,424.62 1159.79,424.62 1159.79,418.38 1238.58,418.38 1238.6,426.95 1242.24,426.95 1242.24,444.64 
	1225.6,444.64 1225.6,458.18 1206.33,458.18 1206.33,460.78 1242.37,460.78 1242.37,556.49 1236.64,556.49 1236.64,563.25 
	1233.4,563.25 1233.4,571.57 1247.9,571.57 1247.9,415.53 1156.94,415.51 1156.94,421.75 "/>
<polygon fill="none" stroke="#FAFAFF" stroke-width="0.3953" stroke-linecap="round" stroke-linejoin="round" stroke-miterlimit="10" points="
	1186.56,458.18 1146.51,458.16 1146.51,460.78 1181.88,460.78 1181.88,563.25 1171,563.25 1171,571.57 1200.11,571.57 
	1200.11,563.25 1194.87,563.25 1194.87,529.69 1184.48,529.69 1184.48,460.78 1186.56,460.78 "/>
<polygon fill="none" stroke="#FAFAFF" stroke-width="0.3953" stroke-linecap="round" stroke-linejoin="round" stroke-miterlimit="10" points="
	1126.75,458.18 1122.09,458.18 1122.09,460.78 1123.11,460.78 1123.11,555.45 1115.33,555.45 1115.33,563.25 1108.59,563.25 
	1108.59,571.57 1137.71,571.57 1137.71,563.25 1129.95,563.25 1129.95,556.49 1125.71,556.49 1125.71,460.78 1126.75,460.78 "/>
<polygon fill="none" stroke="#FAFAFF" stroke-width="0.3953" stroke-linecap="round" stroke-linejoin="round" stroke-miterlimit="10" points="
	1102.32,458.18 1102.32,460.78 1100.76,460.78 1100.76,488.99 1062.13,488.99 1062.13,545.56 1072.13,545.56 1072.13,563.25 
	1075.3,563.25 1075.3,571.57 1046.17,571.57 1046.17,563.25 1049.25,563.25 1049.25,545.56 1059.28,545.56 1059.28,488.99 
	1047.69,488.99 1047.71,464.53 1059.28,464.53 1059.28,415.51 1128.85,415.51 1128.85,421.75 1129.89,421.75 1129.89,424.62 
	1128.85,424.62 1128.85,435.27 1100.76,435.27 1100.76,436.31 1098.81,436.31 1098.81,429.2 1062.13,429.2 1062.13,464.53 
	1073.72,464.53 1073.72,486.39 1092.44,486.39 1092.44,467.67 1098.81,467.67 1098.81,456.08 1100.76,456.08 1100.76,458.18 "/>
<polygon fill="none" stroke="#FAFAFF" stroke-width="0.5128" stroke-linecap="round" stroke-linejoin="round" stroke-miterlimit="10" points="
	1243.76,618.17 1231.61,618.17 1231.61,626.26 1240.3,626.26 1240.3,714.32 1207.33,714.32 1207.33,701.18 1179.72,701.18 
	1179.72,692.57 1177.18,692.57 1177.15,697.64 1165.31,697.64 1165.31,703.71 1204.82,703.71 1204.82,716.86 1221.84,716.86 
	1221.84,734.56 1204.82,734.56 1204.82,739.36 1198.02,739.36 1198.88,740.88 1206.33,740.88 1206.33,736.07 1240.3,736.07 
	1240.3,758.85 1156.7,758.85 1156.7,761.12 1150.63,761.12 1150.63,763.9 1156.7,763.9 1156.7,769.97 1256.25,769.97 
	1256.25,753.29 1243.11,753.29 1243.11,626.26 1243.76,626.26 "/>
<polygon fill="none" stroke="#FAFAFF" stroke-width="0.5128" stroke-linecap="round" stroke-linejoin="round" stroke-miterlimit="10" points="
	1199.23,618.17 1170.89,618.17 1170.89,626.26 1175.91,626.26 1175.91,633.85 1177.15,633.85 1177.18,673.35 1179.72,673.35 
	1179.74,646.5 1192.24,646.5 1192.24,626.26 1199.23,626.26 "/>
<polygon fill="none" stroke="#FAFAFF" stroke-width="0.5128" stroke-linecap="round" stroke-linejoin="round" stroke-miterlimit="10" points="
	1138.51,618.17 1110.17,618.17 1110.17,626.26 1111.66,626.26 1111.66,643.45 1119.97,643.45 1119.97,673.27 1122.51,673.27 
	1122.51,643.45 1133.89,643.45 1133.92,626.26 1138.51,626.26 "/>
<polygon fill="none" stroke="#FAFAFF" stroke-width="0.5128" stroke-linecap="round" stroke-linejoin="round" stroke-miterlimit="10" points="
	1077.79,618.17 1049.45,618.17 1049.45,626.26 1058.52,626.26 1058.55,631.82 1062.32,631.82 1062.32,733.91 1065.86,733.91 
	1065.86,759.36 1065.86,758.85 1058.52,758.85 1058.52,769.97 1129.36,769.97 1129.36,763.9 1130.39,763.9 1130.39,761.12 
	1106.99,761.12 1106.99,759.09 1105.1,759.09 1105.1,767.19 1068.64,767.19 1068.64,733.91 1080.3,733.91 1080.3,730.32 
	1080.3,730.38 1105.1,730.38 1105.1,739.88 1106.99,739.88 1106.99,730.38 1122.51,730.38 1122.51,692.52 1119.97,692.52 
	1119.97,709.63 1065.1,709.63 1065.1,631.82 1068.64,631.82 1068.64,626.26 1077.79,626.26 "/>
<polyline fill="none" stroke="#FAFAFF" stroke-width="0.3778" stroke-linecap="round" stroke-linejoin="round" stroke-miterlimit="10" points="
	1170.89,619.65 1169.87,619.65 1169.89,620.78 1170.89,620.78 "/>
<path fill="none" stroke="#FAFAFF" stroke-width="0.1619" stroke-linecap="round" stroke-linejoin="round" stroke-miterlimit="10" d="
	M1177.18,673.35"/>
<polygon fill="none" stroke="#FAFAFF" stroke-width="0.5653" stroke-linecap="round" stroke-linejoin="round" stroke-miterlimit="10" points="
	995.68,620.05 995.68,625.86 978.66,625.83 978.66,643.71 959.77,643.71 959.77,737.21 1000.85,737.21 1000.85,708.74 
	1003.62,708.74 1003.62,739.98 952.87,739.98 952.87,760.63 1024.27,760.63 1024.27,687.59 1000.56,687.56 1000.56,684.76 
	1027.84,684.76 1027.84,657.99 1033.61,657.99 1033.61,769.97 940.04,769.97 940.04,620.05 "/>
<polygon fill="none" stroke="#FAFAFF" stroke-width="0.5769" stroke-linecap="round" stroke-linejoin="round" stroke-miterlimit="10" points="
	742.44,418.58 742.44,424.5 725.08,424.47 725.08,442.72 705.8,442.72 705.8,538.14 747.73,538.14 747.73,509.09 750.55,509.09 
	750.55,540.97 698.76,540.97 698.76,562.04 771.62,562.04 771.62,487.5 747.42,487.47 747.42,484.62 775.26,484.62 775.26,457.29 
	781.15,457.29 781.15,571.57 685.67,571.57 685.67,418.58 "/>
<polygon fill="none" stroke="#FAFAFF" stroke-width="0.3953" stroke-linecap="round" stroke-linejoin="round" stroke-miterlimit="10" points="
	978.78,27.61 978.78,35.93 973.62,35.93 973.62,43.73 971.02,43.73 971.02,100.7 968.42,100.7 968.42,56.74 956.85,56.74 
	956.85,35.93 949.65,35.93 949.65,27.61 "/>
<polygon fill="none" stroke="#FAFAFF" stroke-width="0.3953" stroke-linecap="round" stroke-linejoin="round" stroke-miterlimit="10" points="
	916.36,27.61 916.36,35.93 907.41,35.93 907.41,121.63 946.05,121.63 946.05,140.1 968.42,140.1 968.42,120.46 971.02,120.46 
	971.02,142.95 946.05,142.95 946.05,143.99 944.09,143.99 944.09,142.95 937.73,142.95 937.73,124.23 919,124.23 919,146.62 
	907.41,146.62 907.41,180.8 944.09,180.8 944.09,163.76 946.05,163.76 946.05,172.17 974.14,172.17 974.14,174.56 975.18,174.56 
	975.18,177.43 974.14,177.43 974.14,183.67 905.33,183.67 905.33,166.51 904.56,166.51 904.56,35.93 903.88,35.93 903.88,27.61 "/>
<polygon fill="none" stroke="#FAFAFF" stroke-width="0.3953" stroke-linecap="round" stroke-linejoin="round" stroke-miterlimit="10" points="
	1012.07,27.61 1041.19,27.61 1041.19,35.93 1039.68,35.93 1039.68,53.61 1029.79,53.61 1029.79,100.7 1027.19,100.7 1027.19,53.61 
	1016.79,53.61 1016.83,35.93 1012.07,35.93 "/>
<polygon fill="none" stroke="#FAFAFF" stroke-width="0.3953" stroke-linecap="round" stroke-linejoin="round" stroke-miterlimit="10" points="
	1074.48,27.61 1103.61,27.61 1103.61,35.93 1096.89,35.93 1096.89,43.73 1090.5,43.73 1090.5,141.02 1072.96,141.02 1072.96,152.46 
	1090.5,152.46 1090.5,172.23 1107.29,172.23 1107.29,183.67 1002.23,183.67 1002.23,177.43 995.98,177.43 995.98,174.56 
	1005.08,174.56 1005.08,180.8 1070.88,180.8 1070.88,172.23 1087.65,172.23 1087.65,154.54 1070.88,154.54 1070.88,141.02 
	1027.19,141.02 1027.19,120.46 1029.79,120.46 1029.79,122.02 1042.07,122.02 1042.07,138.15 1087.65,138.15 1087.65,43.73 
	1082.33,43.71 1082.33,35.93 1074.48,35.93 "/>
<polyline fill="none" stroke="#FAFAFF" stroke-width="0.2913" stroke-linecap="round" stroke-linejoin="round" stroke-miterlimit="10" points="
	916.36,29.17 917.4,29.17 917.4,30.33 916.36,30.33 "/>
<polygon fill="none" stroke="#FAFAFF" stroke-width="0.104" stroke-linecap="round" stroke-linejoin="round" stroke-miterlimit="10" points="
	917.55,37.37 917.67,37.45 917.78,37.37 917.67,37.3 "/>
<polygon fill="none" stroke="#FAFAFF" stroke-width="0.104" stroke-linecap="round" stroke-linejoin="round" stroke-miterlimit="10" points="
	919.02,37.37 919.15,37.45 919.27,37.37 919.15,37.3 "/>
<rect x="909.08" y="62.27" stroke="#FAFAFF" stroke-miterlimit="10" width="0.02" height="0.15"/>
<rect x="909.08" y="61.54" stroke="#FAFAFF" stroke-miterlimit="10" width="0.02" height="0.29"/>
<rect x="909.08" y="60.79" stroke="#FAFAFF" stroke-miterlimit="10" width="0.02" height="0.29"/>
<rect x="909.08" y="60.06" stroke="#FAFAFF" stroke-miterlimit="10" width="0.02" height="0.29"/>
<rect x="909.08" y="59.34" stroke="#FAFAFF" stroke-miterlimit="10" width="0.02" height="0.29"/>
<rect x="909.08" y="58.61" stroke="#FAFAFF" stroke-miterlimit="10" width="0.02" height="0.29"/>
<rect x="909.08" y="57.86" stroke="#FAFAFF" stroke-miterlimit="10" width="0.02" height="0.29"/>
<rect x="909.08" y="57.13" stroke="#FAFAFF" stroke-miterlimit="10" width="0.02" height="0.29"/>
<rect x="909.08" y="56.4" stroke="#FAFAFF" stroke-miterlimit="10" width="0.02" height="0.29"/>
<rect x="909.08" y="55.65" stroke="#FAFAFF" stroke-miterlimit="10" width="0.02" height="0.29"/>
<rect x="909.08" y="54.93" stroke="#FAFAFF" stroke-miterlimit="10" width="0.02" height="0.29"/>
<rect x="909.08" y="54.2" stroke="#FAFAFF" stroke-miterlimit="10" width="0.02" height="0.29"/>
<rect x="909.08" y="53.45" stroke="#FAFAFF" stroke-miterlimit="10" width="0.02" height="0.29"/>
<rect x="909.08" y="52.72" stroke="#FAFAFF" stroke-miterlimit="10" width="0.02" height="0.29"/>
<rect x="909.08" y="51.99" stroke="#FAFAFF" stroke-miterlimit="10" width="0.02" height="0.29"/>
<rect x="909.08" y="51.26" stroke="#FAFAFF" stroke-miterlimit="10" width="0.02" height="0.29"/>
<rect x="909.08" y="50.51" stroke="#FAFAFF" stroke-miterlimit="10" width="0.02" height="0.29"/>
<rect x="909.08" y="49.79" stroke="#FAFAFF" stroke-miterlimit="10" width="0.02" height="0.29"/>
<rect x="909.08" y="49.06" stroke="#FAFAFF" stroke-miterlimit="10" width="0.02" height="0.29"/>
<rect x="909.08" y="48.31" stroke="#FAFAFF" stroke-miterlimit="10" width="0.02" height="0.29"/>
<rect x="909.08" y="47.58" stroke="#FAFAFF" stroke-miterlimit="10" width="0.02" height="0.29"/>
<rect x="909.08" y="46.85" stroke="#FAFAFF" stroke-miterlimit="10" width="0.02" height="0.29"/>
<rect x="909.08" y="46.12" stroke="#FAFAFF" stroke-miterlimit="10" width="0.02" height="0.29"/>
<rect x="909.08" y="45.38" stroke="#FAFAFF" stroke-miterlimit="10" width="0.02" height="0.29"/>
<rect x="909.08" y="44.65" stroke="#FAFAFF" stroke-miterlimit="10" width="0.02" height="0.29"/>
<rect x="909.08" y="43.92" stroke="#FAFAFF" stroke-miterlimit="10" width="0.02" height="0.29"/>
<rect x="909.08" y="43.17" stroke="#FAFAFF" stroke-miterlimit="10" width="0.02" height="0.29"/>
<rect x="909.08" y="42.44" stroke="#FAFAFF" stroke-miterlimit="10" width="0.02" height="0.29"/>
<rect x="909.08" y="41.71" stroke="#FAFAFF" stroke-miterlimit="10" width="0.02" height="0.29"/>
<rect x="909.08" y="40.97" stroke="#FAFAFF" stroke-miterlimit="10" width="0.02" height="0.29"/>
<rect x="909.08" y="40.24" stroke="#FAFAFF" stroke-miterlimit="10" width="0.02" height="0.29"/>
<rect x="909.08" y="39.51" stroke="#FAFAFF" stroke-miterlimit="10" width="0.02" height="0.29"/>
<rect x="909.08" y="38.78" stroke="#FAFAFF" stroke-miterlimit="10" width="0.02" height="0.29"/>
<rect x="909.08" y="38.03" stroke="#FAFAFF" stroke-miterlimit="10" width="0.02" height="0.29"/>
<rect x="909.08" y="37.45" stroke="#FAFAFF" stroke-miterlimit="10" width="0.02" height="0.15"/>
<polyline fill-rule="evenodd" clip-rule="evenodd" stroke="#FAFAFF" stroke-miterlimit="10" points="909.1,37.45 909.08,37.45 
	909.1,37.45 909.1,37.43 "/>
<rect x="909.1" y="37.43" stroke="#FAFAFF" stroke-miterlimit="10" width="0.15" height="0.02"/>
<rect x="909.72" y="37.43" stroke="#FAFAFF" stroke-miterlimit="10" width="0.31" height="0.02"/>
<rect x="910.51" y="37.43" stroke="#FAFAFF" stroke-miterlimit="10" width="0.29" height="0.02"/>
<rect x="911.28" y="37.43" stroke="#FAFAFF" stroke-miterlimit="10" width="0.31" height="0.02"/>
<rect x="912.07" y="37.43" stroke="#FAFAFF" stroke-miterlimit="10" width="0.29" height="0.02"/>
<rect x="912.84" y="37.43" stroke="#FAFAFF" stroke-miterlimit="10" width="0.31" height="0.02"/>
<rect x="913.64" y="37.43" stroke="#FAFAFF" stroke-miterlimit="10" width="0.29" height="0.02"/>
<rect x="914.41" y="37.43" stroke="#FAFAFF" stroke-miterlimit="10" width="0.31" height="0.02"/>
<rect x="915.2" y="37.43" stroke="#FAFAFF" stroke-miterlimit="10" width="0.15" height="0.02"/>
<polyline fill-rule="evenodd" clip-rule="evenodd" stroke="#FAFAFF" stroke-miterlimit="10" points="915.34,37.45 915.34,37.43 
	915.34,37.45 "/>
<rect x="915.32" y="37.45" fill-rule="evenodd" clip-rule="evenodd" stroke="#FAFAFF" stroke-miterlimit="10" width="0.02" height="0.15"/>
<rect x="909.1" y="62.39" fill-rule="evenodd" clip-rule="evenodd" stroke="#FAFAFF" stroke-miterlimit="10" width="0.15" height="0.02"/>
<line fill-rule="evenodd" clip-rule="evenodd" stroke="#FAFAFF" stroke-miterlimit="10" x1="909.1" y1="62.42" x2="909.08" y2="62.42"/>
<polygon fill="none" stroke="#FAFAFF" stroke-width="0.5046" stroke-linecap="round" stroke-linejoin="round" stroke-miterlimit="10" points="
	1020.29,382.31 1020.29,374.34 1004.83,374.34 1004.83,280.96 1059.62,280.96 1059.6,288.42 1062.36,288.42 1062.36,280.96 
	1071.68,280.96 1071.68,278.22 1020.76,278.22 1020.76,265.76 1004.83,265.76 1004.83,237.64 1017.76,237.64 1017.76,235.65 
	1085.73,235.65 1085.73,241.62 1094.47,241.62 1094.47,238.89 1088.49,238.86 1088.49,232.88 995.98,232.88 995.98,382.31 "/>
<polygon fill="none" stroke="#FAFAFF" stroke-width="0.5046" stroke-linecap="round" stroke-linejoin="round" stroke-miterlimit="10" points="
	1052.16,374.34 1052.16,382.31 1079.97,382.31 1080.05,374.34 1074.55,374.34 1074.55,347.44 1062.36,347.44 1062.36,308.34 
	1059.6,308.34 1059.6,374.34 "/>
<polygon fill="none" stroke="#FAFAFF" stroke-width="0.5046" stroke-linecap="round" stroke-linejoin="round" stroke-miterlimit="10" points="
	1171.68,374.34 1171.68,382.31 1199.57,382.31 1199.57,374.34 1185.62,374.34 1185.6,342.2 1175.9,342.2 1175.9,301.86 
	1176.41,301.86 1176.41,299.12 1175.9,299.12 1175.9,278.22 1114.39,278.22 1114.39,288.42 1117.12,288.42 1117.12,280.96 
	1173.17,280.96 1173.17,374.34 "/>
<polygon fill="none" stroke="#FAFAFF" stroke-width="0.5046" stroke-linecap="round" stroke-linejoin="round" stroke-miterlimit="10" points="
	1231.44,374.34 1231.44,382.31 1263.34,382.31 1263.31,374.34 1259.33,374.34 1259.33,368.87 1258.82,368.87 1258.82,320.53 
	1271.76,320.53 1271.76,300.61 1258.82,300.61 1258.82,232.88 1115.37,232.88 1115.37,238.86 1114.39,238.89 1114.39,241.62 
	1129.82,241.62 1129.82,243.85 1185.78,243.85 1185.78,257.56 1201.8,257.56 1201.8,258.54 1204.53,258.54 1204.53,243.85 
	1249.37,243.85 1249.37,281.2 1236.67,281.2 1236.67,299.12 1205.28,299.12 1205.28,281.2 1204.53,281.2 1204.53,278.46 
	1201.8,278.46 1201.8,299.12 1196.33,299.12 1196.33,301.86 1250.35,301.86 1250.35,368.87 1249.37,368.87 1249.37,374.34 "/>
<polygon fill="none" stroke="#FAFAFF" stroke-width="0.5046" stroke-linecap="round" stroke-linejoin="round" stroke-miterlimit="10" points="
	1111.92,374.34 1114.39,374.34 1114.39,308.34 1117.12,308.34 1117.12,368.87 1139.78,368.87 1139.81,382.31 1111.92,382.31 "/>
<rect x="1006.26" y="334.02" stroke="#FAFAFF" stroke-miterlimit="10" width="0.03" height="0.37"/>
<rect x="1006.26" y="333.07" stroke="#FAFAFF" stroke-miterlimit="10" width="0.03" height="0.37"/>
<rect x="1006.26" y="332.11" stroke="#FAFAFF" stroke-miterlimit="10" width="0.03" height="0.37"/>
<polygon fill="none" stroke="#FAFAFF" stroke-width="0.3953" stroke-linecap="round" stroke-linejoin="round" stroke-miterlimit="10" points="
	762.25,33.85 762.25,36.72 753.16,36.72 753.16,30.48 674.37,30.48 674.35,39.05 670.71,39.05 670.71,56.74 687.35,56.74 
	687.35,70.28 706.62,70.28 706.62,72.88 670.58,72.88 670.58,168.59 676.3,168.59 676.3,175.35 679.55,175.35 679.55,183.67 
	665.05,183.67 665.05,27.63 756.01,27.61 756.01,33.85 "/>
<polygon fill="none" stroke="#FAFAFF" stroke-width="0.3953" stroke-linecap="round" stroke-linejoin="round" stroke-miterlimit="10" points="
	726.38,70.28 766.43,70.26 766.43,72.88 731.07,72.88 731.07,175.35 741.95,175.35 741.95,183.67 712.84,183.67 712.84,175.35 
	718.08,175.35 718.08,141.79 728.46,141.79 728.46,72.88 726.38,72.88 "/>
<polygon fill="none" stroke="#FAFAFF" stroke-width="0.3953" stroke-linecap="round" stroke-linejoin="round" stroke-miterlimit="10" points="
	786.2,70.28 790.86,70.28 790.86,72.88 789.84,72.88 789.84,167.55 797.62,167.55 797.62,175.35 804.36,175.35 804.36,183.67 
	775.24,183.67 775.24,175.35 783,175.35 783,168.59 787.24,168.59 787.24,72.88 786.2,72.88 "/>
<polygon fill="none" stroke="#FAFAFF" stroke-width="0.3953" stroke-linecap="round" stroke-linejoin="round" stroke-miterlimit="10" points="
	810.63,70.28 810.63,72.88 812.19,72.88 812.19,101.09 850.82,101.09 850.82,157.66 840.81,157.66 840.81,175.35 837.65,175.35 
	837.65,183.67 866.78,183.67 866.78,175.35 863.7,175.35 863.7,157.66 853.67,157.66 853.67,101.09 865.26,101.09 865.24,76.63 
	853.67,76.63 853.67,27.61 784.1,27.61 784.1,33.85 783.06,33.85 783.06,36.72 784.1,36.72 784.1,47.37 812.19,47.37 812.19,48.41 
	814.14,48.41 814.14,41.3 850.82,41.3 850.82,76.63 839.23,76.63 839.23,98.49 820.51,98.49 820.51,79.77 814.14,79.77 
	814.14,68.18 812.19,68.18 812.19,70.28 "/>
<polygon fill="none" stroke="#FAFAFF" stroke-width="0.5128" stroke-linecap="round" stroke-linejoin="round" stroke-miterlimit="10" points="
	669.19,230.27 681.33,230.27 681.33,238.36 672.64,238.36 672.64,326.42 705.62,326.42 705.62,313.28 733.23,313.28 733.23,304.67 
	735.77,304.67 735.79,309.74 747.64,309.74 747.64,315.81 708.13,315.81 708.13,328.96 691.1,328.96 691.1,346.66 708.13,346.66 
	708.13,351.46 714.93,351.46 714.07,352.98 706.62,352.98 706.62,348.17 672.64,348.17 672.64,370.95 756.25,370.95 756.25,373.22 
	762.32,373.22 762.32,376 756.25,376 756.25,382.07 656.7,382.07 656.7,365.39 669.84,365.39 669.84,238.36 669.19,238.36 "/>
<polygon fill="none" stroke="#FAFAFF" stroke-width="0.5128" stroke-linecap="round" stroke-linejoin="round" stroke-miterlimit="10" points="
	713.72,230.27 742.06,230.27 742.06,238.36 737.04,238.36 737.04,245.94 735.79,245.94 735.77,285.45 733.23,285.45 733.2,258.6 
	720.71,258.6 720.71,238.36 713.72,238.36 "/>
<polygon fill="none" stroke="#FAFAFF" stroke-width="0.5128" stroke-linecap="round" stroke-linejoin="round" stroke-miterlimit="10" points="
	774.44,230.27 802.78,230.27 802.78,238.36 801.29,238.36 801.29,255.55 792.98,255.55 792.98,285.37 790.44,285.37 790.44,255.55 
	779.06,255.55 779.03,238.36 774.44,238.36 "/>
<polygon fill="none" stroke="#FAFAFF" stroke-width="0.5128" stroke-linecap="round" stroke-linejoin="round" stroke-miterlimit="10" points="
	835.16,230.27 863.5,230.27 863.5,238.36 854.43,238.36 854.4,243.92 850.62,243.92 850.62,346.01 847.09,346.01 847.09,371.46 
	847.09,370.95 854.43,370.95 854.43,382.07 783.59,382.07 783.59,376 782.56,376 782.56,373.22 805.96,373.22 805.96,371.19 
	807.85,371.19 807.85,379.29 844.31,379.29 844.31,346.01 832.65,346.01 832.65,342.42 832.65,342.48 807.85,342.48 807.85,351.98 
	805.96,351.98 805.96,342.48 790.44,342.48 790.44,304.61 792.98,304.61 792.98,321.72 847.85,321.72 847.85,243.92 844.31,243.92 
	844.31,238.36 835.16,238.36 "/>
<polyline fill="none" stroke="#FAFAFF" stroke-width="0.3778" stroke-linecap="round" stroke-linejoin="round" stroke-miterlimit="10" points="
	742.06,231.75 743.08,231.75 743.05,232.88 742.06,232.88 "/>
<path fill="none" stroke="#FAFAFF" stroke-width="0.1619" stroke-linecap="round" stroke-linejoin="round" stroke-miterlimit="10" d="
	M735.77,285.45"/>
<polygon fill="none" stroke="#FAFAFF" stroke-width="0.5653" stroke-linecap="round" stroke-linejoin="round" stroke-miterlimit="10" points="
	917.27,232.15 917.27,237.96 934.29,237.93 934.29,255.81 953.18,255.81 953.18,349.31 912.09,349.31 912.09,320.84 909.33,320.84 
	909.33,352.08 960.08,352.08 960.08,372.73 888.68,372.73 888.68,299.69 912.39,299.66 912.39,296.86 885.11,296.86 885.11,270.09 
	879.34,270.09 879.34,382.07 972.9,382.07 972.9,232.15 "/>
<polygon fill="none" stroke="#FAFAFF" stroke-width="0.5769" stroke-linecap="round" stroke-linejoin="round" stroke-miterlimit="10" points="
	1170.5,30.68 1170.5,36.6 1187.87,36.57 1187.87,54.82 1207.15,54.82 1207.15,150.24 1165.22,150.24 1165.22,121.19 1162.4,121.19 
	1162.4,153.07 1214.19,153.07 1214.19,174.14 1141.33,174.14 1141.33,99.6 1165.53,99.57 1165.53,96.72 1137.68,96.72 
	1137.68,69.39 1131.79,69.39 1131.79,183.67 1227.28,183.67 1227.28,30.68 "/>
</svg>
