<?xml version="1.0" encoding="utf-8"?>
<!-- Generator: Adobe Illustrator 18.0.0, SVG Export Plug-In . SVG Version: 6.00 Build 0)  -->
<!DOCTYPE svg PUBLIC "-//W3C//DTD SVG 1.1//EN" "http://www.w3.org/Graphics/SVG/1.1/DTD/svg11.dtd">
<svg version="1.1" id="FURN_x24_0-FURN-OFFICE" xmlns="http://www.w3.org/2000/svg" xmlns:xlink="http://www.w3.org/1999/xlink"
	 x="0px" y="0px" width="53.1px" height="53.1px" viewBox="0 0 53.1 53.1" enable-background="new 0 0 53.1 53.1"
	 xml:space="preserve">
<g>
	<path d="M2.7,14.9c-0.1,0-0.2,0-0.3-0.1c-0.1-0.1-0.1-0.4,0-0.5L14.2,2.5c0.1-0.1,0.4-0.1,0.5,0c0.1,0.1,0.1,0.4,0,0.5L3,14.7
		C2.9,14.8,2.8,14.9,2.7,14.9z"/>
	<path d="M9.8,21.9c-0.1,0-0.2,0-0.3-0.1l-9.4-9.4C0,12.3,0,12,0.1,11.9L11.9,0.1C12,0,12.3,0,12.4,0.1l9.4,9.4
		c0.1,0.1,0.1,0.4,0,0.5c-0.1,0.1-0.4,0.1-0.5,0l-9.2-9.2L0.9,12.1l9.2,9.2c0.1,0.1,0.1,0.4,0,0.5C10,21.9,9.9,21.9,9.8,21.9z"/>
	<path d="M43.3,21.9c-0.1,0-0.2,0-0.3-0.1c-0.1-0.1-0.1-0.4,0-0.5l9.2-9.2L41,0.9L31.8,10c-0.1,0.1-0.4,0.1-0.5,0
		c-0.1-0.1-0.1-0.4,0-0.5l9.4-9.4c0.1-0.1,0.4-0.1,0.5,0L53,11.9c0.1,0.1,0.1,0.2,0.1,0.3s0,0.2-0.1,0.3l-9.4,9.4
		C43.5,21.9,43.4,21.9,43.3,21.9z"/>
	<path d="M50.4,14.9c-0.1,0-0.2,0-0.3-0.1L38.4,3c-0.1-0.1-0.1-0.4,0-0.5c0.1-0.1,0.4-0.1,0.5,0l11.8,11.8c0.1,0.1,0.1,0.4,0,0.5
		C50.6,14.8,50.5,14.9,50.4,14.9z"/>
	<path d="M38.6,50.8c-0.1,0-0.2,0-0.3-0.1c-0.1-0.1-0.1-0.4,0-0.5l11.8-11.8c0.1-0.1,0.4-0.1,0.5,0c0.1,0.1,0.1,0.4,0,0.5L38.9,50.7
		C38.8,50.7,38.7,50.8,38.6,50.8z"/>
	<path d="M41,53.1c-0.1,0-0.2,0-0.3-0.1l-9.4-9.4c-0.1-0.1-0.1-0.4,0-0.5c0.1-0.1,0.4-0.1,0.5,0l9.2,9.2L52.3,41l-9.2-9.2
		c-0.1-0.1-0.1-0.4,0-0.5c0.1-0.1,0.4-0.1,0.5,0l9.4,9.4c0.1,0.1,0.1,0.4,0,0.5L41.2,53C41.2,53.1,41.1,53.1,41,53.1z"/>
	<path d="M44.1,26.9c-0.2,0-0.4-0.2-0.4-0.4c0-9.5-7.7-17.1-17.1-17.1S9.4,17.1,9.4,26.6c0,0.2-0.2,0.4-0.4,0.4s-0.4-0.2-0.4-0.4
		c0-9.8,8-17.9,17.9-17.9s17.9,8,17.9,17.9C44.4,26.8,44.3,26.9,44.1,26.9z"/>
	<path d="M26.6,44.4c-9.8,0-17.9-8-17.9-17.9c0-0.2,0.2-0.4,0.4-0.4s0.4,0.2,0.4,0.4c0,9.5,7.7,17.1,17.1,17.1S43.7,36,43.7,26.6
		c0-0.2,0.2-0.4,0.4-0.4s0.4,0.2,0.4,0.4C44.4,36.4,36.4,44.4,26.6,44.4z"/>
	<path d="M12.1,53.1c-0.1,0-0.2,0-0.3-0.1L0.1,41.2c-0.1-0.1-0.1-0.4,0-0.5l9.4-9.4c0.1-0.1,0.4-0.1,0.5,0c0.1,0.1,0.1,0.4,0,0.5
		L0.9,41l11.3,11.3l9.2-9.2c0.1-0.1,0.4-0.1,0.5,0c0.1,0.1,0.1,0.4,0,0.5L12.4,53C12.3,53.1,12.2,53.1,12.1,53.1z"/>
	<path d="M14.5,50.8c-0.1,0-0.2,0-0.3-0.1L2.5,38.9c-0.1-0.1-0.1-0.4,0-0.5c0.1-0.1,0.4-0.1,0.5,0l11.8,11.8c0.1,0.1,0.1,0.4,0,0.5
		C14.7,50.7,14.6,50.8,14.5,50.8z"/>
</g>
</svg>
