<?xml version="1.0" encoding="utf-8"?>
<!-- Generator: Adobe Illustrator 18.1.1, SVG Export Plug-In . SVG Version: 6.00 Build 0)  -->
<!DOCTYPE svg PUBLIC "-//W3C//DTD SVG 1.1//EN" "http://www.w3.org/Graphics/SVG/1.1/DTD/svg11.dtd">
<svg version="1.1" id="Layer_1" xmlns="http://www.w3.org/2000/svg" xmlns:xlink="http://www.w3.org/1999/xlink" x="0px" y="0px"
	 width="365.85px" height="64.46px" viewBox="-120.24 365.07 365.85 64.46" enable-background="new -120.24 365.07 365.85 64.46"
	 xml:space="preserve">
<g id="RRBElj_1_">
	<g>
		<path fill="#8A87AA" d="M245.61,386.89c-0.17,0.78-0.32,1.57-0.52,2.34c-0.67,2.65-1.87,5.02-3.56,7.17
			c-2,2.55-4.49,4.45-7.38,5.82c-2.1,1-4.3,1.69-6.64,1.89c-0.94,0.08-1.88,0.26-2.82,0.24c-4.17-0.12-8.08-1.1-11.65-3.36
			c-3.38-2.14-5.93-4.97-7.61-8.58c-0.89-1.92-1.37-3.96-1.57-6.08c-0.35-3.68,0.38-7.12,2.06-10.37c1.18-2.28,2.78-4.22,4.75-5.89
			c2.06-1.74,4.35-3.06,6.89-3.89c1.43-0.47,2.96-0.66,4.44-0.98c0.09-0.02,0.17-0.09,0.25-0.13c1.66,0,3.32,0,4.98,0
			c0.06,0.04,0.12,0.12,0.19,0.13c2.45,0.23,4.78,0.94,6.98,2.02c2.79,1.37,5.21,3.23,7.14,5.71c1.67,2.14,2.86,4.49,3.55,7.1
			c0.21,0.79,0.35,1.6,0.53,2.4C245.61,383.92,245.61,385.41,245.61,386.89z M237.24,384.58c-0.06-0.62-0.04-1.35-0.19-2.04
			c-0.85-3.84-3.02-6.73-6.48-8.58c-2.59-1.38-5.37-1.83-8.27-1.23c-2.52,0.53-4.73,1.69-6.53,3.51c-1.19,1.21-2.15,2.61-2.75,4.23
			c-0.81,2.19-1.06,4.42-0.52,6.7c0.7,2.96,2.28,5.36,4.74,7.16c2.84,2.08,6.02,2.93,9.49,2.37c2.73-0.44,5.08-1.71,7.03-3.72
			C236.01,390.66,237.13,387.89,237.24,384.58z"/>
		<path fill="#8A87AA" d="M-41.1,365.07c0.64,0.13,1.28,0.27,1.92,0.38c3.12,0.54,5.95,1.82,8.5,3.65c2.66,1.92,4.77,4.37,6.21,7.33
			c0.93,1.92,1.53,3.95,1.76,6.09c0.4,3.78-0.19,7.36-1.94,10.72c-1.88,3.61-4.66,6.36-8.22,8.35c-2.06,1.16-4.26,1.9-6.55,2.36
			c-0.9,0.18-1.83,0.23-2.76,0.27c-0.94,0.04-1.88,0.04-2.82,0c-2.55-0.1-4.99-0.72-7.33-1.72c-2.92-1.23-5.38-3.09-7.47-5.45
			c-1.45-1.64-2.56-3.49-3.38-5.53c-1.07-2.66-1.43-5.44-1.25-8.27c0.13-2.05,0.63-4.03,1.43-5.93c1.18-2.81,3.01-5.13,5.25-7.15
			c1.8-1.63,3.91-2.79,6.16-3.69c1.77-0.71,3.6-1.19,5.52-1.32c0.04,0,0.08-0.08,0.13-0.12C-44.33,365.07-42.71,365.07-41.1,365.07z
			 M-43.39,396.89c0.32-0.04,0.8-0.11,1.28-0.16c2.6-0.24,4.91-1.26,6.82-2.98c3.1-2.77,4.65-6.22,4.16-10.47
			c-0.3-2.63-1.43-4.86-3.19-6.79c-1.15-1.26-2.54-2.19-4.08-2.89c-2.5-1.13-5.11-1.48-7.77-0.84c-3.45,0.83-6.24,2.68-8.1,5.77
			c-1.48,2.45-2.12,5.11-1.62,7.94c0.53,3.01,1.99,5.49,4.38,7.45C-49.18,395.86-46.51,396.74-43.39,396.89z"/>
		<path fill="#8A87AA" d="M-120.24,366.09c3.15,0,6.3,0.01,9.44,0c0.45,0,0.69,0.11,0.91,0.55c2.11,4.24,4.25,8.45,6.38,12.68
			c1.69,3.34,3.38,6.69,5.08,10.03c0.43,0.84,0.89,1.65,1.37,2.54c1.55-3.07,3.1-6.1,4.63-9.15c2.36-4.67,4.7-9.35,7.06-14.02
			c0.39-0.77,0.79-1.52,1.22-2.26c0.09-0.16,0.34-0.33,0.51-0.33c3.21-0.02,6.42-0.01,9.76-0.01c-0.19,0.34-0.36,0.61-0.5,0.89
			c-1.52,2.96-3.03,5.92-4.56,8.88c-1.7,3.29-3.41,6.57-5.12,9.86c-1.15,2.21-2.29,4.42-3.44,6.63c-1.7,3.27-3.39,6.54-5.09,9.8
			c-1.45,2.77-2.91,5.54-4.42,8.4c-0.91-1.74-1.8-3.42-2.68-5.1c-1.79-3.41-3.57-6.81-5.36-10.22c-1.23-2.33-2.46-4.66-3.69-6.99
			c-1.79-3.41-3.58-6.81-5.37-10.22c-1.24-2.35-2.47-4.7-3.71-7.05c-0.8-1.51-1.63-3-2.44-4.5
			C-120.24,366.34-120.24,366.21-120.24,366.09z"/>
		<path fill="#8A87AA" d="M157.66,429.53c-0.73-0.13-1.46-0.23-2.17-0.4c-1.16-0.28-2.24-0.75-3.26-1.56
			c0.36-0.5,0.7-0.98,0.99-1.39c1.06,0.42,2.06,0.9,3.11,1.2c1.78,0.52,3.59,0.58,5.38-0.02c0.87-0.29,1.31-0.8,1.32-1.49
			c0.01-0.69-0.27-1.14-0.93-1.32c-0.7-0.18-1.42-0.31-2.15-0.39c-1.21-0.12-2.44-0.13-3.65-0.28c-1.07-0.13-2.11-0.32-3.01-1.06
			c-0.82-0.67-0.77-2.87-0.02-3.66c0.86-0.91,1.93-1.31,3.1-1.49c2.19-0.33,4.36-0.18,6.44,0.63c0.61,0.24,1.18,0.59,1.84,0.92
			c-0.47,0.5-0.85,0.91-1.22,1.29c-1.06-0.34-2.1-0.75-3.19-0.99c-1.61-0.37-3.25-0.45-4.79,0.32c-0.32,0.16-0.73,0.65-0.68,0.9
			c0.07,0.37,0.47,0.79,0.83,0.97c0.49,0.24,1.07,0.34,1.62,0.39c1.19,0.12,2.4,0.13,3.58,0.29c0.94,0.13,1.9,0.31,2.78,0.67
			c1.69,0.69,1.94,2.31,1.37,3.93c-0.53,1.49-1.89,1.89-3.24,2.25c-0.45,0.12-0.91,0.18-1.37,0.27
			C159.44,429.53,158.55,429.53,157.66,429.53z"/>
		<path fill="#8A87AA" d="M132.51,429.53c-0.75-0.26-1.52-0.49-2.26-0.77c-1.34-0.51-2.39-1.78-2.34-3.37
			c0.07-2.5,0.02-5.01,0.02-7.56c0.63,0,1.21,0,1.9,0c0,0.21,0,0.43,0,0.65c0,1.93,0.03,3.87-0.01,5.8
			c-0.05,2.21,1.17,3.1,3.02,3.34c1.52,0.2,3,0.2,4.45-0.39c0.96-0.39,1.5-1.16,1.5-2.17c0-2.4,0-4.8,0-7.24c0.67,0,1.3,0,2.02,0
			c0,0.21,0,0.43,0,0.65c0,2.17-0.07,4.34,0.02,6.5c0.09,2.23-1.11,3.34-2.92,4.01c-0.55,0.21-1.13,0.35-1.69,0.52
			C134.98,429.53,133.74,429.53,132.51,429.53z"/>
		<path fill="#8A87AA" d="M79.26,366.12c2.83,0,5.52,0,8.26,0c0,12.39,0,24.76,0,37.24c-0.18,0-0.38,0-0.58,0
			c-2.06,0-4.13,0.01-6.19-0.02c-0.29,0-0.65-0.16-0.87-0.36c-1.18-1.13-2.33-2.31-3.49-3.46c-6.54-6.5-13.09-13-19.62-19.52
			c-0.49-0.49-0.87-1.11-1.35-1.75c0,8.43,0,16.79,0,25.19c-2.78,0-5.49,0-8.25,0c0-12.42,0-24.85,0-37.32
			c0.15-0.01,0.29-0.02,0.44-0.02c2.26,0,4.51-0.01,6.76,0.01c0.26,0,0.56,0.14,0.77,0.31c0.39,0.32,0.73,0.71,1.09,1.07
			c4.45,4.41,8.9,8.83,13.36,13.23c2.34,2.31,4.71,4.6,7.04,6.92c0.91,0.9,1.75,1.87,2.63,2.82
			C79.26,382.41,79.26,374.29,79.26,366.12z"/>
		<path fill="#8A87AA" d="M-8.75,366.1c0.26,0,0.49,0,0.72,0c7.98,0,15.96-0.06,23.93,0.03c3.08,0.04,6.04,0.81,8.68,2.51
			c2.53,1.62,4.08,3.93,4.76,6.83c0.57,2.43,0.59,4.86-0.24,7.25c-0.82,2.4-2.27,4.37-4.34,5.8c-1.2,0.83-2.55,1.43-3.85,2.15
			c3.8,4.13,7.68,8.35,11.63,12.66c-0.25,0.01-0.41,0.03-0.57,0.03c-3.11,0-6.21,0-9.32,0.01c-0.31,0-0.51-0.09-0.73-0.33
			c-1.19-1.32-2.42-2.6-3.62-3.9c-1.92-2.08-3.83-4.16-5.74-6.25c-1.37-1.49-2.73-2.99-4.1-4.49c-0.94-1.03-1.88-2.05-2.82-3.08
			c-0.09-0.1-0.13-0.24-0.24-0.44c0.3,0,0.53,0,0.76,0c2.79,0,5.57,0.04,8.36-0.02c1.5-0.03,3-0.25,4.36-1
			c1.65-0.9,2.49-2.31,2.57-4.16c0.04-0.98,0.08-1.97-0.33-2.92c-0.71-1.67-2.02-2.62-3.71-3.01c-1.09-0.25-2.24-0.38-3.36-0.39
			c-4.57-0.04-9.15-0.02-13.72-0.02c-0.25,0-0.5,0-0.83,0c0,10,0,19.97,0,29.96c-2.79,0-5.5,0-8.25,0
			C-8.75,390.94-8.75,378.57-8.75,366.1z"/>
		<path fill="#8A87AA" d="M156.31,366.1c0.3,0,0.55,0,0.8,0c5.17,0,10.34-0.01,15.51,0c3.97,0.01,7.77,0.8,11.3,2.68
			c3.71,1.97,6.38,4.9,7.93,8.82c0.67,1.7,1,3.47,1.18,5.29c0.28,2.77-0.03,5.45-0.86,8.07c-0.68,2.15-1.82,4.05-3.3,5.78
			c-1.59,1.85-3.52,3.23-5.67,4.29c-1.99,0.99-4.09,1.67-6.31,1.92c-1.73,0.2-3.48,0.36-5.22,0.38c-4.85,0.05-9.7,0.02-14.55,0.02
			c-0.25,0-0.51,0-0.81,0C156.31,390.94,156.31,378.56,156.31,366.1z M164.57,395.97c3.33,0,6.6,0.09,9.86-0.03
			c2.92-0.11,5.48-1.23,7.53-3.39c1.73-1.83,2.58-4.05,2.74-6.5c0.09-1.39-0.02-2.83-0.25-4.21c-0.39-2.38-1.61-4.36-3.47-5.88
			c-2.32-1.89-5.11-2.51-8.02-2.59c-2.57-0.07-5.14-0.02-7.72-0.02c-0.22,0-0.45,0-0.67,0
			C164.57,380.97,164.57,388.49,164.57,395.97z"/>
		<path fill="#8A87AA" d="M98.23,403.42c0.33-0.67,0.62-1.27,0.92-1.86c1.14-2.21,2.29-4.42,3.44-6.63
			c1.79-3.45,3.58-6.91,5.37-10.36c1.1-2.12,2.2-4.23,3.29-6.35c1.79-3.45,3.58-6.91,5.38-10.36c0.09-0.17,0.26-0.3,0.3-0.48
			c0.29-1.27,1.17-1.36,2.28-1.32c2.1,0.08,4.21,0.03,6.32,0.02c0.39,0,0.65,0.06,0.85,0.46c1.04,2.07,2.12,4.13,3.19,6.19
			c1.86,3.58,3.72,7.17,5.58,10.75c1.11,2.13,2.22,4.27,3.33,6.4c1.83,3.53,3.65,7.06,5.48,10.58c0.5,0.96,1,1.91,1.55,2.96
			c-0.34,0.02-0.54,0.04-0.74,0.04c-2.66,0-5.32-0.01-7.98,0.01c-0.4,0-0.64-0.09-0.84-0.48c-0.82-1.62-1.7-3.22-2.52-4.84
			c-0.17-0.33-0.35-0.44-0.71-0.44c-7.25,0.01-14.5,0.02-21.76-0.01c-0.56,0-0.71,0.34-0.9,0.7c-0.79,1.55-1.55,3.11-2.35,4.66
			c-0.09,0.18-0.34,0.39-0.52,0.39c-2.89,0.02-5.78,0.02-8.68,0.01C98.47,403.48,98.41,403.46,98.23,403.42z M129.56,390.59
			c-2.58-4.94-5.11-9.81-7.7-14.77c-2.6,4.97-5.16,9.84-7.74,14.77C119.31,390.59,124.39,390.59,129.56,390.59z"/>
		<path fill="#8A87AA" d="M-55.87,429.35c0-3.8,0-7.58,0-11.4c0.23-0.01,0.44-0.03,0.64-0.03c2.87,0,5.74-0.03,8.61,0.01
			c1.89,0.03,3.24,1.05,3.48,3.05c0.14,1.13,0.09,2.21-0.64,3.07c-0.48,0.57-1.22,0.92-1.96,1.45c0.85,1.15,1.81,2.45,2.87,3.89
			c-0.87,0-1.56,0.01-2.25-0.01c-0.1,0-0.23-0.1-0.3-0.19c-0.87-1.15-1.73-2.31-2.61-3.44c-0.12-0.16-0.38-0.3-0.57-0.3
			c-1.72-0.02-3.44-0.01-5.24-0.01c0,1.3,0,2.59,0,3.91C-54.54,429.35-55.16,429.35-55.87,429.35z M-53.85,423.54
			c2.33,0,4.59-0.04,6.86,0.02c1.28,0.03,2.28-1.21,1.75-2.6c-0.41-1.06-1.32-1.23-2.24-1.25c-1.95-0.05-3.9-0.02-5.86-0.02
			c-0.16,0-0.32,0.03-0.51,0.04C-53.85,421-53.85,422.22-53.85,423.54z"/>
		<path fill="#8A87AA" d="M115.86,425.49c0.88,1.19,1.84,2.48,2.89,3.9c-0.87,0-1.55,0.07-2.21-0.03c-0.28-0.04-0.52-0.43-0.73-0.7
			c-0.77-0.99-1.51-2-2.29-2.98c-0.1-0.13-0.32-0.23-0.48-0.23c-1.74-0.02-3.48-0.01-5.29-0.01c0,1.32,0,2.61,0,3.92
			c-0.7,0-1.33,0-2,0c0-3.79,0-7.56,0-11.44c0.21,0,0.43,0,0.66,0c2.76,0,5.53,0.01,8.29-0.01c1.94-0.01,3.57,0.93,3.79,3.15
			c0.11,1.15,0.03,2.21-0.7,3.06C117.32,424.68,116.58,425,115.86,425.49z M107.76,423.54c2.34,0,4.61,0,6.87,0
			c1.44,0,2.25-1.24,1.73-2.59c-0.41-1.06-1.33-1.22-2.25-1.24c-1.95-0.05-3.9-0.02-5.86-0.01c-0.16,0-0.32,0.03-0.49,0.05
			C107.76,421.01,107.76,422.23,107.76,423.54z"/>
		<path fill="#8A87AA" d="M-21.72,417.97c0,0.58,0,1.11,0,1.71c-3.13,0-6.24,0-9.39,0c0,0.96,0,1.84,0,2.81c2.12,0,4.26,0,6.43,0
			c0,0.62,0,1.16,0,1.78c-2.12,0-4.25,0-6.43,0c0,1.1,0,2.13,0,3.21c3.28,0,6.55,0,9.86,0c0,0.65,0,1.25,0,1.89
			c-3.95,0-7.9,0-11.89,0c0-3.78,0-7.56,0-11.38C-29.36,417.97-25.56,417.97-21.72,417.97z"/>
		<path fill="#8A87AA" d="M1.37,429.24c-0.81,0-1.48,0-2.17,0c-0.31-0.55-0.67-1.09-0.92-1.68c-0.24-0.55-0.53-0.76-1.17-0.74
			c-2.08,0.06-4.16,0.03-6.25,0.01c-0.42-0.01-0.69,0.11-0.82,0.51c-0.02,0.06-0.05,0.11-0.08,0.17c-0.93,1.86-0.93,1.86-3.09,1.73
			c0.39-0.75,0.75-1.49,1.14-2.21c1.15-2.18,2.3-4.36,3.45-6.54c0.41-0.78,0.8-1.56,1.24-2.32c0.1-0.17,0.36-0.34,0.56-0.36
			c0.68-0.04,1.36-0.02,2.07-0.02C-2.67,421.58-0.67,425.37,1.37,429.24z M-8.73,425.03c1.94,0,3.77,0,5.67,0
			c-0.94-1.78-1.84-3.5-2.82-5.35C-6.86,421.52-7.77,423.24-8.73,425.03z"/>
		<path fill="#8A87AA" d="M41.47,417.84c0,0.62,0,1.19,0,1.83c-1.77,0-3.52,0-5.32,0c0,3.21,0,6.35,0,9.54c-0.69,0-1.33,0-2.03,0
			c0-3.14,0-6.28,0-9.49c-1.8,0-3.55,0-5.34,0c0-0.66,0-1.24,0-1.88C32.98,417.84,37.2,417.84,41.47,417.84z"/>
		<path fill="#8A87AA" d="M94.82,417.84c0,0.62,0,1.19,0,1.83c-1.81,0-3.6,0-5.45,0c0,3.21,0,6.35,0,9.54c-0.65,0-1.25,0-1.9,0
			c0-3.14,0-6.28,0-9.49c-1.8,0-3.55,0-5.34,0c0-0.66,0-1.24,0-1.88C86.34,417.84,90.56,417.84,94.82,417.84z"/>
		<path fill="#8A87AA" d="M188.25,419.7c-1.83,0-3.61,0-5.43,0c0,3.19,0,6.33,0,9.51c-0.65,0-1.25,0-1.9,0c0-3.15,0-6.29,0-9.5
			c-1.8,0-3.55,0-5.34,0c0-0.66,0-1.24,0-1.88c4.2,0,8.42,0,12.67,0C188.25,418.44,188.25,419.02,188.25,419.7z"/>
		<path fill="#8A87AA" d="M56.1,423.07c1.05-1.18,2.05-2.32,3.06-3.45c0.49-0.55,0.99-1.1,1.5-1.63c0.1-0.11,0.29-0.18,0.44-0.18
			c0.7-0.02,1.4-0.01,2.25-0.01c-0.59,0.69-1.09,1.3-1.62,1.88c-1.07,1.17-2.15,2.32-3.23,3.49c-0.43,0.46-0.87,0.92-1.27,1.41
			c-0.13,0.16-0.17,0.42-0.17,0.63c-0.02,1.32-0.01,2.64-0.01,4c-0.66,0-1.31,0-2.02,0c0-1.23-0.04-2.45,0.02-3.68
			c0.03-0.58-0.15-1.02-0.52-1.42c-0.97-1.06-1.94-2.11-2.91-3.17c-0.92-1.01-1.82-2.02-2.84-3.15c0.91,0,1.66-0.01,2.42,0.01
			c0.09,0,0.19,0.11,0.27,0.19c1.18,1.27,2.36,2.53,3.54,3.81C55.38,422.2,55.72,422.62,56.1,423.07z"/>
		<path fill="#8A87AA" d="M21.04,427.35c0,0.69,0,1.26,0,1.87c-3.55,0-7.09,0-10.65,0c0-3.79,0-7.57,0-11.38c0.64,0,1.26,0,1.96,0
			c0,3.14,0,6.29,0,9.51C15.28,427.35,18.13,427.35,21.04,427.35z"/>
	</g>
</g>
</svg>
