<?xml version="1.0" encoding="utf-8"?>
<!-- Generator: Adobe Illustrator 18.1.1, SVG Export Plug-In . SVG Version: 6.00 Build 0)  -->
<!DOCTYPE svg PUBLIC "-//W3C//DTD SVG 1.1//EN" "http://www.w3.org/Graphics/SVG/1.1/DTD/svg11.dtd">
<svg version="1.1" id="Layer_1" xmlns="http://www.w3.org/2000/svg" xmlns:xlink="http://www.w3.org/1999/xlink" x="0px" y="0px"
	 width="740px" height="440px" viewBox="0 0 740 440" enable-background="new 0 0 740 440" xml:space="preserve">
<g id="A-DETL-GENF">
	<g id="INSERT_1856_">
		<g id="LINE_12266_">
			<line fill="none" x1="673.2" y1="141.9" x2="673.2" y2="187.9"/>
		</g>
		<g id="LINE_12265_">
			<line fill="none" x1="673.2" y1="187.9" x2="739.4" y2="187.9"/>
		</g>
		<g id="LINE_12264_">
			<line fill="none" x1="739.4" y1="187.9" x2="739.4" y2="141.9"/>
		</g>
		<g id="LINE_12263_">
			<line fill="none" x1="739.4" y1="141.9" x2="673.2" y2="141.9"/>
		</g>
	</g>
	<g id="INSERT_1855_">
		<g id="LINE_12262_">
			<line fill="none" x1="673.2" y1="187.9" x2="673.2" y2="233.8"/>
		</g>
		<g id="LINE_12261_">
			<line fill="none" x1="673.2" y1="233.8" x2="739.4" y2="233.8"/>
		</g>
		<g id="LINE_12260_">
			<line fill="none" x1="739.4" y1="233.8" x2="739.4" y2="187.9"/>
		</g>
		<g id="LINE_12259_">
			<line fill="none" x1="739.4" y1="187.9" x2="673.2" y2="187.9"/>
		</g>
	</g>
	<g id="INSERT_1854_">
		<g id="LINE_12258_">
			<line fill="none" x1="673.2" y1="233.8" x2="673.2" y2="284.9"/>
		</g>
		<g id="LINE_12257_">
			<line fill="none" x1="673.2" y1="284.9" x2="739.4" y2="284.9"/>
		</g>
		<g id="LINE_12256_">
			<line fill="none" x1="739.4" y1="284.9" x2="739.4" y2="233.8"/>
		</g>
		<g id="LINE_12255_">
			<line fill="none" x1="739.4" y1="233.8" x2="673.2" y2="233.8"/>
		</g>
	</g>
	<g id="INSERT_1853_">
		<g id="LINE_12254_">
			<line fill="none" x1="673.2" y1="284.9" x2="673.2" y2="335.9"/>
		</g>
		<g id="LINE_12253_">
			<line fill="none" x1="673.2" y1="335.9" x2="739.4" y2="335.9"/>
		</g>
		<g id="LINE_12252_">
			<line fill="none" x1="739.4" y1="335.9" x2="739.4" y2="284.9"/>
		</g>
		<g id="LINE_12251_">
			<line fill="none" x1="739.4" y1="284.9" x2="673.2" y2="284.9"/>
		</g>
	</g>
	<g id="INSERT_1852_">
		<g id="LINE_12250_">
			<line fill="none" x1="673.2" y1="95.9" x2="673.2" y2="141.9"/>
		</g>
		<g id="LINE_12249_">
			<line fill="none" x1="673.2" y1="141.9" x2="739.4" y2="141.9"/>
		</g>
		<g id="LINE_12248_">
			<line fill="none" x1="739.4" y1="141.9" x2="739.4" y2="95.9"/>
		</g>
		<g id="LINE_12247_">
			<line fill="none" x1="739.4" y1="95.9" x2="673.2" y2="95.9"/>
		</g>
	</g>
	<g id="INSERT_1851_">
		<g id="LINE_12246_">
			<line fill="none" x1="588.2" y1="3.6" x2="588.2" y2="69.8"/>
		</g>
		<g id="LINE_12245_">
			<line fill="none" x1="588.2" y1="69.8" x2="630.7" y2="69.8"/>
		</g>
		<g id="LINE_12244_">
			<line fill="none" x1="630.7" y1="69.8" x2="630.7" y2="3.6"/>
		</g>
		<g id="LINE_12243_">
			<line fill="none" x1="630.7" y1="3.6" x2="588.2" y2="3.6"/>
		</g>
	</g>
	<g id="INSERT_1850_">
		<g id="LINE_12242_">
			<line fill="none" x1="470.8" y1="97.8" x2="470.8" y2="141.5"/>
		</g>
		<g id="LINE_12241_">
			<line fill="none" x1="470.8" y1="141.5" x2="545.8" y2="141.5"/>
		</g>
		<g id="LINE_12240_">
			<line fill="none" x1="545.8" y1="141.5" x2="545.8" y2="97.8"/>
		</g>
		<g id="LINE_12239_">
			<line fill="none" x1="545.8" y1="97.8" x2="470.8" y2="97.8"/>
		</g>
	</g>
	<g id="INSERT_1849_">
		<g id="LINE_12238_">
			<line fill="none" x1="545.8" y1="3.6" x2="545.8" y2="69.8"/>
		</g>
		<g id="LINE_12237_">
			<line fill="none" x1="545.8" y1="69.8" x2="588.2" y2="69.8"/>
		</g>
		<g id="LINE_12236_">
			<line fill="none" x1="588.2" y1="69.8" x2="588.2" y2="3.6"/>
		</g>
		<g id="LINE_12235_">
			<line fill="none" x1="588.2" y1="3.6" x2="545.8" y2="3.6"/>
		</g>
	</g>
	<g id="INSERT_1848_">
		<g id="LINE_12234_">
			<line fill="none" x1="470.8" y1="3.6" x2="470.8" y2="97.8"/>
		</g>
		<g id="LINE_12233_">
			<line fill="none" x1="470.8" y1="97.8" x2="545.8" y2="97.8"/>
		</g>
		<g id="LINE_12232_">
			<line fill="none" x1="545.8" y1="97.8" x2="545.8" y2="3.6"/>
		</g>
		<g id="LINE_12231_">
			<line fill="none" x1="545.8" y1="3.6" x2="470.8" y2="3.6"/>
		</g>
	</g>
	<g id="INSERT_1847_">
		<g id="LINE_12230_">
			<line fill="none" x1="407.9" y1="141.5" x2="407.9" y2="210.2"/>
		</g>
		<g id="LINE_12229_">
			<line fill="none" x1="407.9" y1="210.2" x2="451.4" y2="210.2"/>
		</g>
		<g id="LINE_12228_">
			<line fill="none" x1="451.4" y1="210.2" x2="451.4" y2="141.5"/>
		</g>
		<g id="LINE_12227_">
			<line fill="none" x1="451.4" y1="141.5" x2="407.9" y2="141.5"/>
		</g>
	</g>
	<g id="INSERT_1846_">
		<g id="LINE_12226_">
			<line fill="none" x1="495" y1="141.5" x2="495" y2="210.2"/>
		</g>
		<g id="LINE_12225_">
			<line fill="none" x1="495" y1="210.2" x2="545.8" y2="210.2"/>
		</g>
		<g id="LINE_12224_">
			<line fill="none" x1="545.8" y1="210.2" x2="545.8" y2="141.5"/>
		</g>
		<g id="LINE_12223_">
			<line fill="none" x1="545.8" y1="141.5" x2="495" y2="141.5"/>
		</g>
	</g>
	<g id="INSERT_1845_">
		<g id="LINE_12222_">
			<line fill="none" x1="314" y1="141.9" x2="314" y2="210.2"/>
		</g>
		<g id="LINE_12221_">
			<line fill="none" x1="314" y1="210.2" x2="360.9" y2="210.2"/>
		</g>
		<g id="LINE_12220_">
			<line fill="none" x1="360.9" y1="210.2" x2="360.9" y2="141.9"/>
		</g>
		<g id="LINE_12219_">
			<line fill="none" x1="360.9" y1="141.9" x2="314" y2="141.9"/>
		</g>
	</g>
	<g id="INSERT_1844_">
		<g id="LINE_12218_">
			<line fill="none" x1="360.9" y1="141.9" x2="360.9" y2="210.2"/>
		</g>
		<g id="LINE_12217_">
			<line fill="none" x1="360.9" y1="210.2" x2="407.9" y2="210.2"/>
		</g>
		<g id="LINE_12216_">
			<line fill="none" x1="407.9" y1="210.2" x2="407.9" y2="141.9"/>
		</g>
		<g id="LINE_12215_">
			<line fill="none" x1="407.9" y1="141.9" x2="360.9" y2="141.9"/>
		</g>
	</g>
	<g id="INSERT_1843_">
		<g id="LINE_12214_">
			<line fill="none" x1="268.2" y1="141.9" x2="268.2" y2="210.2"/>
		</g>
		<g id="LINE_12213_">
			<line fill="none" x1="268.2" y1="210.2" x2="314" y2="210.2"/>
		</g>
		<g id="LINE_12212_">
			<line fill="none" x1="314" y1="210.2" x2="314" y2="141.9"/>
		</g>
		<g id="LINE_12211_">
			<line fill="none" x1="314" y1="141.9" x2="268.2" y2="141.9"/>
		</g>
	</g>
	<g id="INSERT_1842_">
		<g id="LINE_12210_">
			<line fill="none" x1="222.4" y1="141.9" x2="222.4" y2="210.2"/>
		</g>
		<g id="LINE_12209_">
			<line fill="none" x1="222.4" y1="210.2" x2="268.2" y2="210.2"/>
		</g>
		<g id="LINE_12208_">
			<line fill="none" x1="268.2" y1="210.2" x2="268.2" y2="141.9"/>
		</g>
		<g id="LINE_12207_">
			<line fill="none" x1="268.2" y1="141.9" x2="222.4" y2="141.9"/>
		</g>
	</g>
	<g id="INSERT_1841_">
		<g id="LINE_12206_">
			<line fill="none" x1="174.7" y1="141.9" x2="174.7" y2="210.2"/>
		</g>
		<g id="LINE_12205_">
			<line fill="none" x1="174.7" y1="210.2" x2="222.4" y2="210.2"/>
		</g>
		<g id="LINE_12204_">
			<line fill="none" x1="222.4" y1="210.2" x2="222.4" y2="141.9"/>
		</g>
		<g id="LINE_12203_">
			<line fill="none" x1="222.4" y1="141.9" x2="174.7" y2="141.9"/>
		</g>
	</g>
	<g id="INSERT_1840_">
		<g id="LINE_12202_">
			<line fill="none" x1="127.1" y1="141.9" x2="127.1" y2="210.2"/>
		</g>
		<g id="LINE_12201_">
			<line fill="none" x1="127.1" y1="210.2" x2="174.7" y2="210.2"/>
		</g>
		<g id="LINE_12200_">
			<line fill="none" x1="174.7" y1="210.2" x2="174.7" y2="141.9"/>
		</g>
		<g id="LINE_12199_">
			<line fill="none" x1="174.7" y1="141.9" x2="127.1" y2="141.9"/>
		</g>
	</g>
	<g id="INSERT_1839_">
		<g id="LINE_12198_">
			<line fill="none" x1="68.3" y1="141.9" x2="68.3" y2="210.2"/>
		</g>
		<g id="LINE_12197_">
			<line fill="none" x1="68.3" y1="210.2" x2="127.1" y2="210.2"/>
		</g>
		<g id="LINE_12196_">
			<line fill="none" x1="127.1" y1="210.2" x2="127.1" y2="141.9"/>
		</g>
		<g id="LINE_12195_">
			<line fill="none" x1="127.1" y1="141.9" x2="68.3" y2="141.9"/>
		</g>
	</g>
	<g id="INSERT_1838_">
		<g id="LINE_12194_">
			<line fill="none" x1="2.1" y1="284.9" x2="68.3" y2="284.9"/>
		</g>
		<g id="LINE_12193_">
			<line fill="none" x1="68.3" y1="284.9" x2="68.3" y2="233.8"/>
		</g>
		<g id="LINE_12192_">
			<line fill="none" x1="68.3" y1="233.8" x2="2.1" y2="233.8"/>
		</g>
		<g id="LINE_12191_">
			<line fill="none" x1="2.1" y1="233.8" x2="2.1" y2="284.9"/>
		</g>
	</g>
	<g id="INSERT_1837_">
		<g id="LINE_12190_">
			<line fill="none" x1="2.1" y1="335.9" x2="68.3" y2="335.9"/>
		</g>
		<g id="LINE_12189_">
			<line fill="none" x1="68.3" y1="335.9" x2="68.3" y2="284.9"/>
		</g>
		<g id="LINE_12188_">
			<line fill="none" x1="68.3" y1="284.9" x2="2.1" y2="284.9"/>
		</g>
		<g id="LINE_12187_">
			<line fill="none" x1="2.1" y1="284.9" x2="2.1" y2="335.9"/>
		</g>
	</g>
	<g id="INSERT_1836_">
		<g id="LINE_12186_">
			<line fill="none" x1="594.2" y1="385.2" x2="651.1" y2="385.2"/>
		</g>
		<g id="LINE_12185_">
			<line fill="none" x1="651.1" y1="385.2" x2="651.1" y2="328.1"/>
		</g>
		<g id="LINE_12184_">
			<line fill="none" x1="651.1" y1="328.1" x2="594.2" y2="328.1"/>
		</g>
		<g id="LINE_12183_">
			<line fill="none" x1="594.2" y1="328.1" x2="594.2" y2="385.2"/>
		</g>
	</g>
	<g id="INSERT_1835_">
		<g id="LINE_12182_">
			<line fill="none" x1="2.1" y1="385.2" x2="68.3" y2="385.2"/>
		</g>
		<g id="LINE_12181_">
			<line fill="none" x1="68.3" y1="385.2" x2="68.3" y2="335.9"/>
		</g>
		<g id="LINE_12180_">
			<line fill="none" x1="68.3" y1="335.9" x2="2.1" y2="335.9"/>
		</g>
		<g id="LINE_12179_">
			<line fill="none" x1="2.1" y1="335.9" x2="2.1" y2="385.2"/>
		</g>
	</g>
	<g id="INSERT_1834_">
		<g id="LINE_12178_">
			<line fill="none" x1="90.4" y1="385.2" x2="170.7" y2="385.2"/>
		</g>
		<g id="LINE_12177_">
			<line fill="none" x1="170.7" y1="385.2" x2="170.7" y2="328.1"/>
		</g>
		<g id="LINE_12176_">
			<line fill="none" x1="170.7" y1="328.1" x2="90.4" y2="328.1"/>
		</g>
		<g id="LINE_12175_">
			<line fill="none" x1="90.4" y1="328.1" x2="90.4" y2="385.2"/>
		</g>
	</g>
	<g id="INSERT_1833_">
		<g id="LINE_12174_">
			<line fill="none" x1="90.4" y1="434.6" x2="170.7" y2="434.6"/>
		</g>
		<g id="LINE_12173_">
			<line fill="none" x1="170.7" y1="434.6" x2="170.7" y2="385.2"/>
		</g>
		<g id="LINE_12172_">
			<line fill="none" x1="170.7" y1="385.2" x2="90.4" y2="385.2"/>
		</g>
		<g id="LINE_12171_">
			<line fill="none" x1="90.4" y1="385.2" x2="90.4" y2="434.6"/>
		</g>
	</g>
	<g id="INSERT_1832_">
		<g id="LINE_12170_">
			<line fill="none" x1="2.1" y1="385.2" x2="2.1" y2="434.6"/>
		</g>
		<g id="LINE_12169_">
			<line fill="none" x1="2.1" y1="434.6" x2="90.4" y2="434.6"/>
		</g>
		<g id="LINE_12168_">
			<line fill="none" x1="90.4" y1="434.6" x2="90.4" y2="400.4"/>
		</g>
		<g id="LINE_12167_">
			<line fill="none" x1="68.2" y1="385.2" x2="2.1" y2="385.2"/>
		</g>
		<g id="LINE_12166_">
			<line fill="none" x1="90.4" y1="400.4" x2="68.2" y2="400.4"/>
		</g>
		<g id="LINE_12165_">
			<line fill="none" x1="68.2" y1="400.4" x2="68.2" y2="385.2"/>
		</g>
	</g>
	<g id="INSERT_1831_">
		<g id="LINE_12164_">
			<line fill="none" x1="2.1" y1="141.9" x2="2.1" y2="233.8"/>
		</g>
		<g id="LINE_12163_">
			<line fill="none" x1="2.1" y1="233.8" x2="68.3" y2="233.8"/>
		</g>
		<g id="LINE_12162_">
			<line fill="none" x1="68.3" y1="233.8" x2="68.3" y2="141.9"/>
		</g>
		<g id="LINE_12161_">
			<line fill="none" x1="68.3" y1="141.9" x2="2.1" y2="141.9"/>
		</g>
	</g>
	<g id="INSERT_1830_">
		<g id="LINE_12160_">
			<line fill="none" x1="90.4" y1="232.8" x2="90.4" y2="306.2"/>
		</g>
		<g id="LINE_12159_">
			<line fill="none" x1="90.4" y1="306.2" x2="132.4" y2="306.2"/>
		</g>
		<g id="LINE_12158_">
			<line fill="none" x1="132.4" y1="306.2" x2="132.4" y2="232.8"/>
		</g>
		<g id="LINE_12157_">
			<line fill="none" x1="132.4" y1="232.8" x2="90.4" y2="232.8"/>
		</g>
	</g>
	<g id="INSERT_1829_">
		<g id="LINE_12156_">
			<line fill="none" x1="174.7" y1="232.8" x2="174.7" y2="306.2"/>
		</g>
		<g id="LINE_12155_">
			<line fill="none" x1="174.7" y1="306.2" x2="222.4" y2="306.2"/>
		</g>
		<g id="LINE_12154_">
			<line fill="none" x1="222.4" y1="306.2" x2="222.4" y2="232.8"/>
		</g>
		<g id="LINE_12153_">
			<line fill="none" x1="222.4" y1="232.8" x2="174.7" y2="232.8"/>
		</g>
	</g>
	<g id="INSERT_1828_">
		<g id="LINE_12152_">
			<line fill="none" x1="132.4" y1="232.8" x2="132.4" y2="306.2"/>
		</g>
		<g id="LINE_12151_">
			<line fill="none" x1="132.4" y1="306.2" x2="174.7" y2="306.2"/>
		</g>
		<g id="LINE_12150_">
			<line fill="none" x1="174.7" y1="306.2" x2="174.7" y2="232.8"/>
		</g>
		<g id="LINE_12149_">
			<line fill="none" x1="174.7" y1="232.8" x2="132.4" y2="232.8"/>
		</g>
	</g>
	<g id="INSERT_1827_">
		<g id="LINE_12148_">
			<line fill="none" x1="222.4" y1="232.8" x2="222.4" y2="306.2"/>
		</g>
		<g id="LINE_12147_">
			<line fill="none" x1="222.4" y1="306.2" x2="268.2" y2="306.2"/>
		</g>
		<g id="LINE_12146_">
			<line fill="none" x1="268.2" y1="306.2" x2="268.2" y2="232.8"/>
		</g>
		<g id="LINE_12145_">
			<line fill="none" x1="268.2" y1="232.8" x2="222.4" y2="232.8"/>
		</g>
	</g>
	<g id="INSERT_1826_">
		<g id="LINE_12144_">
			<line fill="none" x1="268.2" y1="232.8" x2="268.2" y2="306.2"/>
		</g>
		<g id="LINE_12143_">
			<line fill="none" x1="268.2" y1="306.2" x2="314" y2="306.2"/>
		</g>
		<g id="LINE_12142_">
			<line fill="none" x1="314" y1="306.2" x2="314" y2="232.8"/>
		</g>
		<g id="LINE_12141_">
			<line fill="none" x1="314" y1="232.8" x2="268.2" y2="232.8"/>
		</g>
	</g>
	<g id="INSERT_1825_">
		<g id="LINE_12140_">
			<line fill="none" x1="314" y1="232.8" x2="314" y2="306.2"/>
		</g>
		<g id="LINE_12139_">
			<line fill="none" x1="314" y1="306.2" x2="360.9" y2="306.2"/>
		</g>
		<g id="LINE_12138_">
			<line fill="none" x1="360.9" y1="306.2" x2="360.9" y2="232.8"/>
		</g>
		<g id="LINE_12137_">
			<line fill="none" x1="360.9" y1="232.8" x2="314" y2="232.8"/>
		</g>
	</g>
	<g id="INSERT_1824_">
		<g id="LINE_12136_">
			<line fill="none" x1="360.9" y1="232.8" x2="360.9" y2="306.2"/>
		</g>
		<g id="LINE_12135_">
			<line fill="none" x1="360.9" y1="306.2" x2="407.9" y2="306.2"/>
		</g>
		<g id="LINE_12134_">
			<line fill="none" x1="407.9" y1="306.2" x2="407.9" y2="232.8"/>
		</g>
		<g id="LINE_12133_">
			<line fill="none" x1="407.9" y1="232.8" x2="360.9" y2="232.8"/>
		</g>
	</g>
	<g id="INSERT_1823_">
		<g id="LINE_12132_">
			<line fill="none" x1="407.9" y1="232.8" x2="407.9" y2="306.2"/>
		</g>
		<g id="LINE_12131_">
			<line fill="none" x1="407.9" y1="306.2" x2="451.4" y2="306.2"/>
		</g>
		<g id="LINE_12130_">
			<line fill="none" x1="451.4" y1="306.2" x2="451.4" y2="232.8"/>
		</g>
		<g id="LINE_12129_">
			<line fill="none" x1="451.4" y1="232.8" x2="407.9" y2="232.8"/>
		</g>
	</g>
	<g id="INSERT_1822_">
		<g id="LINE_12128_">
			<line fill="none" x1="451.4" y1="232.8" x2="451.4" y2="306.2"/>
		</g>
		<g id="LINE_12127_">
			<line fill="none" x1="451.4" y1="306.2" x2="495" y2="306.2"/>
		</g>
		<g id="LINE_12126_">
			<line fill="none" x1="495" y1="306.2" x2="495" y2="232.8"/>
		</g>
		<g id="LINE_12125_">
			<line fill="none" x1="495" y1="232.8" x2="451.4" y2="232.8"/>
		</g>
	</g>
	<g id="INSERT_1821_">
		<g id="LINE_12124_">
			<line fill="none" x1="495" y1="232.8" x2="495" y2="306.2"/>
		</g>
		<g id="LINE_12123_">
			<line fill="none" x1="495" y1="306.2" x2="543" y2="306.2"/>
		</g>
		<g id="LINE_12122_">
			<line fill="none" x1="543" y1="306.2" x2="543" y2="232.8"/>
		</g>
		<g id="LINE_12121_">
			<line fill="none" x1="543" y1="232.8" x2="495" y2="232.8"/>
		</g>
	</g>
	<g id="INSERT_1820_">
		<g id="LINE_12120_">
			<line fill="none" x1="543" y1="232.8" x2="543" y2="306.2"/>
		</g>
		<g id="LINE_12119_">
			<line fill="none" x1="543" y1="306.2" x2="591.1" y2="306.2"/>
		</g>
		<g id="LINE_12118_">
			<line fill="none" x1="591.1" y1="306.2" x2="591.1" y2="232.8"/>
		</g>
		<g id="LINE_12117_">
			<line fill="none" x1="591.1" y1="232.8" x2="543" y2="232.8"/>
		</g>
	</g>
	<g id="INSERT_1819_">
		<g id="LINE_12116_">
			<line fill="none" x1="591.1" y1="232.8" x2="591.1" y2="306.2"/>
		</g>
		<g id="LINE_12115_">
			<line fill="none" x1="591.1" y1="306.2" x2="651.1" y2="306.2"/>
		</g>
		<g id="LINE_12114_">
			<line fill="none" x1="651.1" y1="306.2" x2="651.1" y2="232.8"/>
		</g>
		<g id="LINE_12113_">
			<line fill="none" x1="651.1" y1="232.8" x2="591.1" y2="232.8"/>
		</g>
	</g>
	<g id="INSERT_1818_">
		<g id="LINE_12112_">
			<line fill="none" x1="567.9" y1="187.9" x2="567.9" y2="232.8"/>
		</g>
		<g id="LINE_12111_">
			<line fill="none" x1="567.9" y1="232.8" x2="651.1" y2="232.8"/>
		</g>
		<g id="LINE_12110_">
			<line fill="none" x1="651.1" y1="232.8" x2="651.1" y2="187.9"/>
		</g>
		<g id="LINE_12109_">
			<line fill="none" x1="651.1" y1="187.9" x2="567.9" y2="187.9"/>
		</g>
	</g>
	<g id="INSERT_1817_">
		<g id="LINE_12108_">
			<line fill="none" x1="567.9" y1="91.9" x2="567.9" y2="141.9"/>
		</g>
		<g id="LINE_12107_">
			<line fill="none" x1="567.9" y1="141.9" x2="651.1" y2="141.9"/>
		</g>
		<g id="LINE_12106_">
			<line fill="none" x1="651.1" y1="141.9" x2="651.1" y2="91.9"/>
		</g>
		<g id="LINE_12105_">
			<line fill="none" x1="651.1" y1="91.9" x2="567.9" y2="91.9"/>
		</g>
	</g>
	<g id="INSERT_1816_">
		<g id="LINE_12104_">
			<line fill="none" x1="567.9" y1="141.9" x2="567.9" y2="187.9"/>
		</g>
		<g id="LINE_12103_">
			<line fill="none" x1="567.9" y1="187.9" x2="651.1" y2="187.9"/>
		</g>
		<g id="LINE_12102_">
			<line fill="none" x1="651.1" y1="187.9" x2="651.1" y2="141.9"/>
		</g>
		<g id="LINE_12101_">
			<line fill="none" x1="651.1" y1="141.9" x2="567.9" y2="141.9"/>
		</g>
	</g>
	<g id="INSERT_1815_">
		<g id="LINE_12100_">
			<line fill="none" x1="673.2" y1="335.9" x2="673.2" y2="385.2"/>
		</g>
		<g id="LINE_12099_">
			<line fill="none" x1="673.2" y1="385.2" x2="739.4" y2="385.2"/>
		</g>
		<g id="LINE_12098_">
			<line fill="none" x1="739.4" y1="385.2" x2="739.4" y2="335.9"/>
		</g>
		<g id="LINE_12097_">
			<line fill="none" x1="739.4" y1="335.9" x2="673.2" y2="335.9"/>
		</g>
	</g>
	<g id="INSERT_1814_">
		<g id="LINE_12096_">
			<line fill="none" x1="673.2" y1="3.6" x2="673.2" y2="95.9"/>
		</g>
		<g id="LINE_12095_">
			<line fill="none" x1="673.2" y1="95.9" x2="739.4" y2="95.9"/>
		</g>
		<g id="LINE_12094_">
			<line fill="none" x1="739.4" y1="95.9" x2="739.4" y2="3.6"/>
		</g>
		<g id="LINE_12093_">
			<line fill="none" x1="739.4" y1="3.6" x2="673.2" y2="3.6"/>
		</g>
	</g>
	<g id="INSERT_1813_">
		<g id="LINE_12092_">
			<line fill="none" x1="630.7" y1="3.6" x2="630.7" y2="69.8"/>
		</g>
		<g id="LINE_12091_">
			<line fill="none" x1="630.7" y1="69.8" x2="673.2" y2="69.8"/>
		</g>
		<g id="LINE_12090_">
			<line fill="none" x1="673.2" y1="69.8" x2="673.2" y2="3.6"/>
		</g>
		<g id="LINE_12089_">
			<line fill="none" x1="673.2" y1="3.6" x2="630.7" y2="3.6"/>
		</g>
	</g>
	<g id="INSERT_1812_">
		<g id="LINE_12088_">
			<line fill="none" x1="739.2" y1="385.2" x2="739.2" y2="434.6"/>
		</g>
		<g id="LINE_12087_">
			<line fill="none" x1="739.2" y1="434.6" x2="651.1" y2="434.6"/>
		</g>
		<g id="LINE_12086_">
			<line fill="none" x1="651.1" y1="434.6" x2="651.1" y2="400.4"/>
		</g>
		<g id="LINE_12085_">
			<line fill="none" x1="673.2" y1="385.2" x2="739.2" y2="385.2"/>
		</g>
		<g id="LINE_12084_">
			<line fill="none" x1="651.1" y1="400.4" x2="673.2" y2="400.4"/>
		</g>
		<g id="LINE_12083_">
			<line fill="none" x1="673.2" y1="400.4" x2="673.2" y2="385.2"/>
		</g>
	</g>
	<g id="INSERT_1811_">
		<g id="LINE_12082_">
			<line fill="none" x1="594.2" y1="385.2" x2="651.1" y2="385.2"/>
		</g>
		<g id="LINE_12081_">
			<line fill="none" x1="651.1" y1="385.2" x2="651.1" y2="434.2"/>
		</g>
		<g id="LINE_12080_">
			<line fill="none" x1="651.1" y1="434.2" x2="594.2" y2="434.2"/>
		</g>
		<g id="LINE_12079_">
			<line fill="none" x1="594.2" y1="434.2" x2="594.2" y2="385.2"/>
		</g>
	</g>
	<g id="INSERT_1810_">
		<g id="LINE_12078_">
			<line fill="none" x1="451.4" y1="141.5" x2="451.4" y2="210.2"/>
		</g>
		<g id="LINE_12077_">
			<line fill="none" x1="451.4" y1="210.2" x2="495" y2="210.2"/>
		</g>
		<g id="LINE_12076_">
			<line fill="none" x1="495" y1="210.2" x2="495" y2="141.5"/>
		</g>
		<g id="LINE_12075_">
			<line fill="none" x1="495" y1="141.5" x2="451.4" y2="141.5"/>
		</g>
	</g>
</g>
</svg>
